<svg xmlns="http://www.w3.org/2000/svg" xmlns:xlink="http://www.w3.org/1999/xlink" width="500" zoomAndPan="magnify" viewBox="0 0 375 374.999991" height="500" preserveAspectRatio="xMidYMid meet" version="1.0"><defs><clipPath id="241882b2a0"><path d="M 335.292969 168.882812 L 374.996094 168.882812 L 374.996094 208.585938 L 335.292969 208.585938 Z M 335.292969 168.882812 " clip-rule="nonzero"/></clipPath><clipPath id="ea2ba5e2dd"><path d="M 355.144531 168.882812 C 344.179688 168.882812 335.292969 177.773438 335.292969 188.734375 C 335.292969 199.699219 344.179688 208.585938 355.144531 208.585938 C 366.109375 208.585938 374.996094 199.699219 374.996094 188.734375 C 374.996094 177.773438 366.109375 168.882812 355.144531 168.882812 Z M 355.144531 168.882812 " clip-rule="nonzero"/></clipPath><clipPath id="2f62f8af67"><path d="M 266.621094 207.316406 L 306.324219 207.316406 L 306.324219 247.019531 L 266.621094 247.019531 Z M 266.621094 207.316406 " clip-rule="nonzero"/></clipPath><clipPath id="4a144096fb"><path d="M 286.472656 207.316406 C 275.511719 207.316406 266.621094 216.207031 266.621094 227.167969 C 266.621094 238.132812 275.511719 247.019531 286.472656 247.019531 C 297.4375 247.019531 306.324219 238.132812 306.324219 227.167969 C 306.324219 216.207031 297.4375 207.316406 286.472656 207.316406 Z M 286.472656 207.316406 " clip-rule="nonzero"/></clipPath><clipPath id="b0ac245151"><path d="M 289.277344 133.65625 L 328.980469 133.65625 L 328.980469 173.359375 L 289.277344 173.359375 Z M 289.277344 133.65625 " clip-rule="nonzero"/></clipPath><clipPath id="f21956ffdb"><path d="M 309.128906 133.65625 C 298.164062 133.65625 289.277344 142.542969 289.277344 153.507812 C 289.277344 164.46875 298.164062 173.359375 309.128906 173.359375 C 320.089844 173.359375 328.980469 164.46875 328.980469 153.507812 C 328.980469 142.542969 320.089844 133.65625 309.128906 133.65625 Z M 309.128906 133.65625 " clip-rule="nonzero"/></clipPath><clipPath id="c3bb3eda08"><path d="M 0 71 L 216 71 L 216 304.175781 L 0 304.175781 Z M 0 71 " clip-rule="nonzero"/></clipPath></defs><g clip-path="url(#241882b2a0)"><g clip-path="url(#ea2ba5e2dd)"><path stroke-linecap="butt" transform="matrix(0.75, 0, 0, 0.75, 335.292258, 168.884579)" fill="none" stroke-linejoin="miter" d="M 26.469699 -0.00235468 C 11.849906 -0.00235468 0.000947023 11.851813 0.000947023 26.466397 C 0.000947023 41.08619 11.849906 52.935149 26.469699 52.935149 C 41.089491 52.935149 52.93845 41.08619 52.93845 26.466397 C 52.93845 11.851813 41.089491 -0.00235468 26.469699 -0.00235468 Z M 26.469699 -0.00235468 " stroke="#ff9e18" stroke-width="20" stroke-opacity="1" stroke-miterlimit="4"/></g></g><path stroke-linecap="butt" transform="matrix(0.75, 0.000000000000000394, -0.000000000000000394, 0.75, 210.546406, 147.508819)" fill="none" stroke-linejoin="miter" d="M 0.000625501 7.998658 L 108.083966 7.998658 " stroke="#002169" stroke-width="16" stroke-opacity="1" stroke-miterlimit="4"/><path stroke-linecap="butt" transform="matrix(0.75, 0, 0, 0.75, 208.214948, 182.738426)" fill="none" stroke-linejoin="miter" d="M -0.000138503 7.999807 L 176.04154 7.999807 " stroke="#002169" stroke-width="16" stroke-opacity="1" stroke-miterlimit="4"/><path stroke-linecap="butt" transform="matrix(0.75, 0, 0, 0.75, 208.214948, 221.471997)" fill="none" stroke-linejoin="miter" d="M -0.000138503 8.000879 L 82.541534 8.000879 " stroke="#002169" stroke-width="16" stroke-opacity="1" stroke-miterlimit="4"/><g clip-path="url(#2f62f8af67)"><g clip-path="url(#4a144096fb)"><path stroke-linecap="butt" transform="matrix(0.75, 0, 0, 0.75, 266.622409, 207.317506)" fill="none" stroke-linejoin="miter" d="M 26.466998 -0.00146685 C 11.852413 -0.00146685 -0.00175419 11.852701 -0.00175419 26.467285 C -0.00175419 41.087078 11.852413 52.936037 26.466998 52.936037 C 41.08679 52.936037 52.935749 41.087078 52.935749 26.467285 C 52.935749 11.852701 41.08679 -0.00146685 26.466998 -0.00146685 Z M 26.466998 -0.00146685 " stroke="#ff9e18" stroke-width="20" stroke-opacity="1" stroke-miterlimit="4"/></g></g><g clip-path="url(#b0ac245151)"><g clip-path="url(#f21956ffdb)"><path stroke-linecap="butt" transform="matrix(0.75, 0, 0, 0.75, 289.275982, 133.654971)" fill="none" stroke-linejoin="miter" d="M 26.470568 0.00170504 C 11.850775 0.00170504 0.00181633 11.850664 0.00181633 26.470457 C 0.00181633 41.085041 11.850775 52.939209 26.470568 52.939209 C 41.085152 52.939209 52.93932 41.085041 52.93932 26.470457 C 52.93932 11.850664 41.085152 0.00170504 26.470568 0.00170504 Z M 26.470568 0.00170504 " stroke="#ff9e18" stroke-width="20" stroke-opacity="1" stroke-miterlimit="4"/></g></g><g clip-path="url(#c3bb3eda08)"><path fill="#002169" d="M 208.921875 102.125 L 184.925781 78.132812 C 180.519531 73.722656 174.667969 71.265625 168.480469 71.265625 L 22.914062 71.265625 C 10.027344 71.265625 -0.402344 81.695312 -0.402344 94.578125 L -0.402344 281.09375 C -0.402344 293.980469 10.027344 304.410156 22.914062 304.410156 L 192.472656 304.410156 C 205.359375 304.410156 215.789062 293.980469 215.789062 281.09375 L 215.789062 118.65625 C 215.789062 112.46875 213.328125 106.535156 208.921875 102.210938 Z M 152.203125 84.066406 L 152.203125 137.054688 C 152.203125 138.242188 151.269531 139.175781 150.082031 139.175781 L 65.304688 139.175781 C 64.117188 139.175781 63.183594 138.242188 63.183594 137.054688 L 63.183594 84.066406 Z M 54.707031 291.777344 L 54.707031 204.878906 C 54.707031 203.691406 55.636719 202.757812 56.824219 202.757812 L 158.5625 202.757812 C 159.75 202.757812 160.679688 203.691406 160.679688 204.878906 L 160.679688 291.777344 Z M 203.070312 281.179688 C 203.070312 287.03125 198.324219 291.777344 192.472656 291.777344 L 173.398438 291.777344 L 173.398438 204.878906 C 173.398438 196.738281 166.699219 190.042969 158.5625 190.042969 L 56.824219 190.042969 C 48.6875 190.042969 41.988281 196.738281 41.988281 204.878906 L 41.988281 291.777344 L 22.914062 291.777344 C 17.0625 291.777344 12.316406 287.03125 12.316406 281.179688 L 12.316406 94.664062 C 12.316406 88.816406 17.0625 84.066406 22.914062 84.066406 L 50.46875 84.066406 L 50.46875 137.054688 C 50.46875 145.195312 57.164062 151.890625 65.304688 151.890625 L 150.082031 151.890625 C 158.222656 151.890625 164.917969 145.195312 164.917969 137.054688 L 164.917969 84.066406 L 168.480469 84.066406 C 171.277344 84.066406 173.992188 85.167969 175.941406 87.203125 L 199.933594 111.195312 C 201.96875 113.230469 203.070312 115.859375 203.070312 118.65625 Z M 139.484375 234.550781 C 139.484375 238.027344 136.601562 240.910156 133.128906 240.910156 L 82.257812 240.910156 C 78.785156 240.910156 75.902344 238.027344 75.902344 234.550781 C 75.902344 231.074219 78.785156 228.191406 82.257812 228.191406 L 133.128906 228.191406 C 136.601562 228.191406 139.484375 231.074219 139.484375 234.550781 Z M 139.484375 259.984375 C 139.484375 263.460938 136.601562 266.34375 133.128906 266.34375 L 82.257812 266.34375 C 78.785156 266.34375 75.902344 263.460938 75.902344 259.984375 C 75.902344 256.507812 78.785156 253.625 82.257812 253.625 L 133.128906 253.625 C 136.601562 253.625 139.484375 256.507812 139.484375 259.984375 Z M 139.484375 259.984375 " fill-opacity="1" fill-rule="nonzero"/></g></svg>