<?xml version="1.0" encoding="UTF-8" standalone="no"?>
<!-- Created with Inkscape (http://www.inkscape.org/) -->

<svg
   width="132.29167mm"
   height="49.609375mm"
   viewBox="0 0 132.29167 49.609375"
   version="1.1"
   id="svg1"
   inkscape:version="1.4 (e7c3feb100, 2024-10-09)"
   sodipodi:docname="ccpnc_logo_jks.svg"
   xmlns:inkscape="http://www.inkscape.org/namespaces/inkscape"
   xmlns:sodipodi="http://sodipodi.sourceforge.net/DTD/sodipodi-0.dtd"
   xmlns="http://www.w3.org/2000/svg"
   xmlns:svg="http://www.w3.org/2000/svg">
  <sodipodi:namedview
     id="namedview1"
     pagecolor="#505050"
     bordercolor="#eeeeee"
     borderopacity="1"
     inkscape:showpageshadow="0"
     inkscape:pageopacity="0"
     inkscape:pagecheckerboard="0"
     inkscape:deskcolor="#505050"
     inkscape:document-units="mm"
     inkscape:zoom="1.5118276"
     inkscape:cx="142.87343"
     inkscape:cy="95.57968"
     inkscape:window-width="1920"
     inkscape:window-height="1011"
     inkscape:window-x="0"
     inkscape:window-y="0"
     inkscape:window-maximized="1"
     inkscape:current-layer="layer1" />
  <defs
     id="defs1">
    <clipPath
       id="3ede70c999">
      <path
         d="m 0,117.1875 h 375 v 140.625 H 0 Z m 0,0"
         clip-rule="nonzero"
         id="path1" />
    </clipPath>
    <clipPath
       id="b055e3acf0">
      <path
         d="m 7.5,117.1875 h 360 c 1.98828,0 3.89844,0.78906 5.30469,2.19531 1.40625,1.40625 2.19531,3.31641 2.19531,5.30469 v 125.625 c 0,1.98828 -0.78906,3.89844 -2.19531,5.30469 -1.40625,1.40625 -3.31641,2.19531 -5.30469,2.19531 H 7.5 c -1.988281,0 -3.898438,-0.78906 -5.304688,-2.19531 C 0.789062,254.21094 0,252.30078 0,250.3125 v -125.625 c 0,-1.98828 0.789062,-3.89844 2.195312,-5.30469 C 3.601562,117.97656 5.511719,117.1875 7.5,117.1875 Z m 0,0"
         clip-rule="nonzero"
         id="path2" />
    </clipPath>
  </defs>
  <g
     inkscape:label="Layer 1"
     inkscape:groupmode="layer"
     id="layer1"
     transform="translate(-57.928553,-49.836853)">
    <g
       clip-path="url(#3ede70c999)"
       id="g5"
       transform="matrix(0.35277778,0,0,0.35277778,57.928553,8.4957071)">
      <g
         clip-path="url(#b055e3acf0)"
         id="g4">
        <path
           fill="#002169"
           d="m 0,117.1875 h 375.18359 v 140.625 H 0 Z m 0,0"
           fill-opacity="1"
           fill-rule="nonzero"
           id="path4" />
      </g>
    </g>
    <g
       fill="#ffffff"
       fill-opacity="1"
       id="g9"
       transform="matrix(0.35277778,0,0,0.35277778,57.928553,8.4957071)">
      <g
         transform="translate(134.30504,188.45871)"
         id="g8">
        <g
           id="g7">
          <path
             d="m 29.3125,-37.578125 c -0.492188,-0.851563 -2.328125,-1.28125 -5.515625,-1.28125 -4.167969,0 -7.328125,1.414063 -9.484375,4.234375 -2.148438,2.824219 -3.21875,6.902344 -3.21875,12.234375 0,11.074219 4.144531,16.609375 12.4375,16.609375 0.132812,0 0.726562,0 1.78125,0 1.050781,0 2.046875,-0.144531 2.984375,-0.4375 0.945313,-0.289062 1.507813,-0.59375 1.6875,-0.90625 C 30.160156,-7.4375 30.25,-7.929688 30.25,-8.609375 v -5.375 l 6.859375,0.46875 V -1.875 c -3.492187,1.8359375 -7.929687,2.75 -13.3125,2.75 C 16.941406,0.875 11.707031,-1.050781 8.09375,-4.90625 4.488281,-8.757812 2.6875,-14.5 2.6875,-22.125 c 0,-4.207031 0.601562,-7.878906 1.8125,-11.015625 1.207031,-3.144531 2.84375,-5.585937 4.90625,-7.328125 4.039062,-3.363281 8.835938,-5.046875 14.390625,-5.046875 4.488281,0 8.703125,0.917969 12.640625,2.75 v 11.4375 l -6.859375,0.46875 v -5.25 c 0,-0.664063 -0.08984,-1.15625 -0.265625,-1.46875 z m 0,0"
             id="path6" />
        </g>
      </g>
    </g>
    <g
       fill="#ffffff"
       fill-opacity="1"
       id="g12"
       transform="matrix(0.35277778,0,0,0.35277778,57.928553,8.4957071)">
      <g
         transform="translate(174.77778,188.45871)"
         id="g11">
        <g
           id="g10">
          <path
             d="m 29.3125,-37.578125 c -0.492188,-0.851563 -2.328125,-1.28125 -5.515625,-1.28125 -4.167969,0 -7.328125,1.414063 -9.484375,4.234375 -2.148438,2.824219 -3.21875,6.902344 -3.21875,12.234375 0,11.074219 4.144531,16.609375 12.4375,16.609375 0.132812,0 0.726562,0 1.78125,0 1.050781,0 2.046875,-0.144531 2.984375,-0.4375 0.945313,-0.289062 1.507813,-0.59375 1.6875,-0.90625 C 30.160156,-7.4375 30.25,-7.929688 30.25,-8.609375 v -5.375 l 6.859375,0.46875 V -1.875 c -3.492187,1.8359375 -7.929687,2.75 -13.3125,2.75 C 16.941406,0.875 11.707031,-1.050781 8.09375,-4.90625 4.488281,-8.757812 2.6875,-14.5 2.6875,-22.125 c 0,-4.207031 0.601562,-7.878906 1.8125,-11.015625 1.207031,-3.144531 2.84375,-5.585937 4.90625,-7.328125 4.039062,-3.363281 8.835938,-5.046875 14.390625,-5.046875 4.488281,0 8.703125,0.917969 12.640625,2.75 v 11.4375 l -6.859375,0.46875 v -5.25 c 0,-0.664063 -0.08984,-1.15625 -0.265625,-1.46875 z m 0,0"
             id="path9" />
        </g>
      </g>
    </g>
    <g
       fill="#ffffff"
       fill-opacity="1"
       id="g15"
       transform="matrix(0.35277778,0,0,0.35277778,57.928553,8.4957071)">
      <g
         transform="translate(215.25052,188.45871)"
         id="g14">
        <g
           id="g13">
          <path
             d="M 2.15625,0 V -5.453125 L 4.375,-5.640625 C 5.664062,-5.773438 6.3125,-6.40625 6.3125,-7.53125 V -38.796875 L 2.484375,-39 v -5.703125 H 21.71875 c 5.019531,0 8.929688,1.179687 11.734375,3.53125 2.800781,2.34375 4.203125,5.871094 4.203125,10.578125 0,4.710938 -1.59375,8.375 -4.78125,11 -3.179688,2.617188 -7.390625,3.921875 -12.640625,3.921875 h -5.71875 v 9.75 l 6.46875,0.203125 V 0 Z m 12.359375,-22.1875 h 4.84375 c 6.539063,0 9.8125,-2.664062 9.8125,-8 0,-3.226562 -0.839844,-5.367188 -2.515625,-6.421875 C 24.976562,-37.660156 22.300781,-38.1875 18.625,-38.1875 h -4.109375 z m 0,0"
             id="path12" />
        </g>
      </g>
    </g>
    <g
       fill="#ffffff"
       fill-opacity="1"
       id="g18"
       transform="matrix(0.35277778,0,0,0.35277778,57.928553,8.4957071)">
      <g
         transform="translate(254.91649,188.45871)"
         id="g17">
        <g
           id="g16">
          <path
             d="m 2.015625,-16.265625 v -6.1875 H 19.625 v 6.1875 z m 0,0"
             id="path15" />
        </g>
      </g>
    </g>
    <g
       fill="#ffffff"
       fill-opacity="1"
       id="g21"
       transform="matrix(0.35277778,0,0,0.35277778,57.928553,8.4957071)">
      <g
         transform="translate(276.5647,188.45871)"
         id="g20">
        <g
           id="g19">
          <path
             d="m 2.15625,0 v -5.453125 l 2.421875,-0.1875 C 5.734375,-5.734375 6.3125,-6.363281 6.3125,-7.53125 V -38.796875 L 2.484375,-39 v -5.703125 H 14.59375 L 33.609375,-13.84375 H 33.75 V -38.796875 L 29.3125,-39 v -5.703125 h 16.40625 v 5.4375 l -2.421875,0.203125 c -1.074219,0.09375 -1.609375,0.789062 -1.609375,2.078125 V 0 h -7.875 L 14.390625,-31.328125 H 14.25 v 25.40625 l 4.375,0.203125 V 0 Z m 0,0"
             id="path18" />
        </g>
      </g>
    </g>
    <g
       fill="#ffffff"
       fill-opacity="1"
       id="g24"
       transform="matrix(0.35277778,0,0,0.35277778,57.928553,8.4957071)">
      <g
         transform="translate(323.96217,188.45871)"
         id="g23">
        <g
           id="g22">
          <path
             d="m 29.3125,-37.578125 c -0.492188,-0.851563 -2.328125,-1.28125 -5.515625,-1.28125 -4.167969,0 -7.328125,1.414063 -9.484375,4.234375 -2.148438,2.824219 -3.21875,6.902344 -3.21875,12.234375 0,11.074219 4.144531,16.609375 12.4375,16.609375 0.132812,0 0.726562,0 1.78125,0 1.050781,0 2.046875,-0.144531 2.984375,-0.4375 0.945313,-0.289062 1.507813,-0.59375 1.6875,-0.90625 C 30.160156,-7.4375 30.25,-7.929688 30.25,-8.609375 v -5.375 l 6.859375,0.46875 V -1.875 c -3.492187,1.8359375 -7.929687,2.75 -13.3125,2.75 C 16.941406,0.875 11.707031,-1.050781 8.09375,-4.90625 4.488281,-8.757812 2.6875,-14.5 2.6875,-22.125 c 0,-4.207031 0.601562,-7.878906 1.8125,-11.015625 1.207031,-3.144531 2.84375,-5.585937 4.90625,-7.328125 4.039062,-3.363281 8.835938,-5.046875 14.390625,-5.046875 4.488281,0 8.703125,0.917969 12.640625,2.75 v 11.4375 l -6.859375,0.46875 v -5.25 c 0,-0.664063 -0.08984,-1.15625 -0.265625,-1.46875 z m 0,0"
             id="path21" />
        </g>
      </g>
    </g>
    <g
       fill="#ffffff"
       fill-opacity="1"
       id="g27"
       transform="matrix(0.35277778,0,0,0.35277778,57.928553,8.4957071)">
      <g
         transform="translate(140.30504,213.07896)"
         id="g26">
        <g
           id="g25">
          <path
             d="M 6.59375,-8.453125 C 6.476562,-8.648438 6.066406,-8.75 5.359375,-8.75 4.421875,-8.75 3.707031,-8.429688 3.21875,-7.796875 2.738281,-7.160156 2.5,-6.238281 2.5,-5.03125 c 0,2.492188 0.929688,3.734375 2.796875,3.734375 0.03125,0 0.160156,0 0.390625,0 0.238281,0 0.460938,-0.03125 0.671875,-0.09375 C 6.578125,-1.460938 6.707031,-1.53125 6.75,-1.59375 6.789062,-1.664062 6.8125,-1.78125 6.8125,-1.9375 v -1.203125 l 1.53125,0.09375 v 2.625 c -0.78125,0.41796875 -1.777344,0.625 -2.984375,0.625 -1.542969,0 -2.71875,-0.429687 -3.53125,-1.296875 -0.8125,-0.875 -1.21875,-2.164062 -1.21875,-3.875 0,-0.945312 0.132813,-1.773438 0.40625,-2.484375 0.269531,-0.707031 0.640625,-1.257813 1.109375,-1.65625 0.90625,-0.75 1.984375,-1.125 3.234375,-1.125 1,0 1.945313,0.203125 2.84375,0.609375 v 2.578125 L 6.65625,-6.9375 V -8.125 c 0,-0.144531 -0.023438,-0.253906 -0.0625,-0.328125 z m 0,0"
             id="path24" />
        </g>
      </g>
    </g>
    <g
       fill="#ffffff"
       fill-opacity="1"
       id="g30"
       transform="matrix(0.35277778,0,0,0.35277778,57.928553,8.4957071)">
      <g
         transform="translate(149.40555,213.07896)"
         id="g29">
        <g
           id="g28">
          <path
             d="m 3.984375,-1.109375 c 1.09375,0 1.640625,-0.882813 1.640625,-2.65625 C 5.625,-4.660156 5.5,-5.335938 5.25,-5.796875 5.007812,-6.265625 4.597656,-6.5 4.015625,-6.5 c -0.585937,0 -1.011719,0.226562 -1.28125,0.671875 -0.273437,0.4375 -0.40625,1.042969 -0.40625,1.8125 0,1.417969 0.257813,2.308594 0.78125,2.671875 0.238281,0.15625 0.53125,0.234375 0.875,0.234375 z M 0.5,-3.8125 c 0,-0.75 0.109375,-1.394531 0.328125,-1.9375 0.226563,-0.550781 0.523437,-0.972656 0.890625,-1.265625 0.71875,-0.539063 1.507812,-0.8125 2.375,-0.8125 0.601562,0 1.113281,0.101563 1.53125,0.296875 0.425781,0.1875 0.753906,0.414062 0.984375,0.671875 0.238281,0.261719 0.441406,0.636719 0.609375,1.125 0.164062,0.492187 0.25,1.0625 0.25,1.71875 0,1.398437 -0.339844,2.453125 -1.015625,3.171875 -0.679687,0.71875 -1.542969,1.078125 -2.59375,1.078125 -1.054687,0 -1.875,-0.335937 -2.46875,-1.015625 C 0.796875,-1.46875 0.5,-2.476562 0.5,-3.8125 Z m 0,0"
             id="path27" />
        </g>
      </g>
    </g>
    <g
       fill="#ffffff"
       fill-opacity="1"
       id="g33"
       transform="matrix(0.35277778,0,0,0.35277778,57.928553,8.4957071)">
      <g
         transform="translate(157.38738,213.07896)"
         id="g32">
        <g
           id="g31">
          <path
             d="M 3.203125,-10.78125 V -1.25 L 4.0625,-1.203125 V 0 H 0.46875 v -1.15625 l 0.5,-0.03125 c 0.289062,-0.03125 0.4375,-0.191406 0.4375,-0.484375 v -7.46875 c 0,-0.21875 -0.125,-0.335937 -0.375,-0.359375 L 0.5,-9.53125 v -1.25 z m 0,0"
             id="path30" />
        </g>
      </g>
    </g>
    <g
       fill="#ffffff"
       fill-opacity="1"
       id="g36"
       transform="matrix(0.35277778,0,0,0.35277778,57.928553,8.4957071)">
      <g
         transform="translate(161.89227,213.07896)"
         id="g35">
        <g
           id="g34">
          <path
             d="M 3.203125,-10.78125 V -1.25 L 4.0625,-1.203125 V 0 H 0.46875 v -1.15625 l 0.5,-0.03125 c 0.289062,-0.03125 0.4375,-0.191406 0.4375,-0.484375 v -7.46875 c 0,-0.21875 -0.125,-0.335937 -0.375,-0.359375 L 0.5,-9.53125 v -1.25 z m 0,0"
             id="path33" />
        </g>
      </g>
    </g>
    <g
       fill="#ffffff"
       fill-opacity="1"
       id="g39"
       transform="matrix(0.35277778,0,0,0.35277778,57.928553,8.4957071)">
      <g
         transform="translate(166.39717,213.07896)"
         id="g38">
        <g
           id="g37">
          <path
             d="m 7.296875,-7.3125 v 5.640625 c 0,0.15625 0.023437,0.265625 0.078125,0.328125 0.050781,0.0625 0.148438,0.101562 0.296875,0.109375 l 0.484375,0.03125 V 0 H 5.75 V -0.875 L 5.703125,-0.890625 c -0.5,0.730469 -1.195313,1.09375 -2.078125,1.09375 -1.023438,0 -1.78125,-0.328125 -2.28125,-0.984375 -0.492188,-0.65625 -0.734375,-1.554688 -0.734375,-2.703125 0,-1.363281 0.328125,-2.425781 0.984375,-3.1875 0.664062,-0.769531 1.664062,-1.15625 3,-1.15625 0.863281,0 1.765625,0.171875 2.703125,0.515625 z M 5.53125,-2.40625 v -3.921875 c -0.28125,-0.125 -0.667969,-0.1875 -1.15625,-0.1875 -0.679688,0 -1.167969,0.273437 -1.46875,0.8125 -0.304688,0.542969 -0.453125,1.261719 -0.453125,2.15625 0,1.636719 0.519531,2.453125 1.5625,2.453125 0.445313,0 0.8125,-0.128906 1.09375,-0.390625 C 5.390625,-1.753906 5.53125,-2.0625 5.53125,-2.40625 Z m 0,0"
             id="path36" />
        </g>
      </g>
    </g>
    <g
       fill="#ffffff"
       fill-opacity="1"
       id="g42"
       transform="matrix(0.35277778,0,0,0.35277778,57.928553,8.4957071)">
      <g
         transform="translate(174.96857,213.07896)"
         id="g41">
        <g
           id="g40">
          <path
             d="m 1.171875,-0.453125 v -8.6875 C 1.171875,-9.367188 1.039062,-9.488281 0.78125,-9.5 L 0.25,-9.53125 v -1.25 h 2.671875 v 3.578125 c 0.445313,-0.414063 1.054687,-0.625 1.828125,-0.625 0.945312,0 1.695312,0.324219 2.25,0.96875 0.550781,0.636719 0.828125,1.53125 0.828125,2.6875 0,2.917969 -1.21875,4.375 -3.65625,4.375 C 3.648438,0.203125 3.097656,0.132812 2.515625,0 1.941406,-0.125 1.492188,-0.273438 1.171875,-0.453125 Z m 1.75,-4.90625 V -1.4375 C 3.304688,-1.238281 3.75,-1.140625 4.25,-1.140625 c 1.144531,0 1.71875,-0.929687 1.71875,-2.796875 0,-1.695312 -0.5625,-2.546875 -1.6875,-2.546875 -0.367188,0 -0.683594,0.105469 -0.953125,0.3125 -0.273437,0.210937 -0.40625,0.480469 -0.40625,0.8125 z m 0,0"
             id="path39" />
        </g>
      </g>
    </g>
    <g
       fill="#ffffff"
       fill-opacity="1"
       id="g45"
       transform="matrix(0.35277778,0,0,0.35277778,57.928553,8.4957071)">
      <g
         transform="translate(183.37368,213.07896)"
         id="g44">
        <g
           id="g43">
          <path
             d="m 3.984375,-1.109375 c 1.09375,0 1.640625,-0.882813 1.640625,-2.65625 C 5.625,-4.660156 5.5,-5.335938 5.25,-5.796875 5.007812,-6.265625 4.597656,-6.5 4.015625,-6.5 c -0.585937,0 -1.011719,0.226562 -1.28125,0.671875 -0.273437,0.4375 -0.40625,1.042969 -0.40625,1.8125 0,1.417969 0.257813,2.308594 0.78125,2.671875 0.238281,0.15625 0.53125,0.234375 0.875,0.234375 z M 0.5,-3.8125 c 0,-0.75 0.109375,-1.394531 0.328125,-1.9375 0.226563,-0.550781 0.523437,-0.972656 0.890625,-1.265625 0.71875,-0.539063 1.507812,-0.8125 2.375,-0.8125 0.601562,0 1.113281,0.101563 1.53125,0.296875 0.425781,0.1875 0.753906,0.414062 0.984375,0.671875 0.238281,0.261719 0.441406,0.636719 0.609375,1.125 0.164062,0.492187 0.25,1.0625 0.25,1.71875 0,1.398437 -0.339844,2.453125 -1.015625,3.171875 -0.679687,0.71875 -1.542969,1.078125 -2.59375,1.078125 -1.054687,0 -1.875,-0.335937 -2.46875,-1.015625 C 0.796875,-1.46875 0.5,-2.476562 0.5,-3.8125 Z m 0,0"
             id="path42" />
        </g>
      </g>
    </g>
    <g
       fill="#ffffff"
       fill-opacity="1"
       id="g48"
       transform="matrix(0.35277778,0,0,0.35277778,57.928553,8.4957071)">
      <g
         transform="translate(191.35551,213.07896)"
         id="g47">
        <g
           id="g46">
          <path
             d="M 1.4375,-1.6875 V -5.890625 C 1.4375,-6.046875 1.40625,-6.15625 1.34375,-6.21875 1.289062,-6.289062 1.195312,-6.332031 1.0625,-6.34375 L 0.421875,-6.375 v -1.234375 h 2.5625 V -6.46875 C 3.160156,-6.863281 3.441406,-7.1875 3.828125,-7.4375 4.210938,-7.695312 4.65625,-7.828125 5.15625,-7.828125 c 0.5,0 0.972656,0.109375 1.421875,0.328125 v 2.25 l -1.40625,0.109375 V -5.84375 c 0,-0.195312 -0.054687,-0.320312 -0.15625,-0.375 -0.105469,-0.050781 -0.242187,-0.078125 -0.40625,-0.078125 -0.398437,0 -0.726563,0.148437 -0.984375,0.4375 -0.261719,0.28125 -0.390625,0.648437 -0.390625,1.09375 V -1.25 l 1.3125,0.0625 V 0 H 0.5 V -1.15625 L 1,-1.1875 C 1.144531,-1.207031 1.253906,-1.25 1.328125,-1.3125 1.398438,-1.382812 1.4375,-1.507812 1.4375,-1.6875 Z m 0,0"
             id="path45" />
        </g>
      </g>
    </g>
    <g
       fill="#ffffff"
       fill-opacity="1"
       id="g51"
       transform="matrix(0.35277778,0,0,0.35277778,57.928553,8.4957071)">
      <g
         transform="translate(198.33961,213.07896)"
         id="g50">
        <g
           id="g49">
          <path
             d="m 7.296875,-7.3125 v 5.640625 c 0,0.15625 0.023437,0.265625 0.078125,0.328125 0.050781,0.0625 0.148438,0.101562 0.296875,0.109375 l 0.484375,0.03125 V 0 H 5.75 V -0.875 L 5.703125,-0.890625 c -0.5,0.730469 -1.195313,1.09375 -2.078125,1.09375 -1.023438,0 -1.78125,-0.328125 -2.28125,-0.984375 -0.492188,-0.65625 -0.734375,-1.554688 -0.734375,-2.703125 0,-1.363281 0.328125,-2.425781 0.984375,-3.1875 0.664062,-0.769531 1.664062,-1.15625 3,-1.15625 0.863281,0 1.765625,0.171875 2.703125,0.515625 z M 5.53125,-2.40625 v -3.921875 c -0.28125,-0.125 -0.667969,-0.1875 -1.15625,-0.1875 -0.679688,0 -1.167969,0.273437 -1.46875,0.8125 -0.304688,0.542969 -0.453125,1.261719 -0.453125,2.15625 0,1.636719 0.519531,2.453125 1.5625,2.453125 0.445313,0 0.8125,-0.128906 1.09375,-0.390625 C 5.390625,-1.753906 5.53125,-2.0625 5.53125,-2.40625 Z m 0,0"
             id="path48" />
        </g>
      </g>
    </g>
    <g
       fill="#ffffff"
       fill-opacity="1"
       id="g54"
       transform="matrix(0.35277778,0,0,0.35277778,57.928553,8.4957071)">
      <g
         transform="translate(206.911,213.07896)"
         id="g53">
        <g
           id="g52">
          <path
             d="M 2.171875,-9.21875 H 3.15625 v 1.609375 H 5.171875 L 5.015625,-6.34375 H 3.15625 v 3.984375 c 0,0.449219 0.078125,0.761719 0.234375,0.9375 0.164063,0.167969 0.414063,0.25 0.75,0.25 0.34375,0 0.6875,-0.101563 1.03125,-0.3125 L 5.625,-0.3125 C 5.125,0.0390625 4.484375,0.21875 3.703125,0.21875 3.253906,0.21875 2.875,0.15625 2.5625,0.03125 2.25,-0.0820312 2.015625,-0.207031 1.859375,-0.34375 1.710938,-0.488281 1.597656,-0.695312 1.515625,-0.96875 1.429688,-1.238281 1.382812,-1.453125 1.375,-1.609375 1.363281,-1.765625 1.359375,-1.992188 1.359375,-2.296875 V -6.34375 H 0.28125 L 0.4375,-7.4375 c 0.476562,-0.039062 0.835938,-0.207031 1.078125,-0.5 0.238281,-0.300781 0.457031,-0.726562 0.65625,-1.28125 z m 0,0"
             id="path51" />
        </g>
      </g>
    </g>
    <g
       fill="#ffffff"
       fill-opacity="1"
       id="g57"
       transform="matrix(0.35277778,0,0,0.35277778,57.928553,8.4957071)">
      <g
         transform="translate(212.61015,213.07896)"
         id="g56">
        <g
           id="g55">
          <path
             d="M 3.234375,-7.609375 V -1.25 L 4.09375,-1.203125 V 0 H 0.5 V -1.15625 L 1,-1.1875 c 0.289062,-0.03125 0.4375,-0.191406 0.4375,-0.484375 v -4.21875 c 0,-0.164063 -0.03125,-0.28125 -0.09375,-0.34375 -0.054688,-0.0625 -0.148438,-0.09375 -0.28125,-0.09375 l -0.53125,-0.03125 v -1.25 z M 1.328125,-8.90625 c -0.210937,-0.207031 -0.3125,-0.472656 -0.3125,-0.796875 0,-0.320313 0.101563,-0.59375 0.3125,-0.8125 0.21875,-0.21875 0.492187,-0.328125 0.828125,-0.328125 0.34375,0 0.625,0.109375 0.84375,0.328125 0.21875,0.21875 0.328125,0.492187 0.328125,0.8125 0,0.324219 -0.109375,0.589844 -0.328125,0.796875 -0.21875,0.199219 -0.5,0.296875 -0.84375,0.296875 -0.335938,0 -0.609375,-0.097656 -0.828125,-0.296875 z m 0,0"
             id="path54" />
        </g>
      </g>
    </g>
    <g
       fill="#ffffff"
       fill-opacity="1"
       id="g60"
       transform="matrix(0.35277778,0,0,0.35277778,57.928553,8.4957071)">
      <g
         transform="translate(217.08481,213.07896)"
         id="g59">
        <g
           id="g58">
          <path
             d="m 5.09375,-7.609375 h 3.1875 v 1.1875 L 7.8125,-6.390625 C 7.613281,-6.378906 7.476562,-6.257812 7.40625,-6.03125 L 5.453125,0 h -2.3125 L 1.03125,-6.015625 C 0.976562,-6.160156 0.921875,-6.253906 0.859375,-6.296875 0.804688,-6.347656 0.71875,-6.378906 0.59375,-6.390625 l -0.4375,-0.03125 v -1.1875 h 3.546875 v 1.21875 L 2.78125,-6.359375 4.34375,-1.375 H 4.375 L 5.890625,-6.359375 5.09375,-6.390625 Z m 0,0"
             id="path57" />
        </g>
      </g>
    </g>
    <g
       fill="#ffffff"
       fill-opacity="1"
       id="g63"
       transform="matrix(0.35277778,0,0,0.35277778,57.928553,8.4957071)">
      <g
         transform="translate(225.52016,213.07896)"
         id="g62">
        <g
           id="g61">
          <path
             d="m 4.296875,-7.828125 c 0.757813,0 1.359375,0.183594 1.796875,0.546875 0.445312,0.367188 0.671875,0.882812 0.671875,1.546875 0,0.449219 -0.101563,0.84375 -0.296875,1.1875 -0.1875,0.335937 -0.421875,0.59375 -0.703125,0.78125 -0.28125,0.1875 -0.625,0.34375 -1.03125,0.46875 C 4.054688,-3.097656 3.296875,-3 2.453125,-3 c 0.03125,0.542969 0.195313,0.980469 0.5,1.3125 0.300781,0.324219 0.765625,0.484375 1.390625,0.484375 0.625,0 1.25,-0.222656 1.875,-0.671875 l 0.578125,1.21875 C 6.585938,-0.46875 6.242188,-0.273438 5.765625,-0.078125 5.285156,0.109375 4.738281,0.203125 4.125,0.203125 2.894531,0.203125 1.992188,-0.132812 1.421875,-0.8125 0.847656,-1.5 0.5625,-2.4375 0.5625,-3.625 c 0,-1.195312 0.328125,-2.195312 0.984375,-3 0.65625,-0.800781 1.570313,-1.203125 2.75,-1.203125 z M 3.609375,-4.375 C 3.972656,-4.445312 4.3125,-4.59375 4.625,-4.8125 c 0.3125,-0.226562 0.46875,-0.5 0.46875,-0.8125 0,-0.613281 -0.304688,-0.921875 -0.90625,-0.921875 -0.5625,0 -0.996094,0.226563 -1.296875,0.671875 -0.304687,0.449219 -0.46875,0.984375 -0.5,1.609375 C 2.835938,-4.273438 3.242188,-4.3125 3.609375,-4.375 Z m 0,0"
             id="path60" />
        </g>
      </g>
    </g>
    <g
       fill="#ffffff"
       fill-opacity="1"
       id="g69"
       transform="matrix(0.35277778,0,0,0.35277778,57.928553,8.4957071)">
      <g
         transform="translate(235.86026,213.07896)"
         id="g68">
        <g
           id="g67">
          <path
             d="M 6.59375,-8.453125 C 6.476562,-8.648438 6.066406,-8.75 5.359375,-8.75 4.421875,-8.75 3.707031,-8.429688 3.21875,-7.796875 2.738281,-7.160156 2.5,-6.238281 2.5,-5.03125 c 0,2.492188 0.929688,3.734375 2.796875,3.734375 0.03125,0 0.160156,0 0.390625,0 0.238281,0 0.460938,-0.03125 0.671875,-0.09375 C 6.578125,-1.460938 6.707031,-1.53125 6.75,-1.59375 6.789062,-1.664062 6.8125,-1.78125 6.8125,-1.9375 v -1.203125 l 1.53125,0.09375 v 2.625 c -0.78125,0.41796875 -1.777344,0.625 -2.984375,0.625 -1.542969,0 -2.71875,-0.429687 -3.53125,-1.296875 -0.8125,-0.875 -1.21875,-2.164062 -1.21875,-3.875 0,-0.945312 0.132813,-1.773438 0.40625,-2.484375 0.269531,-0.707031 0.640625,-1.257813 1.109375,-1.65625 0.90625,-0.75 1.984375,-1.125 3.234375,-1.125 1,0 1.945313,0.203125 2.84375,0.609375 v 2.578125 L 6.65625,-6.9375 V -8.125 c 0,-0.144531 -0.023438,-0.253906 -0.0625,-0.328125 z m 0,0"
             id="path66" />
        </g>
      </g>
    </g>
    <g
       fill="#ffffff"
       fill-opacity="1"
       id="g72"
       transform="matrix(0.35277778,0,0,0.35277778,57.928553,8.4957071)">
      <g
         transform="translate(244.96076,213.07896)"
         id="g71">
        <g
           id="g70">
          <path
             d="m 3.984375,-1.109375 c 1.09375,0 1.640625,-0.882813 1.640625,-2.65625 C 5.625,-4.660156 5.5,-5.335938 5.25,-5.796875 5.007812,-6.265625 4.597656,-6.5 4.015625,-6.5 c -0.585937,0 -1.011719,0.226562 -1.28125,0.671875 -0.273437,0.4375 -0.40625,1.042969 -0.40625,1.8125 0,1.417969 0.257813,2.308594 0.78125,2.671875 0.238281,0.15625 0.53125,0.234375 0.875,0.234375 z M 0.5,-3.8125 c 0,-0.75 0.109375,-1.394531 0.328125,-1.9375 0.226563,-0.550781 0.523437,-0.972656 0.890625,-1.265625 0.71875,-0.539063 1.507812,-0.8125 2.375,-0.8125 0.601562,0 1.113281,0.101563 1.53125,0.296875 0.425781,0.1875 0.753906,0.414062 0.984375,0.671875 0.238281,0.261719 0.441406,0.636719 0.609375,1.125 0.164062,0.492187 0.25,1.0625 0.25,1.71875 0,1.398437 -0.339844,2.453125 -1.015625,3.171875 -0.679687,0.71875 -1.542969,1.078125 -2.59375,1.078125 -1.054687,0 -1.875,-0.335937 -2.46875,-1.015625 C 0.796875,-1.46875 0.5,-2.476562 0.5,-3.8125 Z m 0,0"
             id="path69" />
        </g>
      </g>
    </g>
    <g
       fill="#ffffff"
       fill-opacity="1"
       id="g75"
       transform="matrix(0.35277778,0,0,0.35277778,57.928553,8.4957071)">
      <g
         transform="translate(252.94259,213.07896)"
         id="g74">
        <g
           id="g73">
          <path
             d="m 0.40625,-6.375 v -1.234375 h 2.5625 V -6.625 c 0.5625,-0.800781 1.332031,-1.203125 2.3125,-1.203125 0.988281,0 1.65625,0.402344 2,1.203125 0.5625,-0.800781 1.328125,-1.203125 2.296875,-1.203125 0.71875,0 1.273437,0.21875 1.671875,0.65625 0.394531,0.4375 0.59375,1.09375 0.59375,1.96875 V -1.25 l 0.859375,0.046875 V 0 h -3.59375 v -1.15625 l 0.5,-0.03125 c 0.144531,-0.019531 0.25,-0.0625 0.3125,-0.125 0.070313,-0.070312 0.113281,-0.191406 0.125,-0.359375 V -4.8125 c 0,-0.550781 -0.0625,-0.957031 -0.1875,-1.21875 C 9.734375,-6.300781 9.4375,-6.4375 8.96875,-6.4375 c -0.46875,0 -0.828125,0.140625 -1.078125,0.421875 -0.242187,0.28125 -0.359375,0.65625 -0.359375,1.125 V -1.25 l 0.828125,0.046875 V 0 h -3.5625 v -1.15625 l 0.5,-0.03125 C 5.441406,-1.207031 5.550781,-1.25 5.625,-1.3125 5.695312,-1.382812 5.734375,-1.507812 5.734375,-1.6875 v -3.125 c 0,-0.550781 -0.0625,-0.957031 -0.1875,-1.21875 C 5.421875,-6.300781 5.125,-6.4375 4.65625,-6.4375 4.1875,-6.4375 3.828125,-6.289062 3.578125,-6 3.335938,-5.707031 3.21875,-5.347656 3.21875,-4.921875 V -1.25 l 0.8125,0.046875 V 0 h -3.5625 v -1.15625 l 0.5,-0.03125 C 1.113281,-1.207031 1.222656,-1.25 1.296875,-1.3125 1.367188,-1.382812 1.40625,-1.507812 1.40625,-1.6875 H 1.421875 V -5.875 c 0,-0.164062 -0.03125,-0.28125 -0.09375,-0.34375 -0.054687,-0.070312 -0.148437,-0.113281 -0.28125,-0.125 z m 0,0"
             id="path72" />
        </g>
      </g>
    </g>
    <g
       fill="#ffffff"
       fill-opacity="1"
       id="g78"
       transform="matrix(0.35277778,0,0,0.35277778,57.928553,8.4957071)">
      <g
         transform="translate(266.034,213.07896)"
         id="g77">
        <g
           id="g76">
          <path
             d="m 1.34375,1.4375 v -7.328125 c 0,-0.164063 -0.027344,-0.28125 -0.078125,-0.34375 C 1.210938,-6.304688 1.113281,-6.34375 0.96875,-6.34375 L 0.328125,-6.375 v -1.234375 h 2.5625 V -6.625 c 0.15625,-0.300781 0.445313,-0.578125 0.875,-0.828125 0.425781,-0.25 0.929687,-0.375 1.515625,-0.375 1.820312,0 2.734375,1.277344 2.734375,3.828125 0,1.367188 -0.296875,2.414062 -0.890625,3.140625 -0.59375,0.730469 -1.402344,1.09375 -2.421875,1.09375 -0.605469,0 -1.148437,-0.1523438 -1.625,-0.453125 V 1.875 L 4.3125,1.9375 V 3.125 H 0.40625 V 1.984375 l 0.5,-0.046875 C 1.0625,1.914062 1.171875,1.867188 1.234375,1.796875 1.304688,1.734375 1.34375,1.613281 1.34375,1.4375 Z m 4.796875,-5.28125 c 0,-1.6875 -0.511719,-2.53125 -1.53125,-2.53125 -0.417969,0 -0.777344,0.132812 -1.078125,0.390625 -0.304688,0.261719 -0.453125,0.570313 -0.453125,0.921875 v 3.46875 c 0.382813,0.261719 0.851563,0.390625 1.40625,0.390625 0.550781,0 0.960937,-0.25 1.234375,-0.75 C 6,-2.460938 6.140625,-3.09375 6.140625,-3.84375 Z m 0,0"
             id="path75" />
        </g>
      </g>
    </g>
    <g
       fill="#ffffff"
       fill-opacity="1"
       id="g81"
       transform="matrix(0.35277778,0,0,0.35277778,57.928553,8.4957071)">
      <g
         transform="translate(274.62052,213.07896)"
         id="g80">
        <g
           id="g79">
          <path
             d="M 8.515625,-1.1875 V 0 H 6.0625 v -0.984375 c -0.554688,0.792969 -1.371094,1.1875 -2.453125,1.1875 -1.5625,0 -2.34375,-0.875 -2.34375,-2.625 V -5.90625 c 0,-0.28125 -0.125,-0.425781 -0.375,-0.4375 L 0.40625,-6.375 V -7.609375 H 3.078125 V -2.8125 c 0,0.53125 0.070313,0.9375 0.21875,1.21875 0.15625,0.273438 0.46875,0.40625 0.9375,0.40625 0.476563,0 0.859375,-0.144531 1.140625,-0.4375 0.289062,-0.300781 0.4375,-0.65625 0.4375,-1.0625 V -5.890625 C 5.8125,-6.046875 5.78125,-6.15625 5.71875,-6.21875 5.664062,-6.289062 5.570312,-6.332031 5.4375,-6.34375 L 4.953125,-6.375 v -1.234375 h 2.65625 v 5.9375 c 0,0.15625 0.023437,0.265625 0.078125,0.328125 0.050781,0.054688 0.148438,0.089844 0.296875,0.109375 z m 0,0"
             id="path78" />
        </g>
      </g>
    </g>
    <g
       fill="#ffffff"
       fill-opacity="1"
       id="g84"
       transform="matrix(0.35277778,0,0,0.35277778,57.928553,8.4957071)">
      <g
         transform="translate(283.55473,213.07896)"
         id="g83">
        <g
           id="g82">
          <path
             d="M 2.171875,-9.21875 H 3.15625 v 1.609375 H 5.171875 L 5.015625,-6.34375 H 3.15625 v 3.984375 c 0,0.449219 0.078125,0.761719 0.234375,0.9375 0.164063,0.167969 0.414063,0.25 0.75,0.25 0.34375,0 0.6875,-0.101563 1.03125,-0.3125 L 5.625,-0.3125 C 5.125,0.0390625 4.484375,0.21875 3.703125,0.21875 3.253906,0.21875 2.875,0.15625 2.5625,0.03125 2.25,-0.0820312 2.015625,-0.207031 1.859375,-0.34375 1.710938,-0.488281 1.597656,-0.695312 1.515625,-0.96875 1.429688,-1.238281 1.382812,-1.453125 1.375,-1.609375 1.363281,-1.765625 1.359375,-1.992188 1.359375,-2.296875 V -6.34375 H 0.28125 L 0.4375,-7.4375 c 0.476562,-0.039062 0.835938,-0.207031 1.078125,-0.5 0.238281,-0.300781 0.457031,-0.726562 0.65625,-1.28125 z m 0,0"
             id="path81" />
        </g>
      </g>
    </g>
    <g
       fill="#ffffff"
       fill-opacity="1"
       id="g87"
       transform="matrix(0.35277778,0,0,0.35277778,57.928553,8.4957071)">
      <g
         transform="translate(289.25387,213.07896)"
         id="g86">
        <g
           id="g85">
          <path
             d="m 7.296875,-7.3125 v 5.640625 c 0,0.15625 0.023437,0.265625 0.078125,0.328125 0.050781,0.0625 0.148438,0.101562 0.296875,0.109375 l 0.484375,0.03125 V 0 H 5.75 V -0.875 L 5.703125,-0.890625 c -0.5,0.730469 -1.195313,1.09375 -2.078125,1.09375 -1.023438,0 -1.78125,-0.328125 -2.28125,-0.984375 -0.492188,-0.65625 -0.734375,-1.554688 -0.734375,-2.703125 0,-1.363281 0.328125,-2.425781 0.984375,-3.1875 0.664062,-0.769531 1.664062,-1.15625 3,-1.15625 0.863281,0 1.765625,0.171875 2.703125,0.515625 z M 5.53125,-2.40625 v -3.921875 c -0.28125,-0.125 -0.667969,-0.1875 -1.15625,-0.1875 -0.679688,0 -1.167969,0.273437 -1.46875,0.8125 -0.304688,0.542969 -0.453125,1.261719 -0.453125,2.15625 0,1.636719 0.519531,2.453125 1.5625,2.453125 0.445313,0 0.8125,-0.128906 1.09375,-0.390625 C 5.390625,-1.753906 5.53125,-2.0625 5.53125,-2.40625 Z m 0,0"
             id="path84" />
        </g>
      </g>
    </g>
    <g
       fill="#ffffff"
       fill-opacity="1"
       id="g90"
       transform="matrix(0.35277778,0,0,0.35277778,57.928553,8.4957071)">
      <g
         transform="translate(297.82527,213.07896)"
         id="g89">
        <g
           id="g88">
          <path
             d="M 2.171875,-9.21875 H 3.15625 v 1.609375 H 5.171875 L 5.015625,-6.34375 H 3.15625 v 3.984375 c 0,0.449219 0.078125,0.761719 0.234375,0.9375 0.164063,0.167969 0.414063,0.25 0.75,0.25 0.34375,0 0.6875,-0.101563 1.03125,-0.3125 L 5.625,-0.3125 C 5.125,0.0390625 4.484375,0.21875 3.703125,0.21875 3.253906,0.21875 2.875,0.15625 2.5625,0.03125 2.25,-0.0820312 2.015625,-0.207031 1.859375,-0.34375 1.710938,-0.488281 1.597656,-0.695312 1.515625,-0.96875 1.429688,-1.238281 1.382812,-1.453125 1.375,-1.609375 1.363281,-1.765625 1.359375,-1.992188 1.359375,-2.296875 V -6.34375 H 0.28125 L 0.4375,-7.4375 c 0.476562,-0.039062 0.835938,-0.207031 1.078125,-0.5 0.238281,-0.300781 0.457031,-0.726562 0.65625,-1.28125 z m 0,0"
             id="path87" />
        </g>
      </g>
    </g>
    <g
       fill="#ffffff"
       fill-opacity="1"
       id="g93"
       transform="matrix(0.35277778,0,0,0.35277778,57.928553,8.4957071)">
      <g
         transform="translate(303.52441,213.07896)"
         id="g92">
        <g
           id="g91">
          <path
             d="M 3.234375,-7.609375 V -1.25 L 4.09375,-1.203125 V 0 H 0.5 V -1.15625 L 1,-1.1875 c 0.289062,-0.03125 0.4375,-0.191406 0.4375,-0.484375 v -4.21875 c 0,-0.164063 -0.03125,-0.28125 -0.09375,-0.34375 -0.054688,-0.0625 -0.148438,-0.09375 -0.28125,-0.09375 l -0.53125,-0.03125 v -1.25 z M 1.328125,-8.90625 c -0.210937,-0.207031 -0.3125,-0.472656 -0.3125,-0.796875 0,-0.320313 0.101563,-0.59375 0.3125,-0.8125 0.21875,-0.21875 0.492187,-0.328125 0.828125,-0.328125 0.34375,0 0.625,0.109375 0.84375,0.328125 0.21875,0.21875 0.328125,0.492187 0.328125,0.8125 0,0.324219 -0.109375,0.589844 -0.328125,0.796875 -0.21875,0.199219 -0.5,0.296875 -0.84375,0.296875 -0.335938,0 -0.609375,-0.097656 -0.828125,-0.296875 z m 0,0"
             id="path90" />
        </g>
      </g>
    </g>
    <g
       fill="#ffffff"
       fill-opacity="1"
       id="g96"
       transform="matrix(0.35277778,0,0,0.35277778,57.928553,8.4957071)">
      <g
         transform="translate(307.99907,213.07896)"
         id="g95">
        <g
           id="g94">
          <path
             d="m 3.984375,-1.109375 c 1.09375,0 1.640625,-0.882813 1.640625,-2.65625 C 5.625,-4.660156 5.5,-5.335938 5.25,-5.796875 5.007812,-6.265625 4.597656,-6.5 4.015625,-6.5 c -0.585937,0 -1.011719,0.226562 -1.28125,0.671875 -0.273437,0.4375 -0.40625,1.042969 -0.40625,1.8125 0,1.417969 0.257813,2.308594 0.78125,2.671875 0.238281,0.15625 0.53125,0.234375 0.875,0.234375 z M 0.5,-3.8125 c 0,-0.75 0.109375,-1.394531 0.328125,-1.9375 0.226563,-0.550781 0.523437,-0.972656 0.890625,-1.265625 0.71875,-0.539063 1.507812,-0.8125 2.375,-0.8125 0.601562,0 1.113281,0.101563 1.53125,0.296875 0.425781,0.1875 0.753906,0.414062 0.984375,0.671875 0.238281,0.261719 0.441406,0.636719 0.609375,1.125 0.164062,0.492187 0.25,1.0625 0.25,1.71875 0,1.398437 -0.339844,2.453125 -1.015625,3.171875 -0.679687,0.71875 -1.542969,1.078125 -2.59375,1.078125 -1.054687,0 -1.875,-0.335937 -2.46875,-1.015625 C 0.796875,-1.46875 0.5,-2.476562 0.5,-3.8125 Z m 0,0"
             id="path93" />
        </g>
      </g>
    </g>
    <g
       fill="#ffffff"
       fill-opacity="1"
       id="g99"
       transform="matrix(0.35277778,0,0,0.35277778,57.928553,8.4957071)">
      <g
         transform="translate(315.9809,213.07896)"
         id="g98">
        <g
           id="g97">
          <path
             d="m 0.40625,-6.390625 v -1.21875 h 2.5625 V -6.625 C 3.226562,-7 3.570312,-7.289062 4,-7.5 c 0.4375,-0.21875 0.910156,-0.328125 1.421875,-0.328125 0.757813,0 1.347656,0.21875 1.765625,0.65625 0.414062,0.4375 0.625,1.09375 0.625,1.96875 V -1.25 l 0.875,0.046875 V 0 H 5.078125 v -1.15625 l 0.5,-0.03125 C 5.734375,-1.207031 5.84375,-1.25 5.90625,-1.3125 5.976562,-1.382812 6.015625,-1.507812 6.015625,-1.6875 v -3.125 C 6.015625,-5.363281 5.925781,-5.769531 5.75,-6.03125 5.582031,-6.300781 5.257812,-6.4375 4.78125,-6.4375 c -0.480469,0 -0.859375,0.152344 -1.140625,0.453125 -0.28125,0.304687 -0.421875,0.65625 -0.421875,1.0625 V -1.25 l 0.859375,0.046875 V 0 h -3.59375 v -1.15625 l 0.5,-0.03125 C 1.128906,-1.207031 1.238281,-1.25 1.3125,-1.3125 1.382812,-1.382812 1.421875,-1.507812 1.421875,-1.6875 v -4.203125 c 0,-0.300781 -0.125,-0.457031 -0.375,-0.46875 z m 0,0"
             id="path96" />
        </g>
      </g>
    </g>
    <g
       fill="#ffffff"
       fill-opacity="1"
       id="g102"
       transform="matrix(0.35277778,0,0,0.35277778,57.928553,8.4957071)">
      <g
         transform="translate(325.05117,213.07896)"
         id="g101">
        <g
           id="g100">
          <path
             d="m 7.296875,-7.3125 v 5.640625 c 0,0.15625 0.023437,0.265625 0.078125,0.328125 0.050781,0.0625 0.148438,0.101562 0.296875,0.109375 l 0.484375,0.03125 V 0 H 5.75 V -0.875 L 5.703125,-0.890625 c -0.5,0.730469 -1.195313,1.09375 -2.078125,1.09375 -1.023438,0 -1.78125,-0.328125 -2.28125,-0.984375 -0.492188,-0.65625 -0.734375,-1.554688 -0.734375,-2.703125 0,-1.363281 0.328125,-2.425781 0.984375,-3.1875 0.664062,-0.769531 1.664062,-1.15625 3,-1.15625 0.863281,0 1.765625,0.171875 2.703125,0.515625 z M 5.53125,-2.40625 v -3.921875 c -0.28125,-0.125 -0.667969,-0.1875 -1.15625,-0.1875 -0.679688,0 -1.167969,0.273437 -1.46875,0.8125 -0.304688,0.542969 -0.453125,1.261719 -0.453125,2.15625 0,1.636719 0.519531,2.453125 1.5625,2.453125 0.445313,0 0.8125,-0.128906 1.09375,-0.390625 C 5.390625,-1.753906 5.53125,-2.0625 5.53125,-2.40625 Z m 0,0"
             id="path99" />
        </g>
      </g>
    </g>
    <g
       fill="#ffffff"
       fill-opacity="1"
       id="g105"
       transform="matrix(0.35277778,0,0,0.35277778,57.928553,8.4957071)">
      <g
         transform="translate(333.62257,213.07896)"
         id="g104">
        <g
           id="g103">
          <path
             d="M 3.203125,-10.78125 V -1.25 L 4.0625,-1.203125 V 0 H 0.46875 v -1.15625 l 0.5,-0.03125 c 0.289062,-0.03125 0.4375,-0.191406 0.4375,-0.484375 v -7.46875 c 0,-0.21875 -0.125,-0.335937 -0.375,-0.359375 L 0.5,-9.53125 v -1.25 z m 0,0"
             id="path102" />
        </g>
      </g>
    </g>
    <g
       fill="#ffffff"
       fill-opacity="1"
       id="g111"
       transform="matrix(0.35277778,0,0,0.35277778,57.928553,8.4957071)">
      <g
         transform="translate(140.30504,234.07895)"
         id="g110">
        <g
           id="g109">
          <path
             d="m 0.484375,0 v -1.21875 l 0.5,-0.046875 c 0.289063,-0.03125 0.4375,-0.171875 0.4375,-0.421875 V -8.734375 L 0.5625,-8.765625 V -10.0625 h 4.328125 c 1.125,0 2,0.265625 2.625,0.796875 0.632813,0.53125 0.953125,1.328125 0.953125,2.390625 0,1.054688 -0.359375,1.875 -1.078125,2.46875 -0.710937,0.585938 -1.65625,0.875 -2.84375,0.875 h -1.28125 v 2.203125 L 4.71875,-1.28125 V 0 Z m 2.78125,-4.984375 h 1.09375 c 1.46875,0 2.203125,-0.601563 2.203125,-1.8125 C 6.5625,-7.515625 6.375,-7.992188 6,-8.234375 5.625,-8.472656 5.019531,-8.59375 4.1875,-8.59375 H 3.265625 Z m 0,0"
             id="path108" />
        </g>
      </g>
    </g>
    <g
       fill="#ffffff"
       fill-opacity="1"
       id="g114"
       transform="matrix(0.35277778,0,0,0.35277778,57.928553,8.4957071)">
      <g
         transform="translate(149.22413,234.07895)"
         id="g113">
        <g
           id="g112">
          <path
             d="M 1.4375,-1.6875 V -5.890625 C 1.4375,-6.046875 1.40625,-6.15625 1.34375,-6.21875 1.289062,-6.289062 1.195312,-6.332031 1.0625,-6.34375 L 0.421875,-6.375 v -1.234375 h 2.5625 V -6.46875 C 3.160156,-6.863281 3.441406,-7.1875 3.828125,-7.4375 4.210938,-7.695312 4.65625,-7.828125 5.15625,-7.828125 c 0.5,0 0.972656,0.109375 1.421875,0.328125 v 2.25 l -1.40625,0.109375 V -5.84375 c 0,-0.195312 -0.054687,-0.320312 -0.15625,-0.375 -0.105469,-0.050781 -0.242187,-0.078125 -0.40625,-0.078125 -0.398437,0 -0.726563,0.148437 -0.984375,0.4375 -0.261719,0.28125 -0.390625,0.648437 -0.390625,1.09375 V -1.25 l 1.3125,0.0625 V 0 H 0.5 V -1.15625 L 1,-1.1875 C 1.144531,-1.207031 1.253906,-1.25 1.328125,-1.3125 1.398438,-1.382812 1.4375,-1.507812 1.4375,-1.6875 Z m 0,0"
             id="path111" />
        </g>
      </g>
    </g>
    <g
       fill="#ffffff"
       fill-opacity="1"
       id="g117"
       transform="matrix(0.35277778,0,0,0.35277778,57.928553,8.4957071)">
      <g
         transform="translate(156.20823,234.07895)"
         id="g116">
        <g
           id="g115">
          <path
             d="m 3.984375,-1.109375 c 1.09375,0 1.640625,-0.882813 1.640625,-2.65625 C 5.625,-4.660156 5.5,-5.335938 5.25,-5.796875 5.007812,-6.265625 4.597656,-6.5 4.015625,-6.5 c -0.585937,0 -1.011719,0.226562 -1.28125,0.671875 -0.273437,0.4375 -0.40625,1.042969 -0.40625,1.8125 0,1.417969 0.257813,2.308594 0.78125,2.671875 0.238281,0.15625 0.53125,0.234375 0.875,0.234375 z M 0.5,-3.8125 c 0,-0.75 0.109375,-1.394531 0.328125,-1.9375 0.226563,-0.550781 0.523437,-0.972656 0.890625,-1.265625 0.71875,-0.539063 1.507812,-0.8125 2.375,-0.8125 0.601562,0 1.113281,0.101563 1.53125,0.296875 0.425781,0.1875 0.753906,0.414062 0.984375,0.671875 0.238281,0.261719 0.441406,0.636719 0.609375,1.125 0.164062,0.492187 0.25,1.0625 0.25,1.71875 0,1.398437 -0.339844,2.453125 -1.015625,3.171875 -0.679687,0.71875 -1.542969,1.078125 -2.59375,1.078125 -1.054687,0 -1.875,-0.335937 -2.46875,-1.015625 C 0.796875,-1.46875 0.5,-2.476562 0.5,-3.8125 Z m 0,0"
             id="path114" />
        </g>
      </g>
    </g>
    <g
       fill="#ffffff"
       fill-opacity="1"
       id="g120"
       transform="matrix(0.35277778,0,0,0.35277778,57.928553,8.4957071)">
      <g
         transform="translate(164.19006,234.07895)"
         id="g119">
        <g
           id="g118">
          <path
             d="m 3.140625,-7.609375 v 7.96875 c 0,0.8125 -0.132813,1.46875 -0.390625,1.96875 -0.335938,0.601563 -1.011719,0.90625 -2.03125,0.90625 -0.71875,0 -1.359375,-0.179687 -1.921875,-0.53125 l 0.53125,-1.25 c 0.398437,0.207031 0.7539062,0.3125 1.078125,0.3125 0.332031,0 0.570312,-0.101563 0.71875,-0.296875 C 1.269531,1.269531 1.34375,0.925781 1.34375,0.4375 v -6.328125 c 0,-0.15625 -0.027344,-0.265625 -0.078125,-0.328125 C 1.210938,-6.28125 1.113281,-6.316406 0.96875,-6.328125 L 0.4375,-6.359375 v -1.25 z M 1.234375,-8.90625 c -0.210937,-0.207031 -0.3125,-0.472656 -0.3125,-0.796875 0,-0.320313 0.101563,-0.59375 0.3125,-0.8125 0.21875,-0.21875 0.5,-0.328125 0.84375,-0.328125 0.34375,0 0.617187,0.109375 0.828125,0.328125 0.21875,0.21875 0.328125,0.492187 0.328125,0.8125 0,0.324219 -0.109375,0.589844 -0.328125,0.796875 -0.210938,0.199219 -0.484375,0.296875 -0.828125,0.296875 -0.34375,0 -0.625,-0.097656 -0.84375,-0.296875 z m 0,0"
             id="path117" />
        </g>
      </g>
    </g>
    <g
       fill="#ffffff"
       fill-opacity="1"
       id="g123"
       transform="matrix(0.35277778,0,0,0.35277778,57.928553,8.4957071)">
      <g
         transform="translate(168.46821,234.07895)"
         id="g122">
        <g
           id="g121">
          <path
             d="m 4.296875,-7.828125 c 0.757813,0 1.359375,0.183594 1.796875,0.546875 0.445312,0.367188 0.671875,0.882812 0.671875,1.546875 0,0.449219 -0.101563,0.84375 -0.296875,1.1875 -0.1875,0.335937 -0.421875,0.59375 -0.703125,0.78125 -0.28125,0.1875 -0.625,0.34375 -1.03125,0.46875 C 4.054688,-3.097656 3.296875,-3 2.453125,-3 c 0.03125,0.542969 0.195313,0.980469 0.5,1.3125 0.300781,0.324219 0.765625,0.484375 1.390625,0.484375 0.625,0 1.25,-0.222656 1.875,-0.671875 l 0.578125,1.21875 C 6.585938,-0.46875 6.242188,-0.273438 5.765625,-0.078125 5.285156,0.109375 4.738281,0.203125 4.125,0.203125 2.894531,0.203125 1.992188,-0.132812 1.421875,-0.8125 0.847656,-1.5 0.5625,-2.4375 0.5625,-3.625 c 0,-1.195312 0.328125,-2.195312 0.984375,-3 0.65625,-0.800781 1.570313,-1.203125 2.75,-1.203125 z M 3.609375,-4.375 C 3.972656,-4.445312 4.3125,-4.59375 4.625,-4.8125 c 0.3125,-0.226562 0.46875,-0.5 0.46875,-0.8125 0,-0.613281 -0.304688,-0.921875 -0.90625,-0.921875 -0.5625,0 -0.996094,0.226563 -1.296875,0.671875 -0.304687,0.449219 -0.46875,0.984375 -0.5,1.609375 C 2.835938,-4.273438 3.242188,-4.3125 3.609375,-4.375 Z m 0,0"
             id="path120" />
        </g>
      </g>
    </g>
    <g
       fill="#ffffff"
       fill-opacity="1"
       id="g126"
       transform="matrix(0.35277778,0,0,0.35277778,57.928553,8.4957071)">
      <g
         transform="translate(175.78488,234.07895)"
         id="g125">
        <g
           id="g124">
          <path
             d="m 2.328125,-3.890625 c 0,0.867187 0.160156,1.53125 0.484375,2 0.320312,0.46875 0.785156,0.703125 1.390625,0.703125 0.613281,0 1.21875,-0.210938 1.8125,-0.640625 l 0.65625,1.15625 C 5.953125,-0.078125 5.050781,0.21875 3.96875,0.21875 2.894531,0.21875 2.046875,-0.117188 1.421875,-0.796875 0.804688,-1.484375 0.5,-2.492188 0.5,-3.828125 c 0,-1.332031 0.351562,-2.332031 1.0625,-3 0.707031,-0.664063 1.507812,-1 2.40625,-1 0.894531,0 1.722656,0.203125 2.484375,0.609375 V -5.25 L 5.0625,-5.140625 V -5.875 c 0,-0.269531 -0.101562,-0.4375 -0.296875,-0.5 C 4.578125,-6.4375 4.375,-6.46875 4.15625,-6.46875 c -1.21875,0 -1.828125,0.859375 -1.828125,2.578125 z m 0,0"
             id="path123" />
        </g>
      </g>
    </g>
    <g
       fill="#ffffff"
       fill-opacity="1"
       id="g129"
       transform="matrix(0.35277778,0,0,0.35277778,57.928553,8.4957071)">
      <g
         transform="translate(182.90504,234.07895)"
         id="g128">
        <g
           id="g127">
          <path
             d="M 2.171875,-9.21875 H 3.15625 v 1.609375 H 5.171875 L 5.015625,-6.34375 H 3.15625 v 3.984375 c 0,0.449219 0.078125,0.761719 0.234375,0.9375 0.164063,0.167969 0.414063,0.25 0.75,0.25 0.34375,0 0.6875,-0.101563 1.03125,-0.3125 L 5.625,-0.3125 C 5.125,0.0390625 4.484375,0.21875 3.703125,0.21875 3.253906,0.21875 2.875,0.15625 2.5625,0.03125 2.25,-0.0820312 2.015625,-0.207031 1.859375,-0.34375 1.710938,-0.488281 1.597656,-0.695312 1.515625,-0.96875 1.429688,-1.238281 1.382812,-1.453125 1.375,-1.609375 1.363281,-1.765625 1.359375,-1.992188 1.359375,-2.296875 V -6.34375 H 0.28125 L 0.4375,-7.4375 c 0.476562,-0.039062 0.835938,-0.207031 1.078125,-0.5 0.238281,-0.300781 0.457031,-0.726562 0.65625,-1.28125 z m 0,0"
             id="path126" />
        </g>
      </g>
    </g>
    <g
       fill="#ffffff"
       fill-opacity="1"
       id="g135"
       transform="matrix(0.35277778,0,0,0.35277778,57.928553,8.4957071)">
      <g
         transform="translate(191.62761,234.07895)"
         id="g134">
        <g
           id="g133">
          <path
             d="M 1.453125,-1.6875 V -6.34375 H 0.15625 V -7.609375 H 1.453125 V -8.1875 c 0,-0.988281 0.222656,-1.695312 0.671875,-2.125 0.425781,-0.414062 1.046875,-0.625 1.859375,-0.625 0.820313,0 1.550781,0.179688 2.1875,0.53125 l -0.4375,1.203125 c -0.492187,-0.25 -0.949219,-0.375 -1.375,-0.375 -0.417969,0 -0.710937,0.105469 -0.875,0.3125 C 3.328125,-9.054688 3.25,-8.738281 3.25,-8.3125 v 0.703125 H 5.484375 V -6.34375 H 3.25 v 5.078125 l 1.265625,0.0625 V 0 h -4 v -1.15625 l 0.5,-0.03125 C 1.160156,-1.207031 1.269531,-1.25 1.34375,-1.3125 1.414062,-1.382812 1.453125,-1.507812 1.453125,-1.6875 Z m 0,0"
             id="path132" />
        </g>
      </g>
    </g>
    <g
       fill="#ffffff"
       fill-opacity="1"
       id="g138"
       transform="matrix(0.35277778,0,0,0.35277778,57.928553,8.4957071)">
      <g
         transform="translate(197.22095,234.07895)"
         id="g137">
        <g
           id="g136">
          <path
             d="m 3.984375,-1.109375 c 1.09375,0 1.640625,-0.882813 1.640625,-2.65625 C 5.625,-4.660156 5.5,-5.335938 5.25,-5.796875 5.007812,-6.265625 4.597656,-6.5 4.015625,-6.5 c -0.585937,0 -1.011719,0.226562 -1.28125,0.671875 -0.273437,0.4375 -0.40625,1.042969 -0.40625,1.8125 0,1.417969 0.257813,2.308594 0.78125,2.671875 0.238281,0.15625 0.53125,0.234375 0.875,0.234375 z M 0.5,-3.8125 c 0,-0.75 0.109375,-1.394531 0.328125,-1.9375 0.226563,-0.550781 0.523437,-0.972656 0.890625,-1.265625 0.71875,-0.539063 1.507812,-0.8125 2.375,-0.8125 0.601562,0 1.113281,0.101563 1.53125,0.296875 0.425781,0.1875 0.753906,0.414062 0.984375,0.671875 0.238281,0.261719 0.441406,0.636719 0.609375,1.125 0.164062,0.492187 0.25,1.0625 0.25,1.71875 0,1.398437 -0.339844,2.453125 -1.015625,3.171875 -0.679687,0.71875 -1.542969,1.078125 -2.59375,1.078125 -1.054687,0 -1.875,-0.335937 -2.46875,-1.015625 C 0.796875,-1.46875 0.5,-2.476562 0.5,-3.8125 Z m 0,0"
             id="path135" />
        </g>
      </g>
    </g>
    <g
       fill="#ffffff"
       fill-opacity="1"
       id="g141"
       transform="matrix(0.35277778,0,0,0.35277778,57.928553,8.4957071)">
      <g
         transform="translate(205.20278,234.07895)"
         id="g140">
        <g
           id="g139">
          <path
             d="M 1.4375,-1.6875 V -5.890625 C 1.4375,-6.046875 1.40625,-6.15625 1.34375,-6.21875 1.289062,-6.289062 1.195312,-6.332031 1.0625,-6.34375 L 0.421875,-6.375 v -1.234375 h 2.5625 V -6.46875 C 3.160156,-6.863281 3.441406,-7.1875 3.828125,-7.4375 4.210938,-7.695312 4.65625,-7.828125 5.15625,-7.828125 c 0.5,0 0.972656,0.109375 1.421875,0.328125 v 2.25 l -1.40625,0.109375 V -5.84375 c 0,-0.195312 -0.054687,-0.320312 -0.15625,-0.375 -0.105469,-0.050781 -0.242187,-0.078125 -0.40625,-0.078125 -0.398437,0 -0.726563,0.148437 -0.984375,0.4375 -0.261719,0.28125 -0.390625,0.648437 -0.390625,1.09375 V -1.25 l 1.3125,0.0625 V 0 H 0.5 V -1.15625 L 1,-1.1875 C 1.144531,-1.207031 1.253906,-1.25 1.328125,-1.3125 1.398438,-1.382812 1.4375,-1.507812 1.4375,-1.6875 Z m 0,0"
             id="path138" />
        </g>
      </g>
    </g>
    <g
       fill="#ffffff"
       fill-opacity="1"
       id="g147"
       transform="matrix(0.35277778,0,0,0.35277778,57.928553,8.4957071)">
      <g
         transform="translate(215.2103,234.07895)"
         id="g146">
        <g
           id="g145">
          <path
             d="M 0.484375,0 V -1.21875 L 1.03125,-1.265625 C 1.289062,-1.285156 1.421875,-1.425781 1.421875,-1.6875 V -8.734375 L 0.5625,-8.765625 V -10.0625 h 2.71875 l 4.28125,6.953125 h 0.03125 v -5.625 l -1,-0.03125 V -10.0625 h 3.6875 v 1.234375 L 9.734375,-8.78125 C 9.492188,-8.757812 9.375,-8.601562 9.375,-8.3125 V 0 H 7.609375 l -4.375,-7.046875 h -0.03125 v 5.71875 L 4.1875,-1.28125 V 0 Z m 0,0"
             id="path144" />
        </g>
      </g>
    </g>
    <g
       fill="#ffffff"
       fill-opacity="1"
       id="g150"
       transform="matrix(0.35277778,0,0,0.35277778,57.928553,8.4957071)">
      <g
         transform="translate(225.86787,234.07895)"
         id="g149">
        <g
           id="g148">
          <path
             d="m 3.75,-10.0625 2.578125,6.84375 h 0.03125 L 8.9375,-10.0625 h 3 v 1.234375 l -0.5,0.046875 C 11.132812,-8.757812 10.988281,-8.585938 11,-8.265625 l 0.375,6.9375 0.9375,0.046875 V 0 H 8.671875 V -1.21875 L 9.21875,-1.265625 C 9.488281,-1.285156 9.617188,-1.414062 9.609375,-1.65625 L 9.3125,-7 H 9.28125 l -2.328125,6.03125 h -1.4375 L 3.21875,-6.9375 H 3.1875 L 2.890625,-1.328125 3.875,-1.28125 V 0 H 0.296875 V -1.21875 L 0.84375,-1.265625 c 0.226562,-0.019531 0.351562,-0.15625 0.375,-0.40625 L 1.640625,-8.71875 0.703125,-8.765625 V -10.0625 Z m 0,0"
             id="path147" />
        </g>
      </g>
    </g>
    <g
       fill="#ffffff"
       fill-opacity="1"
       id="g153"
       transform="matrix(0.35277778,0,0,0.35277778,57.928553,8.4957071)">
      <g
         transform="translate(238.47553,234.07895)"
         id="g152">
        <g
           id="g151">
          <path
             d="m 0.484375,0 v -1.21875 l 0.5,-0.046875 c 0.289063,-0.03125 0.4375,-0.171875 0.4375,-0.421875 V -8.734375 L 0.5625,-8.765625 V -10.0625 h 4.125 c 1.164062,0 2.0625,0.21875 2.6875,0.65625 0.625,0.4375 0.9375,1.148438 0.9375,2.125 0,0.6875 -0.179688,1.257812 -0.53125,1.703125 C 7.425781,-5.140625 7,-4.816406 6.5,-4.609375 c 0.363281,0.125 0.648438,0.433594 0.859375,0.921875 l 1.09375,2.375 0.859375,0.03125 V 0 H 5.578125 v -1.21875 l 0.4375,-0.046875 C 6.253906,-1.296875 6.375,-1.390625 6.375,-1.546875 6.375,-1.609375 6.351562,-1.675781 6.3125,-1.75 L 5.59375,-3.265625 c -0.105469,-0.25 -0.230469,-0.425781 -0.375,-0.53125 C 5.082031,-3.910156 4.890625,-3.96875 4.640625,-3.96875 h -1.375 v 2.640625 L 4.25,-1.28125 V 0 Z m 2.78125,-5.40625 h 1.3125 c 1.238281,0 1.859375,-0.550781 1.859375,-1.65625 0,-0.632812 -0.167969,-1.046875 -0.5,-1.234375 C 5.613281,-8.492188 5.09375,-8.59375 4.375,-8.59375 H 3.265625 Z m 0,0"
             id="path150" />
        </g>
      </g>
    </g>
    <g
       fill="#ffffff"
       fill-opacity="1"
       id="g159"
       transform="matrix(0.35277778,0,0,0.35277778,57.928553,8.4957071)">
      <g
         transform="translate(250.96227,234.07895)"
         id="g158">
        <g
           id="g157">
          <path
             d="M 6.59375,-8.453125 C 6.476562,-8.648438 6.066406,-8.75 5.359375,-8.75 4.421875,-8.75 3.707031,-8.429688 3.21875,-7.796875 2.738281,-7.160156 2.5,-6.238281 2.5,-5.03125 c 0,2.492188 0.929688,3.734375 2.796875,3.734375 0.03125,0 0.160156,0 0.390625,0 0.238281,0 0.460938,-0.03125 0.671875,-0.09375 C 6.578125,-1.460938 6.707031,-1.53125 6.75,-1.59375 6.789062,-1.664062 6.8125,-1.78125 6.8125,-1.9375 v -1.203125 l 1.53125,0.09375 v 2.625 c -0.78125,0.41796875 -1.777344,0.625 -2.984375,0.625 -1.542969,0 -2.71875,-0.429687 -3.53125,-1.296875 -0.8125,-0.875 -1.21875,-2.164062 -1.21875,-3.875 0,-0.945312 0.132813,-1.773438 0.40625,-2.484375 0.269531,-0.707031 0.640625,-1.257813 1.109375,-1.65625 0.90625,-0.75 1.984375,-1.125 3.234375,-1.125 1,0 1.945313,0.203125 2.84375,0.609375 v 2.578125 L 6.65625,-6.9375 V -8.125 c 0,-0.144531 -0.023438,-0.253906 -0.0625,-0.328125 z m 0,0"
             id="path156" />
        </g>
      </g>
    </g>
    <g
       fill="#ffffff"
       fill-opacity="1"
       id="g162"
       transform="matrix(0.35277778,0,0,0.35277778,57.928553,8.4957071)">
      <g
         transform="translate(260.06278,234.07895)"
         id="g161">
        <g
           id="g160">
          <path
             d="M 1.4375,-1.6875 V -5.890625 C 1.4375,-6.046875 1.40625,-6.15625 1.34375,-6.21875 1.289062,-6.289062 1.195312,-6.332031 1.0625,-6.34375 L 0.421875,-6.375 v -1.234375 h 2.5625 V -6.46875 C 3.160156,-6.863281 3.441406,-7.1875 3.828125,-7.4375 4.210938,-7.695312 4.65625,-7.828125 5.15625,-7.828125 c 0.5,0 0.972656,0.109375 1.421875,0.328125 v 2.25 l -1.40625,0.109375 V -5.84375 c 0,-0.195312 -0.054687,-0.320312 -0.15625,-0.375 -0.105469,-0.050781 -0.242187,-0.078125 -0.40625,-0.078125 -0.398437,0 -0.726563,0.148437 -0.984375,0.4375 -0.261719,0.28125 -0.390625,0.648437 -0.390625,1.09375 V -1.25 l 1.3125,0.0625 V 0 H 0.5 V -1.15625 L 1,-1.1875 C 1.144531,-1.207031 1.253906,-1.25 1.328125,-1.3125 1.398438,-1.382812 1.4375,-1.507812 1.4375,-1.6875 Z m 0,0"
             id="path159" />
        </g>
      </g>
    </g>
    <g
       fill="#ffffff"
       fill-opacity="1"
       id="g165"
       transform="matrix(0.35277778,0,0,0.35277778,57.928553,8.4957071)">
      <g
         transform="translate(267.04688,234.07895)"
         id="g164">
        <g
           id="g163">
          <path
             d="M 6.0625,-0.28125 V -1.4375 C 5.507812,-0.644531 4.691406,-0.25 3.609375,-0.25 c -1.5625,0 -2.34375,-0.875 -2.34375,-2.625 v -3.03125 c 0,-0.28125 -0.125,-0.425781 -0.375,-0.4375 L 0.40625,-6.375 v -1.234375 h 2.671875 v 4.34375 c 0,0.53125 0.070313,0.933594 0.21875,1.203125 0.15625,0.273438 0.46875,0.40625 0.9375,0.40625 0.476563,0 0.859375,-0.144531 1.140625,-0.4375 0.289062,-0.289062 0.4375,-0.640625 0.4375,-1.046875 v -2.75 c 0,-0.164063 -0.03125,-0.28125 -0.09375,-0.34375 C 5.664062,-6.304688 5.570312,-6.34375 5.4375,-6.34375 L 4.953125,-6.375 v -1.234375 h 2.65625 v 7.328125 c 0,1.21875 -0.296875,2.109375 -0.890625,2.671875 -0.585938,0.5625 -1.476562,0.84375 -2.671875,0.84375 -1.199219,0 -2.132813,-0.167969 -2.796875,-0.5 v -2.09375 l 1.4375,-0.125 v 0.71875 c 0,0.28125 0.125,0.46875 0.375,0.5625 C 3.320312,1.890625 3.671875,1.9375 4.109375,1.9375 5.410156,1.9375 6.0625,1.195312 6.0625,-0.28125 Z m 0,0"
             id="path162" />
        </g>
      </g>
    </g>
    <g
       fill="#ffffff"
       fill-opacity="1"
       id="g168"
       transform="matrix(0.35277778,0,0,0.35277778,57.928553,8.4957071)">
      <g
         transform="translate(275.70898,234.07895)"
         id="g167">
        <g
           id="g166">
          <path
             d="m 4.46875,-6.453125 c -0.25,-0.09375 -0.546875,-0.140625 -0.890625,-0.140625 -0.335937,0 -0.605469,0.078125 -0.8125,0.234375 -0.210937,0.15625 -0.3125,0.351563 -0.3125,0.578125 0,0.230469 0.035156,0.40625 0.109375,0.53125 0.070312,0.125 0.191406,0.230469 0.359375,0.3125 0.25,0.136719 0.550781,0.25 0.90625,0.34375 C 4.179688,-4.5 4.441406,-4.421875 4.609375,-4.359375 4.785156,-4.304688 5,-4.210938 5.25,-4.078125 c 0.257812,0.125 0.457031,0.265625 0.59375,0.421875 0.351562,0.375 0.53125,0.855469 0.53125,1.4375 0,0.75 -0.277344,1.34375 -0.828125,1.78125 -0.554687,0.4296875 -1.25,0.640625 -2.09375,0.640625 -1.230469,0 -2.15625,-0.15625 -2.78125,-0.46875 V -2.375 L 2.03125,-2.484375 V -1.75 c 0,0.4375 0.421875,0.65625 1.265625,0.65625 0.84375,0 1.265625,-0.304688 1.265625,-0.921875 0,-0.21875 -0.074219,-0.394531 -0.21875,-0.53125 C 4.195312,-2.691406 4.050781,-2.789062 3.90625,-2.84375 3.769531,-2.894531 3.601562,-2.945312 3.40625,-3 3.207031,-3.050781 3.015625,-3.097656 2.828125,-3.140625 2.648438,-3.191406 2.453125,-3.257812 2.234375,-3.34375 2.015625,-3.4375 1.773438,-3.5625 1.515625,-3.71875 0.992188,-4.050781 0.734375,-4.609375 0.734375,-5.390625 c 0,-0.78125 0.273437,-1.378906 0.828125,-1.796875 0.5625,-0.425781 1.265625,-0.640625 2.109375,-0.640625 0.84375,0 1.675781,0.199219 2.5,0.59375 v 1.8125 L 4.8125,-5.3125 v -0.625 c 0,-0.257812 -0.117188,-0.429688 -0.34375,-0.515625 z m 0,0"
             id="path165" />
        </g>
      </g>
    </g>
    <g
       fill="#ffffff"
       fill-opacity="1"
       id="g171"
       transform="matrix(0.35277778,0,0,0.35277778,57.928553,8.4957071)">
      <g
         transform="translate(282.52679,234.07895)"
         id="g170">
        <g
           id="g169">
          <path
             d="M 2.171875,-9.21875 H 3.15625 v 1.609375 H 5.171875 L 5.015625,-6.34375 H 3.15625 v 3.984375 c 0,0.449219 0.078125,0.761719 0.234375,0.9375 0.164063,0.167969 0.414063,0.25 0.75,0.25 0.34375,0 0.6875,-0.101563 1.03125,-0.3125 L 5.625,-0.3125 C 5.125,0.0390625 4.484375,0.21875 3.703125,0.21875 3.253906,0.21875 2.875,0.15625 2.5625,0.03125 2.25,-0.0820312 2.015625,-0.207031 1.859375,-0.34375 1.710938,-0.488281 1.597656,-0.695312 1.515625,-0.96875 1.429688,-1.238281 1.382812,-1.453125 1.375,-1.609375 1.363281,-1.765625 1.359375,-1.992188 1.359375,-2.296875 V -6.34375 H 0.28125 L 0.4375,-7.4375 c 0.476562,-0.039062 0.835938,-0.207031 1.078125,-0.5 0.238281,-0.300781 0.457031,-0.726562 0.65625,-1.28125 z m 0,0"
             id="path168" />
        </g>
      </g>
    </g>
    <g
       fill="#ffffff"
       fill-opacity="1"
       id="g174"
       transform="matrix(0.35277778,0,0,0.35277778,57.928553,8.4957071)">
      <g
         transform="translate(288.22594,234.07895)"
         id="g173">
        <g
           id="g172">
          <path
             d="m 7.296875,-7.3125 v 5.640625 c 0,0.15625 0.023437,0.265625 0.078125,0.328125 0.050781,0.0625 0.148438,0.101562 0.296875,0.109375 l 0.484375,0.03125 V 0 H 5.75 V -0.875 L 5.703125,-0.890625 c -0.5,0.730469 -1.195313,1.09375 -2.078125,1.09375 -1.023438,0 -1.78125,-0.328125 -2.28125,-0.984375 -0.492188,-0.65625 -0.734375,-1.554688 -0.734375,-2.703125 0,-1.363281 0.328125,-2.425781 0.984375,-3.1875 0.664062,-0.769531 1.664062,-1.15625 3,-1.15625 0.863281,0 1.765625,0.171875 2.703125,0.515625 z M 5.53125,-2.40625 v -3.921875 c -0.28125,-0.125 -0.667969,-0.1875 -1.15625,-0.1875 -0.679688,0 -1.167969,0.273437 -1.46875,0.8125 -0.304688,0.542969 -0.453125,1.261719 -0.453125,2.15625 0,1.636719 0.519531,2.453125 1.5625,2.453125 0.445313,0 0.8125,-0.128906 1.09375,-0.390625 C 5.390625,-1.753906 5.53125,-2.0625 5.53125,-2.40625 Z m 0,0"
             id="path171" />
        </g>
      </g>
    </g>
    <g
       fill="#ffffff"
       fill-opacity="1"
       id="g177"
       transform="matrix(0.35277778,0,0,0.35277778,57.928553,8.4957071)">
      <g
         transform="translate(296.79733,234.07895)"
         id="g176">
        <g
           id="g175">
          <path
             d="M 3.203125,-10.78125 V -1.25 L 4.0625,-1.203125 V 0 H 0.46875 v -1.15625 l 0.5,-0.03125 c 0.289062,-0.03125 0.4375,-0.191406 0.4375,-0.484375 v -7.46875 c 0,-0.21875 -0.125,-0.335937 -0.375,-0.359375 L 0.5,-9.53125 v -1.25 z m 0,0"
             id="path174" />
        </g>
      </g>
    </g>
    <g
       fill="#ffffff"
       fill-opacity="1"
       id="g180"
       transform="matrix(0.35277778,0,0,0.35277778,57.928553,8.4957071)">
      <g
         transform="translate(301.30223,234.07895)"
         id="g179">
        <g
           id="g178">
          <path
             d="M 3.203125,-10.78125 V -1.25 L 4.0625,-1.203125 V 0 H 0.46875 v -1.15625 l 0.5,-0.03125 c 0.289062,-0.03125 0.4375,-0.191406 0.4375,-0.484375 v -7.46875 c 0,-0.21875 -0.125,-0.335937 -0.375,-0.359375 L 0.5,-9.53125 v -1.25 z m 0,0"
             id="path177" />
        </g>
      </g>
    </g>
    <g
       fill="#ffffff"
       fill-opacity="1"
       id="g183"
       transform="matrix(0.35277778,0,0,0.35277778,57.928553,8.4957071)">
      <g
         transform="translate(305.80713,234.07895)"
         id="g182">
        <g
           id="g181">
          <path
             d="m 3.984375,-1.109375 c 1.09375,0 1.640625,-0.882813 1.640625,-2.65625 C 5.625,-4.660156 5.5,-5.335938 5.25,-5.796875 5.007812,-6.265625 4.597656,-6.5 4.015625,-6.5 c -0.585937,0 -1.011719,0.226562 -1.28125,0.671875 -0.273437,0.4375 -0.40625,1.042969 -0.40625,1.8125 0,1.417969 0.257813,2.308594 0.78125,2.671875 0.238281,0.15625 0.53125,0.234375 0.875,0.234375 z M 0.5,-3.8125 c 0,-0.75 0.109375,-1.394531 0.328125,-1.9375 0.226563,-0.550781 0.523437,-0.972656 0.890625,-1.265625 0.71875,-0.539063 1.507812,-0.8125 2.375,-0.8125 0.601562,0 1.113281,0.101563 1.53125,0.296875 0.425781,0.1875 0.753906,0.414062 0.984375,0.671875 0.238281,0.261719 0.441406,0.636719 0.609375,1.125 0.164062,0.492187 0.25,1.0625 0.25,1.71875 0,1.398437 -0.339844,2.453125 -1.015625,3.171875 -0.679687,0.71875 -1.542969,1.078125 -2.59375,1.078125 -1.054687,0 -1.875,-0.335937 -2.46875,-1.015625 C 0.796875,-1.46875 0.5,-2.476562 0.5,-3.8125 Z m 0,0"
             id="path180" />
        </g>
      </g>
    </g>
    <g
       fill="#ffffff"
       fill-opacity="1"
       id="g186"
       transform="matrix(0.35277778,0,0,0.35277778,57.928553,8.4957071)">
      <g
         transform="translate(313.78896,234.07895)"
         id="g185">
        <g
           id="g184">
          <path
             d="M 7.234375,-0.015625 C 7.140625,1.097656 6.816406,1.914062 6.265625,2.4375 5.710938,2.96875 4.84375,3.234375 3.65625,3.234375 c -1.179688,0 -2.101562,-0.167969 -2.765625,-0.5 v -2.09375 l 1.4375,-0.125 v 0.71875 c 0,0.28125 0.125,0.46875 0.375,0.5625 C 2.953125,1.890625 3.300781,1.9375 3.75,1.9375 4.394531,1.9375 4.847656,1.738281 5.109375,1.34375 5.367188,0.957031 5.5,0.414062 5.5,-0.28125 V -1.125 c -0.480469,0.574219 -1.148438,0.859375 -2,0.859375 -0.53125,0 -0.996094,-0.097656 -1.390625,-0.296875 C 1.710938,-0.769531 1.40625,-1.046875 1.1875,-1.390625 0.75,-2.078125 0.53125,-2.882812 0.53125,-3.8125 c 0,-1.320312 0.351562,-2.320312 1.0625,-3 0.71875,-0.675781 1.675781,-1.015625 2.875,-1.015625 0.976562,0 1.910156,0.183594 2.796875,0.546875 v 5.625 c 0,0.855469 -0.011719,1.402344 -0.03125,1.640625 z M 5.5,-3.078125 V -6.34375 C 5.144531,-6.457031 4.742188,-6.515625 4.296875,-6.515625 c -0.617187,0 -1.089844,0.230469 -1.421875,0.6875 C 2.550781,-5.378906 2.390625,-4.769531 2.390625,-4 c 0,1.59375 0.523437,2.390625 1.578125,2.390625 0.425781,0 0.785156,-0.128906 1.078125,-0.390625 C 5.347656,-2.269531 5.5,-2.628906 5.5,-3.078125 Z m 0,0"
             id="path183" />
        </g>
      </g>
    </g>
    <g
       fill="#ffffff"
       fill-opacity="1"
       id="g189"
       transform="matrix(0.35277778,0,0,0.35277778,57.928553,8.4957071)">
      <g
         transform="translate(322.01267,234.07895)"
         id="g188">
        <g
           id="g187">
          <path
             d="M 1.4375,-1.6875 V -5.890625 C 1.4375,-6.046875 1.40625,-6.15625 1.34375,-6.21875 1.289062,-6.289062 1.195312,-6.332031 1.0625,-6.34375 L 0.421875,-6.375 v -1.234375 h 2.5625 V -6.46875 C 3.160156,-6.863281 3.441406,-7.1875 3.828125,-7.4375 4.210938,-7.695312 4.65625,-7.828125 5.15625,-7.828125 c 0.5,0 0.972656,0.109375 1.421875,0.328125 v 2.25 l -1.40625,0.109375 V -5.84375 c 0,-0.195312 -0.054687,-0.320312 -0.15625,-0.375 -0.105469,-0.050781 -0.242187,-0.078125 -0.40625,-0.078125 -0.398437,0 -0.726563,0.148437 -0.984375,0.4375 -0.261719,0.28125 -0.390625,0.648437 -0.390625,1.09375 V -1.25 l 1.3125,0.0625 V 0 H 0.5 V -1.15625 L 1,-1.1875 C 1.144531,-1.207031 1.253906,-1.25 1.328125,-1.3125 1.398438,-1.382812 1.4375,-1.507812 1.4375,-1.6875 Z m 0,0"
             id="path186" />
        </g>
      </g>
    </g>
    <g
       fill="#ffffff"
       fill-opacity="1"
       id="g192"
       transform="matrix(0.35277778,0,0,0.35277778,57.928553,8.4957071)">
      <g
         transform="translate(328.99677,234.07895)"
         id="g191">
        <g
           id="g190">
          <path
             d="m 7.296875,-7.3125 v 5.640625 c 0,0.15625 0.023437,0.265625 0.078125,0.328125 0.050781,0.0625 0.148438,0.101562 0.296875,0.109375 l 0.484375,0.03125 V 0 H 5.75 V -0.875 L 5.703125,-0.890625 c -0.5,0.730469 -1.195313,1.09375 -2.078125,1.09375 -1.023438,0 -1.78125,-0.328125 -2.28125,-0.984375 -0.492188,-0.65625 -0.734375,-1.554688 -0.734375,-2.703125 0,-1.363281 0.328125,-2.425781 0.984375,-3.1875 0.664062,-0.769531 1.664062,-1.15625 3,-1.15625 0.863281,0 1.765625,0.171875 2.703125,0.515625 z M 5.53125,-2.40625 v -3.921875 c -0.28125,-0.125 -0.667969,-0.1875 -1.15625,-0.1875 -0.679688,0 -1.167969,0.273437 -1.46875,0.8125 -0.304688,0.542969 -0.453125,1.261719 -0.453125,2.15625 0,1.636719 0.519531,2.453125 1.5625,2.453125 0.445313,0 0.8125,-0.128906 1.09375,-0.390625 C 5.390625,-1.753906 5.53125,-2.0625 5.53125,-2.40625 Z m 0,0"
             id="path189" />
        </g>
      </g>
    </g>
    <g
       fill="#ffffff"
       fill-opacity="1"
       id="g195"
       transform="matrix(0.35277778,0,0,0.35277778,57.928553,8.4957071)">
      <g
         transform="translate(337.56817,234.07895)"
         id="g194">
        <g
           id="g193">
          <path
             d="m 1.34375,1.4375 v -7.328125 c 0,-0.164063 -0.027344,-0.28125 -0.078125,-0.34375 C 1.210938,-6.304688 1.113281,-6.34375 0.96875,-6.34375 L 0.328125,-6.375 v -1.234375 h 2.5625 V -6.625 c 0.15625,-0.300781 0.445313,-0.578125 0.875,-0.828125 0.425781,-0.25 0.929687,-0.375 1.515625,-0.375 1.820312,0 2.734375,1.277344 2.734375,3.828125 0,1.367188 -0.296875,2.414062 -0.890625,3.140625 -0.59375,0.730469 -1.402344,1.09375 -2.421875,1.09375 -0.605469,0 -1.148437,-0.1523438 -1.625,-0.453125 V 1.875 L 4.3125,1.9375 V 3.125 H 0.40625 V 1.984375 l 0.5,-0.046875 C 1.0625,1.914062 1.171875,1.867188 1.234375,1.796875 1.304688,1.734375 1.34375,1.613281 1.34375,1.4375 Z m 4.796875,-5.28125 c 0,-1.6875 -0.511719,-2.53125 -1.53125,-2.53125 -0.417969,0 -0.777344,0.132812 -1.078125,0.390625 -0.304688,0.261719 -0.453125,0.570313 -0.453125,0.921875 v 3.46875 c 0.382813,0.261719 0.851563,0.390625 1.40625,0.390625 0.550781,0 0.960937,-0.25 1.234375,-0.75 C 6,-2.460938 6.140625,-3.09375 6.140625,-3.84375 Z m 0,0"
             id="path192" />
        </g>
      </g>
    </g>
    <g
       fill="#ffffff"
       fill-opacity="1"
       id="g198"
       transform="matrix(0.35277778,0,0,0.35277778,57.928553,8.4957071)">
      <g
         transform="translate(346.15467,234.07895)"
         id="g197">
        <g
           id="g196">
          <path
             d="m 1.421875,-1.6875 v -7.375 c 0,-0.15625 -0.03125,-0.265625 -0.09375,-0.328125 C 1.273438,-9.453125 1.179688,-9.488281 1.046875,-9.5 l -0.53125,-0.03125 v -1.25 h 2.6875 v 4.0625 c 0.53125,-0.738281 1.269531,-1.109375 2.21875,-1.109375 0.757813,0 1.347656,0.21875 1.765625,0.65625 0.414062,0.4375 0.625,1.09375 0.625,1.96875 V -1.25 l 0.875,0.046875 V 0 H 5.078125 v -1.15625 l 0.5,-0.03125 C 5.734375,-1.207031 5.84375,-1.25 5.90625,-1.3125 5.976562,-1.382812 6.015625,-1.507812 6.015625,-1.6875 v -3.125 c 0,-0.519531 -0.085937,-0.921875 -0.25,-1.203125 C 5.597656,-6.296875 5.273438,-6.4375 4.796875,-6.4375 c -0.480469,0 -0.867187,0.152344 -1.15625,0.453125 -0.28125,0.292969 -0.421875,0.648437 -0.421875,1.0625 V -1.25 l 0.859375,0.046875 V 0 h -3.59375 v -1.15625 l 0.5,-0.03125 C 1.128906,-1.207031 1.238281,-1.25 1.3125,-1.3125 1.382812,-1.382812 1.421875,-1.507812 1.421875,-1.6875 Z m 0,0"
             id="path195" />
        </g>
      </g>
    </g>
    <g
       fill="#ffffff"
       fill-opacity="1"
       id="g201"
       transform="matrix(0.35277778,0,0,0.35277778,57.928553,8.4957071)">
      <g
         transform="translate(355.22494,234.07895)"
         id="g200">
        <g
           id="g199">
          <path
             d="M 6.0625,-0.28125 V -1.4375 C 5.507812,-0.644531 4.691406,-0.25 3.609375,-0.25 c -1.5625,0 -2.34375,-0.875 -2.34375,-2.625 v -3.03125 c 0,-0.28125 -0.125,-0.425781 -0.375,-0.4375 L 0.40625,-6.375 v -1.234375 h 2.671875 v 4.34375 c 0,0.53125 0.070313,0.933594 0.21875,1.203125 0.15625,0.273438 0.46875,0.40625 0.9375,0.40625 0.476563,0 0.859375,-0.144531 1.140625,-0.4375 0.289062,-0.289062 0.4375,-0.640625 0.4375,-1.046875 v -2.75 c 0,-0.164063 -0.03125,-0.28125 -0.09375,-0.34375 C 5.664062,-6.304688 5.570312,-6.34375 5.4375,-6.34375 L 4.953125,-6.375 v -1.234375 h 2.65625 v 7.328125 c 0,1.21875 -0.296875,2.109375 -0.890625,2.671875 -0.585938,0.5625 -1.476562,0.84375 -2.671875,0.84375 -1.199219,0 -2.132813,-0.167969 -2.796875,-0.5 v -2.09375 l 1.4375,-0.125 v 0.71875 c 0,0.28125 0.125,0.46875 0.375,0.5625 C 3.320312,1.890625 3.671875,1.9375 4.109375,1.9375 5.410156,1.9375 6.0625,1.195312 6.0625,-0.28125 Z m 0,0"
             id="path198" />
        </g>
      </g>
    </g>
    <g
       id="g231"
       transform="matrix(1.3243143,0,0,1.3243143,41.229663,-289.47527)"
       style="fill:#ffffff;stroke:#002169;stroke-opacity:1">
      <circle
         style="fill:#ffffff;stroke:#002169;stroke-width:1.86887;stroke-dasharray:none;stroke-opacity:1"
         id="path225"
         cx="23.171593"
         cy="275.19684"
         r="2.1466699" />
      <circle
         style="fill:#ffffff;stroke:#002169;stroke-width:1.86887;stroke-dasharray:none;stroke-opacity:1"
         id="circle225"
         cx="30.45797"
         cy="275.19684"
         r="2.1466699" />
      <circle
         style="fill:#ffffff;stroke:#002169;stroke-width:1.86887;stroke-dasharray:none;stroke-opacity:1"
         id="circle226"
         cx="15.988567"
         cy="275.19684"
         r="2.1466699" />
      <circle
         style="fill:#ffffff;stroke:#002169;stroke-width:1.86887;stroke-dasharray:none;stroke-opacity:1"
         id="circle228"
         cx="19.554245"
         cy="268.71143"
         r="2.1466699" />
      <circle
         style="fill:#ffffff;stroke:#002169;stroke-width:1.86887;stroke-dasharray:none;stroke-opacity:1"
         id="circle229"
         cx="26.840618"
         cy="268.71143"
         r="2.1466699" />
      <circle
         style="fill:#ffffff;stroke:#002169;stroke-width:1.86887;stroke-dasharray:none;stroke-opacity:1"
         id="circle230"
         cx="19.554245"
         cy="281.73389"
         r="2.1466699" />
      <circle
         style="fill:#ffffff;stroke:#002169;stroke-width:1.86887;stroke-dasharray:none;stroke-opacity:1"
         id="circle231"
         cx="26.840618"
         cy="281.73389"
         r="2.1466699" />
      <circle
         style="fill:#ffffff;stroke:#002169;stroke-width:1.86887;stroke-dasharray:none;stroke-opacity:1"
         id="circle232"
         cx="37.508537"
         cy="288.21085"
         r="2.1466699" />
      <circle
         style="fill:#ffffff;stroke:#002169;stroke-width:1.86887;stroke-dasharray:none;stroke-opacity:1"
         id="circle234"
         cx="30.325512"
         cy="288.21085"
         r="2.1466699" />
      <circle
         style="fill:#ffffff;stroke:#002169;stroke-width:1.86887;stroke-dasharray:none;stroke-opacity:1"
         id="circle235"
         cx="33.89119"
         cy="281.72543"
         r="2.1466699" />
      <circle
         style="fill:#ffffff;stroke:#002169;stroke-width:1.86887;stroke-dasharray:none;stroke-opacity:1"
         id="circle236"
         cx="41.177563"
         cy="281.72543"
         r="2.1466699" />
      <circle
         style="fill:#ffffff;stroke:#002169;stroke-width:1.86887;stroke-dasharray:none;stroke-opacity:1"
         id="circle239"
         cx="41.206345"
         cy="268.88794"
         r="2.1466699" />
      <circle
         style="fill:#ffffff;stroke:#002169;stroke-width:1.86887;stroke-dasharray:none;stroke-opacity:1"
         id="circle241"
         cx="34.023319"
         cy="268.88794"
         r="2.1466699" />
      <circle
         style="fill:#ffffff;stroke:#002169;stroke-width:1.86887;stroke-dasharray:none;stroke-opacity:1"
         id="circle242"
         cx="37.588997"
         cy="262.40253"
         r="2.1466699" />
      <circle
         style="fill:#ffffff;stroke:#002169;stroke-width:1.86887;stroke-dasharray:none;stroke-opacity:1"
         id="circle244"
         cx="37.588997"
         cy="275.42499"
         r="2.1466699" />
      <circle
         style="fill:#ffffff;stroke:#002169;stroke-width:1.86887;stroke-dasharray:none;stroke-opacity:1"
         id="circle245"
         cx="44.87537"
         cy="275.42499"
         r="2.1466699" />
      <circle
         style="fill:#ffffff;stroke:#002169;stroke-width:1.86887;stroke-dasharray:none;stroke-opacity:1"
         id="circle247"
         cx="23.012608"
         cy="288.21085"
         r="2.1466699" />
      <circle
         style="fill:#ffffff;stroke:#002169;stroke-width:1.86887;stroke-dasharray:none;stroke-opacity:1"
         id="circle254"
         cx="22.815441"
         cy="262.28979"
         r="2.1466699" />
      <circle
         style="fill:#ffffff;stroke:#002169;stroke-width:1.86887;stroke-dasharray:none;stroke-opacity:1"
         id="circle255"
         cx="30.101812"
         cy="262.28979"
         r="2.1466699" />
    </g>
    <path
       style="fill:#ffffff;stroke-width:0.278871"
       d="m 72.046363,89.172607 c -3.53222,-0.56538 -6.45098,-4.33262 -7.52181,-9.70842 -0.18256,-0.91651 -0.21921,-1.22401 -0.30561,-2.56421 -0.0303,-0.46939 -0.0729,-0.85383 -0.1401,-0.8672 -0.69082,-0.1375 -0.57093,-0.0115 -2.12339,-0.043 v -0.84852 -0.84854 c 1.32366,-0.0233 1.67565,-0.11315 2.12367,-0.0302 0.0688,0.0127 0.10922,-0.40314 0.13958,-0.90409 0.0703,-1.15887 0.10429,-1.47822 0.2338,-2.19505 1.88756,-10.44738 10.19005,-13.57013 14.71296,-5.53386 0.64971,1.15442 0.63701,1.28846 -0.0262,0.27654 -1.97248,-3.00966 -5.06294,-4.12725 -7.71112,-2.7886 -2.73732,1.38371 -4.77213,5.18342 -5.29235,9.88254 -0.1564,1.41267 -0.20228,1.34976 0.9629,1.31991 0.94739,-0.0242 0.85406,0.10517 0.99913,-1.38571 0.79387,-8.15985 7.28662,-11.60037 11.14233,-5.90435 0.62692,0.92619 0.64583,1.11299 0.033,0.32598 -3.51581,-4.51498 -8.86992,-1.33143 -9.80555,5.83037 -0.15844,1.21285 -0.20255,1.1499 0.80559,1.1499 0.976,0 0.96138,0.0103 1.03071,-0.70095 0.46367,-4.75541 3.62828,-7.95911 6.43832,-6.51786 0.87008,0.44628 1.91989,1.4854 2.30933,2.28582 0.15638,0.32145 0.15638,0.32145 -0.007,0.10011 -2.47754,-3.36095 -6.33443,-1.87219 -7.48979,2.89109 -0.46919,1.93436 -0.50489,1.90237 2.14935,1.92555 2.85413,0.0249 2.64032,0.065 2.83922,-0.53262 0.85378,-2.56556 3.98077,-3.66076 6.25051,-2.18917 0.78573,0.50944 1.54853,1.59302 1.79352,2.39005 0.0988,0.32145 0.0892,0.348 2.65249,0.348 2.79168,0 2.59696,0.0574 2.50049,-0.73783 -0.6676,-5.50222 -4.8669,-7.75794 -7.69216,-4.13196 -0.20122,0.25825 -0.20122,0.25825 -0.0534,-0.0427 0.80256,-1.63411 2.74145,-2.84825 4.17902,-2.61691 2.30666,0.3712 4.61153,3.89413 4.61153,7.04864 0,0.44816 0.0892,0.48827 1.0339,0.46483 0.96342,-0.0239 0.98119,-0.0753 0.65806,-1.90151 -0.78695,-4.44744 -3.50636,-7.49845 -6.32784,-7.09944 -1.44845,0.20485 -2.37269,0.80781 -3.64935,2.38086 -0.25449,0.31357 -0.1525,0.0782 0.22584,-0.52116 3.70108,-5.86344 10.4442,-2.47498 11.23277,5.64452 0.15776,1.62441 0.0518,1.47234 1.04309,1.4964 1.10528,0.0268 1.06755,0.0706 0.95605,-1.10966 -0.94087,-9.95855 -8.52082,-14.16629 -13.06776,-7.2541 -0.5662,0.86071 -0.60577,0.88115 -0.21984,0.1136 2.26686,-4.50855 6.06433,-6.1661 9.52572,-4.15784 2.98112,1.7296 5.28966,6.23729 5.60708,10.94849 0.0424,0.62903 0.10703,1.21853 0.1437,1.31003 0.0666,0.16636 2.430627,-0.0708 2.431377,0.20653 l 0.004,1.552 c 0,0 -2.363877,0.0361 -2.427977,0.15916 -0.0371,0.0712 -0.0908,0.54451 -0.11946,1.05178 -0.23271,4.12471 -2.02062,8.29295 -4.4564,10.38934 -3.67531,3.16327 -8.08623,1.81415 -10.68325,-3.26758 -0.40237,-0.78731 -0.35113,-0.75477 0.26244,0.16669 4.53875,6.81619 12.02841,2.5857 12.99876,-7.34227 0.1154,-1.18074 0.15269,-1.1374 -0.95563,-1.11054 -0.98232,0.0238 -0.87992,-0.11983 -1.04053,1.45949 -0.80502,7.91566 -7.17438,11.45461 -10.95748,6.08821 -0.44075,-0.62523 -0.80514,-1.29322 -0.50539,-0.92645 1.43731,1.75849 2.52247,2.38414 4.15596,2.39605 2.8869,0.021 5.41354,-3.40225 5.9778,-8.09931 0.11611,-0.96672 0.14537,-0.93419 -0.83998,-0.93419 -0.92864,0 -1.00587,0.0344 -1.00587,0.4478 0,3.18432 -2.29516,6.70877 -4.61153,7.08153 -1.42781,0.22976 -3.37813,-0.98851 -4.17416,-2.6074 -0.15264,-0.31039 -0.15264,-0.31039 0.0486,-0.0522 2.82527,3.62605 7.02453,1.37034 7.69215,-4.13194 0.0965,-0.79525 0.28968,-0.73802 -2.48731,-0.73672 -2.71573,8.8e-4 -2.52627,-0.0367 -2.73146,0.54725 -1.32576,3.77246 -6.7229,3.77279 -7.97824,6.1e-4 -0.1989,-0.59765 0.0149,-0.55753 -2.83922,-0.5326 -2.65671,0.0232 -2.61877,-0.0111 -2.14629,1.93902 1.15039,4.74812 5.01337,6.2329 7.48674,2.87763 0.16314,-0.22137 0.16314,-0.22137 0.006,0.10011 -0.55246,1.13548 -2.00675,2.33383 -3.11198,2.56428 -2.63302,0.549 -5.22415,-2.57577 -5.63567,-6.79632 -0.0693,-0.71089 -0.0548,-0.70096 -1.0307,-0.70096 -1.00816,0 -0.96405,-0.063 -0.80561,1.14992 0.42791,3.27545 1.84978,5.9966 3.78794,7.24929 1.93076,1.24794 4.39304,0.66733 6.01761,-1.41893 0.61285,-0.78701 0.59393,-0.60021 -0.033,0.32598 -1.76757,2.61124 -4.15654,3.50533 -6.44358,2.41155 -2.3649,-1.13102 -4.26689,-4.41434 -4.66311,-8.04972 -0.19621,-1.80027 -0.0887,-1.62791 -1.03042,-1.6519 -1.17019,-0.0299 -1.12369,-0.0932 -0.96723,1.31992 0.6968,6.29449 4.00931,10.6588 7.932,10.45061 1.79249,-0.0951 3.80965,-1.43114 5.07415,-3.36071 0.51307,-0.78293 0.59168,-0.87649 0.41517,-0.49416 -1.68758,3.65555 -4.65076,5.73915 -7.51078,5.28135 z"
       id="path217"
       sodipodi:nodetypes="cssscccsssscsssssssscssssssssscsssssssscscssssssscscsscsccscsssssssscsscssscssssscssssssscc" />
  </g>
</svg>
