<?xml version="1.0" encoding="UTF-8"?>
<svg id="Layer_1" data-name="Layer 1" xmlns="http://www.w3.org/2000/svg" viewBox="0 0 200 200">
  <defs>
    <style>
      .cls-1 {
        fill: #fff;
      }

      .cls-2 {
        fill: none;
        stroke: #011e41;
        stroke-linecap: round;
        stroke-linejoin: round;
        stroke-width: 3px;
      }

      .cls-3 {
        fill: #011e41;
      }
    </style>
  </defs>
  <g>
    <path class="cls-3" d="M53.92,149.73v-39.77h-4.85v-17.58h-29.2v17.58h-4.85v39.77H6.35l10.78,38.65h147.24l29.98-38.65H53.92ZM30.89,103.61c0,.32-.26.58-.58.58h-3.86c-.32,0-.58-.26-.58-.58v-4.92c0-.32.26-.58.58-.58h3.86c.32,0,.58.26.58.58v4.92ZM37.31,137.98c0,.32-.26.58-.58.58h-3.86c-.32,0-.58-.26-.58-.58v-4.92c0-.32.26-.58.58-.58h3.86c.32,0,.58.26.58.58v4.92ZM37.31,121.85c0,.32-.26.58-.58.58h-3.86c-.32,0-.58-.26-.58-.58v-4.92c0-.32.26-.58.58-.58h3.86c.32,0,.58.26.58.58v4.92ZM42.33,103.61c0,.32-.26.58-.58.58h-3.86c-.32,0-.58-.26-.58-.58v-4.92c0-.32.26-.58.58-.58h3.86c.32,0,.58.26.58.58v4.92Z"/>
    <line class="cls-2" x1="83.3" y1="34.57" x2="109.09" y2="19.15"/>
    <line class="cls-2" x1="133.64" y1="34.57" x2="109.09" y2="19.15"/>
    <path class="cls-3" d="M108.16,15.1c.44.05,1.27.2,2.07.77.3.21,1.82,1.34,1.78,3.1-.03,1.71-1.51,3.52-3.52,3.52-1.72,0-3.15-1.24-3.45-2.87-.03-.16-.15-.64-.59-1.02-.33-.29-.67-.38-.84-.41-.04.22-.07.49-.07.79,0,2.74,2.22,4.96,4.96,4.96s4.96-2.22,4.96-4.96c0-2.29-1.55-4.21-3.65-4.78v-6.16h-1.6c-.02,2.36-.03,4.71-.05,7.07Z"/>
    <rect class="cls-3" x="98.48" y="5.87" width="20.68" height="5.58" rx="2.43" ry="2.43"/>
    <rect class="cls-3" x="61.18" y="32.96" width="93.77" height="34.72"/>
    <rect class="cls-3" x="58.38" y="122.44" width="63.26" height="23.71"/>
    <rect class="cls-3" x="125.68" y="122.44" width="63.26" height="23.71"/>
    <rect class="cls-3" x="58.38" y="94.85" width="63.26" height="23.71"/>
    <rect class="cls-3" x="125.68" y="94.85" width="63.26" height="23.71"/>
  </g>
  <path class="cls-1" d="M37.85,147.38c-.45,0-.81.32-.89.75-.17,0-.34-.01-.5-.01-1.47,0-2.89.18-4.26.51-.13-.33-.46-.57-.84-.57-.5,0-.9.4-.9.9,0,.06,0,.12.02.18-2.13.75-4.07,1.9-5.75,3.35-.23-.21-.54-.33-.87-.33-.74,0-1.33.6-1.33,1.33,0,.34.13.64.33.87-1.26,1.46-2.29,3.13-3.03,4.94-.04,0-.08-.01-.12-.01-.37,0-.68.3-.68.68,0,.25.14.47.34.58-.57,1.74-.87,3.6-.87,5.53,0,.16,0,.32.01.49-.53.08-.94.53-.94,1.08,0,.61.49,1.1,1.1,1.1,0,0,.02,0,.02,0,.23,1.52.64,2.98,1.23,4.35-.18.12-.3.33-.3.56,0,.37.3.68.68.68.07,0,.13-.01.19-.03.76,1.48,1.73,2.84,2.86,4.05-.19.23-.3.52-.3.84,0,.74.6,1.33,1.33,1.33.36,0,.68-.14.92-.37,1.41,1.12,2.98,2.03,4.68,2.69,0,.04-.01.08-.01.12,0,.37.3.68.68.68.26,0,.48-.14.59-.35,1.39.42,2.84.68,4.34.76.06.32.33.56.66.56s.6-.23.66-.55c1.67-.04,3.28-.31,4.81-.77.21.46.67.79,1.21.79.74,0,1.33-.6,1.33-1.33,0-.15-.03-.28-.07-.42,1.02-.49,1.99-1.07,2.9-1.74.12.1.27.17.44.17.37,0,.68-.3.68-.68,0-.11-.03-.22-.08-.32,1.23-1.05,2.33-2.27,3.24-3.61.12.06.26.1.41.1.5,0,.9-.4.9-.9,0-.3-.15-.57-.38-.73,1.23-2.28,1.99-4.86,2.12-7.6.69-.05,1.24-.62,1.24-1.32s-.58-1.31-1.3-1.33c-.36-3.71-1.85-7.09-4.12-9.8.22-.24.36-.55.36-.91,0-.74-.6-1.33-1.33-1.33-.34,0-.64.13-.88.34-2.63-2.33-5.95-3.91-9.61-4.38-.01-.49-.41-.88-.9-.88ZM50.86,175.16l-3.87-.14c-.06-.32-.33-.56-.66-.56-.16,0-.3.06-.42.15l-1.65-1.37c.13-.2.2-.44.2-.69,0-.15-.03-.3-.08-.44l3.81-1.86c.12.16.31.26.53.26.07,0,.13-.01.19-.03l2.28,4.14c-.17.13-.29.32-.33.54ZM39.52,178.26c0,.25.1.47.26.64l-3.23,4.42s-.06-.03-.09-.04l.59-7.29c.29-.04.52-.27.57-.57,1.75-.21,3.36-.89,4.7-1.91.05.05.11.09.17.13l-1.8,3.75c-.08-.03-.17-.04-.26-.04-.5,0-.9.4-.9.9ZM35.85,183.35l-4.42-4.26c.1-.15.16-.32.16-.52,0-.1-.02-.19-.05-.28l4.9-2.52c.08.1.2.17.32.2l-.59,7.27c-.12.01-.23.05-.32.11ZM24.5,177.87l-.07-6.04c.21-.04.38-.17.49-.34l6.06,2.38c-.04.1-.06.21-.06.33,0,.43.26.8.63.96l-.73,2.53s-.09-.01-.13-.01c-.48,0-.87.38-.9.85l-4.12.4c-.11-.56-.59-.99-1.17-1.05ZM19.76,167.65c0-.3-.12-.57-.31-.76l3.62-4.68c.1.05.2.08.32.08s.23-.03.33-.09l2.77,3.27c-.22.16-.37.43-.37.72,0,.36.21.66.5.81l-2.07,3.38c-.09-.03-.18-.05-.27-.05-.22,0-.42.1-.56.25l-4.05-2.49c.06-.13.09-.28.09-.44ZM23.93,154.81c.3-.02.57-.13.79-.32l3.86,3.99c-.21.24-.35.55-.35.89,0,.11.02.22.05.33l-4.31,1.51c-.1-.14-.24-.25-.42-.29l.38-6.11ZM38.15,149.13l1.66,2.97c-.21.17-.35.42-.35.71,0,.18.05.35.15.49l-2.71,2.47c-.13-.12-.31-.19-.5-.19-.22,0-.42.1-.56.25l-3.02-2.15c.04-.09.07-.19.07-.3,0-.13-.04-.25-.1-.35l4.49-4.05c.16.12.35.2.56.2.11,0,.21-.02.3-.06ZM48.55,160.91c-.29.01-.53.15-.69.37l-3.68-1.82c.04-.11.07-.23.07-.36,0-.22-.07-.43-.18-.6l4.3-3.87c.18.16.4.27.65.32l-.46,5.97ZM48.24,169.37c-.12.12-.19.29-.19.47,0,.06,0,.11.02.16l-3.81,1.86c-.04-.06-.08-.11-.13-.16,1.16-1.52,1.88-3.38,1.97-5.41.03,0,.06-.02.09-.03l2.05,3.11ZM37.6,175.14c-.08-.28-.34-.49-.65-.49-.33,0-.61.24-.66.56-1.18-.02-2.31-.26-3.34-.69.03-.1.06-.21.06-.32,0-.57-.47-1.04-1.04-1.04-.33,0-.62.16-.81.39-2.12-1.47-3.61-3.79-3.96-6.47.42-.08.73-.45.73-.89,0-.46-.35-.84-.8-.89.11-1.79.71-3.44,1.69-4.82.21.15.47.23.75.23.74,0,1.33-.6,1.33-1.33,0-.31-.11-.59-.28-.81,1.41-1.14,3.16-1.87,5.06-2.03.08.33.38.57.73.57s.65-.25.73-.58c1.91.14,3.67.85,5.09,1.96-.12.18-.19.39-.19.62,0,.61.5,1.11,1.11,1.11.23,0,.45-.07.63-.2,1.1,1.37,1.83,3.07,2.01,4.91-.32.07-.56.35-.56.69s.26.64.6.69c-.09,1.95-.78,3.74-1.89,5.2-.21-.15-.47-.25-.75-.25-.72,0-1.3.58-1.3,1.3,0,.28.09.54.25.76-1.29.98-2.84,1.63-4.53,1.84ZM31.09,177.76l.74-2.54s.09.01.13.01c.36,0,.68-.18.86-.46,1.08.44,2.25.69,3.48.71,0,.01,0,.02,0,.03l-4.89,2.52c-.09-.12-.2-.21-.33-.28ZM25.04,171.09c0-.22-.1-.42-.25-.56l2.11-3.45s0,0,0,0c.32,2.51,1.61,4.72,3.48,6.25l-5.36-2.1s.01-.09.01-.14ZM23.93,162.02c.09-.12.15-.26.15-.43,0-.04,0-.08-.01-.12l4.31-1.51c.06.12.13.23.22.32-1.02,1.43-1.65,3.15-1.76,5.02-.04,0-.07.02-.1.03l-2.81-3.32ZM24.91,154.29c.15-.2.25-.45.26-.71l6.35-.04c.04.17.14.32.28.42l-1.82,4.16c-.13-.04-.27-.07-.41-.07-.29,0-.56.09-.77.25l-3.88-4.01ZM40.57,153.7l1.97,4.47s-.09.06-.13.1c-1.47-1.16-3.29-1.9-5.27-2.03-.01-.08-.04-.16-.07-.24l2.73-2.48c.16.13.35.21.57.21.07,0,.14-.01.21-.03ZM35.65,156.24c-1.98.17-3.79.93-5.25,2.11-.06-.05-.12-.09-.18-.13l1.83-4.16s.09.02.14.02c.18,0,.33-.07.46-.17l3.04,2.17c-.02.05-.03.11-.04.17ZM46.07,164.92c-.19-1.92-.94-3.68-2.09-5.11.03-.03.06-.06.08-.1l3.68,1.82c-.03.09-.05.18-.05.28,0,.26.12.5.3.67l-1.78,2.49s-.09-.04-.14-.05ZM47.91,153.64c0,.29.1.56.26.78l-4.29,3.86c-.2-.18-.46-.29-.74-.29-.12,0-.23.02-.34.06l-1.96-4.46c.2-.12.35-.32.41-.56l6.67.61ZM48.48,169.21l-2.06-3.11c.13-.13.2-.3.2-.49s-.07-.35-.19-.48l1.78-2.49c.11.05.24.08.37.08.27,0,.51-.12.68-.31l3.87,2.64c-.1.19-.16.4-.16.62,0,.25.07.49.2.69l-4.01,2.98c-.12-.1-.27-.17-.44-.17-.09,0-.17.02-.24.05ZM53.29,164.81l-3.87-2.64c.05-.11.07-.23.07-.36,0-.41-.28-.76-.66-.87l.46-5.98c.26,0,.51-.09.71-.23,2.23,2.66,3.7,5.99,4.05,9.63-.31.06-.57.22-.76.45ZM47.94,153.36l-6.68-.62c-.04-.46-.42-.83-.9-.83-.11,0-.21.02-.31.06l-1.66-2.97c.15-.11.25-.27.31-.45,3.6.46,6.87,2.01,9.46,4.3-.11.15-.19.32-.23.51ZM36.46,148.4c.17,0,.33,0,.5.01.02.14.06.26.14.37l-4.48,4.04c-.12-.08-.26-.14-.41-.14,0,0,0,0,0,0l-.52-2.88c.35-.13.59-.46.59-.85,0-.02,0-.04,0-.06,1.35-.33,2.75-.51,4.2-.51ZM31.36,149.87s.02,0,.03,0l.53,2.88c-.2.09-.35.27-.4.5l-6.36.04c-.03-.22-.12-.42-.25-.59,1.65-1.42,3.56-2.55,5.66-3.29.16.27.45.46.78.46ZM23.06,154.56c.17.13.37.21.58.24l-.38,6.11c-.18.03-.33.13-.44.27l-2.47-1.09s.01-.08.01-.12c0-.23-.12-.43-.29-.56.73-1.78,1.74-3.42,2.98-4.86ZM19.63,160.64s.04,0,.07,0c.23,0,.44-.12.56-.29l2.45,1.09c-.01.05-.02.1-.02.16,0,.17.06.32.16.44l-3.62,4.69c-.13-.08-.28-.13-.44-.15,0-.16-.01-.32-.01-.48,0-1.9.3-3.73.86-5.45ZM18.96,168.7c.22-.06.41-.19.55-.37l4.05,2.49c-.03.08-.05.17-.05.27,0,.1.02.2.06.29l-2.8,1.82c-.12-.13-.29-.21-.49-.21-.04,0-.08,0-.11.01-.58-1.35-.99-2.79-1.21-4.29ZM20.96,173.66c0-.08-.02-.15-.04-.23l2.8-1.82c.11.11.25.19.42.22l.07,6.04c-.25.03-.49.13-.68.28-1.11-1.19-2.06-2.53-2.81-3.98.14-.12.23-.3.23-.51ZM25.47,179.93c.14-.21.22-.46.23-.73l4.12-.4c.09.34.37.6.72.66l-.02,2.83c-.18.03-.34.14-.44.28-1.67-.65-3.22-1.55-4.61-2.64ZM31.31,182.95c0-.32-.22-.58-.51-.65l.02-2.84c.15-.02.29-.08.41-.17l4.43,4.27c-.04.06-.06.12-.08.19-1.48-.07-2.91-.33-4.27-.74,0-.02,0-.03,0-.05ZM36.89,183.76c-.02-.1-.07-.19-.13-.26l3.25-4.44c.12.06.26.1.41.1.11,0,.21-.02.31-.06l1.42,2.53c-.34.24-.57.64-.57,1.09,0,.1.01.19.03.28-1.5.46-3.09.72-4.72.76ZM42.92,181.39c-.18,0-.36.04-.52.1l-1.42-2.53c.21-.17.35-.42.35-.71,0-.31-.15-.58-.39-.74l1.8-3.75c.14.05.28.08.43.08.36,0,.68-.14.92-.38l1.65,1.37c-.05.09-.08.2-.08.31,0,.37.3.68.68.68,0,0,.01,0,.02,0l.88,3.63c-.23.11-.39.34-.39.61,0,.1.02.2.06.28-.89.65-1.84,1.23-2.84,1.7-.23-.39-.65-.66-1.14-.66ZM47.93,179.53c-.11-.09-.26-.14-.41-.14,0,0,0,0-.01,0l-.88-3.64c.18-.09.31-.25.36-.44l3.88.14c.03.2.12.39.25.52-.9,1.33-1.97,2.52-3.19,3.56ZM51.44,174.48l-2.27-4.14c.14-.12.23-.3.23-.51,0-.1-.02-.19-.06-.28l4.01-2.98c.2.21.47.36.78.4-.14,2.7-.88,5.24-2.1,7.49-.09-.03-.18-.05-.27-.05-.11,0-.22.02-.32.06Z"/>
</svg>