<svg xmlns="http://www.w3.org/2000/svg" xmlns:xlink="http://www.w3.org/1999/xlink" width="500" zoomAndPan="magnify" viewBox="0 0 375 374.999991" height="500" preserveAspectRatio="xMidYMid meet" version="1.0"><defs><clipPath id="3386261b37"><path d="M 182.136719 198.347656 L 192.863281 198.347656 L 192.863281 320.316406 L 182.136719 320.316406 Z M 182.136719 198.347656 " clip-rule="nonzero"/></clipPath><clipPath id="4e33eb713f"><path d="M 203 213 L 375 213 L 375 329.28125 L 203 329.28125 Z M 203 213 " clip-rule="nonzero"/></clipPath><clipPath id="3d6b400c44"><path d="M 0 213 L 172 213 L 172 329.28125 L 0 329.28125 Z M 0 213 " clip-rule="nonzero"/></clipPath><clipPath id="6fe8b1469d"><path d="M 119 152 L 188 152 L 188 201 L 119 201 Z M 119 152 " clip-rule="nonzero"/></clipPath><clipPath id="23e510d93a"><path d="M 127.484375 152.609375 L 187.5 166.550781 L 179.53125 200.855469 L 119.515625 186.917969 Z M 127.484375 152.609375 " clip-rule="nonzero"/></clipPath><clipPath id="2f819c68a9"><path d="M 190 148 L 259 148 L 259 199 L 190 199 Z M 190 148 " clip-rule="nonzero"/></clipPath><clipPath id="7dbcbb2b49"><path d="M 190.039062 164.367188 L 249.480469 148.152344 L 258.75 182.128906 L 199.308594 198.347656 Z M 190.039062 164.367188 " clip-rule="nonzero"/></clipPath><clipPath id="11594b44c6"><path d="M 113.390625 61.609375 L 261.890625 61.609375 L 261.890625 249.109375 L 113.390625 249.109375 Z M 113.390625 61.609375 " clip-rule="nonzero"/></clipPath></defs><g clip-path="url(#3386261b37)"><path fill="#002169" d="M 182.136719 198.347656 L 192.863281 198.347656 L 192.863281 320.335938 L 182.136719 320.335938 Z M 182.136719 198.347656 " fill-opacity="1" fill-rule="nonzero"/></g><path fill="#002169" d="M 312.132812 284.8125 L 280.855469 178.328125 C 226.878906 169.824219 198.148438 199.890625 192.523438 206.589844 L 192.523438 320.304688 C 227.570312 285.695312 267.511719 272.460938 312.132812 284.8125 Z M 312.132812 284.8125 " fill-opacity="1" fill-rule="nonzero"/><g clip-path="url(#4e33eb713f)"><path fill="#002169" d="M 337.917969 213.824219 L 326.464844 213.824219 L 359.347656 314.078125 C 360.503906 317.492188 357.402344 321.21875 353.789062 320.640625 C 352.648438 320.441406 249.851562 305.101562 203.640625 329.546875 L 374.816406 329.546875 L 337.917969 213.820312 Z M 337.917969 213.824219 " fill-opacity="1" fill-rule="nonzero"/></g><path fill="#002169" d="M 322.980469 295.996094 C 321.574219 297.335938 319.566406 297.738281 317.824219 297.066406 C 317.355469 296.867188 273.890625 281.0625 239.203125 299.210938 C 229.355469 304.367188 221.386719 309.457031 215.023438 314.144531 C 259.089844 300.28125 324.457031 306.710938 347.292969 309.589844 L 311.128906 199.289062 L 297.464844 199.289062 L 324.386719 290.90625 C 324.925781 292.714844 324.386719 294.722656 322.980469 295.996094 Z M 322.980469 295.996094 " fill-opacity="1" fill-rule="nonzero"/><path fill="#002169" d="M 94.144531 178.328125 L 62.867188 284.8125 C 110.5625 271.480469 150.800781 288.847656 182.476562 320.304688 C 182.476562 320.304688 182.476562 206.589844 182.476562 206.589844 C 176.851562 199.890625 148.121094 169.890625 94.144531 178.328125 Z M 94.144531 178.328125 " fill-opacity="1" fill-rule="nonzero"/><g clip-path="url(#3d6b400c44)"><path fill="#002169" d="M 21.210938 320.640625 C 17.605469 321.210938 14.488281 317.5 15.652344 314.078125 C 15.652344 314.078125 48.535156 213.824219 48.535156 213.824219 C 48.535156 213.824219 37.082031 213.824219 37.082031 213.824219 L 0.183594 329.546875 L 171.359375 329.546875 C 125.21875 305.101562 22.351562 320.441406 21.210938 320.640625 Z M 21.210938 320.640625 " fill-opacity="1" fill-rule="nonzero"/></g><path fill="#002169" d="M 159.976562 314.144531 C 153.613281 309.457031 145.644531 304.367188 135.800781 299.210938 C 101.109375 281.128906 57.644531 296.867188 57.175781 297.066406 C 53.535156 298.597656 49.332031 294.6875 50.613281 290.90625 C 50.613281 290.90625 77.535156 199.289062 77.535156 199.289062 L 63.871094 199.289062 L 27.707031 309.589844 C 50.542969 306.710938 115.910156 300.28125 159.976562 314.144531 Z M 159.976562 314.144531 " fill-opacity="1" fill-rule="nonzero"/><g clip-path="url(#6fe8b1469d)"><g clip-path="url(#23e510d93a)"><path fill="#ffffff" d="M 127.484375 152.609375 L 187.523438 166.554688 L 179.554688 200.863281 L 119.515625 186.917969 Z M 127.484375 152.609375 " fill-opacity="1" fill-rule="nonzero"/></g></g><g clip-path="url(#2f819c68a9)"><g clip-path="url(#7dbcbb2b49)"><path fill="#ffffff" d="M 190.039062 164.367188 L 249.5 148.144531 L 258.769531 182.125 L 199.308594 198.347656 Z M 190.039062 164.367188 " fill-opacity="1" fill-rule="nonzero"/></g></g><g clip-path="url(#11594b44c6)"><path fill="#ff9e18" d="M 120.773438 232.015625 C 124.761719 235.613281 130.3125 238.785156 137.265625 241.4375 C 150.78125 246.59375 168.621094 249.429688 187.496094 249.429688 C 206.375 249.429688 224.214844 246.59375 237.730469 241.4375 C 244.6875 238.785156 250.234375 235.613281 254.222656 232.015625 C 260.324219 226.515625 261.601562 221 261.601562 217.34375 L 261.601562 176.132812 C 261.601562 176.015625 261.597656 175.898438 261.59375 175.785156 C 261.597656 175.597656 261.601562 175.417969 261.601562 175.242188 L 261.601562 94.605469 C 261.601562 94.488281 261.597656 94.371094 261.59375 94.257812 C 261.597656 94.070312 261.601562 93.890625 261.601562 93.714844 C 261.601562 90.054688 260.324219 84.539062 254.222656 79.039062 C 250.234375 75.441406 244.6875 72.273438 237.730469 69.621094 C 224.214844 64.464844 206.375 61.625 187.496094 61.625 C 168.621094 61.625 150.78125 64.464844 137.265625 69.621094 C 130.3125 72.273438 124.761719 75.441406 120.773438 79.039062 C 114.671875 84.539062 113.394531 90.054688 113.394531 93.710938 C 113.394531 93.890625 113.398438 94.070312 113.402344 94.253906 C 113.398438 94.371094 113.394531 94.488281 113.394531 94.605469 L 113.394531 175.242188 C 113.394531 175.417969 113.398438 175.597656 113.402344 175.785156 C 113.398438 175.898438 113.394531 176.015625 113.394531 176.132812 L 113.394531 217.34375 C 113.394531 221.003906 114.671875 226.515625 120.773438 232.015625 Z M 141.667969 81.164062 C 153.8125 76.53125 170.085938 73.980469 187.5 73.980469 C 204.910156 73.980469 221.183594 76.53125 233.328125 81.164062 C 243 84.851562 249.25 89.777344 249.25 93.710938 C 249.25 97.648438 243 102.574219 233.328125 106.261719 C 221.183594 110.894531 204.910156 113.445312 187.5 113.445312 C 170.085938 113.445312 153.8125 110.894531 141.667969 106.261719 C 131.996094 102.574219 125.746094 97.648438 125.746094 93.710938 C 125.746094 89.777344 131.996094 84.851562 141.667969 81.164062 Z M 125.746094 134.03125 L 125.746094 112.140625 C 128.992188 114.222656 132.84375 116.121094 137.265625 117.804688 C 150.78125 122.960938 168.621094 125.800781 187.496094 125.800781 C 206.375 125.800781 224.214844 122.960938 237.730469 117.804688 C 242.152344 116.121094 246.003906 114.222656 249.25 112.140625 L 249.25 135.816406 C 249.25 139.75 243 144.675781 233.328125 148.367188 C 221.183594 152.996094 204.90625 155.546875 187.496094 155.546875 C 170.085938 155.546875 153.8125 152.996094 141.667969 148.367188 C 131.996094 144.675781 125.746094 139.75 125.746094 135.816406 Z M 125.746094 154.242188 C 128.992188 156.324219 132.84375 158.222656 137.265625 159.90625 C 150.78125 165.0625 168.621094 167.902344 187.496094 167.902344 C 206.375 167.902344 224.214844 165.0625 237.730469 159.90625 C 242.152344 158.222656 246.003906 156.324219 249.25 154.242188 L 249.25 175.242188 C 249.25 179.175781 243 184.101562 233.328125 187.789062 C 221.183594 192.421875 204.90625 194.972656 187.496094 194.972656 C 170.085938 194.972656 153.8125 192.421875 141.667969 187.789062 C 131.996094 184.101562 125.746094 179.175781 125.746094 175.242188 Z M 125.746094 193.671875 C 128.992188 195.75 132.84375 197.648438 137.265625 199.332031 C 150.78125 204.488281 168.621094 207.328125 187.496094 207.328125 C 206.375 207.328125 224.214844 204.488281 237.730469 199.332031 C 242.152344 197.648438 246.003906 195.75 249.25 193.671875 L 249.25 217.34375 C 249.25 221.277344 243 226.203125 233.328125 229.894531 C 221.183594 234.527344 204.90625 237.078125 187.496094 237.078125 C 170.085938 237.078125 153.8125 234.527344 141.667969 229.894531 C 131.996094 226.203125 125.746094 221.277344 125.746094 217.34375 Z M 125.746094 193.671875 " fill-opacity="1" fill-rule="nonzero"/></g></svg>