<?xml version="1.0" encoding="UTF-8"?>
<svg id="Layer_1" data-name="Layer 1" xmlns="http://www.w3.org/2000/svg" xmlns:xlink="http://www.w3.org/1999/xlink" viewBox="0 0 200 200">
  <defs>
    <style>
      .cls-1, .cls-2 {
        stroke: #fff;
        stroke-miterlimit: 10;
      }

      .cls-1, .cls-3, .cls-4 {
        fill: #011e41;
      }

      .cls-2 {
        fill: #fff;
      }

      .cls-5 {
        fill: url(#linear-gradient);
      }

      .cls-4 {
        font-family: Bahnschrift-Bold, Bahnschrift;
        font-size: 50px;
        font-variation-settings: 'wght' 700, 'wdth' 100;
        font-weight: 700;
      }
    </style>
    <linearGradient id="linear-gradient" x1="74.74" y1="51.46" x2="127.05" y2="103.77" gradientUnits="userSpaceOnUse">
      <stop offset="0" stop-color="#22305d"/>
      <stop offset="1" stop-color="#4079bc"/>
    </linearGradient>
  </defs>
  <path class="cls-3" d="M185.67,28.81h-78.63c-3.51,0-6.39,2.87-6.39,6.39,0-3.51-2.87-6.39-6.39-6.39H15.64c-3.51,0-6.39,2.87-6.39,6.39v119.05c0,3.51,32.29-20.4,91.4,0,59.11-20.4,91.4,3.51,91.4,0V35.2c0-3.51-2.87-6.39-6.39-6.39Z"/>
  <path class="cls-1" d="M26.32,6.43v119.25c7.6-3.55,56.39.53,73.28,19.34l.53-116.95C98.09,3.24,24.69-4.92,26.32,6.43Z"/>
  <path class="cls-1" d="M101.19,28.08l.53,116.95c16.89-18.81,65.68-22.89,73.28-19.34V6.43c1.63-11.36-71.77-3.19-73.81,21.65Z"/>
  <rect class="cls-3" x="94.51" y="44.89" width="12.3" height="76.66"/>
  <circle class="cls-2" cx="101.19" cy="78.81" r="40.19"/>
  <text class="cls-4" transform="translate(55.87 194.64)"><tspan x="0" y="0">ELN</tspan></text>
  <path class="cls-5" d="M104.16,41.31c-.88,0-1.6.64-1.75,1.47-.33,0-.66-.03-.99-.03-2.89,0-5.7.36-8.4,1.01-.26-.66-.9-1.12-1.65-1.12-.98,0-1.78.8-1.78,1.78,0,.12.01.24.04.35-4.19,1.49-8.03,3.74-11.33,6.6-.46-.4-1.06-.66-1.72-.66-1.45,0-2.63,1.18-2.63,2.63,0,.66.25,1.26.66,1.72-2.49,2.88-4.52,6.17-5.98,9.74-.08-.01-.16-.02-.24-.02-.74,0-1.33.6-1.33,1.33,0,.49.27.92.67,1.15-1.11,3.44-1.72,7.1-1.72,10.9,0,.32.02.64.02.96-1.04.15-1.84,1.04-1.84,2.13,0,1.19.97,2.16,2.16,2.16.02,0,.03,0,.05,0,.45,3,1.27,5.87,2.42,8.58-.35.24-.59.64-.59,1.1,0,.74.6,1.33,1.33,1.33.13,0,.26-.03.38-.06,1.51,2.92,3.41,5.6,5.63,7.97-.37.45-.6,1.02-.6,1.65,0,1.45,1.18,2.63,2.63,2.63.71,0,1.34-.28,1.81-.73,2.77,2.21,5.88,4,9.23,5.31-.01.07-.02.15-.02.23,0,.74.6,1.33,1.33,1.33.51,0,.94-.28,1.16-.7,2.73.83,5.6,1.35,8.56,1.49.11.62.65,1.1,1.31,1.1s1.19-.46,1.31-1.08c3.29-.08,6.47-.6,9.48-1.52.41.91,1.32,1.55,2.39,1.55,1.45,0,2.63-1.18,2.63-2.63,0-.29-.06-.56-.14-.82,2.01-.96,3.92-2.11,5.71-3.42.23.2.54.33.87.33.74,0,1.33-.6,1.33-1.33,0-.23-.06-.44-.16-.62,2.43-2.08,4.58-4.47,6.38-7.12.24.12.51.2.8.2.98,0,1.78-.8,1.78-1.78,0-.6-.3-1.12-.75-1.45,2.43-4.5,3.92-9.59,4.19-14.99,1.36-.1,2.44-1.22,2.44-2.61s-1.14-2.59-2.56-2.62c-.71-7.31-3.65-13.98-8.13-19.31.44-.47.71-1.09.71-1.79,0-1.45-1.18-2.63-2.63-2.63-.67,0-1.27.26-1.73.67-5.19-4.6-11.73-7.7-18.95-8.63-.02-.97-.81-1.74-1.78-1.74ZM129.81,96.07l-7.63-.27c-.11-.62-.65-1.1-1.31-1.1-.31,0-.59.11-.82.29l-3.25-2.71c.25-.4.4-.86.4-1.37,0-.3-.06-.59-.16-.86l7.51-3.66c.24.31.62.51,1.04.51.13,0,.26-.03.38-.06l4.49,8.16c-.33.26-.56.63-.64,1.06ZM107.45,102.16c0,.49.2.93.52,1.26l-6.38,8.71c-.06-.03-.11-.05-.17-.08l1.16-14.36c.58-.09,1.03-.54,1.12-1.12,3.45-.41,6.63-1.75,9.26-3.76.11.09.22.18.34.26l-3.55,7.39c-.16-.05-.34-.08-.52-.08-.98,0-1.78.8-1.78,1.78ZM100.23,112.21l-8.72-8.41c.2-.29.32-.64.32-1.02,0-.19-.04-.38-.1-.55l9.65-4.97c.17.19.38.33.63.4l-1.16,14.33c-.23.02-.45.1-.63.22ZM77.85,101.4l-.15-11.9c.41-.08.75-.33.97-.67l11.94,4.68c-.07.21-.12.42-.12.65,0,.85.51,1.57,1.25,1.89l-1.44,4.98c-.08-.01-.17-.03-.26-.03-.95,0-1.72.74-1.77,1.68l-8.12.79c-.23-1.11-1.16-1.96-2.31-2.07ZM68.5,81.26c0-.59-.23-1.11-.61-1.5l7.13-9.23c.19.1.4.16.63.16s.46-.07.65-.17l5.45,6.44c-.44.33-.72.84-.72,1.43,0,.7.41,1.3.99,1.59l-4.07,6.66c-.17-.07-.35-.1-.54-.1-.44,0-.83.19-1.1.49l-7.99-4.9c.12-.26.18-.56.18-.86ZM76.72,55.96c.6-.03,1.13-.26,1.56-.63l7.61,7.86c-.42.47-.68,1.08-.68,1.75,0,.22.04.44.09.64l-8.5,2.98c-.19-.29-.48-.49-.82-.58l.75-12.03ZM104.76,44.76l3.27,5.86c-.42.33-.69.83-.69,1.4,0,.36.11.69.29.97l-5.34,4.86c-.26-.23-.6-.38-.98-.38-.43,0-.82.19-1.09.49l-5.95-4.24c.08-.18.13-.37.13-.58,0-.25-.07-.49-.19-.69l8.84-7.98c.31.25.69.4,1.11.4.21,0,.41-.04.6-.11ZM125.26,67.98c-.56.02-1.05.3-1.36.73l-7.26-3.59c.08-.22.13-.46.13-.71,0-.44-.13-.84-.35-1.18l8.47-7.62c.35.31.79.54,1.28.62l-.9,11.76ZM124.64,84.65c-.24.24-.38.57-.38.93,0,.11.02.22.04.32l-7.5,3.66c-.07-.12-.16-.22-.25-.33,2.28-2.99,3.7-6.67,3.88-10.66.06-.01.11-.03.17-.05l4.05,6.13ZM103.66,96.03c-.16-.56-.67-.97-1.28-.97-.66,0-1.2.48-1.31,1.1-2.33-.04-4.55-.52-6.59-1.35.07-.2.11-.42.11-.64,0-1.13-.92-2.05-2.05-2.05-.65,0-1.22.31-1.59.78-4.18-2.9-7.11-7.48-7.81-12.76.82-.16,1.44-.88,1.44-1.75,0-.91-.69-1.65-1.57-1.76.21-3.52,1.41-6.78,3.33-9.51.42.29.93.45,1.48.45,1.45,0,2.63-1.18,2.63-2.63,0-.61-.21-1.16-.56-1.6,2.78-2.24,6.22-3.69,9.98-4,.17.64.74,1.12,1.44,1.12s1.28-.48,1.44-1.14c3.77.27,7.23,1.67,10.03,3.87-.24.35-.37.77-.37,1.22,0,1.2.98,2.18,2.18,2.18.46,0,.89-.15,1.24-.39,2.17,2.71,3.6,6.04,3.97,9.68-.63.13-1.11.69-1.11,1.36s.51,1.26,1.18,1.36c-.18,3.84-1.54,7.38-3.73,10.26-.42-.3-.93-.49-1.49-.49-1.41,0-2.55,1.14-2.55,2.55,0,.56.18,1.07.49,1.49-2.54,1.93-5.6,3.22-8.92,3.62ZM90.84,101.2l1.45-5.01c.09.01.17.03.26.03.71,0,1.33-.36,1.7-.9,2.12.87,4.43,1.36,6.85,1.41,0,.02.01.04.02.06l-9.63,4.96c-.17-.23-.39-.41-.65-.54ZM78.9,88.03c0-.44-.19-.82-.48-1.1l4.15-6.79s.01,0,.02,0c.63,4.95,3.17,9.31,6.86,12.31l-10.57-4.15c.02-.09.03-.18.03-.28ZM76.72,70.16c.18-.23.29-.52.29-.84,0-.08-.01-.16-.02-.23l8.49-2.98c.12.23.26.45.44.64-2,2.83-3.26,6.22-3.46,9.89-.07.01-.14.04-.2.06l-5.53-6.54ZM78.66,54.92c.3-.4.48-.88.52-1.4l12.51-.09c.07.34.27.63.55.83l-3.6,8.2c-.26-.08-.53-.14-.81-.14-.57,0-1.1.19-1.53.5l-7.64-7.89ZM109.53,53.76l3.88,8.82c-.09.06-.17.12-.25.19-2.9-2.28-6.48-3.74-10.39-4.01-.02-.17-.07-.32-.15-.47l5.38-4.89c.31.25.69.41,1.12.41.14,0,.27-.02.41-.05ZM99.84,58.78c-3.9.33-7.46,1.83-10.34,4.16-.11-.09-.23-.18-.35-.25l3.6-8.21c.09.02.19.03.28.03.35,0,.66-.13.9-.34l5.99,4.27c-.04.11-.07.22-.08.34ZM120.35,75.87c-.37-3.79-1.85-7.25-4.12-10.07.05-.06.11-.12.16-.19l7.25,3.59c-.06.17-.09.35-.09.55,0,.52.23.99.58,1.31l-3.5,4.9c-.09-.04-.18-.07-.28-.09ZM123.99,53.64c0,.58.19,1.11.51,1.54l-8.45,7.61c-.39-.35-.9-.57-1.46-.57-.24,0-.46.05-.68.12l-3.87-8.8c.4-.24.7-.64.81-1.11l13.14,1.21ZM125.11,84.34l-4.05-6.14c.25-.25.4-.59.4-.97s-.14-.69-.37-.94l3.52-4.91c.22.1.47.16.73.16.53,0,1.01-.24,1.33-.61l7.62,5.2c-.19.37-.32.78-.32,1.22,0,.5.15.96.39,1.36l-7.9,5.87c-.23-.21-.54-.33-.87-.33-.17,0-.33.04-.48.09ZM134.6,75.67l-7.63-5.21c.09-.22.15-.45.15-.71,0-.82-.55-1.5-1.3-1.71l.9-11.79c.52-.02,1-.18,1.4-.46,4.4,5.25,7.29,11.8,7.99,18.99-.6.11-1.12.44-1.5.89ZM124.05,53.09l-13.16-1.21c-.08-.91-.83-1.63-1.77-1.63-.21,0-.42.04-.61.11l-3.27-5.86c.29-.22.5-.53.61-.89,7.1.91,13.54,3.96,18.65,8.48-.22.29-.38.63-.45,1ZM101.41,43.31c.33,0,.66.02.99.03.04.27.13.51.27.73l-8.83,7.97c-.23-.17-.5-.27-.81-.27,0,0-.01,0-.02,0l-1.03-5.67c.68-.25,1.17-.9,1.17-1.67,0-.04,0-.08-.01-.12,2.66-.65,5.43-1,8.28-1ZM91.36,46.21s.04,0,.07,0l1.04,5.68c-.4.18-.7.54-.78.98l-12.53.09c-.07-.44-.23-.83-.48-1.17,3.25-2.81,7.02-5.02,11.15-6.49.31.54.88.91,1.55.91ZM75.01,55.45c.33.25.72.41,1.15.48l-.75,12.04c-.35.06-.66.26-.87.53l-4.86-2.15c.01-.08.02-.15.02-.23,0-.45-.23-.85-.58-1.1,1.44-3.51,3.43-6.74,5.87-9.57ZM68.25,67.44s.08.01.13.01c.46,0,.86-.23,1.1-.58l4.83,2.14c-.02.1-.04.2-.04.31,0,.33.12.62.31.86l-7.14,9.24c-.26-.16-.55-.26-.87-.29,0-.32-.02-.63-.02-.95,0-3.74.6-7.35,1.7-10.73ZM66.94,83.33c.44-.13.81-.38,1.09-.73l7.99,4.9c-.06.17-.1.34-.1.53,0,.2.04.39.11.57l-5.51,3.58c-.24-.25-.58-.41-.96-.41-.08,0-.15.01-.22.02-1.14-2.67-1.95-5.51-2.39-8.46ZM70.88,93.1c0-.16-.03-.3-.08-.44l5.53-3.59c.22.22.5.38.82.44l.15,11.9c-.5.06-.96.25-1.33.55-2.19-2.34-4.05-4.98-5.54-7.85.28-.24.46-.6.46-1ZM79.76,105.46c.28-.41.44-.91.45-1.44l8.12-.79c.18.67.73,1.19,1.43,1.31l-.04,5.58c-.36.06-.67.27-.87.56-3.3-1.28-6.35-3.05-9.08-5.21ZM91.27,111.42c0-.62-.43-1.14-1-1.29l.04-5.6c.3-.05.57-.16.8-.34l8.73,8.41c-.07.11-.12.24-.16.37-2.92-.14-5.74-.65-8.43-1.47,0-.03,0-.06,0-.1ZM102.27,113.01c-.04-.19-.13-.37-.25-.52l6.4-8.75c.24.13.52.2.81.2.22,0,.42-.04.62-.12l2.8,4.99c-.67.48-1.12,1.26-1.12,2.14,0,.19.02.37.06.55-2.96.9-6.08,1.42-9.31,1.5ZM114.15,108.34c-.36,0-.71.07-1.02.21l-2.8-4.99c.41-.33.68-.83.68-1.39,0-.6-.3-1.14-.76-1.46l3.55-7.39c.27.09.55.16.85.16.7,0,1.34-.29,1.8-.75l3.24,2.7c-.1.18-.15.39-.15.61,0,.74.6,1.33,1.33,1.33.01,0,.02,0,.04,0l1.74,7.16c-.45.21-.76.67-.76,1.2,0,.2.05.39.12.56-1.75,1.29-3.62,2.41-5.6,3.36-.46-.77-1.29-1.3-2.25-1.3ZM124.02,104.67c-.23-.17-.5-.28-.81-.28,0,0-.02,0-.02,0l-1.74-7.17c.35-.17.61-.49.71-.87l7.65.27c.05.4.23.76.5,1.03-1.77,2.61-3.89,4.97-6.28,7.02ZM130.94,94.73l-4.48-8.15c.28-.24.46-.6.46-1,0-.2-.05-.38-.12-.55l7.9-5.87c.4.42.93.7,1.53.79-.27,5.32-1.73,10.33-4.13,14.76-.17-.05-.35-.09-.53-.09-.22,0-.43.04-.62.12Z"/>
</svg>