<?xml version="1.0" encoding="UTF-8"?>
<svg id="Layer_1" data-name="Layer 1" xmlns="http://www.w3.org/2000/svg" viewBox="0 0 200 200">
  <defs>
    <style>
      .cls-1 {
        fill: #00103b;
      }

      .cls-2 {
        fill: #fff;
      }

      .cls-3 {
        fill: #087;
      }
    </style>
  </defs>
  <path class="cls-3" d="M106.52,84.55c0,19.15-15.76,34.67-35.19,34.67-17.01,0-31.19-11.88-34.48-27.68-.47-2.26,8.67,3.3,30.48-10.69,8.81-5.65,34.65-12.47,37.56-7.36,1.32,2.32,1.63,6.04,1.63,11.06Z"/>
  <path class="cls-1" d="M88.87,46.45v-20.73h5.67c1.63,0,2.97-1.32,2.97-2.93v-1.46c0-1.61-1.34-2.93-2.97-2.93h-13.18v4.47h0v28.83c13.8,4.13,23.84,16.75,23.84,31.7,0,18.29-15.05,33.12-33.62,33.12s-33.62-14.83-33.62-33.12c0-14.96,10.06-27.59,23.88-31.71v-28.82h-.01v-4.47h-13.18c-1.63,0-2.97,1.32-2.97,2.93v1.46c0,1.61,1.34,2.93,2.97,2.93h4.79v21.14c-13.54,6.6-22.85,20.34-22.85,36.23,0,22.32,18.36,40.41,41.02,40.41s41.02-18.09,41.02-40.41c0-16.23-9.72-30.22-23.73-36.65Z"/>
  <path class="cls-1" d="M183.06,165.09l-35.47-34.95c-1.77-1.74-4.02-2.74-6.34-3v-.02h-.13c-.72-.07-1.45-.07-2.17,0h-8.02l-9.27-9.13c7.26-9.86,11.55-21.99,11.55-35.1,0-24.24-14.63-45.1-35.66-54.51v14.75c13.6,8.49,22.63,23.44,22.63,40.47,0,26.45-21.77,47.9-48.62,47.9s-48.62-21.44-48.62-47.9c0-16.93,8.92-31.79,22.38-40.31v-13.98c-19.95,9.82-33.66,30.12-33.66,53.58,0,33.06,27.21,59.87,60.77,59.87,12.56,0,24.23-3.76,33.92-10.19l9.91,9.76v7.15c-.07.71-.07,1.42,0,2.12v.61h.09c.34,2.12,1.33,4.15,2.97,5.77l35.86,35.33c7.67,7.55,20.21,7.55,27.88,0h0c7.88-7.76,7.88-20.46,0-28.23ZM174.85,185.22c-3.58,3.53-9.83,3.15-13.88-.84l-30.94-30.48c-4.05-3.99-4.44-10.14-.86-13.67s9.83-3.15,13.88.84l30.94,30.48c4.05,3.99,4.44,10.14.86,13.67Z"/>
  <ellipse class="cls-3" cx="79.46" cy="5.25" rx="3.47" ry="3.42"/>
  <ellipse class="cls-3" cx="62.1" cy="66.4" rx="3.47" ry="3.42"/>
  <ellipse class="cls-2" cx="68.75" cy="89.21" rx="4.34" ry="4.28"/>
  <ellipse class="cls-3" cx="52.45" cy="76.46" rx="2.17" ry="2.14"/>
  <ellipse class="cls-3" cx="69.53" cy="6.58" rx="2.6" ry="2.57"/>
  <ellipse class="cls-2" cx="56.79" cy="101.56" rx="2.17" ry="2.14"/>
  <ellipse class="cls-3" cx="69.53" cy="15.46" rx="1.74" ry="1.71"/>
</svg>