<?xml version="1.0" encoding="UTF-8" standalone="no"?>
<!-- Generator: Adobe Illustrator 18.1.1, SVG Export Plug-In . SVG Version: 6.00 Build 0)  -->

<svg
   xmlns:dc="http://purl.org/dc/elements/1.1/"
   xmlns:cc="http://creativecommons.org/ns#"
   xmlns:rdf="http://www.w3.org/1999/02/22-rdf-syntax-ns#"
   xmlns:svg="http://www.w3.org/2000/svg"
   xmlns="http://www.w3.org/2000/svg"
   xmlns:sodipodi="http://sodipodi.sourceforge.net/DTD/sodipodi-0.dtd"
   xmlns:inkscape="http://www.inkscape.org/namespaces/inkscape"
   version="1.1"
   id="Layer_1"
   x="0px"
   y="0px"
   viewBox="7.7 3 347 74.6"
   enable-background="new 7.7 3 347 74.6"
   xml:space="preserve"
   sodipodi:docname="galaxy_logo_hub.svg"
   inkscape:version="0.92.5 (2060ec1f9f, 2020-04-08)"><metadata
   id="metadata48"><rdf:RDF><cc:Work
       rdf:about=""><dc:format>image/svg+xml</dc:format><dc:type
         rdf:resource="http://purl.org/dc/dcmitype/StillImage" /></cc:Work></rdf:RDF></metadata><defs
   id="defs46" /><sodipodi:namedview
   pagecolor="#ffffff"
   bordercolor="#666666"
   borderopacity="1"
   objecttolerance="10"
   gridtolerance="10"
   guidetolerance="10"
   inkscape:pageopacity="0"
   inkscape:pageshadow="2"
   inkscape:window-width="1287"
   inkscape:window-height="547"
   id="namedview44"
   showgrid="false"
   inkscape:zoom="1.1037464"
   inkscape:cx="107.29821"
   inkscape:cy="-17.180419"
   inkscape:window-x="1022"
   inkscape:window-y="518"
   inkscape:window-maximized="0"
   inkscape:current-layer="g27" />
<path
   fill="#58595B"
   d="M57.7,27.9h-47c-0.6,0-1.1-0.5-1.1-1.1V14.6c0-0.6,0.5-1.1,1.1-1.1h47c0.6,0,1.1,0.5,1.1,1.1v12.1  C58.8,27.3,58.4,27.9,57.7,27.9z"
   id="path2" />
<path
   fill="#58595B"
   d="M45.1,46.8H10.8c-0.6,0-1.2-0.5-1.2-1.2v-12c0-0.6,0.5-1.2,1.2-1.2h34.3c0.6,0,1.2,0.5,1.2,1.2v12  C46.3,46.3,45.8,46.8,45.1,46.8z"
   id="path4" />
<linearGradient
   id="SVGID_1_"
   gradientUnits="userSpaceOnUse"
   x1="61.4"
   y1="282.5"
   x2="175.7"
   y2="282.5"
   gradientTransform="matrix(0.431 0 0 -0.431 0 179.9715)">
	<stop
   offset="0.1656"
   style="stop-color:#D0BD2B"
   id="stop6" />
	<stop
   offset="1"
   style="stop-color:#D0BD2B;stop-opacity:0"
   id="stop8" />
</linearGradient>
<path
   fill="url(#SVGID_1_)"
   d="M74.6,65.4H27.6c-0.6,0-1.2-0.5-1.2-1.2v-12c0-0.6,0.5-1.2,1.2-1.2h46.9c0.6,0,1.2,0.5,1.2,1.2v12  C75.7,64.9,75.2,65.4,74.6,65.4z"
   id="path11" />
<g
   id="g41">
	<path
   fill="#58595B"
   d="M139.2,58.2c-2.5,0.9-5.7,1.9-9.7,2.8c-4.1,0.9-8.1,1.4-12.1,1.4c-9.3,0-16.6-2.5-21.9-7.6   c-5.3-5.1-7.9-12.1-7.9-21c0-8.5,2.7-15.4,8-20.6c5.3-5.2,12.8-7.8,22.3-7.8c3.6,0,7,0.3,10.3,1c3.3,0.6,6.9,1.9,10.9,3.9v12.8   h-1.6c-0.7-0.5-1.7-1.2-3-2.2s-2.6-1.8-3.8-2.4c-1.4-0.8-3.1-1.5-5-2c-1.9-0.6-3.9-0.9-6.1-0.9c-2.5,0-4.8,0.4-6.8,1.1   c-2,0.7-3.9,1.9-5.5,3.4c-1.6,1.5-2.8,3.4-3.7,5.6c-0.9,2.3-1.3,4.9-1.3,7.8c0,6.1,1.6,10.7,4.8,13.9c3.2,3.2,8,4.8,14.3,4.8   c0.6,0,1.1,0,1.8,0c0.6,0,1.2,0,1.8-0.1V41.4h-10.9V31.1h25.3L139.2,58.2L139.2,58.2z"
   id="path29" />
	<path
   fill="#58595B"
   d="M172.7,57c-0.7,0.6-1.6,1.2-2.7,1.9c-1,0.8-2.1,1.4-3,1.8c-1.3,0.6-2.7,1-4.1,1.3c-1.4,0.3-2.9,0.4-4.6,0.4   c-3.9,0-7.2-1.2-9.9-3.7c-2.7-2.4-4-5.5-4-9.3c0-3,0.7-5.5,2-7.4c1.3-1.9,3.3-3.4,5.7-4.5s5.5-1.9,9.1-2.4c3.6-0.5,7.4-0.8,11.3-1   v-0.2c0-2.3-0.9-3.9-2.8-4.7c-1.9-0.9-4.6-1.3-8.2-1.3c-2.2,0-4.5,0.4-7,1.2c-2.5,0.8-4.3,1.4-5.3,1.8h-1.2v-10   c1.4-0.4,3.7-0.8,6.9-1.3c3.1-0.5,6.3-0.8,9.5-0.8c7.5,0,13,1.2,16.3,3.5s5,5.9,5,10.9v28.1h-13.1L172.7,57L172.7,57z M172.7,50.5   V42c-1.8,0.1-3.7,0.3-5.8,0.6c-2.1,0.3-3.7,0.6-4.7,0.9c-1.3,0.4-2.3,1-3,1.8c-0.7,0.8-1,1.9-1,3.1c0,0.9,0.1,1.6,0.2,2.1   c0.1,0.6,0.5,1,1.1,1.6c0.6,0.5,1.2,0.9,2,1.1c0.8,0.2,2,0.3,3.7,0.3c1.3,0,2.7-0.3,4.1-0.8C170.5,52.1,171.7,51.4,172.7,50.5z"
   id="path31" />
	<path
   fill="#58595B"
   d="M208,61.3h-13.3V4H208V61.3z"
   id="path33" />
	<path
   fill="#58595B"
   d="M242.1,57c-0.7,0.6-1.6,1.2-2.7,1.9c-1,0.8-2.1,1.4-3,1.8c-1.3,0.6-2.7,1-4.1,1.3c-1.4,0.3-2.9,0.4-4.6,0.4   c-3.9,0-7.2-1.2-9.9-3.7c-2.7-2.4-4-5.5-4-9.3c0-3,0.7-5.5,2-7.4c1.3-1.9,3.3-3.4,5.7-4.5c2.5-1.1,5.5-1.9,9.1-2.4   c3.6-0.5,7.4-0.8,11.3-1v-0.2c0-2.3-0.9-3.9-2.8-4.7c-1.9-0.9-4.6-1.3-8.2-1.3c-2.2,0-4.5,0.4-7,1.2c-2.5,0.8-4.3,1.4-5.3,1.8h-1.2   v-10c1.4-0.4,3.7-0.8,6.9-1.3c3.1-0.5,6.3-0.8,9.5-0.8c7.5,0,13,1.2,16.3,3.5c3.4,2.3,5,5.9,5,10.9v28.1h-13.1L242.1,57L242.1,57z    M242.1,50.5V42c-1.8,0.1-3.7,0.3-5.8,0.6c-2.1,0.3-3.7,0.6-4.7,0.9c-1.3,0.4-2.3,1-3,1.8c-0.7,0.8-1,1.9-1,3.1   c0,0.9,0.1,1.6,0.2,2.1c0.1,0.6,0.5,1,1.1,1.6c0.6,0.5,1.2,0.9,2,1.1c0.8,0.2,2,0.3,3.7,0.3c1.3,0,2.7-0.3,4.1-0.8   C239.9,52.1,241.1,51.4,242.1,50.5z"
   id="path35" />
	<path
   fill="#58595B"
   d="M307.3,61.3h-15.5L283,49l-9.1,12.4h-15.2L275,40.7L259,20h15.5l8.7,12.2l8.7-12.2h15.2l-16.1,20.4   L307.3,61.3z"
   id="path37" />
	<path
   fill="#58595B"
   d="M329.8,46.7l9.4-26.7h13.6l-23,56.5h-14.4l6.6-15.5L306,20h13.9L329.8,46.7z"
   id="path39" />
</g>
</svg>