<?xml version="1.0" encoding="UTF-8"?>
<svg id="Layer_1" data-name="Layer 1" xmlns="http://www.w3.org/2000/svg" viewBox="0 0 200 200">
  <defs>
    <style>
      .cls-1 {
        fill: #fff;
      }

      .cls-2 {
        fill: #011e41;
      }
    </style>
  </defs>
  <g>
    <polygon class="cls-2" points="161.11 45.75 149.88 38.59 91.22 38.59 91.22 35.15 130.42 20.63 139.03 11.27 124.81 11.27 91.22 20.69 91.22 2.67 81.96 2.67 81.96 29.52 50.52 20.82 35.37 20.82 46.22 30.92 81.96 44.58 81.96 49.26 23.02 49.26 12.07 55.99 23.02 62.73 81.96 62.73 81.96 196.89 91.22 196.89 91.22 52.91 149.88 52.91 161.11 45.75"/>
    <ellipse class="cls-2" cx="149.27" cy="78.52" rx="11.32" ry="11.26"/>
    <path class="cls-2" d="M102.17,73.96l31.25,20.43,8.59-.02v-3.29h13.99v3.29s9.75,0,9.75,0h0s0,0,0,0l21.72,33.86c1.72,2.73.89,6.34-1.84,8.08-2.73,1.74-6.39.97-8.15-1.73l-11.74-18.3v28.08h0v52.54h-13.69v-44.08s-5.55,0-5.55,0v44.08h-13.69v-52.54s-.08,0-.08,0v-37.35s-32.85-21.72-32.85-21.72c-3.88-3.09-7.06-5.34-5.38-8.71,1.45-2.9,3.74-4.3,7.67-2.62Z"/>
  </g>
  <path class="cls-1" d="M150.96,105.45c-.32,0-.58.23-.63.53-.12,0-.24,0-.36,0-1.04,0-2.06.13-3.03.37-.1-.24-.33-.4-.6-.4-.36,0-.64.29-.64.64,0,.04,0,.09.01.13-1.51.54-2.9,1.35-4.09,2.38-.17-.15-.38-.24-.62-.24-.52,0-.95.42-.95.95,0,.24.09.46.24.62-.9,1.04-1.63,2.23-2.16,3.52-.03,0-.06,0-.09,0-.27,0-.48.22-.48.48,0,.18.1.33.24.42-.4,1.24-.62,2.56-.62,3.94,0,.12,0,.23,0,.35-.38.06-.67.38-.67.77,0,.43.35.78.78.78,0,0,.01,0,.02,0,.16,1.08.46,2.12.87,3.1-.13.09-.21.23-.21.4,0,.27.22.48.48.48.05,0,.09,0,.14-.02.54,1.05,1.23,2.02,2.03,2.88-.13.16-.22.37-.22.6,0,.52.42.95.95.95.25,0,.48-.1.66-.27,1,.8,2.12,1.45,3.33,1.92,0,.03,0,.05,0,.08,0,.27.22.48.48.48.18,0,.34-.1.42-.25.99.3,2.02.49,3.09.54.04.23.24.4.47.4s.43-.17.47-.39c1.19-.03,2.34-.22,3.42-.55.15.33.48.56.86.56.52,0,.95-.42.95-.95,0-.1-.02-.2-.05-.3.73-.35,1.42-.76,2.06-1.24.08.07.19.12.31.12.27,0,.48-.22.48-.48,0-.08-.02-.16-.06-.22.88-.75,1.66-1.61,2.3-2.57.09.04.18.07.29.07.36,0,.64-.29.64-.64,0-.22-.11-.41-.27-.52.88-1.63,1.41-3.46,1.51-5.41.49-.04.88-.44.88-.94s-.41-.93-.93-.95c-.26-2.64-1.32-5.05-2.94-6.97.16-.17.26-.4.26-.64,0-.52-.42-.95-.95-.95-.24,0-.46.09-.63.24-1.87-1.66-4.24-2.78-6.84-3.12,0-.35-.29-.63-.64-.63ZM160.22,125.22l-2.76-.1c-.04-.23-.24-.4-.47-.4-.11,0-.21.04-.3.11l-1.17-.98c.09-.14.15-.31.15-.49,0-.11-.02-.21-.06-.31l2.71-1.32c.09.11.22.19.38.19.05,0,.09,0,.14-.02l1.62,2.95c-.12.09-.2.23-.23.38ZM152.14,127.43c0,.18.07.34.19.45l-2.3,3.15s-.04-.02-.06-.03l.42-5.19c.21-.03.37-.19.4-.4,1.25-.15,2.39-.63,3.34-1.36.04.03.08.07.12.09l-1.28,2.67c-.06-.02-.12-.03-.19-.03-.36,0-.64.29-.64.64ZM149.54,131.05l-3.15-3.04c.07-.1.12-.23.12-.37,0-.07-.01-.14-.03-.2l3.49-1.8c.06.07.14.12.23.14l-.42,5.17c-.08,0-.16.03-.23.08ZM141.45,127.15l-.05-4.3c.15-.03.27-.12.35-.24l4.31,1.69c-.03.07-.04.15-.04.24,0,.31.19.57.45.68l-.52,1.8s-.06,0-.09,0c-.34,0-.62.27-.64.61l-2.93.29c-.08-.4-.42-.71-.83-.75ZM138.08,119.88c0-.21-.08-.4-.22-.54l2.57-3.33c.07.04.15.06.23.06s.16-.02.23-.06l1.97,2.32c-.16.12-.26.3-.26.51,0,.25.15.47.36.57l-1.47,2.41c-.06-.02-.13-.04-.2-.04-.16,0-.3.07-.4.18l-2.88-1.77c.04-.1.07-.2.07-.31ZM141.05,110.74c.21-.01.41-.1.56-.23l2.75,2.84c-.15.17-.25.39-.25.63,0,.08.01.16.03.23l-3.07,1.08c-.07-.1-.17-.18-.3-.21l.27-4.35ZM151.17,106.7l1.18,2.12c-.15.12-.25.3-.25.5,0,.13.04.25.1.35l-1.93,1.76c-.09-.08-.22-.14-.35-.14-.16,0-.3.07-.4.18l-2.15-1.53c.03-.06.05-.13.05-.21,0-.09-.03-.18-.07-.25l3.19-2.88c.11.09.25.14.4.14.08,0,.15-.02.22-.04ZM158.58,115.08c-.2,0-.38.11-.49.26l-2.62-1.3c.03-.08.05-.17.05-.26,0-.16-.05-.3-.13-.43l3.06-2.75c.13.11.29.19.46.23l-.32,4.25ZM158.35,121.1c-.09.09-.14.21-.14.34,0,.04,0,.08.02.11l-2.71,1.32s-.06-.08-.09-.12c.82-1.08,1.34-2.41,1.4-3.85.02,0,.04-.01.06-.02l1.46,2.22ZM150.77,125.21c-.06-.2-.24-.35-.46-.35-.24,0-.43.17-.47.4-.84-.02-1.64-.19-2.38-.49.02-.07.04-.15.04-.23,0-.41-.33-.74-.74-.74-.23,0-.44.11-.58.28-1.51-1.05-2.57-2.7-2.82-4.61.3-.06.52-.32.52-.63,0-.33-.25-.6-.57-.64.07-1.27.51-2.45,1.2-3.43.15.1.34.16.53.16.52,0,.95-.42.95-.95,0-.22-.08-.42-.2-.58,1-.81,2.25-1.33,3.6-1.45.06.23.27.4.52.4s.46-.18.52-.41c1.36.1,2.61.6,3.62,1.4-.09.13-.14.28-.14.44,0,.43.35.79.79.79.17,0,.32-.05.45-.14.79.98,1.3,2.18,1.43,3.5-.23.05-.4.25-.4.49s.18.46.42.49c-.07,1.39-.56,2.66-1.35,3.7-.15-.11-.34-.18-.54-.18-.51,0-.92.41-.92.92,0,.2.07.39.18.54-.92.7-2.02,1.16-3.22,1.31ZM146.14,127.08l.52-1.81s.06,0,.09,0c.26,0,.48-.13.61-.33.77.31,1.6.49,2.47.51,0,0,0,.01,0,.02l-3.48,1.79c-.06-.08-.14-.15-.23-.2ZM141.84,122.32c0-.16-.07-.3-.17-.4l1.5-2.45s0,0,0,0c.23,1.79,1.15,3.36,2.48,4.45l-3.82-1.5s.01-.07.01-.1ZM141.05,115.87c.07-.08.11-.19.11-.3,0-.03,0-.06,0-.08l3.07-1.08c.04.08.1.16.16.23-.72,1.02-1.18,2.25-1.25,3.57-.03,0-.05.01-.07.02l-2-2.36ZM141.75,110.37c.11-.14.17-.32.19-.51l4.52-.03c.03.12.1.23.2.3l-1.3,2.96c-.09-.03-.19-.05-.29-.05-.21,0-.4.07-.55.18l-2.76-2.85ZM152.89,109.94l1.4,3.18s-.06.04-.09.07c-1.05-.82-2.34-1.35-3.75-1.45,0-.06-.03-.12-.05-.17l1.94-1.77c.11.09.25.15.4.15.05,0,.1,0,.15-.02ZM149.39,111.76c-1.41.12-2.69.66-3.73,1.5-.04-.03-.08-.06-.13-.09l1.3-2.96s.07.01.1.01c.13,0,.24-.05.33-.12l2.16,1.54s-.02.08-.03.12ZM156.8,117.93c-.13-1.37-.67-2.62-1.49-3.63.02-.02.04-.04.06-.07l2.62,1.3c-.02.06-.03.13-.03.2,0,.19.08.36.21.47l-1.27,1.77s-.07-.03-.1-.03ZM158.12,109.9c0,.21.07.4.18.56l-3.05,2.75c-.14-.13-.32-.21-.53-.21-.09,0-.17.02-.24.04l-1.4-3.18c.15-.09.25-.23.29-.4l4.74.44ZM158.52,120.99l-1.46-2.22c.09-.09.14-.21.14-.35s-.05-.25-.13-.34l1.27-1.77c.08.04.17.06.27.06.19,0,.36-.09.48-.22l2.75,1.88c-.07.13-.11.28-.11.44,0,.18.05.35.14.49l-2.85,2.12c-.08-.07-.19-.12-.32-.12-.06,0-.12.01-.17.03ZM161.95,117.86l-2.76-1.88c.03-.08.05-.16.05-.25,0-.3-.2-.54-.47-.62l.33-4.26c.19,0,.36-.07.5-.17,1.59,1.89,2.63,4.26,2.89,6.86-.22.04-.41.16-.54.32ZM158.14,109.7l-4.75-.44c-.03-.33-.3-.59-.64-.59-.08,0-.15.02-.22.04l-1.18-2.12c.1-.08.18-.19.22-.32,2.56.33,4.89,1.43,6.73,3.06-.08.11-.14.23-.16.36ZM149.96,106.17c.12,0,.24,0,.36,0,.01.1.05.19.1.26l-3.19,2.88c-.08-.06-.18-.1-.29-.1,0,0,0,0,0,0l-.37-2.05c.25-.09.42-.32.42-.6,0-.01,0-.03,0-.04.96-.23,1.96-.36,2.99-.36ZM146.33,107.22s.02,0,.02,0l.37,2.05c-.14.06-.25.2-.28.35l-4.52.03c-.02-.16-.08-.3-.18-.42,1.17-1.01,2.54-1.81,4.03-2.34.11.2.32.33.56.33ZM140.43,110.56c.12.09.26.15.42.17l-.27,4.35c-.13.02-.24.09-.31.19l-1.75-.78s0-.06,0-.08c0-.16-.08-.31-.21-.4.52-1.27,1.24-2.43,2.12-3.46ZM137.99,114.89s.03,0,.05,0c.16,0,.31-.08.4-.21l1.75.77s-.01.07-.01.11c0,.12.04.22.11.31l-2.58,3.34c-.09-.06-.2-.09-.31-.1,0-.11,0-.23,0-.34,0-1.35.22-2.65.61-3.88ZM137.51,120.62c.16-.05.29-.14.39-.26l2.88,1.77c-.02.06-.04.12-.04.19,0,.07.01.14.04.2l-1.99,1.29c-.09-.09-.21-.15-.35-.15-.03,0-.05,0-.08,0-.41-.96-.7-1.99-.86-3.06ZM138.94,124.15c0-.06-.01-.11-.03-.16l2-1.3c.08.08.18.14.3.16l.05,4.3c-.18.02-.35.09-.48.2-.79-.85-1.46-1.8-2-2.84.1-.09.17-.22.17-.36ZM142.15,128.62c.1-.15.16-.33.16-.52l2.93-.29c.06.24.26.43.52.47l-.02,2.01c-.13.02-.24.1-.32.2-1.19-.46-2.29-1.1-3.28-1.88ZM146.3,130.77c0-.22-.15-.41-.36-.46l.02-2.02c.11-.02.21-.06.29-.12l3.15,3.04s-.04.09-.06.13c-1.05-.05-2.07-.23-3.04-.53,0-.01,0-.02,0-.04ZM150.27,131.34c-.02-.07-.05-.13-.09-.19l2.31-3.16c.09.05.19.07.29.07.08,0,.15-.02.22-.04l1.01,1.8c-.24.17-.4.45-.4.77,0,.07,0,.13.02.2-1.07.33-2.2.51-3.36.54ZM154.56,129.66c-.13,0-.26.03-.37.07l-1.01-1.8c.15-.12.25-.3.25-.5,0-.22-.11-.41-.28-.53l1.28-2.67c.1.03.2.06.31.06.25,0,.48-.1.65-.27l1.17.97c-.03.07-.06.14-.06.22,0,.27.22.48.48.48,0,0,0,0,.01,0l.63,2.59c-.16.08-.28.24-.28.43,0,.07.02.14.05.2-.63.46-1.31.87-2.02,1.21-.17-.28-.47-.47-.81-.47ZM158.13,128.33c-.08-.06-.18-.1-.29-.1,0,0,0,0,0,0l-.63-2.59c.13-.06.22-.18.26-.31l2.76.1c.02.14.08.28.18.37-.64.94-1.4,1.8-2.27,2.53ZM160.63,124.74l-1.62-2.94c.1-.09.17-.22.17-.36,0-.07-.02-.14-.04-.2l2.85-2.12c.14.15.34.25.55.28-.1,1.92-.63,3.73-1.49,5.33-.06-.02-.13-.03-.19-.03-.08,0-.15.02-.22.04Z"/>
</svg>