<svg xmlns="http://www.w3.org/2000/svg" xmlns:xlink="http://www.w3.org/1999/xlink" width="500" zoomAndPan="magnify" viewBox="0 0 375 374.999991" height="500" preserveAspectRatio="xMidYMid meet" version="1.0"><defs><clipPath id="42de851f23"><path d="M 13.359375 179 L 34 179 L 34 200 L 13.359375 200 Z M 13.359375 179 " clip-rule="nonzero"/></clipPath><clipPath id="ce454979f8"><path d="M 61.292969 53.023438 L 89.816406 53.023438 L 89.816406 81.542969 L 61.292969 81.542969 Z M 61.292969 53.023438 " clip-rule="nonzero"/></clipPath><clipPath id="0c2709fce8"><path d="M 75.554688 53.023438 C 67.679688 53.023438 61.292969 59.40625 61.292969 67.28125 C 61.292969 75.160156 67.679688 81.542969 75.554688 81.542969 C 83.429688 81.542969 89.816406 75.160156 89.816406 67.28125 C 89.816406 59.40625 83.429688 53.023438 75.554688 53.023438 Z M 75.554688 53.023438 " clip-rule="nonzero"/></clipPath><clipPath id="bf35d7596b"><path d="M 26.988281 111.191406 L 55.511719 111.191406 L 55.511719 139.710938 L 26.988281 139.710938 Z M 26.988281 111.191406 " clip-rule="nonzero"/></clipPath><clipPath id="bcf8acddcc"><path d="M 41.25 111.191406 C 33.375 111.191406 26.988281 117.574219 26.988281 125.449219 C 26.988281 133.328125 33.375 139.710938 41.25 139.710938 C 49.125 139.710938 55.511719 133.328125 55.511719 125.449219 C 55.511719 117.574219 49.125 111.191406 41.25 111.191406 Z M 41.25 111.191406 " clip-rule="nonzero"/></clipPath><clipPath id="56c025b8f7"><path d="M 8.976562 173.988281 L 37.5 173.988281 L 37.5 202.511719 L 8.976562 202.511719 Z M 8.976562 173.988281 " clip-rule="nonzero"/></clipPath><clipPath id="9dca14531f"><path d="M 23.238281 173.988281 C 15.363281 173.988281 8.976562 180.375 8.976562 188.25 C 8.976562 196.125 15.363281 202.511719 23.238281 202.511719 C 31.113281 202.511719 37.5 196.125 37.5 188.25 C 37.5 180.375 31.113281 173.988281 23.238281 173.988281 Z M 23.238281 173.988281 " clip-rule="nonzero"/></clipPath><clipPath id="cabf98bc4f"><path d="M 26.988281 238.289062 L 55.511719 238.289062 L 55.511719 266.808594 L 26.988281 266.808594 Z M 26.988281 238.289062 " clip-rule="nonzero"/></clipPath><clipPath id="027c6d5bb2"><path d="M 41.25 238.289062 C 33.375 238.289062 26.988281 244.671875 26.988281 252.550781 C 26.988281 260.425781 33.375 266.808594 41.25 266.808594 C 49.125 266.808594 55.511719 260.425781 55.511719 252.550781 C 55.511719 244.671875 49.125 238.289062 41.25 238.289062 Z M 41.25 238.289062 " clip-rule="nonzero"/></clipPath><clipPath id="3343863518"><path d="M 60.011719 296.808594 L 88.53125 296.808594 L 88.53125 325.332031 L 60.011719 325.332031 Z M 60.011719 296.808594 " clip-rule="nonzero"/></clipPath><clipPath id="e071b7339b"><path d="M 74.273438 296.808594 C 66.394531 296.808594 60.011719 303.195312 60.011719 311.070312 C 60.011719 318.945312 66.394531 325.332031 74.273438 325.332031 C 82.148438 325.332031 88.53125 318.945312 88.53125 311.070312 C 88.53125 303.195312 82.148438 296.808594 74.273438 296.808594 Z M 74.273438 296.808594 " clip-rule="nonzero"/></clipPath><clipPath id="20de2a7b91"><path d="M 195.816406 53.023438 L 240.878906 53.023438 L 240.878906 98.082031 L 195.816406 98.082031 Z M 195.816406 53.023438 " clip-rule="nonzero"/></clipPath><clipPath id="5d47c5b5a0"><path d="M 218.347656 53.023438 C 205.90625 53.023438 195.816406 63.109375 195.816406 75.550781 C 195.816406 87.996094 205.90625 98.082031 218.347656 98.082031 C 230.792969 98.082031 240.878906 87.996094 240.878906 75.550781 C 240.878906 63.109375 230.792969 53.023438 218.347656 53.023438 Z M 218.347656 53.023438 " clip-rule="nonzero"/></clipPath><clipPath id="0c8c173843"><path d="M 245.75 108.121094 L 301.128906 108.121094 L 301.128906 163.5 L 245.75 163.5 Z M 245.75 108.121094 " clip-rule="nonzero"/></clipPath><clipPath id="e92f5b3c8e"><path d="M 273.441406 108.121094 C 258.148438 108.121094 245.75 120.515625 245.75 135.808594 C 245.75 151.101562 258.148438 163.5 273.441406 163.5 C 288.730469 163.5 301.128906 151.101562 301.128906 135.808594 C 301.128906 120.515625 288.730469 108.121094 273.441406 108.121094 Z M 273.441406 108.121094 " clip-rule="nonzero"/></clipPath><clipPath id="fc48e4ff5c"><path d="M 188.761719 170.488281 L 247.9375 170.488281 L 247.9375 229.664062 L 188.761719 229.664062 Z M 188.761719 170.488281 " clip-rule="nonzero"/></clipPath><clipPath id="548b6646b9"><path d="M 218.347656 170.488281 C 202.007812 170.488281 188.761719 183.734375 188.761719 200.074219 C 188.761719 216.414062 202.007812 229.664062 218.347656 229.664062 C 234.6875 229.664062 247.9375 216.414062 247.9375 200.074219 C 247.9375 183.734375 234.6875 170.488281 218.347656 170.488281 Z M 218.347656 170.488281 " clip-rule="nonzero"/></clipPath><clipPath id="077880723b"><path d="M 248.417969 241.128906 L 304.277344 241.128906 L 304.277344 296.988281 L 248.417969 296.988281 Z M 248.417969 241.128906 " clip-rule="nonzero"/></clipPath><clipPath id="0c7c7fce65"><path d="M 276.347656 241.128906 C 260.921875 241.128906 248.417969 253.632812 248.417969 269.058594 C 248.417969 284.484375 260.921875 296.988281 276.347656 296.988281 C 291.773438 296.988281 304.277344 284.484375 304.277344 269.058594 C 304.277344 253.632812 291.773438 241.128906 276.347656 241.128906 Z M 276.347656 241.128906 " clip-rule="nonzero"/></clipPath><clipPath id="f62104124d"><path d="M 200.316406 117.777344 L 236.378906 117.777344 L 236.378906 153.839844 L 200.316406 153.839844 Z M 200.316406 117.777344 " clip-rule="nonzero"/></clipPath><clipPath id="e714f82b6f"><path d="M 218.347656 117.777344 C 208.390625 117.777344 200.316406 125.851562 200.316406 135.808594 C 200.316406 145.769531 208.390625 153.839844 218.347656 153.839844 C 228.304688 153.839844 236.378906 145.769531 236.378906 135.808594 C 236.378906 125.851562 228.304688 117.777344 218.347656 117.777344 Z M 218.347656 117.777344 " clip-rule="nonzero"/></clipPath><clipPath id="3697ca1003"><path d="M 267.464844 179.234375 L 303.527344 179.234375 L 303.527344 215.296875 L 267.464844 215.296875 Z M 267.464844 179.234375 " clip-rule="nonzero"/></clipPath><clipPath id="3a2b35c317"><path d="M 285.496094 179.234375 C 275.539062 179.234375 267.464844 187.308594 267.464844 197.265625 C 267.464844 207.226562 275.539062 215.296875 285.496094 215.296875 C 295.457031 215.296875 303.527344 207.226562 303.527344 197.265625 C 303.527344 187.308594 295.457031 179.234375 285.496094 179.234375 Z M 285.496094 179.234375 " clip-rule="nonzero"/></clipPath><clipPath id="a688452dd7"><path d="M 200.316406 254.050781 L 236.378906 254.050781 L 236.378906 290.109375 L 200.316406 290.109375 Z M 200.316406 254.050781 " clip-rule="nonzero"/></clipPath><clipPath id="7ecef5d5bb"><path d="M 218.347656 254.050781 C 208.390625 254.050781 200.316406 262.121094 200.316406 272.082031 C 200.316406 282.039062 208.390625 290.109375 218.347656 290.109375 C 228.304688 290.109375 236.378906 282.039062 236.378906 272.082031 C 236.378906 262.121094 228.304688 254.050781 218.347656 254.050781 Z M 218.347656 254.050781 " clip-rule="nonzero"/></clipPath><clipPath id="0d98842c68"><path d="M 192.183594 312.3125 L 219.847656 312.3125 L 219.847656 339.972656 L 192.183594 339.972656 Z M 192.183594 312.3125 " clip-rule="nonzero"/></clipPath><clipPath id="233805eabe"><path d="M 206.015625 312.3125 C 198.378906 312.3125 192.183594 318.503906 192.183594 326.140625 C 192.183594 333.78125 198.378906 339.972656 206.015625 339.972656 C 213.65625 339.972656 219.847656 333.78125 219.847656 326.140625 C 219.847656 318.503906 213.65625 312.3125 206.015625 312.3125 Z M 206.015625 312.3125 " clip-rule="nonzero"/></clipPath><clipPath id="a5e7b8986c"><path d="M 239.800781 296.808594 L 267.464844 296.808594 L 267.464844 324.472656 L 239.800781 324.472656 Z M 239.800781 296.808594 " clip-rule="nonzero"/></clipPath><clipPath id="c35e00d9ee"><path d="M 253.632812 296.808594 C 245.996094 296.808594 239.800781 303.003906 239.800781 310.640625 C 239.800781 318.28125 245.996094 324.472656 253.632812 324.472656 C 261.273438 324.472656 267.464844 318.28125 267.464844 310.640625 C 267.464844 303.003906 261.273438 296.808594 253.632812 296.808594 Z M 253.632812 296.808594 " clip-rule="nonzero"/></clipPath><clipPath id="59710ff026"><path d="M 304.277344 206.222656 L 331.941406 206.222656 L 331.941406 233.886719 L 304.277344 233.886719 Z M 304.277344 206.222656 " clip-rule="nonzero"/></clipPath><clipPath id="6e791ad1aa"><path d="M 318.109375 206.222656 C 310.472656 206.222656 304.277344 212.414062 304.277344 220.054688 C 304.277344 227.691406 310.472656 233.886719 318.109375 233.886719 C 325.75 233.886719 331.941406 227.691406 331.941406 220.054688 C 331.941406 212.414062 325.75 206.222656 318.109375 206.222656 Z M 318.109375 206.222656 " clip-rule="nonzero"/></clipPath><clipPath id="83220c347a"><path d="M 259.609375 67.28125 L 287.269531 67.28125 L 287.269531 94.945312 L 259.609375 94.945312 Z M 259.609375 67.28125 " clip-rule="nonzero"/></clipPath><clipPath id="b58d5fa55f"><path d="M 273.441406 67.28125 C 265.800781 67.28125 259.609375 73.476562 259.609375 81.113281 C 259.609375 88.753906 265.800781 94.945312 273.441406 94.945312 C 281.078125 94.945312 287.269531 88.753906 287.269531 81.113281 C 287.269531 73.476562 281.078125 67.28125 273.441406 67.28125 Z M 273.441406 67.28125 " clip-rule="nonzero"/></clipPath></defs><path fill="#002169" d="M 261.851562 289.953125 C 258.980469 289.953125 256.65625 287.628906 256.65625 284.761719 L 256.65625 254.695312 C 256.65625 254.207031 256.730469 253.738281 256.855469 253.289062 L 230.660156 219.695312 C 230.65625 219.695312 230.65625 219.695312 230.652344 219.695312 L 200.585938 219.695312 C 197.71875 219.695312 195.394531 217.371094 195.394531 214.503906 L 195.394531 184.4375 C 195.394531 181.570312 197.71875 179.246094 200.585938 179.246094 L 230.652344 179.246094 C 231.179688 179.246094 231.683594 179.324219 232.160156 179.46875 L 252.0625 153.464844 C 252.011719 153.167969 251.976562 152.863281 251.976562 152.550781 L 251.976562 122.484375 C 251.976562 122.398438 251.988281 122.316406 251.992188 122.230469 L 231.160156 92.488281 L 206.023438 92.488281 C 203.597656 92.488281 201.628906 90.523438 201.628906 88.097656 L 201.628906 62.664062 C 201.628906 60.238281 203.597656 58.269531 206.023438 58.269531 L 231.453125 58.269531 C 232.082031 58.269531 232.675781 58.40625 233.214844 58.640625 L 252.484375 42.464844 C 247.726562 0.015625 183.765625 4.75 183.765625 48.6875 L 183.765625 339.101562 C 189.203125 373.113281 232.445312 374.984375 246.433594 342.882812 C 272.398438 353.472656 304.207031 327.492188 299.402344 300.585938 L 290.269531 289.953125 Z M 205.011719 127.488281 C 205.011719 124.621094 207.335938 122.292969 210.203125 122.292969 L 226.960938 122.292969 C 229.828125 122.292969 232.15625 124.621094 232.15625 127.488281 L 232.15625 144.246094 C 232.15625 147.113281 229.828125 149.4375 226.960938 149.4375 L 210.203125 149.4375 C 207.335938 149.4375 205.011719 147.113281 205.011719 144.246094 Z M 214.625 329.984375 C 214.625 332.851562 212.300781 335.175781 209.433594 335.175781 L 200.585938 335.175781 C 197.71875 335.175781 195.394531 332.851562 195.394531 329.984375 L 195.394531 321.140625 C 195.394531 318.273438 197.71875 315.945312 200.585938 315.945312 L 209.433594 315.945312 C 212.300781 315.945312 214.625 318.273438 214.625 321.140625 Z M 261.59375 314.617188 C 261.59375 317.484375 259.269531 319.808594 256.402344 319.808594 L 247.554688 319.808594 C 244.6875 319.808594 242.363281 317.484375 242.363281 314.617188 L 242.363281 305.773438 C 242.363281 305.28125 242.433594 304.8125 242.5625 304.363281 L 227.15625 286.949219 C 227.09375 286.953125 227.027344 286.957031 226.960938 286.957031 L 210.203125 286.957031 C 207.335938 286.957031 205.007812 284.632812 205.007812 281.765625 L 205.007812 265.007812 C 205.007812 262.140625 207.335938 259.8125 210.203125 259.8125 L 226.960938 259.8125 C 229.828125 259.8125 232.15625 262.140625 232.15625 265.007812 L 232.15625 281.765625 C 232.15625 282.480469 232.011719 283.160156 231.75 283.78125 L 246.683594 300.660156 C 246.964844 300.609375 247.257812 300.582031 247.554688 300.582031 L 256.398438 300.582031 C 259.269531 300.582031 261.59375 302.90625 261.59375 305.773438 Z M 261.59375 314.617188 " fill-opacity="1" fill-rule="nonzero"/><path fill="#002169" d="M 321.257812 230.277344 L 312.410156 230.277344 C 309.542969 230.277344 307.21875 227.953125 307.21875 225.085938 L 307.21875 216.242188 C 307.21875 213.375 309.542969 211.046875 312.410156 211.046875 L 321.257812 211.046875 C 324.125 211.046875 326.449219 213.375 326.449219 216.242188 L 326.449219 224.691406 L 335.785156 230.6875 C 361.644531 217.234375 357.285156 174.957031 332.628906 164.957031 L 299.246094 189.550781 L 299.246094 205.855469 C 299.246094 208.722656 296.921875 211.046875 294.050781 211.046875 L 277.292969 211.046875 C 274.425781 211.046875 272.101562 208.722656 272.101562 205.855469 L 272.101562 189.097656 C 272.101562 186.230469 274.425781 183.902344 277.292969 183.902344 L 294.050781 183.902344 C 294.992188 183.902344 295.871094 184.15625 296.632812 184.59375 L 334.398438 156.773438 C 342.722656 140.886719 339.980469 108.734375 308.019531 102.921875 L 292.207031 120.976562 C 292.351562 121.453125 292.429688 121.960938 292.429688 122.484375 L 292.429688 152.550781 C 292.429688 155.417969 290.105469 157.742188 287.238281 157.742188 L 257.171875 157.742188 C 256.726562 157.742188 256.300781 157.679688 255.890625 157.578125 L 235.804688 183.820312 C 235.832031 184.023438 235.847656 184.226562 235.847656 184.4375 L 235.847656 214.503906 C 235.847656 215.292969 235.664062 216.035156 235.351562 216.707031 L 260.984375 249.582031 C 261.265625 249.535156 261.554688 249.503906 261.851562 249.503906 L 291.917969 249.503906 C 294.785156 249.503906 297.109375 251.828125 297.109375 254.695312 L 297.109375 284.761719 C 297.109375 286.007812 296.667969 287.152344 295.933594 288.050781 L 301.875 294.964844 C 326.796875 297.378906 353.140625 264.703125 337.484375 238.359375 L 323.828125 229.59375 C 323.070312 230.027344 322.191406 230.277344 321.257812 230.277344 Z M 321.257812 230.277344 " fill-opacity="1" fill-rule="nonzero"/><path fill="#002169" d="M 235.847656 88.097656 C 235.847656 88.507812 235.785156 88.90625 235.679688 89.285156 L 255.492188 117.574219 C 256.019531 117.394531 256.582031 117.292969 257.171875 117.292969 L 287.238281 117.292969 C 287.503906 117.292969 287.761719 117.316406 288.015625 117.355469 L 307.171875 95.480469 C 314.992188 67.042969 285.914062 38.335938 256.378906 46.429688 L 235.847656 63.664062 Z M 264.410156 77.09375 C 264.410156 74.226562 266.734375 71.902344 269.601562 71.902344 L 278.445312 71.902344 C 281.3125 71.902344 283.640625 74.226562 283.640625 77.09375 L 283.640625 85.9375 C 283.640625 88.804688 281.3125 91.128906 278.445312 91.128906 L 269.601562 91.128906 C 266.734375 91.128906 264.410156 88.804688 264.410156 85.9375 Z M 264.410156 77.09375 " fill-opacity="1" fill-rule="nonzero"/><path fill="#002169" d="M 28.632812 186.386719 L 184.238281 186.386719 L 184.238281 192.492188 L 28.632812 192.492188 Z M 28.632812 186.386719 " fill-opacity="1" fill-rule="nonzero"/><path fill="#002169" d="M 184.238281 162.261719 L 99.039062 162.261719 L 79.742188 128.839844 L 35.597656 128.839844 L 35.597656 122.734375 L 83.265625 122.734375 L 102.5625 156.15625 L 184.238281 156.15625 Z M 184.238281 162.261719 " fill-opacity="1" fill-rule="nonzero"/><path fill="#002169" d="M 83.265625 256.144531 L 35.597656 256.144531 L 35.597656 250.042969 L 79.742188 250.042969 L 99.039062 216.617188 L 184.238281 216.617188 L 184.238281 222.722656 L 102.5625 222.722656 Z M 83.265625 256.144531 " fill-opacity="1" fill-rule="nonzero"/><path fill="#002169" d="M 184.238281 116.925781 L 136.441406 116.925781 L 109.761719 70.714844 L 69.320312 70.714844 L 69.320312 64.609375 L 113.285156 64.609375 L 139.964844 110.824219 L 184.238281 110.824219 Z M 184.238281 116.925781 " fill-opacity="1" fill-rule="nonzero"/><path fill="#002169" d="M 113.285156 314.269531 L 69.320312 314.269531 L 69.320312 308.164062 L 109.761719 308.164062 L 136.441406 261.953125 L 184.238281 261.953125 L 184.238281 268.054688 L 139.964844 268.054688 Z M 113.285156 314.269531 " fill-opacity="1" fill-rule="nonzero"/><path fill="#002169" d="M 30.746094 132.179688 L 30.746094 119.390625 C 30.746094 117.367188 32.386719 115.726562 34.414062 115.726562 L 47.199219 115.726562 C 49.226562 115.726562 50.867188 117.367188 50.867188 119.390625 L 50.867188 132.179688 C 50.867188 134.203125 49.226562 135.847656 47.199219 135.847656 L 34.414062 135.847656 C 32.386719 135.847656 30.746094 134.203125 30.746094 132.179688 Z M 30.746094 132.179688 " fill-opacity="1" fill-rule="nonzero"/><path fill="#002169" d="M 30.746094 259.488281 L 30.746094 246.699219 C 30.746094 244.675781 32.386719 243.035156 34.414062 243.035156 L 47.199219 243.035156 C 49.226562 243.035156 50.867188 244.675781 50.867188 246.699219 L 50.867188 259.488281 C 50.867188 261.511719 49.226562 263.152344 47.199219 263.152344 L 34.414062 263.152344 C 32.386719 263.152344 30.746094 261.511719 30.746094 259.488281 Z M 30.746094 259.488281 " fill-opacity="1" fill-rule="nonzero"/><g clip-path="url(#42de851f23)"><path fill="#002169" d="M 13.367188 195.832031 L 13.367188 183.046875 C 13.367188 181.019531 15.007812 179.378906 17.03125 179.378906 L 29.820312 179.378906 C 31.84375 179.378906 33.488281 181.019531 33.488281 183.046875 L 33.488281 195.832031 C 33.488281 197.859375 31.84375 199.5 29.820312 199.5 L 17.03125 199.5 C 15.007812 199.5 13.367188 197.859375 13.367188 195.832031 Z M 13.367188 195.832031 " fill-opacity="1" fill-rule="nonzero"/></g><path fill="#002169" d="M 64.464844 74.054688 L 64.464844 61.269531 C 64.464844 59.242188 66.109375 57.601562 68.132812 57.601562 L 80.921875 57.601562 C 82.945312 57.601562 84.585938 59.242188 84.585938 61.269531 L 84.585938 74.054688 C 84.585938 76.082031 82.945312 77.722656 80.921875 77.722656 L 68.132812 77.722656 C 66.109375 77.722656 64.464844 76.082031 64.464844 74.054688 Z M 64.464844 74.054688 " fill-opacity="1" fill-rule="nonzero"/><path fill="#002169" d="M 64.464844 317.609375 L 64.464844 304.824219 C 64.464844 302.800781 66.109375 301.15625 68.132812 301.15625 L 80.921875 301.15625 C 82.945312 301.15625 84.585938 302.800781 84.585938 304.824219 L 84.585938 317.609375 C 84.585938 319.636719 82.945312 321.277344 80.921875 321.277344 L 68.132812 321.277344 C 66.109375 321.277344 64.464844 319.636719 64.464844 317.609375 Z M 64.464844 317.609375 " fill-opacity="1" fill-rule="nonzero"/><g clip-path="url(#ce454979f8)"><g clip-path="url(#0c2709fce8)"><path fill="#002169" d="M 61.292969 53.023438 L 89.816406 53.023438 L 89.816406 81.542969 L 61.292969 81.542969 Z M 61.292969 53.023438 " fill-opacity="1" fill-rule="nonzero"/></g></g><g clip-path="url(#bf35d7596b)"><g clip-path="url(#bcf8acddcc)"><path fill="#002169" d="M 26.988281 111.191406 L 55.511719 111.191406 L 55.511719 139.710938 L 26.988281 139.710938 Z M 26.988281 111.191406 " fill-opacity="1" fill-rule="nonzero"/></g></g><g clip-path="url(#56c025b8f7)"><g clip-path="url(#9dca14531f)"><path fill="#002169" d="M 8.976562 173.988281 L 37.5 173.988281 L 37.5 202.511719 L 8.976562 202.511719 Z M 8.976562 173.988281 " fill-opacity="1" fill-rule="nonzero"/></g></g><g clip-path="url(#cabf98bc4f)"><g clip-path="url(#027c6d5bb2)"><path fill="#002169" d="M 26.988281 238.289062 L 55.511719 238.289062 L 55.511719 266.808594 L 26.988281 266.808594 Z M 26.988281 238.289062 " fill-opacity="1" fill-rule="nonzero"/></g></g><g clip-path="url(#3343863518)"><g clip-path="url(#e071b7339b)"><path fill="#002169" d="M 60.011719 296.808594 L 88.53125 296.808594 L 88.53125 325.332031 L 60.011719 325.332031 Z M 60.011719 296.808594 " fill-opacity="1" fill-rule="nonzero"/></g></g><g clip-path="url(#20de2a7b91)"><g clip-path="url(#5d47c5b5a0)"><path fill="#ffffff" d="M 195.816406 53.023438 L 240.878906 53.023438 L 240.878906 98.082031 L 195.816406 98.082031 Z M 195.816406 53.023438 " fill-opacity="1" fill-rule="nonzero"/></g></g><g clip-path="url(#0c8c173843)"><g clip-path="url(#e92f5b3c8e)"><path fill="#ffffff" d="M 245.75 108.121094 L 301.128906 108.121094 L 301.128906 163.5 L 245.75 163.5 Z M 245.75 108.121094 " fill-opacity="1" fill-rule="nonzero"/></g></g><g clip-path="url(#fc48e4ff5c)"><g clip-path="url(#548b6646b9)"><path fill="#ffffff" d="M 188.761719 170.488281 L 247.9375 170.488281 L 247.9375 229.664062 L 188.761719 229.664062 Z M 188.761719 170.488281 " fill-opacity="1" fill-rule="nonzero"/></g></g><g clip-path="url(#077880723b)"><g clip-path="url(#0c7c7fce65)"><path fill="#ffffff" d="M 248.417969 241.128906 L 304.277344 241.128906 L 304.277344 296.988281 L 248.417969 296.988281 Z M 248.417969 241.128906 " fill-opacity="1" fill-rule="nonzero"/></g></g><g clip-path="url(#f62104124d)"><g clip-path="url(#e714f82b6f)"><path fill="#ffffff" d="M 200.316406 117.777344 L 236.378906 117.777344 L 236.378906 153.839844 L 200.316406 153.839844 Z M 200.316406 117.777344 " fill-opacity="1" fill-rule="nonzero"/></g></g><g clip-path="url(#3697ca1003)"><g clip-path="url(#3a2b35c317)"><path fill="#ffffff" d="M 267.464844 179.234375 L 303.527344 179.234375 L 303.527344 215.296875 L 267.464844 215.296875 Z M 267.464844 179.234375 " fill-opacity="1" fill-rule="nonzero"/></g></g><g clip-path="url(#a688452dd7)"><g clip-path="url(#7ecef5d5bb)"><path fill="#ffffff" d="M 200.316406 254.050781 L 236.378906 254.050781 L 236.378906 290.113281 L 200.316406 290.113281 Z M 200.316406 254.050781 " fill-opacity="1" fill-rule="nonzero"/></g></g><g clip-path="url(#0d98842c68)"><g clip-path="url(#233805eabe)"><path fill="#ffffff" d="M 192.183594 312.3125 L 219.847656 312.3125 L 219.847656 339.972656 L 192.183594 339.972656 Z M 192.183594 312.3125 " fill-opacity="1" fill-rule="nonzero"/></g></g><g clip-path="url(#a5e7b8986c)"><g clip-path="url(#c35e00d9ee)"><path fill="#ffffff" d="M 239.800781 296.808594 L 267.464844 296.808594 L 267.464844 324.472656 L 239.800781 324.472656 Z M 239.800781 296.808594 " fill-opacity="1" fill-rule="nonzero"/></g></g><g clip-path="url(#59710ff026)"><g clip-path="url(#6e791ad1aa)"><path fill="#ffffff" d="M 304.277344 206.222656 L 331.941406 206.222656 L 331.941406 233.886719 L 304.277344 233.886719 Z M 304.277344 206.222656 " fill-opacity="1" fill-rule="nonzero"/></g></g><g clip-path="url(#83220c347a)"><g clip-path="url(#b58d5fa55f)"><path fill="#ffffff" d="M 259.609375 67.28125 L 287.269531 67.28125 L 287.269531 94.945312 L 259.609375 94.945312 Z M 259.609375 67.28125 " fill-opacity="1" fill-rule="nonzero"/></g></g></svg>