<svg width="464" height="626" viewBox="0 0 464 626" fill="none" xmlns="http://www.w3.org/2000/svg">
<circle cx="49.5" cy="171.5" r="33.5" stroke="#286086" stroke-width="10"/>
<path d="M49.5 151C53.321 151 56.897 152.047 59.9592 153.867C59.3617 153.724 58.7384 153.645 58.0968 153.645C53.7141 153.645 50.1613 157.198 50.1613 161.581C50.1613 165.963 53.7141 169.516 58.0968 169.516C62.4794 169.516 66.0323 165.963 66.0323 161.581C66.0323 160.544 65.831 159.556 65.4698 158.648C68.3028 162.164 70 166.633 70 171.5C70 182.822 60.8218 192 49.5 192C38.1782 192 29 182.822 29 171.5C29 160.178 38.1782 151 49.5 151Z" fill="#D08DD3"/>
<circle cx="414" cy="360" r="24" stroke="#286086" stroke-width="10"/>
<path d="M414 349C416.05 349 417.969 349.562 419.612 350.539C419.292 350.461 418.957 350.419 418.613 350.419C416.261 350.419 414.355 352.326 414.355 354.677C414.355 357.029 416.261 358.935 418.613 358.935C420.965 358.935 422.871 357.029 422.871 354.677C422.871 354.121 422.763 353.591 422.569 353.104C424.089 354.99 425 357.389 425 360C425 366.075 420.075 371 414 371C407.925 371 403 366.075 403 360C403 353.925 407.925 349 414 349Z" fill="#2E89A2"/>
<line x1="324.721" y1="291.093" x2="353.093" y2="305.279" stroke="#286086" stroke-width="13" stroke-linecap="round"/>
<circle cx="50.5" cy="361.5" r="41.5" stroke="#286086" stroke-width="10"/>
<path d="M50.5 334C55.6258 334 60.4227 335.404 64.5307 337.846C63.7291 337.654 62.893 337.548 62.0323 337.548C56.1531 337.548 51.3871 342.314 51.3871 348.194C51.3871 354.073 56.1531 358.839 62.0323 358.839C67.9114 358.839 72.6774 354.073 72.6774 348.194C72.6774 346.803 72.4075 345.477 71.9229 344.26C75.7232 348.976 78 354.972 78 361.5C78 376.688 65.6878 389 50.5 389C35.3122 389 23 376.688 23 361.5C23 346.312 35.3122 334 50.5 334Z" fill="#D3938D"/>
<circle cx="412" cy="166" r="36" stroke="#286086" stroke-width="10"/>
<path d="M412 142C416.473 142 420.66 143.226 424.245 145.357C423.545 145.189 422.816 145.097 422.065 145.097C416.934 145.097 412.774 149.256 412.774 154.387C412.774 159.518 416.934 163.677 422.065 163.677C427.195 163.677 431.355 159.518 431.355 154.387C431.355 153.174 431.119 152.016 430.696 150.954C434.013 155.07 436 160.302 436 166C436 179.255 425.255 190 412 190C398.745 190 388 179.255 388 166C388 152.745 398.745 142 412 142Z" fill="#D38D8D"/>
<circle cx="230" cy="60" r="55" stroke="#286086" stroke-width="10"/>
<path d="M230 21C237.269 21 244.072 22.9917 249.898 26.4549C248.761 26.1814 247.576 26.0323 246.355 26.0323C238.017 26.0323 231.258 32.7913 231.258 41.129C231.258 49.4668 238.017 56.2258 246.355 56.2258C254.693 56.2258 261.452 49.4668 261.452 41.129C261.452 39.1576 261.069 37.2765 260.382 35.5501C265.771 42.2386 269 50.7415 269 60C269 81.5391 251.539 99 230 99C208.461 99 191 81.5391 191 60C191 38.4609 208.461 21 230 21Z" fill="#2E89A2"/>
<path d="M323 288V218.75L232.5 170L142 218.75V265.5" stroke="#286086" stroke-width="17" stroke-linecap="round"/>
<path d="M229.5 207L173 237.25V297.75L229.5 328L286 297.75" stroke="#286086" stroke-width="17" stroke-linecap="round"/>
<path d="M284 171L255 155.667V132" stroke="#286086" stroke-width="13" stroke-linecap="round"/>
<path d="M286.5 329L232 359L232 476.5" stroke="#286086" stroke-width="13" stroke-linecap="round"/>
<line x1="230.5" y1="169.5" x2="230.5" y2="121.5" stroke="#286086" stroke-width="13" stroke-linecap="round"/>
<line x1="140.5" y1="267.5" x2="92.5" y2="267.5" stroke="#286086" stroke-width="13" stroke-linecap="round"/>
<line x1="372.5" y1="267.5" x2="324.5" y2="267.5" stroke="#286086" stroke-width="13" stroke-linecap="round"/>
<line x1="324.574" y1="215.175" x2="375.175" y2="187.426" stroke="#286086" stroke-width="13" stroke-linecap="round"/>
<line x1="288.731" y1="297.124" x2="390.124" y2="348.269" stroke="#286086" stroke-width="13" stroke-linecap="round"/>
<line x1="138.165" y1="218.537" x2="84.5369" y2="188.835" stroke="#286086" stroke-width="13" stroke-linecap="round"/>
<line x1="172.386" y1="298.813" x2="89.813" y2="343.614" stroke="#286086" stroke-width="13" stroke-linecap="round"/>
<circle cx="232" cy="485" r="13" fill="#D9D9D9"/>
<circle cx="232" cy="485" r="13" fill="#286086"/>
<circle cx="232" cy="485" r="13" stroke="#286086" stroke-width="10" stroke-linecap="round"/>
<circle cx="82" cy="266" r="13" fill="#D9D9D9"/>
<circle cx="82" cy="266" r="13" fill="#286086"/>
<circle cx="82" cy="266" r="13" stroke="#286086" stroke-width="10" stroke-linecap="round"/>
<circle cx="82" cy="266" r="13" fill="#D9D9D9"/>
<circle cx="82" cy="266" r="13" fill="#286086"/>
<circle cx="82" cy="266" r="13" stroke="#286086" stroke-width="10" stroke-linecap="round"/>
<circle cx="383" cy="266" r="13" fill="#D9D9D9"/>
<circle cx="383" cy="266" r="13" fill="#286086"/>
<circle cx="383" cy="266" r="13" stroke="#286086" stroke-width="10" stroke-linecap="round"/>
<mask id="path-27-outside-1_4_125" maskUnits="userSpaceOnUse" x="6" y="457" width="177" height="59" fill="black">
<rect fill="white" x="6" y="457" width="177" height="59"/>
<path d="M11.68 514C9.44 514 8.32 512.88 8.32 510.64V463.12C8.32 460.88 9.44 459.76 11.68 459.76C13.1467 459.76 14.3733 460.48 15.36 461.92L34.24 490.32L32.8 490.56L51.84 461.92C52.7467 460.48 54.1067 459.76 55.92 459.76C57.7333 459.76 58.64 460.88 58.64 463.12V510.64C58.64 512.88 57.52 514 55.28 514C53.04 514 51.92 512.88 51.92 510.64V469.84L54 470.56L37.2 495.28C36.2133 496.72 34.8533 497.44 33.12 497.44C31.92 497.44 30.8267 496.72 29.84 495.28L13.04 470.56L15.04 471.12V510.64C15.04 512.88 13.92 514 11.68 514ZM96.8731 514C90.7665 514 86.2465 512.547 83.3131 509.64C80.4065 506.707 78.9531 502.187 78.9531 496.08V477.6C78.9531 471.44 80.4198 466.92 83.3531 464.04C86.2865 461.133 90.7931 459.707 96.8731 459.76H106.473C112.606 459.76 117.126 461.213 120.033 464.12C122.94 467.027 124.393 471.547 124.393 477.68V496.08C124.393 502.187 122.94 506.707 120.033 509.64C117.126 512.547 112.606 514 106.473 514H96.8731ZM96.8731 507.28H106.473C109.326 507.28 111.566 506.947 113.193 506.28C114.82 505.587 115.966 504.427 116.633 502.8C117.326 501.173 117.673 498.933 117.673 496.08V477.68C117.673 474.853 117.326 472.627 116.633 471C115.966 469.373 114.82 468.213 113.193 467.52C111.566 466.827 109.326 466.48 106.473 466.48H96.8731C94.0465 466.453 91.8198 466.773 90.1931 467.44C88.5665 468.107 87.4065 469.253 86.7131 470.88C86.0198 472.507 85.6731 474.747 85.6731 477.6V496.08C85.6731 498.933 86.0065 501.173 86.6731 502.8C87.3665 504.427 88.5265 505.587 90.1531 506.28C91.7798 506.947 94.0198 507.28 96.8731 507.28ZM148.036 514C145.796 514 144.676 512.88 144.676 510.64V463.12C144.676 460.88 145.796 459.76 148.036 459.76H177.476C178.516 459.76 179.33 460.067 179.916 460.68C180.53 461.267 180.836 462.08 180.836 463.12C180.836 465.36 179.716 466.48 177.476 466.48H151.396V483.28H167.476C169.716 483.28 170.836 484.4 170.836 486.64C170.836 488.88 169.716 490 167.476 490H151.396V510.64C151.396 512.88 150.276 514 148.036 514Z"/>
</mask>
<path d="M11.68 514C9.44 514 8.32 512.88 8.32 510.64V463.12C8.32 460.88 9.44 459.76 11.68 459.76C13.1467 459.76 14.3733 460.48 15.36 461.92L34.24 490.32L32.8 490.56L51.84 461.92C52.7467 460.48 54.1067 459.76 55.92 459.76C57.7333 459.76 58.64 460.88 58.64 463.12V510.64C58.64 512.88 57.52 514 55.28 514C53.04 514 51.92 512.88 51.92 510.64V469.84L54 470.56L37.2 495.28C36.2133 496.72 34.8533 497.44 33.12 497.44C31.92 497.44 30.8267 496.72 29.84 495.28L13.04 470.56L15.04 471.12V510.64C15.04 512.88 13.92 514 11.68 514ZM96.8731 514C90.7665 514 86.2465 512.547 83.3131 509.64C80.4065 506.707 78.9531 502.187 78.9531 496.08V477.6C78.9531 471.44 80.4198 466.92 83.3531 464.04C86.2865 461.133 90.7931 459.707 96.8731 459.76H106.473C112.606 459.76 117.126 461.213 120.033 464.12C122.94 467.027 124.393 471.547 124.393 477.68V496.08C124.393 502.187 122.94 506.707 120.033 509.64C117.126 512.547 112.606 514 106.473 514H96.8731ZM96.8731 507.28H106.473C109.326 507.28 111.566 506.947 113.193 506.28C114.82 505.587 115.966 504.427 116.633 502.8C117.326 501.173 117.673 498.933 117.673 496.08V477.68C117.673 474.853 117.326 472.627 116.633 471C115.966 469.373 114.82 468.213 113.193 467.52C111.566 466.827 109.326 466.48 106.473 466.48H96.8731C94.0465 466.453 91.8198 466.773 90.1931 467.44C88.5665 468.107 87.4065 469.253 86.7131 470.88C86.0198 472.507 85.6731 474.747 85.6731 477.6V496.08C85.6731 498.933 86.0065 501.173 86.6731 502.8C87.3665 504.427 88.5265 505.587 90.1531 506.28C91.7798 506.947 94.0198 507.28 96.8731 507.28ZM148.036 514C145.796 514 144.676 512.88 144.676 510.64V463.12C144.676 460.88 145.796 459.76 148.036 459.76H177.476C178.516 459.76 179.33 460.067 179.916 460.68C180.53 461.267 180.836 462.08 180.836 463.12C180.836 465.36 179.716 466.48 177.476 466.48H151.396V483.28H167.476C169.716 483.28 170.836 484.4 170.836 486.64C170.836 488.88 169.716 490 167.476 490H151.396V510.64C151.396 512.88 150.276 514 148.036 514Z" fill="#2E89A2"/>
<path d="M15.36 461.92L17.0255 460.813L17.0178 460.801L17.0099 460.79L15.36 461.92ZM34.24 490.32L34.5688 492.293L37.6155 491.785L35.9055 489.213L34.24 490.32ZM32.8 490.56L31.1345 489.453L28.5832 493.29L33.1288 492.533L32.8 490.56ZM51.84 461.92L53.5055 463.027L53.5193 463.007L53.5325 462.986L51.84 461.92ZM51.92 469.84L52.5742 467.95L49.92 467.031V469.84H51.92ZM54 470.56L55.6542 471.684L57.122 469.524L54.6542 468.67L54 470.56ZM37.2 495.28L38.8499 496.41L38.8542 496.404L37.2 495.28ZM29.84 495.28L28.1858 496.404L28.1901 496.41L29.84 495.28ZM13.04 470.56L13.5793 468.634L8.31032 467.159L11.3858 471.684L13.04 470.56ZM15.04 471.12H17.04V469.603L15.5793 469.194L15.04 471.12ZM11.68 514V512C10.8683 512 10.6269 511.798 10.5742 511.746C10.5216 511.693 10.32 511.452 10.32 510.64H8.32H6.32C6.32 512.068 6.67843 513.507 7.74579 514.574C8.81315 515.642 10.2517 516 11.68 516V514ZM8.32 510.64H10.32V463.12H8.32H6.32V510.64H8.32ZM8.32 463.12H10.32C10.32 462.308 10.5216 462.067 10.5742 462.014C10.6269 461.962 10.8683 461.76 11.68 461.76V459.76V457.76C10.2517 457.76 8.81315 458.118 7.74579 459.186C6.67843 460.253 6.32 461.692 6.32 463.12H8.32ZM11.68 459.76V461.76C12.3551 461.76 13.0151 462.036 13.7101 463.05L15.36 461.92L17.0099 460.79C15.7316 458.924 13.9382 457.76 11.68 457.76V459.76ZM15.36 461.92L13.6945 463.027L32.5745 491.427L34.24 490.32L35.9055 489.213L17.0255 460.813L15.36 461.92ZM34.24 490.32L33.9112 488.347L32.4712 488.587L32.8 490.56L33.1288 492.533L34.5688 492.293L34.24 490.32ZM32.8 490.56L34.4655 491.667L53.5055 463.027L51.84 461.92L50.1745 460.813L31.1345 489.453L32.8 490.56ZM51.84 461.92L53.5325 462.986C54.045 462.172 54.7396 461.76 55.92 461.76V459.76V457.76C53.4737 457.76 51.4484 458.788 50.1475 460.854L51.84 461.92ZM55.92 459.76V461.76C56.1711 461.76 56.2992 461.799 56.3485 461.819C56.3855 461.835 56.394 461.844 56.4055 461.858C56.449 461.912 56.64 462.218 56.64 463.12H58.64H60.64C60.64 461.782 60.3777 460.408 59.5145 459.342C58.5859 458.195 57.2599 457.76 55.92 457.76V459.76ZM58.64 463.12H56.64V510.64H58.64H60.64V463.12H58.64ZM58.64 510.64H56.64C56.64 511.452 56.4384 511.693 56.3858 511.746C56.3331 511.798 56.0917 512 55.28 512V514V516C56.7083 516 58.1469 515.642 59.2142 514.574C60.2816 513.507 60.64 512.068 60.64 510.64H58.64ZM55.28 514V512C54.4683 512 54.2269 511.798 54.1742 511.746C54.1216 511.693 53.92 511.452 53.92 510.64H51.92H49.92C49.92 512.068 50.2784 513.507 51.3458 514.574C52.4132 515.642 53.8517 516 55.28 516V514ZM51.92 510.64H53.92V469.84H51.92H49.92V510.64H51.92ZM51.92 469.84L51.2658 471.73L53.3458 472.45L54 470.56L54.6542 468.67L52.5742 467.95L51.92 469.84ZM54 470.56L52.3458 469.436L35.5459 494.156L37.2 495.28L38.8542 496.404L55.6542 471.684L54 470.56ZM37.2 495.28L35.5501 494.15C34.9332 495.05 34.188 495.44 33.12 495.44V497.44V499.44C35.5186 499.44 37.4935 498.39 38.8499 496.41L37.2 495.28ZM33.12 497.44V495.44C32.8455 495.44 32.2845 495.309 31.4899 494.15L29.84 495.28L28.1901 496.41C29.3689 498.131 30.9945 499.44 33.12 499.44V497.44ZM29.84 495.28L31.4942 494.156L14.6942 469.436L13.04 470.56L11.3858 471.684L28.1859 496.404L29.84 495.28ZM13.04 470.56L12.5007 472.486L14.5007 473.046L15.04 471.12L15.5793 469.194L13.5793 468.634L13.04 470.56ZM15.04 471.12H13.04V510.64H15.04H17.04V471.12H15.04ZM15.04 510.64H13.04C13.04 511.452 12.8384 511.693 12.7858 511.746C12.7331 511.798 12.4917 512 11.68 512V514V516C13.1083 516 14.5469 515.642 15.6142 514.574C16.6816 513.507 17.04 512.068 17.04 510.64H15.04ZM83.3131 509.64L81.8925 511.048L81.8989 511.054L81.9054 511.061L83.3131 509.64ZM83.3531 464.04L84.7543 465.467L84.7609 465.461L83.3531 464.04ZM96.8731 459.76L96.8556 461.76L96.8643 461.76H96.8731V459.76ZM120.033 464.12L121.447 462.706V462.706L120.033 464.12ZM120.033 509.64L121.447 511.054L121.454 511.048L120.033 509.64ZM113.193 506.28L113.952 508.131L113.964 508.125L113.977 508.12L113.193 506.28ZM116.633 502.8L114.793 502.016L114.788 502.029L114.783 502.042L116.633 502.8ZM116.633 471L114.783 471.758L114.788 471.771L114.793 471.784L116.633 471ZM113.193 467.52L113.977 465.68L113.193 467.52ZM96.8731 466.48L96.8543 468.48L96.8637 468.48H96.8731V466.48ZM90.1931 467.44L89.4347 465.589V465.589L90.1931 467.44ZM86.7131 470.88L84.8733 470.096V470.096L86.7131 470.88ZM86.6731 502.8L84.8225 503.558L84.8278 503.571L84.8333 503.584L86.6731 502.8ZM90.1531 506.28L89.3689 508.12L89.3818 508.125L89.3947 508.131L90.1531 506.28ZM96.8731 514V512C91.0432 512 87.133 510.61 84.7209 508.219L83.3131 509.64L81.9054 511.061C85.3599 514.484 90.4897 516 96.8731 516V514ZM83.3131 509.64L84.7338 508.232C82.3436 505.82 80.9531 501.91 80.9531 496.08H78.9531H76.9531C76.9531 502.463 78.4693 507.593 81.8925 511.048L83.3131 509.64ZM78.9531 496.08H80.9531V477.6H78.9531H76.9531V496.08H78.9531ZM78.9531 477.6H80.9531C80.9531 471.712 82.359 467.819 84.7543 465.467L83.3531 464.04L81.9519 462.613C78.4806 466.021 76.9531 471.168 76.9531 477.6H78.9531ZM83.3531 464.04L84.7609 465.461C87.168 463.075 91.0578 461.709 96.8556 461.76L96.8731 459.76L96.8907 457.76C90.5285 457.704 85.4049 459.191 81.9454 462.619L83.3531 464.04ZM96.8731 459.76V461.76H106.473V459.76V457.76H96.8731V459.76ZM106.473 459.76V461.76C112.335 461.76 116.237 463.153 118.619 465.534L120.033 464.12L121.447 462.706C118.016 459.274 112.878 457.76 106.473 457.76V459.76ZM120.033 464.12L118.619 465.534C121.001 467.916 122.393 471.819 122.393 477.68H124.393H126.393C126.393 471.275 124.879 466.137 121.447 462.706L120.033 464.12ZM124.393 477.68H122.393V496.08H124.393H126.393V477.68H124.393ZM124.393 496.08H122.393C122.393 501.91 121.003 505.82 118.612 508.232L120.033 509.64L121.454 511.048C124.877 507.593 126.393 502.463 126.393 496.08H124.393ZM120.033 509.64L118.619 508.226C116.237 510.607 112.335 512 106.473 512V514V516C112.878 516 118.016 514.486 121.447 511.054L120.033 509.64ZM106.473 514V512H96.8731V514V516H106.473V514ZM96.8731 507.28V509.28H106.473V507.28V505.28H96.8731V507.28ZM106.473 507.28V509.28C109.444 509.28 111.981 508.938 113.952 508.131L113.193 506.28L112.435 504.429C111.152 504.955 109.208 505.28 106.473 505.28V507.28ZM113.193 506.28L113.977 508.12C116.085 507.222 117.616 505.675 118.484 503.558L116.633 502.8L114.783 502.042C114.317 503.178 113.555 503.952 112.409 504.44L113.193 506.28ZM116.633 502.8L118.473 503.584C119.317 501.604 119.673 499.057 119.673 496.08H117.673H115.673C115.673 498.809 115.336 500.743 114.793 502.016L116.633 502.8ZM117.673 496.08H119.673V477.68H117.673H115.673V496.08H117.673ZM117.673 477.68H119.673C119.673 474.726 119.316 472.195 118.473 470.216L116.633 471L114.793 471.784C115.337 473.059 115.673 474.98 115.673 477.68H117.673ZM116.633 471L118.484 470.242C117.616 468.125 116.085 466.578 113.977 465.68L113.193 467.52L112.409 469.36C113.555 469.848 114.317 470.622 114.783 471.758L116.633 471ZM113.193 467.52L113.977 465.68C111.997 464.836 109.45 464.48 106.473 464.48V466.48V468.48C109.203 468.48 111.136 468.817 112.409 469.36L113.193 467.52ZM106.473 466.48V464.48H96.8731V466.48V468.48H106.473V466.48ZM96.8731 466.48L96.892 464.48C93.9416 464.452 91.4125 464.779 89.4347 465.589L90.1931 467.44L90.9516 469.291C92.2271 468.768 94.1513 468.454 96.8543 468.48L96.8731 466.48ZM90.1931 467.44L89.4347 465.589C87.3182 466.457 85.7715 467.988 84.8733 470.096L86.7131 470.88L88.553 471.664C89.0414 470.518 89.8148 469.757 90.9516 469.291L90.1931 467.44ZM86.7131 470.88L84.8733 470.096C84.0292 472.076 83.6731 474.623 83.6731 477.6H85.6731H87.6731C87.6731 474.871 88.0104 472.937 88.553 471.664L86.7131 470.88ZM85.6731 477.6H83.6731V496.08H85.6731H87.6731V477.6H85.6731ZM85.6731 496.08H83.6731C83.6731 499.051 84.0147 501.588 84.8225 503.558L86.6731 502.8L88.5237 502.042C87.9982 500.759 87.6731 498.815 87.6731 496.08H85.6731ZM86.6731 502.8L84.8333 503.584C85.729 505.686 87.2673 507.224 89.3689 508.12L90.1531 506.28L90.9373 504.44C89.7856 503.949 89.0039 503.168 88.513 502.016L86.6731 502.8ZM90.1531 506.28L89.3947 508.131C91.3656 508.938 93.9018 509.28 96.8731 509.28V507.28V505.28C94.1378 505.28 92.194 504.955 90.9116 504.429L90.1531 506.28ZM179.916 460.68L178.471 462.062L178.502 462.095L178.534 462.125L179.916 460.68ZM151.396 466.48V464.48H149.396V466.48H151.396ZM151.396 483.28H149.396V485.28H151.396V483.28ZM151.396 490V488H149.396V490H151.396ZM148.036 514V512C147.225 512 146.983 511.798 146.93 511.746C146.878 511.693 146.676 511.452 146.676 510.64H144.676H142.676C142.676 512.068 143.035 513.507 144.102 514.574C145.169 515.642 146.608 516 148.036 516V514ZM144.676 510.64H146.676V463.12H144.676H142.676V510.64H144.676ZM144.676 463.12H146.676C146.676 462.308 146.878 462.067 146.93 462.014C146.983 461.962 147.225 461.76 148.036 461.76V459.76V457.76C146.608 457.76 145.169 458.118 144.102 459.186C143.035 460.253 142.676 461.692 142.676 463.12H144.676ZM148.036 459.76V461.76H177.476V459.76V457.76H148.036V459.76ZM177.476 459.76V461.76C178.102 461.76 178.344 461.93 178.471 462.062L179.916 460.68L181.362 459.298C180.315 458.204 178.93 457.76 177.476 457.76V459.76ZM179.916 460.68L178.534 462.125C178.667 462.252 178.836 462.494 178.836 463.12H180.836H182.836C182.836 461.666 182.392 460.281 181.299 459.235L179.916 460.68ZM180.836 463.12H178.836C178.836 463.932 178.635 464.173 178.582 464.226C178.529 464.278 178.288 464.48 177.476 464.48V466.48V468.48C178.905 468.48 180.343 468.122 181.41 467.054C182.478 465.987 182.836 464.548 182.836 463.12H180.836ZM177.476 466.48V464.48H151.396V466.48V468.48H177.476V466.48ZM151.396 466.48H149.396V483.28H151.396H153.396V466.48H151.396ZM151.396 483.28V485.28H167.476V483.28V481.28H151.396V483.28ZM167.476 483.28V485.28C168.288 485.28 168.529 485.482 168.582 485.534C168.635 485.587 168.836 485.828 168.836 486.64H170.836H172.836C172.836 485.212 172.478 483.773 171.41 482.706C170.343 481.638 168.905 481.28 167.476 481.28V483.28ZM170.836 486.64H168.836C168.836 487.452 168.635 487.693 168.582 487.746C168.529 487.798 168.288 488 167.476 488V490V492C168.905 492 170.343 491.642 171.41 490.574C172.478 489.507 172.836 488.068 172.836 486.64H170.836ZM167.476 490V488H151.396V490V492H167.476V490ZM151.396 490H149.396V510.64H151.396H153.396V490H151.396ZM151.396 510.64H149.396C149.396 511.452 149.195 511.693 149.142 511.746C149.089 511.798 148.848 512 148.036 512V514V516C149.465 516 150.903 515.642 151.97 514.574C153.038 513.507 153.396 512.068 153.396 510.64H151.396Z" fill="#2E89A2" mask="url(#path-27-outside-1_4_125)"/>
<mask id="path-29-outside-2_4_125" maskUnits="userSpaceOnUse" x="5" y="531" width="440" height="62" fill="black">
<rect fill="white" x="5" y="531" width="440" height="62"/>
<path d="M12.6 572.72V575.64C12.6 579.4 13.3467 582.04 14.84 583.56C16.36 585.053 19.0267 585.8 22.84 585.8H29.4C32.76 585.8 35.2 585.373 36.72 584.52C38.2667 583.64 39.1867 582.133 39.48 580C39.5867 579.333 39.8 578.827 40.12 578.48C40.4667 578.133 40.9867 577.96 41.68 577.96C42.3733 577.96 42.8933 578.16 43.24 578.56C43.6133 578.933 43.76 579.467 43.68 580.16C43.3333 583.52 41.9867 586 39.64 587.6C37.2933 589.2 33.88 590 29.4 590H22.84C17.8533 590 14.2 588.853 11.88 586.56C9.56 584.24 8.4 580.6 8.4 575.64V566.6C8.4 561.56 9.56 557.893 11.88 555.6C14.2 553.28 17.8533 552.147 22.84 552.2H29.4C34.3867 552.2 38.0267 553.36 40.32 555.68C42.64 557.973 43.8 561.613 43.8 566.6V570.6C43.8 572.013 43.1067 572.72 41.72 572.72H12.6ZM22.84 556.4C19.0267 556.347 16.36 557.08 14.84 558.6C13.3467 560.093 12.6 562.76 12.6 566.6V568.52H39.6V566.6C39.6 562.787 38.8533 560.133 37.36 558.64C35.8667 557.147 33.2133 556.4 29.4 556.4H22.84ZM81.0406 588.4C80.7473 589.04 80.3873 589.467 79.9606 589.68C79.534 589.893 79.0406 590 78.4806 590C77.3073 590 76.4806 589.453 76.0006 588.36L61.1606 555.12C60.6006 553.813 60.9873 552.907 62.3206 552.4C63.574 551.867 64.4806 552.24 65.0406 553.52L79.8406 586.64H77.2806L93.0406 553.48C93.334 552.867 93.7206 552.467 94.2006 552.28C94.6806 552.093 95.2273 552.133 95.8406 552.4C97.1473 552.987 97.5073 553.92 96.9206 555.2L81.0406 588.4ZM127.458 590C123.298 590 120.244 589.04 118.298 587.12C116.378 585.173 115.418 582.12 115.418 577.96C115.418 573.8 116.391 570.747 118.338 568.8C120.284 566.853 123.324 565.88 127.458 565.88H145.658C145.604 562.36 144.804 559.907 143.258 558.52C141.738 557.107 139.138 556.4 135.458 556.4H130.818C127.431 556.4 124.951 556.76 123.378 557.48C121.804 558.2 120.831 559.427 120.458 561.16C120.271 561.827 120.018 562.32 119.698 562.64C119.404 562.933 118.924 563.08 118.258 563.08C117.564 563.08 117.018 562.893 116.618 562.52C116.244 562.12 116.111 561.587 116.218 560.92C116.564 557.88 117.938 555.667 120.338 554.28C122.764 552.893 126.258 552.2 130.818 552.2H135.458C140.444 552.2 144.084 553.36 146.378 555.68C148.698 557.973 149.858 561.613 149.858 566.6V587.88C149.858 589.293 149.164 590 147.778 590C146.364 590 145.658 589.293 145.658 587.88V583.92C143.098 587.973 138.524 590 131.938 590H127.458ZM127.458 585.8H131.938C134.524 585.8 136.791 585.52 138.738 584.96C140.711 584.373 142.298 583.44 143.498 582.16C144.698 580.88 145.418 579.173 145.658 577.04V570.08H127.458C124.498 570.08 122.444 570.653 121.298 571.8C120.178 572.92 119.618 574.973 119.618 577.96C119.618 580.92 120.178 582.973 121.298 584.12C122.444 585.24 124.498 585.8 127.458 585.8ZM185.508 590C181.721 590 178.935 589.12 177.148 587.36C175.388 585.6 174.508 582.84 174.508 579.08V536.6C174.508 535.213 175.215 534.52 176.628 534.52C178.015 534.52 178.708 535.213 178.708 536.6V579.08C178.708 581.667 179.188 583.44 180.148 584.4C181.108 585.333 182.881 585.8 185.468 585.8C186.908 585.8 187.628 586.493 187.628 587.88C187.655 589.293 186.948 590 185.508 590ZM239.949 552.2C241.363 552.2 242.069 552.893 242.069 554.28V587.88C242.069 589.293 241.363 590 239.949 590C238.563 590 237.869 589.293 237.869 587.88V584.08C235.336 588.027 230.749 590 224.109 590H221.869C216.883 590 213.229 588.84 210.909 586.52C208.616 584.2 207.469 580.547 207.469 575.56V554.28C207.469 552.893 208.163 552.2 209.549 552.2C210.963 552.2 211.669 552.893 211.669 554.28V575.56C211.669 579.373 212.416 582.04 213.909 583.56C215.429 585.053 218.083 585.8 221.869 585.8H224.109C228.243 585.8 231.496 585.133 233.869 583.8C236.243 582.467 237.576 580.427 237.869 577.68V554.28C237.869 552.893 238.563 552.2 239.949 552.2ZM278.658 590C274.498 590 271.444 589.04 269.498 587.12C267.578 585.173 266.618 582.12 266.618 577.96C266.618 573.8 267.591 570.747 269.538 568.8C271.484 566.853 274.524 565.88 278.658 565.88H296.858C296.804 562.36 296.004 559.907 294.458 558.52C292.938 557.107 290.338 556.4 286.658 556.4H282.018C278.631 556.4 276.151 556.76 274.578 557.48C273.004 558.2 272.031 559.427 271.658 561.16C271.471 561.827 271.218 562.32 270.898 562.64C270.604 562.933 270.124 563.08 269.458 563.08C268.764 563.08 268.218 562.893 267.818 562.52C267.444 562.12 267.311 561.587 267.418 560.92C267.764 557.88 269.138 555.667 271.538 554.28C273.964 552.893 277.458 552.2 282.018 552.2H286.658C291.644 552.2 295.284 553.36 297.578 555.68C299.898 557.973 301.057 561.613 301.057 566.6V587.88C301.057 589.293 300.364 590 298.978 590C297.564 590 296.858 589.293 296.858 587.88V583.92C294.298 587.973 289.724 590 283.138 590H278.658ZM278.658 585.8H283.138C285.724 585.8 287.991 585.52 289.938 584.96C291.911 584.373 293.498 583.44 294.698 582.16C295.898 580.88 296.618 579.173 296.858 577.04V570.08H278.658C275.698 570.08 273.644 570.653 272.498 571.8C271.378 572.92 270.818 574.973 270.818 577.96C270.818 580.92 271.378 582.973 272.498 584.12C273.644 585.24 275.698 585.8 278.658 585.8ZM341.148 590C336.241 590 332.655 588.867 330.388 586.6C328.121 584.333 326.988 580.76 326.988 575.88V556.4H322.228C320.815 556.4 320.108 555.693 320.108 554.28C320.108 552.893 320.815 552.2 322.228 552.2H326.988V543.6C326.988 542.187 327.681 541.48 329.068 541.48C330.481 541.48 331.188 542.187 331.188 543.6V552.2H341.228C342.615 552.2 343.308 552.893 343.308 554.28C343.308 555.693 342.615 556.4 341.228 556.4H331.188V575.88C331.188 579.613 331.908 582.2 333.348 583.64C334.815 585.08 337.415 585.8 341.148 585.8C341.921 585.8 342.468 585.973 342.788 586.32C343.135 586.667 343.308 587.187 343.308 587.88C343.308 589.293 342.588 590 341.148 590ZM374.937 590C369.95 590 366.297 588.853 363.977 586.56C361.657 584.24 360.497 580.6 360.497 575.64V566.6C360.497 561.56 361.657 557.893 363.977 555.6C366.297 553.28 369.95 552.147 374.937 552.2H381.497C386.484 552.2 390.124 553.36 392.417 555.68C394.737 557.973 395.897 561.613 395.897 566.6V575.56C395.897 580.547 394.737 584.2 392.417 586.52C390.124 588.84 386.484 590 381.497 590H374.937ZM364.697 575.64C364.697 579.4 365.444 582.04 366.937 583.56C368.457 585.053 371.124 585.8 374.937 585.8H381.497C385.31 585.8 387.964 585.053 389.457 583.56C390.95 582.04 391.697 579.373 391.697 575.56V566.6C391.697 562.787 390.95 560.133 389.457 558.64C387.964 557.147 385.31 556.4 381.497 556.4H374.937C372.377 556.373 370.35 556.68 368.857 557.32C367.364 557.96 366.297 559.027 365.657 560.52C365.017 562.013 364.697 564.04 364.697 566.6V575.64ZM422.3 590C420.887 590 420.18 589.293 420.18 587.88V554.28C420.18 552.893 420.887 552.2 422.3 552.2C423.687 552.2 424.38 552.893 424.38 554.28V560.44C425.767 557.773 427.767 555.733 430.38 554.32C433.02 552.907 436.14 552.2 439.74 552.2C441.153 552.2 441.86 552.893 441.86 554.28C441.86 555.693 441.153 556.4 439.74 556.4C434.993 556.4 431.313 557.48 428.7 559.64C426.087 561.773 424.647 564.827 424.38 568.8V587.88C424.38 589.293 423.687 590 422.3 590Z"/>
</mask>
<path d="M12.6 572.72V569.72H9.6V572.72H12.6ZM14.84 583.56L12.7 585.662L12.7186 585.681L12.7375 585.7L14.84 583.56ZM36.72 584.52L38.1886 587.136L38.1961 587.132L38.2036 587.127L36.72 584.52ZM39.48 580L36.5177 579.526L36.5125 579.559L36.508 579.591L39.48 580ZM40.12 578.48L37.9987 576.359L37.9563 576.401L37.9156 576.445L40.12 578.48ZM43.24 578.56L40.9729 580.525L41.043 580.606L41.1187 580.681L43.24 578.56ZM43.68 580.16L40.6998 579.816L40.6977 579.834L40.6958 579.852L43.68 580.16ZM39.64 587.6L37.95 585.121L39.64 587.6ZM11.88 586.56L9.75868 588.681L9.76481 588.687L9.77098 588.694L11.88 586.56ZM11.88 555.6L13.989 557.734L13.9952 557.727L14.0013 557.721L11.88 555.6ZM22.84 552.2L22.8079 555.2L22.824 555.2H22.84V552.2ZM40.32 555.68L38.1865 557.789L38.1986 557.801L38.211 557.814L40.32 555.68ZM22.84 556.4L22.798 559.4L22.819 559.4H22.84V556.4ZM14.84 558.6L16.9613 560.721V560.721L14.84 558.6ZM12.6 568.52H9.6V571.52H12.6V568.52ZM39.6 568.52V571.52H42.6V568.52H39.6ZM12.6 572.72H9.6V575.64H12.6H15.6V572.72H12.6ZM12.6 575.64H9.6C9.6 579.634 10.362 583.283 12.7 585.662L14.84 583.56L16.98 581.458C16.3314 580.797 15.6 579.166 15.6 575.64H12.6ZM14.84 583.56L12.7375 585.7C15.1231 588.044 18.8074 588.8 22.84 588.8V585.8V582.8C19.246 582.8 17.5969 582.063 16.9425 581.42L14.84 583.56ZM22.84 585.8V588.8H29.4V585.8V582.8H22.84V585.8ZM29.4 585.8V588.8C32.879 588.8 35.9695 588.382 38.1886 587.136L36.72 584.52L35.2514 581.904C34.4305 582.365 32.641 582.8 29.4 582.8V585.8ZM36.72 584.52L38.2036 587.127C40.7345 585.688 42.0614 583.25 42.452 580.409L39.48 580L36.508 579.591C36.3119 581.017 35.7989 581.593 35.2364 581.913L36.72 584.52ZM39.48 580L42.4423 580.474C42.4538 580.402 42.4655 580.352 42.4743 580.319C42.4831 580.287 42.488 580.277 42.4849 580.284C42.4785 580.299 42.4357 580.394 42.3244 580.515L40.12 578.48L37.9156 576.445C37.0566 577.376 36.6793 578.516 36.5177 579.526L39.48 580ZM40.12 578.48L42.2413 580.601C42.0482 580.794 41.8478 580.893 41.7187 580.936C41.6041 580.974 41.5744 580.96 41.68 580.96V577.96V574.96C40.5242 574.96 39.1064 575.251 37.9987 576.359L40.12 578.48ZM41.68 577.96V580.96C41.7452 580.96 41.6693 580.97 41.5131 580.91C41.3388 580.843 41.1389 580.716 40.9729 580.525L43.24 578.56L45.5071 576.595C44.4263 575.348 42.9565 574.96 41.68 574.96V577.96ZM43.24 578.56L41.1187 580.681C40.9199 580.483 40.7951 580.245 40.7374 580.035C40.6859 579.848 40.7068 579.755 40.6998 579.816L43.68 580.16L46.6602 580.504C46.8088 579.216 46.5777 577.655 45.3613 576.439L43.24 578.56ZM43.68 580.16L40.6958 579.852C40.4209 582.517 39.4268 584.114 37.95 585.121L39.64 587.6L41.33 590.079C44.5466 587.886 46.2458 584.523 46.6642 580.468L43.68 580.16ZM39.64 587.6L37.95 585.121C36.3132 586.237 33.5979 587 29.4 587V590V593C34.1621 593 38.2734 592.163 41.33 590.079L39.64 587.6ZM29.4 590V587H22.84V590V593H29.4V590ZM22.84 590V587C18.2343 587 15.5117 585.932 13.989 584.426L11.88 586.56L9.77098 588.694C12.8883 591.775 17.4724 593 22.84 593V590ZM11.88 586.56L14.0013 584.439C12.4752 582.913 11.4 580.205 11.4 575.64H8.4H5.4C5.4 580.995 6.6448 585.567 9.75868 588.681L11.88 586.56ZM8.4 575.64H11.4V566.6H8.4H5.4V575.64H8.4ZM8.4 566.6H11.4C11.4 561.934 12.4844 559.221 13.989 557.734L11.88 555.6L9.77098 553.466C6.63561 556.566 5.4 561.186 5.4 566.6H8.4ZM11.88 555.6L14.0013 557.721C15.5129 556.21 18.2143 555.151 22.8079 555.2L22.84 552.2L22.8721 549.2C17.4924 549.143 12.8871 550.35 9.75868 553.479L11.88 555.6ZM22.84 552.2V555.2H29.4V552.2V549.2H22.84V552.2ZM29.4 552.2V555.2C34.0014 555.2 36.6941 556.279 38.1865 557.789L40.32 555.68L42.4535 553.571C39.3593 550.441 34.772 549.2 29.4 549.2V552.2ZM40.32 555.68L38.211 557.814C39.7207 559.306 40.8 561.999 40.8 566.6H43.8H46.8C46.8 561.228 45.5593 556.641 42.429 553.546L40.32 555.68ZM43.8 566.6H40.8V570.6H43.8H46.8V566.6H43.8ZM43.8 570.6H40.8C40.8 570.858 40.7368 570.498 41.1386 570.089C41.5507 569.669 41.9363 569.72 41.72 569.72V572.72V575.72C42.8904 575.72 44.3159 575.418 45.4214 574.291C46.5166 573.175 46.8 571.755 46.8 570.6H43.8ZM41.72 572.72V569.72H12.6V572.72V575.72H41.72V572.72ZM22.84 556.4L22.882 553.4C18.8375 553.344 15.1211 554.076 12.7187 556.479L14.84 558.6L16.9613 560.721C17.5989 560.084 19.2159 559.35 22.798 559.4L22.84 556.4ZM14.84 558.6L12.7187 556.479C10.3501 558.847 9.6 562.556 9.6 566.6H12.6H15.6C15.6 562.964 16.3433 561.339 16.9613 560.721L14.84 558.6ZM12.6 566.6H9.6V568.52H12.6H15.6V566.6H12.6ZM12.6 568.52V571.52H39.6V568.52V565.52H12.6V568.52ZM39.6 568.52H42.6V566.6H39.6H36.6V568.52H39.6ZM39.6 566.6H42.6C42.6 562.576 41.8471 558.884 39.4813 556.519L37.36 558.64L35.2387 560.761C35.8596 561.382 36.6 562.998 36.6 566.6H39.6ZM37.36 558.64L39.4813 556.519C37.1155 554.153 33.4245 553.4 29.4 553.4V556.4V559.4C33.0022 559.4 34.6178 560.14 35.2387 560.761L37.36 558.64ZM29.4 556.4V553.4H22.84V556.4V559.4H29.4V556.4ZM81.0406 588.4L78.3343 587.106L78.3237 587.128L78.3134 587.15L81.0406 588.4ZM79.9606 589.68L78.619 586.997V586.997L79.9606 589.68ZM76.0006 588.36L78.7476 587.154L78.7438 587.146L78.74 587.137L76.0006 588.36ZM61.1606 555.12L58.4032 556.302L58.4121 556.322L58.4212 556.343L61.1606 555.12ZM62.3206 552.4L63.3863 555.204L63.4412 555.183L63.4953 555.16L62.3206 552.4ZM65.0406 553.52L62.2922 554.722L62.2969 554.733L62.3017 554.744L65.0406 553.52ZM79.8406 586.64V589.64H84.4671L82.5796 585.416L79.8406 586.64ZM77.2806 586.64L74.5711 585.352L72.5332 589.64H77.2806V586.64ZM93.0406 553.48L90.3342 552.186L90.3311 552.192L93.0406 553.48ZM94.2006 552.28L95.288 555.076L95.288 555.076L94.2006 552.28ZM95.8406 552.4L97.0694 549.663L97.0531 549.656L97.0368 549.649L95.8406 552.4ZM96.9206 555.2L99.627 556.494L99.6376 556.472L99.6478 556.45L96.9206 555.2ZM81.0406 588.4L78.3134 587.15C78.2519 587.284 78.224 587.305 78.2578 587.265C78.2964 587.22 78.411 587.101 78.619 586.997L79.9606 589.68L81.3023 592.363C82.5723 591.728 83.3203 590.626 83.7678 589.65L81.0406 588.4ZM79.9606 589.68L78.619 586.997C78.6428 586.985 78.6521 586.984 78.6366 586.988C78.6195 586.991 78.5704 587 78.4806 587V590V593C79.4256 593 80.3924 592.818 81.3023 592.363L79.9606 589.68ZM78.4806 590V587C78.42 587 78.4175 586.993 78.4566 587.004C78.4993 587.015 78.5647 587.041 78.6354 587.088C78.7058 587.134 78.7507 587.181 78.7719 587.208C78.7908 587.232 78.7774 587.222 78.7476 587.154L76.0006 588.36L73.2537 589.566C73.6776 590.531 74.3407 591.441 75.3259 592.092C76.3145 592.746 77.4157 593 78.4806 593V590ZM76.0006 588.36L78.74 587.137L63.9 553.897L61.1606 555.12L58.4212 556.343L73.2612 589.583L76.0006 588.36ZM61.1606 555.12L63.9181 553.938C63.8165 553.701 64.038 554.056 63.7902 554.637C63.5435 555.215 63.1383 555.299 63.3863 555.204L62.3206 552.4L61.255 549.596C60.1696 550.008 58.9045 550.798 58.2711 552.283C57.6366 553.771 57.9447 555.232 58.4032 556.302L61.1606 555.12ZM62.3206 552.4L63.4953 555.16C63.6762 555.083 63.3386 555.276 62.7984 555.054C62.2759 554.839 62.191 554.491 62.2922 554.722L65.0406 553.52L67.7891 552.318C67.3303 551.269 66.512 550.094 65.0829 549.506C63.636 548.91 62.2184 549.183 61.146 549.64L62.3206 552.4ZM65.0406 553.52L62.3017 554.744L77.1017 587.864L79.8406 586.64L82.5796 585.416L67.7796 552.296L65.0406 553.52ZM79.8406 586.64V583.64H77.2806V586.64V589.64H79.8406V586.64ZM77.2806 586.64L79.9902 587.928L95.7502 554.768L93.0406 553.48L90.3311 552.192L74.5711 585.352L77.2806 586.64ZM93.0406 553.48L95.747 554.774C95.7841 554.697 95.7822 554.728 95.7076 554.805C95.6244 554.891 95.4833 555 95.288 555.076L94.2006 552.28L93.1133 549.484C91.7188 550.026 90.8485 551.11 90.3342 552.186L93.0406 553.48ZM94.2006 552.28L95.288 555.076C95.0861 555.155 94.8938 555.172 94.7517 555.162C94.6232 555.153 94.5818 555.124 94.6445 555.151L95.8406 552.4L97.0368 549.649C95.9236 549.165 94.5319 548.932 93.1133 549.484L94.2006 552.28ZM95.8406 552.4L94.6119 555.137C94.8568 555.247 94.4995 555.159 94.2916 554.62C94.0788 554.068 94.2895 553.741 94.1934 553.95L96.9206 555.2L99.6478 556.45C100.138 555.379 100.462 553.945 99.8896 552.46C99.3217 550.988 98.1311 550.14 97.0694 549.663L95.8406 552.4ZM96.9206 555.2L94.2143 553.906L78.3343 587.106L81.0406 588.4L83.747 589.694L99.627 556.494L96.9206 555.2ZM118.298 587.12L116.162 589.227L116.176 589.241L116.191 589.256L118.298 587.12ZM118.338 568.8L116.216 566.679V566.679L118.338 568.8ZM145.658 565.88V568.88H148.703L148.657 565.835L145.658 565.88ZM143.258 558.52L141.215 560.717L141.235 560.736L141.255 560.754L143.258 558.52ZM123.378 557.48L124.626 560.208V560.208L123.378 557.48ZM120.458 561.16L123.346 561.969L123.371 561.881L123.39 561.792L120.458 561.16ZM119.698 562.64L121.819 564.761L121.819 564.761L119.698 562.64ZM116.618 562.52L114.424 564.567L114.495 564.643L114.571 564.713L116.618 562.52ZM116.218 560.92L119.18 561.394L119.191 561.327L119.198 561.26L116.218 560.92ZM120.338 554.28L118.849 551.675L118.843 551.679L118.837 551.682L120.338 554.28ZM146.378 555.68L144.244 557.789L144.256 557.801L144.268 557.814L146.378 555.68ZM145.658 583.92H148.658V573.552L143.121 582.318L145.658 583.92ZM138.738 584.96L139.567 587.843L139.58 587.839L139.592 587.836L138.738 584.96ZM143.497 582.16L141.309 580.108V580.108L143.497 582.16ZM145.658 577.04L148.639 577.375L148.658 577.208V577.04H145.658ZM145.658 570.08H148.658V567.08H145.658V570.08ZM121.298 584.12L119.151 586.216L119.176 586.241L119.201 586.266L121.298 584.12ZM127.458 590V587C123.683 587 121.556 586.12 120.404 584.984L118.298 587.12L116.191 589.256C118.932 591.96 122.912 593 127.458 593V590ZM118.298 587.12L120.433 585.013C119.297 583.861 118.418 581.735 118.418 577.96H115.418H112.418C112.418 582.505 113.458 586.485 116.162 589.227L118.298 587.12ZM115.418 577.96H118.418C118.418 574.195 119.306 572.074 120.459 570.921L118.338 568.8L116.216 566.679C113.476 569.419 112.418 573.405 112.418 577.96H115.418ZM118.338 568.8L120.459 570.921C121.615 569.765 123.726 568.88 127.458 568.88V565.88V562.88C122.923 562.88 118.953 563.941 116.216 566.679L118.338 568.8ZM127.458 565.88V568.88H145.658V565.88V562.88H127.458V565.88ZM145.658 565.88L148.657 565.835C148.6 562.03 147.747 558.516 145.26 556.286L143.258 558.52L141.255 560.754C141.861 561.297 142.609 562.69 142.658 565.925L145.658 565.88ZM143.258 558.52L145.3 556.323C142.93 554.119 139.362 553.4 135.458 553.4V556.4V559.4C138.913 559.4 140.545 560.094 141.215 560.717L143.258 558.52ZM135.458 556.4V553.4H130.818V556.4V559.4H135.458V556.4ZM130.818 556.4V553.4C127.335 553.4 124.314 553.752 122.129 554.752L123.378 557.48L124.626 560.208C125.588 559.768 127.527 559.4 130.818 559.4V556.4ZM123.378 557.48L122.129 554.752C119.67 555.877 118.092 557.897 117.525 560.528L120.458 561.16L123.39 561.792C123.57 560.957 123.938 560.523 124.626 560.208L123.378 557.48ZM120.458 561.16L117.569 560.351C117.517 560.536 117.474 560.63 117.459 560.66C117.444 560.689 117.473 560.622 117.576 560.519L119.698 562.64L121.819 564.761C122.647 563.934 123.088 562.891 123.346 561.969L120.458 561.16ZM119.698 562.64L117.576 560.519C117.843 560.252 118.109 560.141 118.241 560.101C118.361 560.064 118.385 560.08 118.258 560.08V563.08V566.08C119.256 566.08 120.703 565.877 121.819 564.761L119.698 562.64ZM118.258 563.08V560.08C118.177 560.08 118.203 560.069 118.297 560.101C118.402 560.137 118.538 560.209 118.664 560.327L116.618 562.52L114.571 564.713C115.663 565.733 117.016 566.08 118.258 566.08V563.08ZM116.618 562.52L118.811 560.473C118.973 560.647 119.092 560.868 119.148 561.092C119.199 561.297 119.176 561.416 119.18 561.394L116.218 560.92L113.255 560.446C113.04 561.79 113.272 563.333 114.424 564.567L116.618 562.52ZM116.218 560.92L119.198 561.26C119.45 559.051 120.356 557.734 121.838 556.878L120.338 554.28L118.837 551.682C115.519 553.599 113.678 556.709 113.237 560.58L116.218 560.92ZM120.338 554.28L121.826 556.885C123.598 555.872 126.485 555.2 130.818 555.2V552.2V549.2C126.03 549.2 121.93 549.915 118.849 551.675L120.338 554.28ZM130.818 552.2V555.2H135.458V552.2V549.2H130.818V552.2ZM135.458 552.2V555.2C140.059 555.2 142.752 556.279 144.244 557.789L146.378 555.68L148.511 553.571C145.417 550.441 140.829 549.2 135.458 549.2V552.2ZM146.378 555.68L144.268 557.814C145.778 559.306 146.857 561.999 146.857 566.6H149.857H152.857C152.857 561.228 151.617 556.641 148.487 553.546L146.378 555.68ZM149.857 566.6H146.857V587.88H149.857H152.857V566.6H149.857ZM149.857 587.88H146.857C146.857 588.138 146.794 587.778 147.196 587.369C147.608 586.949 147.994 587 147.777 587V590V593C148.948 593 150.373 592.698 151.479 591.571C152.574 590.455 152.857 589.035 152.857 587.88H149.857ZM147.777 590V587C147.533 587 147.901 586.941 148.309 587.349C148.717 587.756 148.658 588.124 148.658 587.88H145.658H142.658C142.658 589.049 142.952 590.477 144.066 591.591C145.181 592.706 146.608 593 147.777 593V590ZM145.658 587.88H148.658V583.92H145.658H142.658V587.88H145.658ZM145.658 583.92L143.121 582.318C141.305 585.193 137.921 587 131.938 587V590V593C139.127 593 144.89 590.753 148.194 585.522L145.658 583.92ZM131.938 590V587H127.458V590V593H131.938V590ZM127.458 585.8V588.8H131.938V585.8V582.8H127.458V585.8ZM131.938 585.8V588.8C134.731 588.8 137.288 588.499 139.567 587.843L138.738 584.96L137.908 582.077C136.294 582.541 134.317 582.8 131.938 582.8V585.8ZM138.738 584.96L139.592 587.836C141.986 587.124 144.064 585.942 145.686 584.212L143.497 582.16L141.309 580.108C140.531 580.938 139.435 581.623 137.883 582.084L138.738 584.96ZM143.497 582.16L145.686 584.212C147.42 582.363 148.343 580.005 148.639 577.375L145.658 577.04L142.676 576.705C142.492 578.342 141.975 579.397 141.309 580.108L143.497 582.16ZM145.658 577.04H148.658V570.08H145.658H142.658V577.04H145.658ZM145.658 570.08V567.08H127.458V570.08V573.08H145.658V570.08ZM127.458 570.08V567.08C124.298 567.08 121.2 567.655 119.176 569.679L121.298 571.8L123.419 573.921C123.689 573.651 124.697 573.08 127.458 573.08V570.08ZM121.298 571.8L119.176 569.679C117.167 571.688 116.618 574.807 116.618 577.96H119.618H122.618C122.618 575.14 123.189 574.152 123.419 573.921L121.298 571.8ZM119.618 577.96H116.618C116.618 581.107 117.175 584.193 119.151 586.216L121.298 584.12L123.444 582.024C123.18 581.754 122.618 580.733 122.618 577.96H119.618ZM121.298 584.12L119.201 586.266C121.225 588.243 124.311 588.8 127.458 588.8V585.8V582.8C124.684 582.8 123.663 582.237 123.394 581.974L121.298 584.12ZM177.148 587.36L175.027 589.481L175.035 589.489L175.043 589.497L177.148 587.36ZM180.148 584.4L178.027 586.521L178.042 586.536L178.057 586.551L180.148 584.4ZM187.628 587.88H184.628V587.908L184.629 587.937L187.628 587.88ZM185.508 590V587C182.114 587 180.249 586.204 179.253 585.223L177.148 587.36L175.043 589.497C177.62 592.036 181.329 593 185.508 593V590ZM177.148 587.36L179.269 585.239C178.303 584.272 177.508 582.445 177.508 579.08H174.508H171.508C171.508 583.235 172.473 586.928 175.027 589.481L177.148 587.36ZM174.508 579.08H177.508V536.6H174.508H171.508V579.08H174.508ZM174.508 536.6H177.508C177.508 536.384 177.559 536.769 177.139 537.181C176.73 537.583 176.37 537.52 176.628 537.52V534.52V531.52C175.473 531.52 174.053 531.803 172.937 532.899C171.81 534.004 171.508 535.43 171.508 536.6H174.508ZM176.628 534.52V537.52C176.859 537.52 176.481 537.576 176.067 537.161C175.652 536.747 175.708 536.369 175.708 536.6H178.708H181.708C181.708 535.444 181.417 534.026 180.309 532.919C179.202 531.811 177.784 531.52 176.628 531.52V534.52ZM178.708 536.6H175.708V579.08H178.708H181.708V536.6H178.708ZM178.708 579.08H175.708C175.708 581.822 176.173 584.668 178.027 586.521L180.148 584.4L182.269 582.279C182.203 582.212 181.708 581.511 181.708 579.08H178.708ZM180.148 584.4L178.057 586.551C179.91 588.353 182.74 588.8 185.468 588.8V585.8V582.8C184.336 582.8 183.52 582.696 182.962 582.549C182.398 582.401 182.237 582.247 182.239 582.249L180.148 584.4ZM185.468 585.8V588.8C185.753 588.8 185.411 588.87 185.007 588.481C184.582 588.071 184.628 587.679 184.628 587.88H187.628H190.628C190.628 586.695 190.314 585.262 189.169 584.159C188.045 583.076 186.623 582.8 185.468 582.8V585.8ZM187.628 587.88L184.629 587.937C184.633 588.172 184.569 587.776 184.997 587.349C185.414 586.932 185.785 587 185.508 587V590V593C186.672 593 188.116 592.715 189.239 591.591C190.374 590.457 190.65 589.002 190.628 587.823L187.628 587.88ZM237.869 584.08H240.869V573.853L235.345 582.459L237.869 584.08ZM210.909 586.52L208.776 588.629L208.782 588.635L208.788 588.641L210.909 586.52ZM213.909 583.56L211.769 585.662L211.788 585.681L211.807 585.7L213.909 583.56ZM233.869 583.8L235.339 586.416V586.416L233.869 583.8ZM237.869 577.68L240.852 577.999L240.869 577.84V577.68H237.869ZM239.949 552.2V555.2C240.208 555.2 239.848 555.263 239.438 554.861C239.018 554.449 239.069 554.064 239.069 554.28H242.069H245.069C245.069 553.11 244.767 551.684 243.64 550.579C242.524 549.483 241.104 549.2 239.949 549.2V552.2ZM242.069 554.28H239.069V587.88H242.069H245.069V554.28H242.069ZM242.069 587.88H239.069C239.069 588.124 239.01 587.756 239.418 587.349C239.826 586.941 240.194 587 239.949 587V590V593C241.118 593 242.546 592.706 243.661 591.591C244.775 590.477 245.069 589.049 245.069 587.88H242.069ZM239.949 590V587C239.733 587 240.119 586.949 240.531 587.369C240.933 587.778 240.869 588.138 240.869 587.88H237.869H234.869C234.869 589.035 235.153 590.455 236.248 591.571C237.353 592.698 238.779 593 239.949 593V590ZM237.869 587.88H240.869V584.08H237.869H234.869V587.88H237.869ZM237.869 584.08L235.345 582.459C233.574 585.218 230.191 587 224.109 587V590V593C231.307 593 237.098 590.835 240.394 585.701L237.869 584.08ZM224.109 590V587H221.869V590V593H224.109V590ZM221.869 590V587C217.272 587 214.554 585.922 213.031 584.399L210.909 586.52L208.788 588.641C211.904 591.758 216.494 593 221.869 593V590ZM210.909 586.52L213.043 584.411C211.538 582.888 210.469 580.166 210.469 575.56H207.469H204.469C204.469 580.928 205.694 585.512 208.776 588.629L210.909 586.52ZM207.469 575.56H210.469V554.28H207.469H204.469V575.56H207.469ZM207.469 554.28H210.469C210.469 554.049 210.525 554.427 210.111 554.841C209.696 555.256 209.318 555.2 209.549 555.2V552.2V549.2C208.394 549.2 206.976 549.491 205.868 550.599C204.76 551.706 204.469 553.124 204.469 554.28H207.469ZM209.549 552.2V555.2C209.808 555.2 209.448 555.263 209.038 554.861C208.618 554.449 208.669 554.064 208.669 554.28H211.669H214.669C214.669 553.11 214.367 551.684 213.24 550.579C212.124 549.483 210.704 549.2 209.549 549.2V552.2ZM211.669 554.28H208.669V575.56H211.669H214.669V554.28H211.669ZM211.669 575.56H208.669C208.669 579.593 209.426 583.277 211.769 585.662L213.909 583.56L216.049 581.458C215.406 580.803 214.669 579.154 214.669 575.56H211.669ZM213.909 583.56L211.807 585.7C214.19 588.041 217.856 588.8 221.869 588.8V585.8V582.8C218.309 582.8 216.669 582.066 216.012 581.42L213.909 583.56ZM221.869 585.8V588.8H224.109V585.8V582.8H221.869V585.8ZM224.109 585.8V588.8C228.512 588.8 232.343 588.099 235.339 586.416L233.869 583.8L232.4 581.184C230.649 582.168 227.973 582.8 224.109 582.8V585.8ZM233.869 583.8L235.339 586.416C238.573 584.598 240.458 581.694 240.852 577.999L237.869 577.68L234.886 577.361C234.694 579.16 233.912 580.335 232.4 581.184L233.869 583.8ZM237.869 577.68H240.869V554.28H237.869H234.869V577.68H237.869ZM237.869 554.28H240.869C240.869 554.049 240.925 554.427 240.511 554.841C240.096 555.256 239.718 555.2 239.949 555.2V552.2V549.2C238.794 549.2 237.376 549.491 236.268 550.599C235.16 551.706 234.869 553.124 234.869 554.28H237.869ZM269.497 587.12L267.362 589.227L267.376 589.241L267.391 589.256L269.497 587.12ZM269.538 568.8L267.416 566.679V566.679L269.538 568.8ZM296.858 565.88V568.88H299.903L299.857 565.835L296.858 565.88ZM294.457 558.52L292.415 560.717L292.435 560.736L292.455 560.754L294.457 558.52ZM274.578 557.48L275.826 560.208V560.208L274.578 557.48ZM271.658 561.16L274.546 561.969L274.571 561.881L274.59 561.792L271.658 561.16ZM270.897 562.64L273.019 564.761V564.761L270.897 562.64ZM267.818 562.52L265.624 564.567L265.695 564.643L265.771 564.713L267.818 562.52ZM267.418 560.92L270.38 561.394L270.391 561.327L270.398 561.26L267.418 560.92ZM271.538 554.28L270.049 551.675L270.043 551.679L270.037 551.682L271.538 554.28ZM297.578 555.68L295.444 557.789L295.456 557.801L295.468 557.814L297.578 555.68ZM296.858 583.92H299.858V573.552L294.321 582.318L296.858 583.92ZM289.938 584.96L290.767 587.843L290.78 587.839L290.792 587.836L289.938 584.96ZM294.698 582.16L292.509 580.108V580.108L294.698 582.16ZM296.858 577.04L299.839 577.375L299.858 577.208V577.04H296.858ZM296.858 570.08H299.858V567.08H296.858V570.08ZM272.497 584.12L270.351 586.216L270.376 586.241L270.401 586.266L272.497 584.12ZM278.658 590V587C274.883 587 272.756 586.12 271.604 584.984L269.497 587.12L267.391 589.256C270.132 591.96 274.112 593 278.658 593V590ZM269.497 587.12L271.633 585.013C270.497 583.861 269.617 581.735 269.617 577.96H266.617H263.617C263.617 582.505 264.658 586.485 267.362 589.227L269.497 587.12ZM266.617 577.96H269.617C269.617 574.195 270.506 572.074 271.659 570.921L269.538 568.8L267.416 566.679C264.676 569.419 263.617 573.405 263.617 577.96H266.617ZM269.538 568.8L271.659 570.921C272.815 569.765 274.926 568.88 278.658 568.88V565.88V562.88C274.123 562.88 270.153 563.941 267.416 566.679L269.538 568.8ZM278.658 565.88V568.88H296.858V565.88V562.88H278.658V565.88ZM296.858 565.88L299.857 565.835C299.799 562.03 298.947 558.516 296.46 556.286L294.457 558.52L292.455 560.754C293.061 561.297 293.809 562.69 293.858 565.925L296.858 565.88ZM294.457 558.52L296.5 556.323C294.13 554.119 290.562 553.4 286.658 553.4V556.4V559.4C290.113 559.4 291.745 560.094 292.415 560.717L294.457 558.52ZM286.658 556.4V553.4H282.018V556.4V559.4H286.658V556.4ZM282.018 556.4V553.4C278.535 553.4 275.514 553.752 273.329 554.752L274.578 557.48L275.826 560.208C276.788 559.768 278.727 559.4 282.018 559.4V556.4ZM274.578 557.48L273.329 554.752C270.87 555.877 269.292 557.897 268.725 560.528L271.658 561.16L274.59 561.792C274.77 560.957 275.138 560.523 275.826 560.208L274.578 557.48ZM271.658 561.16L268.769 560.351C268.717 560.536 268.674 560.63 268.659 560.66C268.644 560.689 268.673 560.622 268.776 560.519L270.897 562.64L273.019 564.761C273.847 563.934 274.288 562.891 274.546 561.969L271.658 561.16ZM270.897 562.64L268.776 560.519C269.043 560.252 269.309 560.141 269.441 560.101C269.561 560.064 269.585 560.08 269.457 560.08V563.08V566.08C270.456 566.08 271.903 565.877 273.019 564.761L270.897 562.64ZM269.457 563.08V560.08C269.377 560.08 269.403 560.069 269.497 560.101C269.602 560.137 269.738 560.209 269.864 560.327L267.818 562.52L265.771 564.713C266.863 565.733 268.216 566.08 269.457 566.08V563.08ZM267.818 562.52L270.011 560.473C270.173 560.647 270.292 560.868 270.348 561.092C270.399 561.297 270.376 561.416 270.38 561.394L267.418 560.92L264.455 560.446C264.24 561.79 264.472 563.333 265.624 564.567L267.818 562.52ZM267.418 560.92L270.398 561.26C270.65 559.051 271.556 557.734 273.038 556.878L271.538 554.28L270.037 551.682C266.719 553.599 264.878 556.709 264.437 560.58L267.418 560.92ZM271.538 554.28L273.026 556.885C274.798 555.872 277.685 555.2 282.018 555.2V552.2V549.2C277.23 549.2 273.13 549.915 270.049 551.675L271.538 554.28ZM282.018 552.2V555.2H286.658V552.2V549.2H282.018V552.2ZM286.658 552.2V555.2C291.259 555.2 293.952 556.279 295.444 557.789L297.578 555.68L299.711 553.571C296.617 550.441 292.029 549.2 286.658 549.2V552.2ZM297.578 555.68L295.468 557.814C296.978 559.306 298.057 561.999 298.057 566.6H301.057H304.057C304.057 561.228 302.817 556.641 299.687 553.546L297.578 555.68ZM301.057 566.6H298.057V587.88H301.057H304.057V566.6H301.057ZM301.057 587.88H298.057C298.057 588.138 297.994 587.778 298.396 587.369C298.808 586.949 299.194 587 298.978 587V590V593C300.148 593 301.573 592.698 302.679 591.571C303.774 590.455 304.057 589.035 304.057 587.88H301.057ZM298.978 590V587C298.733 587 299.101 586.941 299.509 587.349C299.917 587.756 299.858 588.124 299.858 587.88H296.858H293.858C293.858 589.049 294.152 590.477 295.266 591.591C296.381 592.706 297.808 593 298.978 593V590ZM296.858 587.88H299.858V583.92H296.858H293.858V587.88H296.858ZM296.858 583.92L294.321 582.318C292.505 585.193 289.121 587 283.138 587V590V593C290.327 593 296.09 590.753 299.394 585.522L296.858 583.92ZM283.138 590V587H278.658V590V593H283.138V590ZM278.658 585.8V588.8H283.138V585.8V582.8H278.658V585.8ZM283.138 585.8V588.8C285.931 588.8 288.488 588.499 290.767 587.843L289.938 584.96L289.108 582.077C287.494 582.541 285.517 582.8 283.138 582.8V585.8ZM289.938 584.96L290.792 587.836C293.186 587.124 295.264 585.942 296.886 584.212L294.698 582.16L292.509 580.108C291.731 580.938 290.635 581.623 289.083 582.084L289.938 584.96ZM294.698 582.16L296.886 584.212C298.62 582.363 299.543 580.005 299.839 577.375L296.858 577.04L293.876 576.705C293.692 578.342 293.175 579.397 292.509 580.108L294.698 582.16ZM296.858 577.04H299.858V570.08H296.858H293.858V577.04H296.858ZM296.858 570.08V567.08H278.658V570.08V573.08H296.858V570.08ZM278.658 570.08V567.08C275.498 567.08 272.4 567.655 270.376 569.679L272.497 571.8L274.619 573.921C274.889 573.651 275.897 573.08 278.658 573.08V570.08ZM272.497 571.8L270.376 569.679C268.366 571.688 267.818 574.807 267.818 577.96H270.818H273.818C273.818 575.14 274.388 574.152 274.619 573.921L272.497 571.8ZM270.818 577.96H267.818C267.818 581.107 268.375 584.193 270.351 586.216L272.497 584.12L274.644 582.024C274.38 581.754 273.818 580.733 273.818 577.96H270.818ZM272.497 584.12L270.401 586.266C272.425 588.243 275.511 588.8 278.658 588.8V585.8V582.8C275.884 582.8 274.863 582.237 274.594 581.974L272.497 584.12ZM326.988 556.4H329.988V553.4H326.988V556.4ZM326.988 552.2V555.2H329.988V552.2H326.988ZM331.188 552.2H328.188V555.2H331.188V552.2ZM331.188 556.4V553.4H328.188V556.4H331.188ZM333.348 583.64L331.227 585.761L331.237 585.771L331.246 585.781L333.348 583.64ZM342.788 586.32L340.584 588.355L340.624 588.399L340.667 588.441L342.788 586.32ZM341.148 590V587C336.623 587 333.976 585.946 332.509 584.479L330.388 586.6L328.267 588.721C331.333 591.788 335.86 593 341.148 593V590ZM330.388 586.6L332.509 584.479C331.04 583.009 329.988 580.373 329.988 575.88H326.988H323.988C323.988 581.147 325.203 585.657 328.267 588.721L330.388 586.6ZM326.988 575.88H329.988V556.4H326.988H323.988V575.88H326.988ZM326.988 556.4V553.4H322.228V556.4V559.4H326.988V556.4ZM322.228 556.4V553.4C321.984 553.4 322.352 553.341 322.759 553.749C323.167 554.156 323.108 554.524 323.108 554.28H320.108H317.108C317.108 555.449 317.402 556.877 318.517 557.991C319.631 559.106 321.059 559.4 322.228 559.4V556.4ZM320.108 554.28H323.108C323.108 554.064 323.159 554.449 322.739 554.861C322.33 555.263 321.97 555.2 322.228 555.2V552.2V549.2C321.073 549.2 319.653 549.483 318.537 550.579C317.41 551.684 317.108 553.11 317.108 554.28H320.108ZM322.228 552.2V555.2H326.988V552.2V549.2H322.228V552.2ZM326.988 552.2H329.988V543.6H326.988H323.988V552.2H326.988ZM326.988 543.6H329.988C329.988 543.342 330.051 543.702 329.65 544.111C329.237 544.531 328.852 544.48 329.068 544.48V541.48V538.48C327.898 538.48 326.472 538.782 325.367 539.909C324.272 541.025 323.988 542.445 323.988 543.6H326.988ZM329.068 541.48V544.48C329.312 544.48 328.945 544.539 328.537 544.131C328.129 543.724 328.188 543.356 328.188 543.6H331.188H334.188C334.188 542.431 333.894 541.003 332.779 539.889C331.665 538.774 330.237 538.48 329.068 538.48V541.48ZM331.188 543.6H328.188V552.2H331.188H334.188V543.6H331.188ZM331.188 552.2V555.2H341.228V552.2V549.2H331.188V552.2ZM341.228 552.2V555.2C341.459 555.2 341.081 555.256 340.667 554.841C340.252 554.427 340.308 554.049 340.308 554.28H343.308H346.308C346.308 553.124 346.017 551.706 344.909 550.599C343.802 549.491 342.384 549.2 341.228 549.2V552.2ZM343.308 554.28H340.308C340.308 554.538 340.245 554.178 340.647 553.769C341.059 553.349 341.444 553.4 341.228 553.4V556.4V559.4C342.399 559.4 343.824 559.098 344.93 557.971C346.025 556.855 346.308 555.435 346.308 554.28H343.308ZM341.228 556.4V553.4H331.188V556.4V559.4H341.228V556.4ZM331.188 556.4H328.188V575.88H331.188H334.188V556.4H331.188ZM331.188 575.88H328.188C328.188 579.809 328.908 583.443 331.227 585.761L333.348 583.64L335.469 581.519C334.908 580.957 334.188 579.418 334.188 575.88H331.188ZM333.348 583.64L331.246 585.781C333.584 588.076 337.211 588.8 341.148 588.8V585.8V582.8C337.619 582.8 336.045 582.084 335.45 581.499L333.348 583.64ZM341.148 585.8V588.8C341.327 588.8 341.333 588.822 341.231 588.79C341.115 588.753 340.846 588.639 340.584 588.355L342.788 586.32L344.993 584.285C343.83 583.026 342.243 582.8 341.148 582.8V585.8ZM342.788 586.32L340.667 588.441C340.474 588.248 340.375 588.048 340.332 587.919C340.294 587.804 340.308 587.774 340.308 587.88H343.308H346.308C346.308 586.724 346.017 585.306 344.909 584.199L342.788 586.32ZM343.308 587.88H340.308C340.308 588.11 340.254 587.734 340.667 587.329C341.07 586.934 341.42 587 341.148 587V590V593C342.317 593 343.747 592.713 344.87 591.611C346.003 590.499 346.308 589.063 346.308 587.88H343.308ZM363.977 586.56L361.856 588.681L361.862 588.687L361.868 588.694L363.977 586.56ZM363.977 555.6L366.086 557.734L366.092 557.727L366.098 557.721L363.977 555.6ZM374.937 552.2L374.905 555.2L374.921 555.2H374.937V552.2ZM392.417 555.68L390.283 557.789L390.296 557.801L390.308 557.814L392.417 555.68ZM392.417 586.52L390.296 584.399L390.289 584.405L390.283 584.411L392.417 586.52ZM366.937 583.56L364.797 585.662L364.815 585.681L364.834 585.7L366.937 583.56ZM389.457 583.56L391.578 585.681L391.588 585.672L391.597 585.662L389.457 583.56ZM374.937 556.4L374.906 559.4L374.921 559.4H374.937V556.4ZM365.657 560.52L362.899 559.338V559.338L365.657 560.52ZM374.937 590V587C370.331 587 367.609 585.932 366.086 584.426L363.977 586.56L361.868 588.694C364.985 591.775 369.569 593 374.937 593V590ZM363.977 586.56L366.098 584.439C364.572 582.913 363.497 580.205 363.497 575.64H360.497H357.497C357.497 580.995 358.742 585.567 361.856 588.681L363.977 586.56ZM360.497 575.64H363.497V566.6H360.497H357.497V575.64H360.497ZM360.497 566.6H363.497C363.497 561.934 364.581 559.221 366.086 557.734L363.977 555.6L361.868 553.466C358.732 556.566 357.497 561.186 357.497 566.6H360.497ZM363.977 555.6L366.098 557.721C367.61 556.21 370.311 555.151 374.905 555.2L374.937 552.2L374.969 549.2C369.589 549.143 364.984 550.35 361.856 553.479L363.977 555.6ZM374.937 552.2V555.2H381.497V552.2V549.2H374.937V552.2ZM381.497 552.2V555.2C386.098 555.2 388.791 556.279 390.283 557.789L392.417 555.68L394.55 553.571C391.456 550.441 386.869 549.2 381.497 549.2V552.2ZM392.417 555.68L390.308 557.814C391.818 559.306 392.897 561.999 392.897 566.6H395.897H398.897C398.897 561.228 397.656 556.641 394.526 553.546L392.417 555.68ZM395.897 566.6H392.897V575.56H395.897H398.897V566.6H395.897ZM395.897 575.56H392.897C392.897 580.158 391.819 582.875 390.296 584.399L392.417 586.52L394.538 588.641C397.655 585.525 398.897 580.936 398.897 575.56H395.897ZM392.417 586.52L390.283 584.411C388.791 585.921 386.098 587 381.497 587V590V593C386.869 593 391.456 591.759 394.55 588.629L392.417 586.52ZM381.497 590V587H374.937V590V593H381.497V590ZM364.697 575.64H361.697C361.697 579.634 362.459 583.283 364.797 585.662L366.937 583.56L369.077 581.458C368.428 580.797 367.697 579.166 367.697 575.64H364.697ZM366.937 583.56L364.834 585.7C367.22 588.044 370.904 588.8 374.937 588.8V585.8V582.8C371.343 582.8 369.694 582.063 369.039 581.42L366.937 583.56ZM374.937 585.8V588.8H381.497V585.8V582.8H374.937V585.8ZM381.497 585.8V588.8C385.521 588.8 389.212 588.047 391.578 585.681L389.457 583.56L387.336 581.439C386.715 582.06 385.099 582.8 381.497 582.8V585.8ZM389.457 583.56L391.597 585.662C393.941 583.277 394.697 579.593 394.697 575.56H391.697H388.697C388.697 579.154 387.96 580.803 387.317 581.458L389.457 583.56ZM391.697 575.56H394.697V566.6H391.697H388.697V575.56H391.697ZM391.697 566.6H394.697C394.697 562.576 393.944 558.884 391.578 556.519L389.457 558.64L387.336 560.761C387.956 561.382 388.697 562.998 388.697 566.6H391.697ZM389.457 558.64L391.578 556.519C389.212 554.153 385.521 553.4 381.497 553.4V556.4V559.4C385.099 559.4 386.715 560.14 387.336 560.761L389.457 558.64ZM381.497 556.4V553.4H374.937V556.4V559.4H381.497V556.4ZM374.937 556.4L374.968 553.4C372.205 553.371 369.709 553.691 367.675 554.563L368.857 557.32L370.039 560.077C370.992 559.669 372.549 559.375 374.906 559.4L374.937 556.4ZM368.857 557.32L367.675 554.563C365.474 555.506 363.843 557.137 362.899 559.338L365.657 560.52L368.414 561.702C368.751 560.916 369.253 560.414 370.039 560.077L368.857 557.32ZM365.657 560.52L362.899 559.338C362.034 561.358 361.697 563.842 361.697 566.6H364.697H367.697C367.697 564.238 368 562.669 368.414 561.702L365.657 560.52ZM364.697 566.6H361.697V575.64H364.697H367.697V566.6H364.697ZM424.38 560.44H421.38L427.042 561.824L424.38 560.44ZM430.38 554.32L428.964 551.675L428.953 551.681L430.38 554.32ZM428.7 559.64L430.597 561.964L430.604 561.958L430.611 561.952L428.7 559.64ZM424.38 568.8L421.387 568.599L421.38 568.699V568.8H424.38ZM422.3 590V587C422.056 587 422.424 586.941 422.831 587.349C423.239 587.756 423.18 588.124 423.18 587.88H420.18H417.18C417.18 589.049 417.474 590.477 418.589 591.591C419.703 592.706 421.131 593 422.3 593V590ZM420.18 587.88H423.18V554.28H420.18H417.18V587.88H420.18ZM420.18 554.28H423.18C423.18 554.064 423.231 554.449 422.811 554.861C422.402 555.263 422.042 555.2 422.3 555.2V552.2V549.2C421.145 549.2 419.725 549.483 418.609 550.579C417.482 551.684 417.18 553.11 417.18 554.28H420.18ZM422.3 552.2V555.2C422.531 555.2 422.153 555.256 421.739 554.841C421.324 554.427 421.38 554.049 421.38 554.28H424.38H427.38C427.38 553.124 427.089 551.706 425.981 550.599C424.874 549.491 423.456 549.2 422.3 549.2V552.2ZM424.38 554.28H421.38V560.44H424.38H427.38V554.28H424.38ZM424.38 560.44L427.042 561.824C428.155 559.683 429.728 558.083 431.807 556.959L430.38 554.32L428.953 551.681C425.805 553.383 423.378 555.864 421.718 559.056L424.38 560.44ZM430.38 554.32L431.796 556.965C433.921 555.827 436.535 555.2 439.74 555.2V552.2V549.2C435.745 549.2 432.119 549.986 428.964 551.675L430.38 554.32ZM439.74 552.2V555.2C439.998 555.2 439.639 555.263 439.229 554.861C438.809 554.449 438.86 554.064 438.86 554.28H441.86H444.86C444.86 553.11 444.558 551.684 443.431 550.579C442.315 549.483 440.895 549.2 439.74 549.2V552.2ZM441.86 554.28H438.86C438.86 554.524 438.801 554.156 439.209 553.749C439.616 553.341 439.984 553.4 439.74 553.4V556.4V559.4C440.909 559.4 442.337 559.106 443.451 557.991C444.566 556.877 444.86 555.449 444.86 554.28H441.86ZM439.74 556.4V553.4C434.571 553.4 430.12 554.575 426.789 557.328L428.7 559.64L430.611 561.952C432.507 560.385 435.415 559.4 439.74 559.4V556.4ZM428.7 559.64L426.803 557.316C423.43 560.07 421.698 563.96 421.387 568.599L424.38 568.8L427.373 569.001C427.595 565.694 428.744 563.477 430.597 561.964L428.7 559.64ZM424.38 568.8H421.38V587.88H424.38H427.38V568.8H424.38ZM424.38 587.88H421.38C421.38 588.138 421.317 587.778 421.719 587.369C422.131 586.949 422.516 587 422.3 587V590V593C423.47 593 424.896 592.698 426.001 591.571C427.097 590.455 427.38 589.035 427.38 587.88H424.38Z" fill="#2E89A2" mask="url(#path-29-outside-2_4_125)"/>
</svg>
