<svg xmlns="http://www.w3.org/2000/svg" xmlns:xlink="http://www.w3.org/1999/xlink" width="500" zoomAndPan="magnify" viewBox="0 0 375 374.999991" height="500" preserveAspectRatio="xMidYMid meet" version="1.0"><defs><clipPath id="067be805f4"><path d="M 134.21875 148.644531 L 194.535156 148.644531 L 194.535156 260.296875 L 134.21875 260.296875 Z M 134.21875 148.644531 " clip-rule="nonzero"/></clipPath><clipPath id="b74b99d9e0"><path d="M 123 90 L 240 90 L 240 195 L 123 195 Z M 123 90 " clip-rule="nonzero"/></clipPath><clipPath id="902c0adb1d"><path d="M 123.464844 140.878906 L 155.941406 90.054688 L 239.300781 143.316406 L 206.824219 194.144531 Z M 123.464844 140.878906 " clip-rule="nonzero"/></clipPath><clipPath id="59ab379d7b"><path d="M 91 217 L 208 217 L 208 322 L 91 322 Z M 91 217 " clip-rule="nonzero"/></clipPath><clipPath id="5480c5b645"><path d="M 91.339844 268.277344 L 123.816406 217.453125 L 207.175781 270.71875 L 174.699219 321.542969 Z M 91.339844 268.277344 " clip-rule="nonzero"/></clipPath><clipPath id="b62691fea5"><path d="M 200.25 143.851562 L 267.75 143.851562 L 267.75 261.148438 L 200.25 261.148438 Z M 200.25 143.851562 " clip-rule="nonzero"/></clipPath><clipPath id="6ecc104356"><path d="M 165 81 L 268 81 L 268 181 L 165 181 Z M 165 81 " clip-rule="nonzero"/></clipPath><clipPath id="8b590ab998"><path d="M 165.324219 118.277344 L 234.199219 81.378906 L 267.75 144.019531 L 198.875 180.914062 Z M 165.324219 118.277344 " clip-rule="nonzero"/></clipPath><clipPath id="b3b6ae1fa1"><path d="M 207 226 L 310 226 L 310 327 L 207 327 Z M 207 226 " clip-rule="nonzero"/></clipPath><clipPath id="623eeabcad"><path d="M 207.324219 263.476562 L 276.199219 226.582031 L 309.75 289.21875 L 240.875 326.113281 Z M 207.324219 263.476562 " clip-rule="nonzero"/></clipPath><clipPath id="5b2cf80ffa"><path d="M 138.953125 108.226562 L 261.105469 108.226562 L 261.105469 182.503906 L 138.953125 182.503906 Z M 138.953125 108.226562 " clip-rule="nonzero"/></clipPath><clipPath id="b14b31589c"><path d="M 199.996094 108.226562 L 261.039062 145.363281 L 199.996094 182.503906 L 138.953125 145.363281 Z M 199.996094 108.226562 " clip-rule="nonzero"/></clipPath></defs><rect x="-37.5" width="450" fill="#ffffff" y="-37.499999" height="449.999989" fill-opacity="1"/><rect x="-37.5" width="450" fill="#ffffff" y="-37.499999" height="449.999989" fill-opacity="1"/><g clip-path="url(#067be805f4)"><path fill="#ff9e18" d="M 134.21875 148.644531 L 194.535156 148.644531 L 194.535156 260.320312 L 134.21875 260.320312 Z M 134.21875 148.644531 " fill-opacity="1" fill-rule="nonzero"/></g><g clip-path="url(#b74b99d9e0)"><g clip-path="url(#902c0adb1d)"><path fill="#ffffff" d="M 123.464844 140.878906 L 155.941406 90.054688 L 239.328125 143.335938 L 206.851562 194.160156 Z M 123.464844 140.878906 " fill-opacity="1" fill-rule="nonzero"/></g></g><g clip-path="url(#59ab379d7b)"><g clip-path="url(#5480c5b645)"><path fill="#ffffff" d="M 91.339844 268.277344 L 123.816406 217.453125 L 207.203125 270.734375 L 174.726562 321.558594 Z M 91.339844 268.277344 " fill-opacity="1" fill-rule="nonzero"/></g></g><g clip-path="url(#b62691fea5)"><path fill="#5aa2ae" d="M 200.25 143.851562 L 267.75 143.851562 L 267.75 261.183594 L 200.25 261.183594 Z M 200.25 143.851562 " fill-opacity="1" fill-rule="nonzero"/></g><g clip-path="url(#6ecc104356)"><g clip-path="url(#8b590ab998)"><path fill="#ffffff" d="M 165.324219 118.277344 L 234.078125 81.445312 L 267.632812 144.082031 L 198.875 180.914062 Z M 165.324219 118.277344 " fill-opacity="1" fill-rule="nonzero"/></g></g><g clip-path="url(#b3b6ae1fa1)"><g clip-path="url(#623eeabcad)"><path fill="#ffffff" d="M 207.324219 263.476562 L 276.078125 226.644531 L 309.632812 289.28125 L 240.875 326.113281 Z M 207.324219 263.476562 " fill-opacity="1" fill-rule="nonzero"/></g></g><g clip-path="url(#5b2cf80ffa)"><g clip-path="url(#b14b31589c)"><path fill="#993366" d="M 138.953125 108.226562 L 261.105469 108.226562 L 261.105469 182.503906 L 138.953125 182.503906 Z M 138.953125 108.226562 " fill-opacity="1" fill-rule="nonzero"/></g></g><path fill="#002169" d="M 205.703125 257.105469 L 205.703125 189.527344 L 264.222656 155.734375 L 264.222656 223.3125 Z M 135.84375 155.734375 L 194.359375 189.527344 L 194.359375 257.105469 L 135.84375 223.3125 Z M 200.03125 112.121094 L 141.515625 145.914062 L 200.03125 179.703125 L 258.550781 145.914062 Z M 202.894531 100.664062 C 201.148438 99.65625 198.964844 99.65625 197.222656 100.664062 L 127.359375 141 C 125.566406 142.015625 124.5 143.886719 124.5 145.914062 L 124.5 226.589844 C 124.5 228.613281 125.566406 230.488281 127.359375 231.503906 L 197.222656 271.835938 C 198.972656 272.851562 201.148438 272.847656 202.894531 271.835938 L 272.753906 231.503906 C 274.5 230.488281 275.566406 228.613281 275.566406 226.589844 L 275.566406 145.914062 C 275.566406 143.886719 274.5 142.015625 272.753906 141 Z M 45.714844 112.757812 C 40.742188 110.765625 38.867188 100.96875 46.101562 95.132812 L 125.324219 31.132812 C 138.265625 20.707031 145.976562 18.332031 166.824219 18.429688 L 269.023438 18.910156 L 269.023438 60.730469 C 266.210938 61.917969 263.832031 63.808594 261.894531 66.441406 C 256.804688 73.253906 249.339844 77.292969 241.386719 77.523438 L 163.234375 77.988281 C 163.1875 77.988281 163.1875 77.988281 163.136719 77.988281 C 161.78125 78.027344 159.9375 77.753906 157.757812 75.449219 C 156.9375 74.269531 156.496094 70.859375 156.496094 68.75 C 156.496094 67.179688 157.082031 65.570312 157.367188 65.339844 C 157.949219 65.121094 158.96875 64.695312 160.8125 63.925781 C 174.578125 58.152344 182.722656 55 185.003906 54.558594 L 217.050781 54.097656 C 220.394531 54.050781 223.0625 51.304688 223.011719 47.964844 C 222.964844 44.628906 220.238281 41.980469 216.855469 42.007812 L 184.566406 42.46875 C 181.898438 42.515625 176.761719 44.121094 156.109375 52.769531 C 154.945312 53.269531 153.78125 53.746094 153.199219 53.988281 C 150 54.894531 146.847656 58.128906 145.34375 62.722656 C 132.992188 62.621094 119.535156 61.71875 109.566406 68.929688 L 49.011719 112.710938 C 47.945312 113.171875 46.78125 113.1875 45.714844 112.757812 Z M 281.09375 14.207031 C 281.09375 13.074219 282.0625 12.113281 283.226562 12.113281 L 312.753906 12.113281 C 313.867188 12.113281 314.835938 13.074219 314.835938 14.207031 L 314.835938 68.15625 C 314.835938 69.296875 313.867188 70.257812 312.753906 70.257812 L 283.226562 70.257812 C 282.0625 70.257812 281.09375 69.296875 281.09375 68.15625 Z M 55.652344 122.839844 C 55.410156 123.019531 55.167969 123.183594 54.878906 123.324219 C 44.914062 128.265625 34.234375 122.820312 30.492188 112.328125 C 26.613281 101.542969 31.753906 91.191406 38.492188 85.722656 L 117.757812 21.722656 C 132.59375 9.726562 143.066406 6.335938 165.753906 6.335938 C 200.796875 6.335938 236.058594 6.8125 271.105469 6.8125 C 273.628906 2.746094 278.089844 0.015625 283.226562 0.015625 L 312.753906 0.015625 C 320.558594 0.015625 326.910156 6.382812 326.910156 14.207031 L 326.910156 68.15625 C 326.910156 75.988281 320.558594 82.347656 312.753906 82.347656 L 283.226562 82.347656 C 277.796875 82.347656 273.046875 79.292969 270.671875 74.808594 C 263.523438 83.777344 252.507812 89.585938 241.53125 89.621094 L 163.378906 90.082031 C 157.609375 90.207031 152.328125 87.726562 148.15625 82.894531 C 146.632812 81.054688 145.417969 77.285156 144.910156 74.820312 C 134.707031 74.726562 123.203125 73.988281 116.644531 78.730469 Z M 328.898438 279.867188 L 249.628906 343.867188 C 236.734375 354.285156 228.976562 356.671875 208.175781 356.5625 L 105.976562 356.089844 L 105.976562 314.265625 C 108.789062 313.082031 111.167969 311.191406 113.105469 308.554688 C 118.195312 301.742188 125.660156 297.707031 133.5625 297.46875 L 211.765625 297.011719 C 211.8125 297.011719 211.8125 297.011719 211.863281 297.003906 C 213.265625 296.976562 215.0625 297.242188 217.242188 299.546875 C 218.0625 300.722656 218.503906 304.132812 218.503906 306.246094 C 218.503906 307.851562 217.921875 309.390625 217.582031 309.652344 C 217.046875 309.878906 216.03125 310.304688 214.1875 311.070312 C 200.417969 316.84375 192.273438 319.996094 189.996094 320.4375 L 157.949219 320.898438 C 154.605469 320.945312 151.9375 323.695312 151.984375 327.035156 C 152.035156 330.363281 154.761719 333.019531 158.140625 332.992188 L 190.433594 332.527344 C 193.097656 332.480469 198.1875 330.875 218.839844 322.230469 C 220.054688 321.730469 221.167969 321.25 221.75 321.007812 C 225 320.105469 228.148438 316.867188 229.652344 312.277344 C 242.039062 312.328125 255.378906 313.332031 265.433594 306.066406 L 325.984375 262.285156 C 327.054688 261.824219 328.214844 261.808594 329.28125 262.242188 C 334.382812 264.300781 335.976562 274.160156 328.898438 279.867188 Z M 93.855469 360.789062 C 93.855469 361.925781 92.9375 362.886719 91.773438 362.886719 L 62.246094 362.886719 C 61.132812 362.886719 60.164062 361.925781 60.164062 360.789062 L 60.164062 306.835938 C 60.164062 305.703125 61.132812 304.742188 62.246094 304.742188 L 91.773438 304.742188 C 92.9375 304.742188 93.855469 305.703125 93.855469 306.835938 Z M 344.507812 262.664062 C 340.816406 252.25 330.113281 246.699219 320.121094 251.675781 L 258.355469 296.269531 C 251.722656 301.066406 240.304688 300.226562 230.042969 300.179688 C 229.582031 297.734375 228.363281 293.914062 226.84375 292.105469 C 222.625 287.277344 217.390625 284.789062 211.621094 284.914062 L 133.417969 285.375 C 133.417969 285.375 133.371094 285.378906 133.320312 285.378906 C 122.121094 285.6875 111.601562 291.066406 104.328125 300.1875 C 101.90625 295.707031 97.203125 292.648438 91.773438 292.648438 L 62.246094 292.648438 C 54.441406 292.648438 48.089844 299.011719 48.089844 306.839844 L 48.089844 360.789062 C 48.089844 368.621094 54.441406 374.984375 62.246094 374.984375 L 91.773438 374.984375 C 96.910156 374.984375 101.371094 372.253906 103.894531 368.183594 C 138.945312 368.183594 174.203125 368.667969 209.246094 368.667969 C 231.933594 368.667969 242.40625 365.273438 257.242188 353.273438 L 336.507812 289.277344 C 343.246094 283.808594 348.386719 273.457031 344.507812 262.664062 Z M 344.507812 262.664062 " fill-opacity="1" fill-rule="evenodd"/></svg>