<?xml version="1.0" encoding="UTF-8"?>
<svg id="Layer_1" data-name="Layer 1" xmlns="http://www.w3.org/2000/svg" xmlns:xlink="http://www.w3.org/1999/xlink" viewBox="0 0 200 200">
  <defs>
    <style>
      .cls-1 {
        fill: url(#linear-gradient);
        fill-opacity: .34;
      }

      .cls-2, .cls-3 {
        fill: #041e42;
      }

      .cls-3 {
        fill-rule: evenodd;
      }

      .cls-4 {
        fill: #011e41;
      }

      .cls-5 {
        font-family: Bahnschrift, Bahnschrift;
        font-size: 8.06px;
        font-variation-settings: 'wght' 400, 'wdth' 100;
      }

      .cls-6 {
        letter-spacing: -.02em;
      }
    </style>
    <linearGradient id="linear-gradient" x1="29.66" y1="30.43" x2="165.98" y2="166.75" gradientUnits="userSpaceOnUse">
      <stop offset="0" stop-color="#22305d"/>
      <stop offset="1" stop-color="#4079bc"/>
    </linearGradient>
  </defs>
  <path class="cls-1" d="M106.32,3.98c-2.29,0-4.18,1.66-4.56,3.83-.86-.02-1.72-.07-2.59-.07-7.54,0-14.86.93-21.88,2.64-.69-1.71-2.35-2.92-4.31-2.92-2.57,0-4.65,2.08-4.65,4.65,0,.31.03.62.09.91-10.93,3.87-20.91,9.75-29.52,17.19-1.2-1.05-2.76-1.71-4.49-1.71-3.78,0-6.84,3.06-6.84,6.84,0,1.73.66,3.29,1.72,4.49-6.48,7.51-11.78,16.07-15.59,25.39-.2-.04-.41-.06-.63-.06-1.92,0-3.47,1.55-3.47,3.47,0,1.29.71,2.4,1.75,3-2.91,8.96-4.49,18.5-4.49,28.41,0,.84.04,1.67.06,2.5-2.72.4-4.81,2.72-4.81,5.55,0,3.11,2.52,5.63,5.63,5.63.04,0,.08-.01.13-.01,1.16,7.81,3.31,15.31,6.31,22.35-.92.62-1.53,1.68-1.53,2.88,0,1.92,1.55,3.47,3.47,3.47.35,0,.68-.07,1-.16,3.93,7.6,8.87,14.59,14.67,20.78-.96,1.18-1.56,2.66-1.56,4.31,0,3.78,3.06,6.84,6.84,6.84,1.84,0,3.5-.73,4.73-1.91,7.22,5.75,15.32,10.43,24.06,13.83-.03.19-.06.39-.06.6,0,1.92,1.55,3.47,3.47,3.47,1.32,0,2.45-.74,3.04-1.82,7.12,2.17,14.59,3.51,22.32,3.88.29,1.62,1.7,2.86,3.41,2.86s3.09-1.21,3.4-2.8c8.57-.21,16.86-1.57,24.7-3.97,1.07,2.38,3.45,4.04,6.23,4.04,3.78,0,6.84-3.06,6.84-6.84,0-.75-.15-1.46-.37-2.14,5.25-2.51,10.22-5.51,14.87-8.92.61.53,1.4.86,2.27.86,1.92,0,3.47-1.55,3.47-3.47,0-.59-.16-1.14-.42-1.62,6.33-5.41,11.94-11.64,16.63-18.56.63.32,1.33.52,2.09.52,2.57,0,4.65-2.08,4.65-4.65,0-1.56-.77-2.93-1.95-3.77,6.34-11.73,10.21-24.98,10.92-39.06,3.55-.25,6.36-3.18,6.36-6.79s-2.98-6.74-6.68-6.83c-1.84-19.06-9.51-36.43-21.19-50.33,1.14-1.22,1.85-2.85,1.85-4.65,0-3.78-3.06-6.84-6.84-6.84-1.74,0-3.31.67-4.52,1.74-13.52-11.99-30.57-20.07-49.38-22.48-.06-2.52-2.1-4.55-4.64-4.55ZM173.18,146.69l-19.9-.7c-.29-1.63-1.7-2.86-3.41-2.86-.81,0-1.55.29-2.14.76l-8.48-7.05c.66-1.03,1.05-2.25,1.05-3.56,0-.79-.16-1.54-.42-2.25l19.56-9.54c.64.81,1.61,1.34,2.72,1.34.35,0,.67-.07.99-.16l11.69,21.26c-.86.68-1.47,1.65-1.68,2.77ZM114.89,162.58c0,1.28.52,2.43,1.35,3.27l-16.61,22.71c-.15-.08-.3-.14-.45-.2l3.03-37.43c1.5-.22,2.68-1.4,2.91-2.91,9-1.07,17.27-4.56,24.14-9.81.28.25.56.47.88.67l-9.25,19.26c-.43-.13-.87-.22-1.34-.22-2.57,0-4.65,2.08-4.65,4.65ZM96.08,188.77l-22.73-21.91c.53-.75.84-1.67.84-2.66,0-.5-.1-.98-.25-1.43l25.16-12.96c.43.49,1,.86,1.65,1.04l-3.03,37.34c-.61.05-1.18.25-1.65.58ZM37.76,160.58l-.38-31.01c1.06-.21,1.96-.86,2.52-1.75l31.12,12.2c-.18.54-.3,1.1-.3,1.7,0,2.21,1.34,4.1,3.25,4.92l-3.76,12.99c-.22-.03-.44-.07-.67-.07-2.47,0-4.47,1.93-4.62,4.37l-21.15,2.06c-.59-2.9-3.02-5.1-6.02-5.4ZM13.39,108.11c0-1.53-.61-2.9-1.6-3.92l18.58-24.05c.49.26,1.05.42,1.64.42s1.19-.17,1.7-.45l14.21,16.78c-1.14.85-1.88,2.19-1.88,3.72,0,1.83,1.06,3.39,2.59,4.15l-10.61,17.37c-.44-.17-.91-.27-1.41-.27-1.14,0-2.16.5-2.88,1.29l-20.81-12.77c.3-.69.47-1.45.47-2.25ZM34.81,42.16c1.55-.09,2.95-.69,4.06-1.64l19.83,20.49c-1.1,1.21-1.78,2.81-1.78,4.57,0,.58.09,1.14.23,1.68l-22.14,7.77c-.49-.74-1.25-1.28-2.14-1.5l1.95-31.36ZM107.89,12.99l8.52,15.28c-1.08.85-1.79,2.16-1.79,3.64,0,.93.28,1.79.75,2.51l-13.92,12.67c-.68-.6-1.57-.98-2.55-.98-1.13,0-2.14.49-2.85,1.27l-15.5-11.05c.22-.46.35-.97.35-1.52,0-.66-.19-1.26-.5-1.79l23.04-20.79c.8.64,1.79,1.04,2.9,1.04.55,0,1.07-.11,1.56-.29ZM161.32,73.49c-1.46.06-2.75.79-3.56,1.9l-18.92-9.37c.2-.59.34-1.2.34-1.86,0-1.14-.34-2.2-.92-3.08l22.07-19.87c.92.82,2.06,1.4,3.33,1.62l-2.34,30.65ZM159.7,116.92c-.61.63-1,1.48-1,2.43,0,.29.05.56.11.83l-19.55,9.53c-.19-.3-.42-.58-.65-.85,5.95-7.79,9.64-17.38,10.1-27.79.15-.04.3-.08.44-.14l10.55,15.99ZM105.02,146.58c-.41-1.46-1.74-2.53-3.32-2.53-1.71,0-3.12,1.24-3.41,2.87-6.06-.12-11.86-1.36-17.18-3.53.17-.53.29-1.08.29-1.67,0-2.95-2.39-5.34-5.34-5.34-1.69,0-3.17.8-4.15,2.02-10.9-7.55-18.53-19.49-20.34-33.24,2.14-.42,3.75-2.3,3.75-4.56,0-2.38-1.79-4.31-4.09-4.59.54-9.19,3.67-17.68,8.67-24.78,1.1.75,2.42,1.18,3.84,1.18,3.78,0,6.84-3.06,6.84-6.84,0-1.58-.56-3.02-1.46-4.18,7.25-5.84,16.22-9.61,26.01-10.44.43,1.67,1.94,2.91,3.74,2.91s3.34-1.26,3.76-2.96c9.82.69,18.83,4.35,26.15,10.07-.62.91-.98,2-.98,3.18,0,3.14,2.54,5.68,5.68,5.68,1.2,0,2.32-.38,3.24-1.02,5.67,7.06,9.39,15.74,10.33,25.24-1.64.34-2.88,1.79-2.88,3.53s1.33,3.29,3.06,3.55c-.47,10.01-4.02,19.23-9.72,26.74-1.09-.79-2.43-1.27-3.88-1.27-3.67,0-6.65,2.98-6.65,6.65,0,1.45.48,2.79,1.27,3.88-6.62,5.03-14.58,8.39-23.25,9.43ZM71.6,160.06l3.78-13.06c.23.03.45.07.68.07,1.84,0,3.47-.93,4.43-2.36,5.53,2.27,11.55,3.56,17.85,3.67.01.06.03.11.05.16l-25.11,12.93c-.44-.6-1.02-1.08-1.69-1.41ZM40.51,125.75c0-1.13-.49-2.15-1.26-2.86l10.82-17.7s.03,0,.05,0c1.65,12.89,8.27,24.25,17.88,32.08l-27.55-10.8c.04-.23.07-.47.07-.72ZM34.82,79.17c.47-.61.77-1.36.77-2.19,0-.21-.03-.41-.06-.6l22.12-7.76c.31.61.69,1.18,1.15,1.67-5.22,7.36-8.49,16.2-9.03,25.77-.18.04-.36.1-.53.16l-14.42-17.03ZM39.86,39.46c.78-1.03,1.26-2.29,1.35-3.66l32.61-.23c.19.89.71,1.65,1.42,2.15l-9.37,21.38c-.67-.22-1.38-.37-2.12-.37-1.49,0-2.86.49-3.98,1.29l-19.91-20.57ZM120.32,36.42l10.1,22.98c-.23.15-.44.32-.64.5-7.57-5.95-16.9-9.74-27.07-10.45-.06-.43-.19-.84-.38-1.21l14.01-12.75c.8.65,1.81,1.06,2.92,1.06.37,0,.72-.05,1.06-.13ZM95.06,49.51c-10.16.85-19.45,4.77-26.94,10.84-.29-.24-.59-.46-.92-.65l9.38-21.39c.24.05.48.08.74.08.9,0,1.72-.35,2.35-.9l15.61,11.13c-.11.28-.17.58-.21.89ZM148.53,94.06c-.95-9.87-4.82-18.91-10.72-26.23.14-.16.29-.32.41-.5l18.89,9.36c-.15.45-.25.92-.25,1.42,0,1.36.59,2.57,1.52,3.42l-9.13,12.76c-.23-.1-.47-.18-.72-.24ZM158.01,36.12c0,1.51.51,2.89,1.33,4.02l-22.03,19.84c-1.01-.92-2.34-1.49-3.81-1.49-.62,0-1.2.12-1.76.31l-10.08-22.93c1.05-.64,1.82-1.67,2.11-2.9l34.24,3.16ZM160.92,116.13l-10.56-15.99c.65-.65,1.05-1.55,1.05-2.54s-.37-1.81-.97-2.45l9.16-12.81c.58.27,1.23.42,1.91.42,1.39,0,2.62-.62,3.47-1.59l19.86,13.56c-.51.96-.82,2.03-.82,3.19,0,1.3.38,2.5,1.01,3.53l-20.58,15.3c-.61-.54-1.4-.87-2.28-.87-.45,0-.87.09-1.26.24ZM185.66,93.53l-19.89-13.58c.24-.56.38-1.18.38-1.84,0-2.13-1.44-3.9-3.39-4.45l2.35-30.73c1.35-.05,2.6-.48,3.64-1.2,11.48,13.67,19.01,30.75,20.83,49.48-1.57.3-2.93,1.15-3.92,2.32ZM158.17,34.68l-34.3-3.16c-.2-2.38-2.17-4.26-4.61-4.26-.56,0-1.09.11-1.58.3l-8.51-15.27c.75-.58,1.31-1.39,1.59-2.32,18.51,2.37,35.29,10.31,48.6,22.11-.56.76-.98,1.64-1.18,2.6ZM99.17,9.2c.86,0,1.72.04,2.57.07.1.69.33,1.34.7,1.9l-23.03,20.77c-.59-.43-1.31-.7-2.1-.7-.01,0-.03,0-.04,0l-2.69-14.78c1.77-.65,3.05-2.34,3.05-4.35,0-.11-.02-.2-.03-.31,6.92-1.69,14.14-2.61,21.58-2.61ZM72.98,16.77c.06,0,.12-.02.17-.02l2.7,14.81c-1.04.47-1.81,1.41-2.04,2.55l-32.65.23c-.17-1.13-.61-2.17-1.26-3.05,8.47-7.31,18.3-13.09,29.06-16.9.8,1.41,2.29,2.38,4.03,2.38ZM30.35,40.84c.87.64,1.89,1.08,3,1.25l-1.95,31.38c-.92.16-1.72.67-2.26,1.39l-12.66-5.61c.04-.2.06-.4.06-.61,0-1.18-.6-2.23-1.5-2.85,3.74-9.16,8.94-17.57,15.31-24.95ZM12.74,72.08c.11.01.22.03.33.03,1.19,0,2.24-.6,2.86-1.51l12.59,5.58c-.06.26-.1.53-.1.8,0,.85.31,1.62.81,2.23l-18.6,24.08c-.68-.41-1.44-.67-2.26-.76-.02-.83-.06-1.65-.06-2.48,0-9.76,1.56-19.15,4.43-27.97ZM9.32,113.49c1.13-.33,2.11-1,2.83-1.9l20.82,12.77c-.16.43-.26.89-.26,1.38,0,.52.11,1.02.29,1.48l-14.37,9.33c-.63-.66-1.52-1.07-2.5-1.07-.2,0-.39.03-.58.06-2.96-6.95-5.08-14.35-6.23-22.06ZM19.6,138.96c0-.41-.08-.79-.21-1.16l14.41-9.36c.56.59,1.3.99,2.13,1.14l.38,31.01c-1.31.15-2.5.66-3.48,1.44-5.7-6.1-10.57-12.98-14.43-20.46.73-.64,1.2-1.56,1.2-2.6ZM42.75,171.18c.72-1.07,1.14-2.36,1.16-3.74l21.16-2.07c.46,1.76,1.9,3.1,3.72,3.4l-.11,14.53c-.94.16-1.76.7-2.28,1.46-8.59-3.34-16.55-7.94-23.65-13.58ZM72.74,186.71c0-1.62-1.11-2.97-2.61-3.35l.11-14.58c.78-.12,1.49-.42,2.09-.88l22.75,21.93c-.18.3-.32.62-.4.96-7.6-.37-14.96-1.69-21.96-3.82,0-.09.03-.17.03-.25ZM101.41,190.85c-.12-.5-.35-.96-.66-1.35l16.68-22.8c.64.33,1.35.53,2.11.53.57,0,1.1-.12,1.6-.3l7.3,13.01c-1.76,1.24-2.91,3.27-2.91,5.59,0,.49.06.97.15,1.43-7.71,2.36-15.85,3.69-24.27,3.9ZM132.37,178.68c-.94,0-1.84.19-2.66.54l-7.3-13.01c1.07-.85,1.78-2.15,1.78-3.63,0-1.58-.79-2.96-1.99-3.8l9.25-19.26c.7.25,1.43.41,2.21.41,1.84,0,3.5-.74,4.7-1.95l8.45,7.03c-.25.48-.4,1.01-.4,1.59,0,1.92,1.55,3.47,3.47,3.47.03,0,.06,0,.09,0l4.53,18.67c-1.17.56-1.99,1.74-1.99,3.13,0,.52.12,1.01.33,1.45-4.56,3.35-9.44,6.29-14.59,8.76-1.19-2.01-3.36-3.38-5.87-3.38ZM158.09,169.12c-.59-.46-1.32-.74-2.12-.74-.02,0-.04,0-.06,0l-4.53-18.68c.91-.44,1.6-1.27,1.85-2.27l19.92.7c.14,1.04.6,1.99,1.31,2.69-4.61,6.81-10.14,12.96-16.38,18.29ZM176.12,143.2l-11.68-21.24c.73-.64,1.21-1.56,1.21-2.61,0-.51-.12-1-.32-1.44l20.58-15.3c1.04,1.09,2.43,1.83,3.99,2.05-.7,13.86-4.52,26.91-10.77,38.47-.44-.14-.9-.24-1.39-.24-.57,0-1.11.12-1.62.31Z"/>
  <g>
    <polygon class="cls-4" points="179.84 46.89 172.24 42.04 132.52 42.04 132.52 39.72 159.06 29.88 164.89 23.54 155.26 23.54 132.52 29.92 132.52 17.72 126.25 17.72 126.25 35.9 104.96 30.01 94.7 30.01 102.05 36.85 126.25 46.1 126.25 49.26 86.33 49.26 78.92 53.83 86.33 58.39 126.25 58.39 126.25 149.23 132.52 149.23 132.52 51.74 172.24 51.74 179.84 46.89"/>
    <ellipse class="cls-4" cx="171.83" cy="69.08" rx="7.66" ry="7.63"/>
    <path class="cls-4" d="M139.93,65.99l21.16,13.83h5.81v-2.24h9.47v2.22s6.6,0,6.6,0h0s0,0,0,0l14.71,22.93c1.17,1.85.6,4.29-1.25,5.47-1.85,1.18-4.32.66-5.52-1.17l-7.95-12.39v19.01h0v35.57h-9.27v-29.85s-3.76,0-3.76,0v29.85h-9.27v-35.57s-.05,0-.05,0v-25.29s-22.25-14.71-22.25-14.71c-2.63-2.1-4.78-3.62-3.64-5.9.98-1.96,2.53-2.91,5.19-1.77Z"/>
  </g>
  <g>
    <g>
      <path class="cls-4" d="M50.03,98.98v55.37h55.37v-55.37h-55.37ZM102.81,151.75h-50.18v-50.18h50.18v50.18Z"/>
      <circle class="cls-4" cx="30.52" cy="111.37" r="8.31"/>
      <path class="cls-4" d="M70.55,123.05h-34.7v-2.42h-10.27v2.42h-7.15s0,0,0,0l-15.94,24.97c-1.26,2.01-.65,4.68,1.35,5.96,2,1.28,4.69.72,5.98-1.28l8.61-13.49v20.7h0v38.74h10.05v-32.5h4.08v32.5h10.05v-38.74h.06v-28.16h27.89c2.39,0,4.33-1.96,4.33-4.35s-1.94-4.35-4.33-4.35Z"/>
    </g>
    <text class="cls-5" transform="translate(60.57 111.12)"><tspan x="0" y="0">0101011010</tspan></text>
    <text class="cls-5" transform="translate(60.8 118.65)"><tspan x="0" y="0">110101</tspan><tspan class="cls-6" x="19.6" y="0">0</tspan><tspan x="23.89" y="0">010</tspan></text>
    <path class="cls-4" d="M97.93,140.84c-2.45-6.24-4.49-6.8-4.55-10.18-.07-3.79,2.54-5.75,1.37-7.42-.78-1.11-2.63-.94-6.18-.93-3.98.01-6.36-.11-7.12,1.2-1.01,1.74,2.13,3.51,2.16,7.18.03,3.35-2.43,4.03-5.06,10.13-1.51,3.49-2.55,5.92-1.5,7.53.93,1.43,2.84,1.18,11.02,1.12,8.35-.07,10.31.16,11.25-1.32.92-1.45.15-3.43-1.37-7.3ZM85.33,134.72c.1,0,.19.08.19.19s-.08.19-.19.19-.19-.08-.19-.19.08-.19.19-.19ZM84.88,133.06c.07,0,.13.06.13.13s-.06.13-.13.13-.13-.06-.13-.13.06-.13.13-.13ZM84.88,136.65c.14,0,.26.12.26.26s-.12.26-.26.26-.26-.12-.26-.26.12-.26.26-.26ZM83.46,138.87c.21,0,.39.17.39.39s-.17.39-.39.39-.39-.17-.39-.39.17-.39.39-.39ZM98.84,147.71c-.9,1.39-2.78,1.18-10.78,1.24-7.84.06-9.66.29-10.56-1.05-1.01-1.51-.08-3.81,1.44-7.06l18.58.02c1.46,3.63,2.2,5.48,1.32,6.84Z"/>
  </g>
  <g>
    <g id="Rectangle_5" data-name="Rectangle 5">
      <rect class="cls-2" x="35.54" y="29.52" width="13.54" height="7.39"/>
    </g>
    <g id="Rectangle_4" data-name="Rectangle 4">
      <polygon class="cls-3" points="57.16 33.17 48.12 38.97 68.32 70.74 77.36 64.95 57.16 33.17"/>
    </g>
    <g id="Ellipse_2_copy_2" data-name="Ellipse 2 copy 2">
      <ellipse class="cls-2" cx="72.84" cy="67.96" rx="5.31" ry="5.33"/>
    </g>
    <g id="Rectangle_4-2" data-name="Rectangle 4">
      <polygon class="cls-3" points="26.37 33.41 6.11 65.18 15.18 70.98 35.44 39.2 26.37 33.41"/>
    </g>
    <g id="Ellipse_2_copy_2-2" data-name="Ellipse 2 copy 2">
      <ellipse class="cls-2" cx="10.19" cy="68.86" rx="5.33" ry="5.32" transform="translate(-58.68 78.97) rotate(-89.93)"/>
    </g>
    <g id="Ellipse_2_copy_3" data-name="Ellipse 2 copy 3">
      <ellipse class="cls-2" cx="27.45" cy="17.79" rx="3.1" ry="5.31"/>
    </g>
    <g id="Ellipse_2_copy_4" data-name="Ellipse 2 copy 4">
      <ellipse class="cls-2" cx="56.01" cy="17.79" rx="3.1" ry="5.31"/>
    </g>
    <g id="Ellipse_2" data-name="Ellipse 2">
      <path class="cls-3" d="M41.62,2.96c-7.34,0-13.28,5.24-13.28,11.71s1.68-10,13.73-9.94c11.53.06,12.84,16.4,12.84,9.94s-5.95-11.71-13.28-11.71Z"/>
    </g>
    <g id="Ellipse_4" data-name="Ellipse 4">
      <path class="cls-2" d="M40.74,22.22c1.46-1.8,4.09,2.24,8.01,2.74,1.86-1.83,3.02-4.37,3.02-7.19,0-5.57-4.51-10.08-10.08-10.08s-10.08,4.51-10.08,10.08,4.51,10.08,10.08,10.08c1.64,0,3.18-.4,4.55-1.1-3.98-.57-7.45-2.14-5.51-4.53Z"/>
    </g>
    <g id="Ellipse_4_copy" data-name="Ellipse 4 copy">
      <path class="cls-3" d="M54.4,19.65c-.8-.4-1.3,3.01-3.48,4.78-3.4,2.75-8.68-3.06-9.52-1.33-1.12,2.32,5.26,3.71,8.43,2.98s6.78-5.33,4.57-6.43Z"/>
    </g>
    <g id="Rectangle_7" data-name="Rectangle 7">
      <polygon class="cls-3" points="56.9 33.07 26.57 33.29 25.9 64.51 57.34 64.51 56.9 33.07"/>
    </g>
    <g id="Ellipse_5_copy" data-name="Ellipse 5 copy">
      <path class="cls-2" d="M19.93,65.39l4.05,19.93h36.08l3.49-19.48-43.62-.44ZM41.01,80.44c-.05.23.75.59.66.8-.1.23-1.04-.04-1.18.16-.11.16.58.8.44.94-.19.2-.95-.35-1.18-.2-.15.1.09.81.07.99-.04.32-.77-.38-.96-.55-.29-.26-.31.84-.59.89-.21.03-.24-.78-.44-.81-.22-.04-.61.67-.82.59-.2-.07-.04-.79-.22-.89-.26-.15-.86.3-1.07.09-.16-.15.39-.65.26-.83-.16-.22-.99-.13-1.11-.39-.09-.21.56-.57.51-.8-.06-.26-.81-.39-.81-.67,0-.23.85-.3.89-.52.04-.2-.74-.56-.67-.75.07-.19.94-.11,1.04-.29.12-.22-.51-.69-.35-.88.18-.21.86.15,1.09,0,.2-.15-.06-.82.17-.93.27-.12.57.61.87.56.22-.04.43-.89.67-.89.32,0,.29.89.59.96.23.06.79-.7,1-.6.19.09-.14.78.03.9.18.12.85-.32,1-.16.19.19-.26.75-.11.98.11.17.82,0,.9.2.09.22-.72.53-.67.77.05.24.96.41.96.67,0,.27-.91.41-.96.67ZM47.36,73.99c-.07.32,1.04.81.91,1.11-.14.32-1.43-.06-1.62.22-.15.22.8,1.11.61,1.3-.26.27-1.32-.49-1.63-.28-.21.14.12,1.12.1,1.37-.05.45-1.06-.52-1.32-.76-.4-.36-.43,1.16-.82,1.23-.29.05-.33-1.08-.61-1.12-.31-.05-.85.92-1.13.82-.27-.1-.05-1.08-.3-1.23-.36-.21-1.18.41-1.48.12-.22-.21.53-.9.36-1.15-.23-.31-1.37-.18-1.53-.53-.13-.29.78-.78.71-1.1-.08-.35-1.12-.54-1.12-.92,0-.32,1.17-.41,1.23-.72.05-.28-1.02-.77-.92-1.03.1-.27,1.29-.15,1.43-.4.17-.3-.7-.95-.48-1.21.25-.29,1.19.21,1.5-.01.28-.2-.08-1.14.23-1.28.37-.17.78.84,1.2.77.3-.06.6-1.23.92-1.23.45,0,.41,1.22.82,1.33.32.08,1.09-.97,1.38-.83.26.13-.19,1.07.05,1.24.24.17,1.17-.44,1.38-.23.27.27-.35,1.03-.15,1.35.15.23,1.13.01,1.24.27.13.31-1,.73-.93,1.06.07.33,1.33.57,1.33.92,0,.38-1.25.57-1.33.92Z"/>
    </g>
    <g id="Ellipse_5" data-name="Ellipse 5">
      <circle class="cls-2" cx="38.3" cy="79.78" r="1.77"/>
    </g>
    <g id="Ellipse_6" data-name="Ellipse 6">
      <path class="cls-3" d="M43.73,70.26c-1.65,0-2.99,1.29-2.99,2.88s1.34,2.88,2.99,2.88,2.99-1.29,2.99-2.88-1.34-2.88-2.99-2.88Z"/>
    </g>
  </g>
</svg>