<?xml version="1.0" encoding="UTF-8"?>
<svg id="Layer_1" data-name="Layer 1" xmlns="http://www.w3.org/2000/svg" viewBox="0 0 200 200">
  <defs>
    <style>
      .cls-1 {
        stroke: #fff;
        stroke-miterlimit: 10;
      }

      .cls-1, .cls-2 {
        fill: #011e41;
      }

      .cls-3 {
        fill: #fff;
      }

      .cls-4 {
        fill: #101f40;
      }

      .cls-5 {
        fill: #ff9e18;
      }
    </style>
  </defs>
  <g>
    <ellipse class="cls-2" cx="72.82" cy="17.89" rx="59.83" ry="16.32"/>
    <ellipse class="cls-2" cx="120.54" cy="67.74" rx="59.83" ry="16.32"/>
    <path class="cls-2" d="M180.35,96.22c-.03-5.87-.03-11.55-.22-17.05-11.56,4.4-24.19,10.61-59.09,10.96-34.04-.19-48.37-6.17-60.34-10.65v23.69s0,15.07,63.08,15.64c48.58.44,55.08-13.37,56.57-14.41,0,0,.04.39-.01-8.18ZM162.27,108.59c-2.16,0-3.92-1.76-3.92-3.92s1.76-3.92,3.92-3.92,3.92,1.76,3.92,3.92-1.76,3.92-3.92,3.92ZM173.12,104.67c-2.16,0-3.92-1.76-3.92-3.92s1.76-3.92,3.92-3.92,3.92,1.76,3.92,3.92-1.76,3.92-3.92,3.92Z"/>
    <path class="cls-2" d="M180.35,131.94c-.03-5.87-.03-11.55-.22-17.05-11.56,4.4-24.19,10.61-59.09,10.96-34.04-.19-48.37-6.17-60.34-10.65v23.69s0,15.07,63.08,15.64c48.58.44,55.08-13.37,56.57-14.41,0,0,.04.39-.01-8.18ZM162.27,143.87c-2.16,0-3.92-1.76-3.92-3.92s1.76-3.92,3.92-3.92,3.92,1.76,3.92,3.92-1.76,3.92-3.92,3.92ZM173.12,139.95c-2.16,0-3.92-1.76-3.92-3.92s1.76-3.92,3.92-3.92,3.92,1.76,3.92,3.92-1.76,3.92-3.92,3.92Z"/>
    <path class="cls-2" d="M180.35,168.17c-.03-6.81-.03-13.41-.22-19.79-11.56,5.11-24.19,12.32-59.09,12.72-34.04-.22-48.37-7.16-60.34-12.36v27.5s0,17.5,63.08,18.16c48.58.51,55.08-15.52,56.57-16.73,0,0,.04.45-.01-9.5ZM162.27,180.46c-2.16,0-3.92-1.76-3.92-3.92s1.76-3.92,3.92-3.92,3.92,1.76,3.92,3.92-1.76,3.92-3.92,3.92ZM173.12,176.54c-2.16,0-3.92-1.76-3.92-3.92s1.76-3.92,3.92-3.92,3.92,1.76,3.92,3.92-1.76,3.92-3.92,3.92Z"/>
    <path class="cls-2" d="M58.26,110.65c-23.56-1.82-35.25-7.4-45.28-11.76v27.5s0,14.03,45.28,17.44v-33.18Z"/>
    <path class="cls-2" d="M58.26,75.48c-23.56-1.57-35.25-6.37-45.28-10.13v23.69s0,12.08,45.28,15.02v-28.58Z"/>
    <path class="cls-2" d="M58.26,67.24h.45c0-9.48,26.76-17.17,59.76-17.17,1.03,0,2.06,0,3.08.02.37-1.78,1.95-3.11,3.84-3.11s3.61,1.46,3.88,3.37c1.14.06,2.26.13,3.38.21,0-1.08,0-2.44-.02-4.19-.03-5.87-.03-11.55-.22-17.05-11.56,4.4-24.19,10.61-59.09,10.96-34.04-.19-48.37-6.17-60.34-10.65v23.69s0,12.08,45.28,15.02v-1.1Z"/>
  </g>
  <g>
    <circle class="cls-5" cx="86.24" cy="93.49" r="44.44"/>
    <path class="cls-1" d="M192.55,181.94l-63.05-63.05c-.45-.45-.95-.82-1.49-1.11,4.11-7.15,6.46-15.44,6.46-24.28,0-26.95-21.85-48.8-48.8-48.8s-48.8,21.85-48.8,48.8,21.85,48.8,48.8,48.8c10.46,0,20.15-3.29,28.1-8.9.17.23.36.45.56.65l63.05,63.05c2.53,2.53,6.67,2.53,9.2,0l5.96-5.96c2.53-2.53,2.53-6.67,0-9.2ZM47.72,93.49c0-20.96,16.99-37.96,37.96-37.96s37.96,16.99,37.96,37.96-16.99,37.96-37.96,37.96-37.96-16.99-37.96-37.96Z"/>
    <path class="cls-4" d="M114.68,85.91l-7.47-14.8-16.55-.93-8.03,12.26-13.75-.42-4.89-9.1.15-.24-2.76,1.44,4.86,9.04-7.98,12.9,7.85,14.6,16.57.51,7.58-12.25,13.95.79,4.62,9.16,2.76-1.44-.28-.02-4.65-9.22,8.04-12.27ZM81.09,108.25l-13.25-.4-6.28-11.68,6.98-11.28,13.25.4,6.28,11.68-6.98,11.28ZM104.1,96.82l-13.24-.75-5.97-11.84,7.27-11.09,13.24.75,5.97,11.84-7.27,11.09Z"/>
  </g>
  <path class="cls-3" d="M78.19,158.97c-.3,0-.54.21-.59.5-.11,0-.22,0-.34,0-.98,0-1.93.12-2.84.34-.09-.22-.3-.38-.56-.38-.33,0-.6.27-.6.6,0,.04,0,.08.01.12-1.42.5-2.71,1.26-3.83,2.23-.16-.14-.36-.22-.58-.22-.49,0-.89.4-.89.89,0,.22.09.43.22.58-.84.97-1.53,2.08-2.02,3.29-.03,0-.05,0-.08,0-.25,0-.45.2-.45.45,0,.17.09.31.23.39-.38,1.16-.58,2.4-.58,3.68,0,.11,0,.22,0,.32-.35.05-.62.35-.62.72,0,.4.33.73.73.73,0,0,.01,0,.02,0,.15,1.01.43,1.98.82,2.9-.12.08-.2.22-.2.37,0,.25.2.45.45.45.05,0,.09,0,.13-.02.51.99,1.15,1.89,1.9,2.69-.12.15-.2.35-.2.56,0,.49.4.89.89.89.24,0,.45-.1.61-.25.94.75,1.99,1.35,3.12,1.79,0,.03,0,.05,0,.08,0,.25.2.45.45.45.17,0,.32-.1.39-.24.92.28,1.89.45,2.89.5.04.21.22.37.44.37s.4-.16.44-.36c1.11-.03,2.19-.2,3.2-.51.14.31.45.52.81.52.49,0,.89-.4.89-.89,0-.1-.02-.19-.05-.28.68-.33,1.33-.71,1.93-1.16.08.07.18.11.29.11.25,0,.45-.2.45-.45,0-.08-.02-.15-.05-.21.82-.7,1.55-1.51,2.16-2.41.08.04.17.07.27.07.33,0,.6-.27.6-.6,0-.2-.1-.38-.25-.49.82-1.52,1.32-3.24,1.42-5.06.46-.03.82-.41.82-.88s-.39-.87-.87-.89c-.24-2.47-1.23-4.72-2.75-6.53.15-.16.24-.37.24-.6,0-.49-.4-.89-.89-.89-.23,0-.43.09-.59.23-1.75-1.55-3.96-2.6-6.4-2.91,0-.33-.27-.59-.6-.59ZM86.86,177.48l-2.58-.09c-.04-.21-.22-.37-.44-.37-.11,0-.2.04-.28.1l-1.1-.91c.09-.13.14-.29.14-.46,0-.1-.02-.2-.05-.29l2.54-1.24c.08.1.21.17.35.17.04,0,.09,0,.13-.02l1.52,2.76c-.11.09-.19.21-.22.36ZM79.3,179.54c0,.17.07.32.18.42l-2.15,2.94s-.04-.02-.06-.03l.39-4.85c.2-.03.35-.18.38-.38,1.17-.14,2.24-.59,3.13-1.27.04.03.07.06.11.09l-1.2,2.5c-.06-.02-.11-.03-.17-.03-.33,0-.6.27-.6.6ZM76.86,182.93l-2.95-2.84c.07-.1.11-.22.11-.34,0-.07-.01-.13-.03-.19l3.26-1.68c.06.06.13.11.21.13l-.39,4.84c-.08,0-.15.03-.21.07ZM69.3,179.28l-.05-4.02c.14-.03.25-.11.33-.23l4.04,1.58c-.02.07-.04.14-.04.22,0,.29.17.53.42.64l-.49,1.68s-.06,0-.09,0c-.32,0-.58.25-.6.57l-2.74.27c-.08-.38-.39-.66-.78-.7ZM66.14,172.47c0-.2-.08-.38-.21-.51l2.41-3.12c.06.03.14.05.21.05s.15-.02.22-.06l1.84,2.18c-.15.11-.24.28-.24.48,0,.24.14.44.34.54l-1.38,2.25c-.06-.02-.12-.04-.18-.04-.15,0-.28.06-.37.17l-2.7-1.66c.04-.09.06-.19.06-.29ZM68.92,163.92c.2-.01.38-.09.53-.21l2.57,2.66c-.14.16-.23.36-.23.59,0,.08.01.15.03.22l-2.87,1.01c-.06-.1-.16-.17-.28-.19l.25-4.07ZM78.4,160.14l1.1,1.98c-.14.11-.23.28-.23.47,0,.12.04.23.1.33l-1.81,1.64c-.09-.08-.2-.13-.33-.13-.15,0-.28.06-.37.16l-2.01-1.43c.03-.06.05-.13.05-.2,0-.09-.02-.16-.06-.23l2.99-2.7c.1.08.23.13.38.13.07,0,.14-.01.2-.04ZM85.32,167.98c-.19,0-.36.1-.46.25l-2.45-1.21c.03-.08.04-.16.04-.24,0-.15-.04-.28-.12-.4l2.86-2.58c.12.11.27.18.43.21l-.3,3.97ZM85.11,173.62c-.08.08-.13.19-.13.31,0,.04,0,.07.01.11l-2.54,1.24s-.05-.08-.08-.11c.77-1.01,1.25-2.25,1.31-3.6.02,0,.04-.01.06-.02l1.37,2.07ZM78.02,177.46c-.05-.19-.23-.33-.43-.33-.22,0-.4.16-.44.37-.79-.02-1.54-.18-2.23-.46.02-.07.04-.14.04-.22,0-.38-.31-.69-.69-.69-.22,0-.41.1-.54.26-1.41-.98-2.4-2.53-2.64-4.31.28-.05.49-.3.49-.59,0-.31-.23-.56-.53-.6.07-1.19.48-2.29,1.12-3.21.14.1.31.15.5.15.49,0,.89-.4.89-.89,0-.21-.07-.39-.19-.54.94-.76,2.1-1.25,3.37-1.35.06.22.25.38.49.38s.43-.16.49-.38c1.27.09,2.44.56,3.39,1.31-.08.12-.13.26-.13.41,0,.41.33.74.74.74.16,0,.3-.05.42-.13.73.92,1.22,2.04,1.34,3.27-.21.04-.37.23-.37.46s.17.43.4.46c-.06,1.3-.52,2.49-1.26,3.47-.14-.1-.31-.16-.5-.16-.48,0-.86.39-.86.86,0,.19.06.36.16.5-.86.65-1.89,1.09-3.01,1.22ZM73.69,179.21l.49-1.69s.06,0,.09,0c.24,0,.45-.12.57-.31.72.29,1.5.46,2.31.48,0,0,0,.01,0,.02l-3.26,1.68c-.06-.08-.13-.14-.22-.18ZM69.66,174.76c0-.15-.06-.28-.16-.37l1.4-2.3s0,0,0,0c.21,1.67,1.07,3.14,2.32,4.16l-3.57-1.4s0-.06,0-.09ZM68.92,168.72c.06-.08.1-.18.1-.28,0-.03,0-.05,0-.08l2.87-1.01c.04.08.09.15.15.22-.68.95-1.1,2.1-1.17,3.34-.02,0-.05.01-.07.02l-1.87-2.21ZM69.58,163.57c.1-.13.16-.3.18-.47l4.23-.03c.02.11.09.21.18.28l-1.22,2.77c-.09-.03-.18-.05-.28-.05-.19,0-.37.06-.52.17l-2.58-2.67ZM80.01,163.18l1.31,2.98s-.06.04-.08.07c-.98-.77-2.19-1.26-3.51-1.35,0-.06-.02-.11-.05-.16l1.82-1.65c.1.08.23.14.38.14.05,0,.09,0,.14-.02ZM76.73,164.87c-1.32.11-2.52.62-3.49,1.41-.04-.03-.08-.06-.12-.08l1.22-2.77s.06.01.1.01c.12,0,.22-.04.3-.12l2.02,1.44s-.02.08-.03.12ZM83.67,170.65c-.12-1.28-.62-2.45-1.39-3.4.02-.02.04-.04.05-.06l2.45,1.21c-.02.06-.03.12-.03.18,0,.18.08.33.2.44l-1.18,1.66s-.06-.02-.09-.03ZM84.9,163.14c0,.2.07.37.17.52l-2.86,2.57c-.13-.12-.3-.19-.49-.19-.08,0-.16.02-.23.04l-1.31-2.97c.14-.08.24-.22.27-.38l4.44.41ZM85.27,173.51l-1.37-2.07c.08-.08.14-.2.14-.33s-.05-.23-.13-.32l1.19-1.66c.08.03.16.05.25.05.18,0,.34-.08.45-.21l2.58,1.76c-.07.12-.11.26-.11.41,0,.17.05.32.13.46l-2.67,1.98c-.08-.07-.18-.11-.3-.11-.06,0-.11.01-.16.03ZM88.48,170.58l-2.58-1.76c.03-.07.05-.15.05-.24,0-.28-.19-.51-.44-.58l.3-3.98c.18,0,.34-.06.47-.16,1.49,1.77,2.46,3.99,2.7,6.42-.2.04-.38.15-.51.3ZM84.92,162.95l-4.45-.41c-.03-.31-.28-.55-.6-.55-.07,0-.14.01-.21.04l-1.1-1.98c.1-.08.17-.18.21-.3,2.4.31,4.58,1.34,6.3,2.87-.07.1-.13.21-.15.34ZM77.27,159.65c.11,0,.22,0,.33,0,.01.09.04.17.09.25l-2.99,2.69c-.08-.06-.17-.09-.27-.09,0,0,0,0,0,0l-.35-1.92c.23-.08.39-.3.39-.56,0-.01,0-.03,0-.04.9-.22,1.83-.34,2.8-.34ZM73.87,160.63s.01,0,.02,0l.35,1.92c-.13.06-.23.18-.26.33l-4.23.03c-.02-.15-.08-.28-.16-.4,1.1-.95,2.37-1.7,3.77-2.19.1.18.3.31.52.31ZM68.34,163.75c.11.08.24.14.39.16l-.25,4.07c-.12.02-.22.09-.29.18l-1.64-.73s0-.05,0-.08c0-.15-.08-.29-.19-.37.49-1.19,1.16-2.28,1.98-3.24ZM66.06,167.8s.03,0,.04,0c.15,0,.29-.08.37-.2l1.63.72s-.01.07-.01.1c0,.11.04.21.1.29l-2.41,3.12c-.09-.05-.19-.09-.29-.1,0-.11,0-.21,0-.32,0-1.27.2-2.48.57-3.63ZM65.62,173.17c.15-.04.27-.13.37-.25l2.7,1.66c-.02.06-.03.12-.03.18,0,.07.01.13.04.19l-1.86,1.21c-.08-.09-.2-.14-.32-.14-.03,0-.05,0-.08,0-.38-.9-.66-1.86-.81-2.86ZM66.95,176.47c0-.05-.01-.1-.03-.15l1.87-1.21c.07.08.17.13.28.15l.05,4.02c-.17.02-.32.09-.45.19-.74-.79-1.37-1.68-1.87-2.65.09-.08.16-.2.16-.34ZM69.95,180.65c.09-.14.15-.31.15-.49l2.74-.27c.06.23.25.4.48.44v1.88c-.14.02-.24.09-.31.19-1.11-.43-2.15-1.03-3.07-1.76ZM73.84,182.67c0-.21-.14-.38-.34-.43v-1.89c.12-.02.21-.06.29-.11l2.95,2.84s-.04.08-.05.13c-.99-.05-1.94-.22-2.85-.5,0-.01,0-.02,0-.03ZM77.56,183.2c-.02-.07-.05-.12-.09-.18l2.16-2.96c.08.04.17.07.27.07.07,0,.14-.02.21-.04l.95,1.69c-.23.16-.38.42-.38.72,0,.06,0,.13.02.19-1,.31-2.06.48-3.15.51ZM81.57,181.62c-.12,0-.24.02-.35.07l-.95-1.69c.14-.11.23-.28.23-.47,0-.2-.1-.38-.26-.49l1.2-2.5c.09.03.19.05.29.05.24,0,.45-.1.61-.25l1.1.91c-.03.06-.05.13-.05.21,0,.25.2.45.45.45,0,0,0,0,.01,0l.59,2.42c-.15.07-.26.23-.26.41,0,.07.02.13.04.19-.59.43-1.22.82-1.89,1.14-.15-.26-.44-.44-.76-.44ZM84.91,180.38c-.08-.06-.17-.1-.27-.1,0,0,0,0,0,0l-.59-2.42c.12-.06.21-.16.24-.29l2.58.09c.02.14.08.26.17.35-.6.88-1.31,1.68-2.12,2.37ZM87.24,177.02l-1.51-2.75c.09-.08.16-.2.16-.34,0-.07-.02-.13-.04-.19l2.67-1.98c.13.14.31.24.52.27-.09,1.8-.59,3.49-1.4,4.99-.06-.02-.12-.03-.18-.03-.07,0-.14.02-.21.04Z"/>
</svg>