<?xml version="1.0" encoding="UTF-8"?>
<svg id="Layer_1" data-name="Layer 1" xmlns="http://www.w3.org/2000/svg" xmlns:xlink="http://www.w3.org/1999/xlink" viewBox="0 0 200 200">
  <defs>
    <style>
      .cls-1 {
        fill: #011e41;
      }

      .cls-2 {
        fill: url(#linear-gradient);
      }
    </style>
    <linearGradient id="linear-gradient" x1="8.08" y1="7.64" x2="39.41" y2="38.98" gradientUnits="userSpaceOnUse">
      <stop offset="0" stop-color="#22305d"/>
      <stop offset="1" stop-color="#4079bc"/>
    </linearGradient>
  </defs>
  <path class="cls-2" d="M25.7,1.56c-.53,0-.96.38-1.05.88-.2,0-.4-.02-.6-.02-1.73,0-3.42.21-5.03.61-.16-.39-.54-.67-.99-.67-.59,0-1.07.48-1.07,1.07,0,.07,0,.14.02.21-2.51.89-4.81,2.24-6.79,3.95-.28-.24-.63-.39-1.03-.39-.87,0-1.57.7-1.57,1.57,0,.4.15.76.39,1.03-1.49,1.73-2.71,3.69-3.58,5.84-.05,0-.09-.01-.14-.01-.44,0-.8.36-.8.8,0,.3.16.55.4.69-.67,2.06-1.03,4.25-1.03,6.53,0,.19,0,.38.01.58-.62.09-1.1.63-1.1,1.28,0,.72.58,1.29,1.29,1.29.01,0,.02,0,.03,0,.27,1.8.76,3.52,1.45,5.14-.21.14-.35.39-.35.66,0,.44.36.8.8.8.08,0,.16-.02.23-.04.9,1.75,2.04,3.35,3.37,4.78-.22.27-.36.61-.36.99,0,.87.7,1.57,1.57,1.57.42,0,.8-.17,1.09-.44,1.66,1.32,3.52,2.4,5.53,3.18,0,.04-.01.09-.01.14,0,.44.36.8.8.8.3,0,.56-.17.7-.42,1.64.5,3.35.81,5.13.89.07.37.39.66.78.66s.71-.28.78-.64c1.97-.05,3.87-.36,5.68-.91.25.55.79.93,1.43.93.87,0,1.57-.7,1.57-1.57,0-.17-.03-.34-.09-.49,1.21-.58,2.35-1.27,3.42-2.05.14.12.32.2.52.2.44,0,.8-.36.8-.8,0-.14-.04-.26-.1-.37,1.46-1.24,2.75-2.68,3.82-4.27.14.07.31.12.48.12.59,0,1.07-.48,1.07-1.07,0-.36-.18-.67-.45-.87,1.46-2.7,2.35-5.74,2.51-8.98.82-.06,1.46-.73,1.46-1.56s-.68-1.55-1.54-1.57c-.42-4.38-2.19-8.37-4.87-11.57.26-.28.43-.66.43-1.07,0-.87-.7-1.57-1.57-1.57-.4,0-.76.15-1.04.4-3.11-2.76-7.03-4.61-11.35-5.17-.01-.58-.48-1.04-1.07-1.04ZM41.06,34.37l-4.57-.16c-.07-.37-.39-.66-.78-.66-.19,0-.36.07-.49.17l-1.95-1.62c.15-.24.24-.52.24-.82,0-.18-.04-.35-.1-.52l4.5-2.19c.15.19.37.31.62.31.08,0,.16-.02.23-.04l2.69,4.89c-.2.16-.34.38-.39.64ZM27.67,38.02c0,.29.12.56.31.75l-3.82,5.22s-.07-.03-.1-.05l.7-8.6c.35-.05.62-.32.67-.67,2.07-.25,3.97-1.05,5.55-2.25.06.06.13.11.2.15l-2.13,4.43c-.1-.03-.2-.05-.31-.05-.59,0-1.07.48-1.07,1.07ZM23.34,44.04l-5.22-5.03c.12-.17.19-.38.19-.61,0-.12-.02-.23-.06-.33l5.78-2.98c.1.11.23.2.38.24l-.7,8.58c-.14.01-.27.06-.38.13ZM9.94,37.56l-.09-7.13c.24-.05.45-.2.58-.4l7.15,2.8c-.04.12-.07.25-.07.39,0,.51.31.94.75,1.13l-.86,2.98c-.05,0-.1-.02-.15-.02-.57,0-1.03.44-1.06,1l-4.86.47c-.14-.67-.7-1.17-1.38-1.24ZM4.34,25.5c0-.35-.14-.67-.37-.9l4.27-5.53c.11.06.24.1.38.1s.27-.04.39-.1l3.26,3.86c-.26.19-.43.5-.43.85,0,.42.24.78.6.95l-2.44,3.99c-.1-.04-.21-.06-.32-.06-.26,0-.5.12-.66.3l-4.78-2.94c.07-.16.11-.33.11-.52ZM9.26,10.34c.36-.02.68-.16.93-.38l4.56,4.71c-.25.28-.41.65-.41,1.05,0,.13.02.26.05.39l-5.09,1.79c-.11-.17-.29-.3-.49-.35l.45-7.21ZM26.06,3.63l1.96,3.51c-.25.2-.41.5-.41.84,0,.21.06.41.17.58l-3.2,2.91c-.16-.14-.36-.22-.59-.22-.26,0-.49.11-.66.29l-3.56-2.54c.05-.11.08-.22.08-.35,0-.15-.04-.29-.11-.41l5.3-4.78c.18.15.41.24.67.24.13,0,.25-.03.36-.07ZM38.34,17.54c-.34.01-.63.18-.82.44l-4.35-2.15c.05-.13.08-.28.08-.43,0-.26-.08-.5-.21-.71l5.07-4.57c.21.19.47.32.76.37l-.54,7.05ZM37.97,27.52c-.14.14-.23.34-.23.56,0,.07.01.13.03.19l-4.49,2.19c-.04-.07-.1-.13-.15-.19,1.37-1.79,2.22-3.99,2.32-6.39.03,0,.07-.02.1-.03l2.43,3.67ZM25.4,34.34c-.09-.33-.4-.58-.76-.58-.39,0-.72.28-.78.66-1.39-.03-2.72-.31-3.95-.81.04-.12.07-.25.07-.38,0-.68-.55-1.23-1.23-1.23-.39,0-.73.18-.95.46-2.51-1.74-4.26-4.48-4.68-7.64.49-.1.86-.53.86-1.05,0-.55-.41-.99-.94-1.06.12-2.11.84-4.06,1.99-5.69.25.17.56.27.88.27.87,0,1.57-.7,1.57-1.57,0-.36-.13-.69-.34-.96,1.67-1.34,3.73-2.21,5.98-2.4.1.38.45.67.86.67s.77-.29.86-.68c2.26.16,4.33,1,6.01,2.32-.14.21-.22.46-.22.73,0,.72.58,1.31,1.31,1.31.28,0,.53-.09.74-.23,1.3,1.62,2.16,3.62,2.38,5.8-.38.08-.66.41-.66.81s.31.76.7.82c-.11,2.3-.92,4.42-2.23,6.15-.25-.18-.56-.29-.89-.29-.84,0-1.53.68-1.53,1.53,0,.33.11.64.29.89-1.52,1.16-3.35,1.93-5.34,2.17ZM17.72,37.44l.87-3c.05,0,.1.02.16.02.42,0,.8-.21,1.02-.54,1.27.52,2.65.82,4.1.84,0,.01,0,.02.01.04l-5.77,2.97c-.1-.14-.23-.25-.39-.33ZM10.57,29.55c0-.26-.11-.49-.29-.66l2.49-4.07s0,0,.01,0c.38,2.96,1.9,5.57,4.11,7.37l-6.33-2.48c.01-.05.02-.11.02-.17ZM9.26,18.85c.11-.14.18-.31.18-.5,0-.05,0-.09-.01-.14l5.09-1.78c.07.14.16.27.26.38-1.2,1.69-1.95,3.72-2.07,5.92-.04,0-.08.02-.12.04l-3.32-3.92ZM10.42,9.72c.18-.24.29-.53.31-.84l7.49-.05c.04.2.16.38.33.5l-2.15,4.91c-.15-.05-.32-.08-.49-.08-.34,0-.66.11-.91.3l-4.58-4.73ZM28.91,9.02l2.32,5.28c-.05.03-.1.07-.15.12-1.74-1.37-3.88-2.24-6.22-2.4-.01-.1-.04-.19-.09-.28l3.22-2.93c.18.15.42.24.67.24.08,0,.16-.01.24-.03ZM23.11,12.03c-2.33.2-4.47,1.1-6.19,2.49-.07-.06-.14-.11-.21-.15l2.15-4.92c.05.01.11.02.17.02.21,0,.39-.08.54-.21l3.59,2.56c-.02.06-.04.13-.05.2ZM35.4,22.27c-.22-2.27-1.11-4.35-2.46-6.03.03-.04.07-.07.09-.11l4.34,2.15c-.03.1-.06.21-.06.33,0,.31.14.59.35.79l-2.1,2.93c-.05-.02-.11-.04-.17-.05ZM37.58,8.95c0,.35.12.66.31.92l-5.06,4.56c-.23-.21-.54-.34-.88-.34-.14,0-.28.03-.4.07l-2.32-5.27c.24-.15.42-.38.49-.67l7.87.73ZM38.25,27.34l-2.43-3.68c.15-.15.24-.36.24-.58s-.09-.42-.22-.56l2.11-2.94c.13.06.28.1.44.1.32,0,.6-.14.8-.37l4.57,3.12c-.12.22-.19.47-.19.73,0,.3.09.57.23.81l-4.73,3.52c-.14-.12-.32-.2-.52-.2-.1,0-.2.02-.29.06ZM43.93,22.15l-4.57-3.12c.06-.13.09-.27.09-.42,0-.49-.33-.9-.78-1.02l.54-7.06c.31-.01.6-.11.84-.28,2.64,3.14,4.37,7.07,4.79,11.37-.36.07-.67.26-.9.53ZM37.61,8.62l-7.88-.73c-.05-.55-.5-.98-1.06-.98-.13,0-.25.03-.36.07l-1.96-3.51c.17-.13.3-.32.37-.53,4.25.54,8.11,2.37,11.17,5.08-.13.18-.22.38-.27.6ZM24.05,2.76c.2,0,.39,0,.59.01.02.16.08.31.16.44l-5.29,4.77c-.14-.1-.3-.16-.48-.16,0,0,0,0,0,0l-.62-3.4c.41-.15.7-.54.7-1,0-.02,0-.05,0-.07,1.59-.39,3.25-.6,4.96-.6ZM18.03,4.5s.03,0,.04,0l.62,3.4c-.24.11-.42.32-.47.59l-7.51.05c-.04-.26-.14-.5-.29-.7,1.95-1.68,4.21-3.01,6.68-3.88.18.32.53.55.93.55ZM8.24,10.04c.2.15.43.25.69.29l-.45,7.21c-.21.04-.4.15-.52.32l-2.91-1.29s.01-.09.01-.14c0-.27-.14-.51-.35-.66.86-2.11,2.06-4.04,3.52-5.74ZM4.19,17.22s.05,0,.08,0c.27,0,.51-.14.66-.35l2.89,1.28c-.01.06-.02.12-.02.18,0,.2.07.37.19.51l-4.28,5.53c-.16-.09-.33-.15-.52-.17,0-.19-.01-.38-.01-.57,0-2.24.36-4.4,1.02-6.43ZM3.4,26.73c.26-.08.49-.23.65-.44l4.78,2.94c-.04.1-.06.21-.06.32,0,.12.02.23.07.34l-3.3,2.15c-.15-.15-.35-.25-.57-.25-.05,0-.09,0-.13.01-.68-1.6-1.17-3.3-1.43-5.07ZM5.76,32.59c0-.09-.02-.18-.05-.27l3.31-2.15c.13.13.3.23.49.26l.09,7.13c-.3.03-.57.15-.8.33-1.31-1.4-2.43-2.98-3.32-4.7.17-.15.28-.36.28-.6ZM11.09,39.99c.17-.25.26-.54.27-.86l4.86-.47c.11.4.44.71.85.78l-.03,3.34c-.22.04-.4.16-.52.34-1.97-.77-3.8-1.82-5.44-3.12ZM17.98,43.56c0-.37-.26-.68-.6-.77l.03-3.35c.18-.03.34-.1.48-.2l5.23,5.04c-.04.07-.07.14-.09.22-1.75-.09-3.44-.39-5.05-.88,0-.02,0-.04,0-.06ZM24.57,44.51c-.03-.12-.08-.22-.15-.31l3.83-5.24c.15.08.31.12.49.12.13,0,.25-.03.37-.07l1.68,2.99c-.4.28-.67.75-.67,1.28,0,.11.01.22.04.33-1.77.54-3.64.85-5.58.9ZM31.68,41.72c-.22,0-.42.04-.61.12l-1.68-2.99c.25-.2.41-.49.41-.83,0-.36-.18-.68-.46-.87l2.13-4.43c.16.06.33.09.51.09.42,0,.8-.17,1.08-.45l1.94,1.62c-.06.11-.09.23-.09.37,0,.44.36.8.8.8,0,0,.01,0,.02,0l1.04,4.29c-.27.13-.46.4-.46.72,0,.12.03.23.07.33-1.05.77-2.17,1.45-3.35,2.01-.27-.46-.77-.78-1.35-.78ZM37.6,39.52c-.13-.1-.3-.17-.49-.17,0,0,0,0-.01,0l-1.04-4.29c.21-.1.37-.29.43-.52l4.58.16c.03.24.14.46.3.62-1.06,1.57-2.33,2.98-3.76,4.2ZM41.74,33.56l-2.69-4.88c.17-.15.28-.36.28-.6,0-.12-.03-.23-.07-.33l4.73-3.52c.24.25.56.42.92.47-.16,3.19-1.04,6.19-2.47,8.84-.1-.03-.21-.05-.32-.05-.13,0-.26.03-.37.07Z"/>
  <g>
    <ellipse class="cls-1" cx="88.42" cy="10.67" rx="29.45" ry="8.03"/>
    <ellipse class="cls-1" cx="111.91" cy="35.21" rx="29.45" ry="8.03"/>
    <path class="cls-1" d="M141.35,49.23c-.02-2.89-.02-5.69-.11-8.39-5.69,2.17-11.91,5.22-29.09,5.39-16.76-.09-23.81-3.03-29.7-5.24v11.66s0,7.42,31.05,7.7c23.91.22,27.11-6.58,27.85-7.09,0,0,.02.19,0-4.03ZM132.45,55.32c-1.07,0-1.93-.86-1.93-1.93s.86-1.93,1.93-1.93,1.93.86,1.93,1.93-.86,1.93-1.93,1.93ZM137.79,53.39c-1.07,0-1.93-.86-1.93-1.93s.86-1.93,1.93-1.93,1.93.86,1.93,1.93-.86,1.93-1.93,1.93Z"/>
    <path class="cls-1" d="M141.35,66.81c-.02-2.89-.02-5.69-.11-8.39-5.69,2.17-11.91,5.22-29.09,5.39-16.76-.09-23.81-3.03-29.7-5.24v11.66s0,7.42,31.05,7.7c23.91.22,27.11-6.58,27.85-7.09,0,0,.02.19,0-4.03ZM132.45,72.69c-1.07,0-1.93-.86-1.93-1.93s.86-1.93,1.93-1.93,1.93.86,1.93,1.93-.86,1.93-1.93,1.93ZM137.79,70.76c-1.07,0-1.93-.86-1.93-1.93s.86-1.93,1.93-1.93,1.93.86,1.93,1.93-.86,1.93-1.93,1.93Z"/>
    <path class="cls-1" d="M141.35,84.65c-.02-3.35-.02-6.6-.11-9.74-5.69,2.52-11.91,6.07-29.09,6.26-16.76-.11-23.81-3.52-29.7-6.09v13.54s0,8.62,31.05,8.94c23.91.25,27.11-7.64,27.85-8.24,0,0,.02.22,0-4.67ZM132.45,90.7c-1.07,0-1.93-.86-1.93-1.93s.86-1.93,1.93-1.93,1.93.86,1.93,1.93-.86,1.93-1.93,1.93ZM137.79,88.77c-1.07,0-1.93-.86-1.93-1.93s.86-1.93,1.93-1.93,1.93.86,1.93,1.93-.86,1.93-1.93,1.93Z"/>
    <path class="cls-1" d="M81.25,56.33c-11.6-.9-17.35-3.64-22.29-5.79v13.54s0,6.91,22.29,8.58v-16.33Z"/>
    <path class="cls-1" d="M81.25,39.02c-11.6-.77-17.35-3.14-22.29-4.99v11.66s0,5.95,22.29,7.39v-14.07Z"/>
    <path class="cls-1" d="M81.25,34.96h.22c0-4.67,13.17-8.45,29.42-8.45.51,0,1.01,0,1.52.01.18-.87.96-1.53,1.89-1.53s1.78.72,1.91,1.66c.56.03,1.11.06,1.66.1,0-.53,0-1.2,0-2.06-.02-2.89-.02-5.69-.11-8.39-5.69,2.17-11.91,5.22-29.09,5.39-16.76-.09-23.81-3.03-29.7-5.24v11.66s0,5.95,22.29,7.39v-.54Z"/>
  </g>
  <g>
    <path class="cls-1" d="M76.62,197.36v-28.28c0-9.76,7.91-17.67,17.67-17.67h16c9.76,0,17.67,7.91,17.67,17.67v28.28h-51.34Z"/>
    <circle class="cls-1" cx="102.3" cy="126.86" r="21.21"/>
    <path class="cls-1" d="M132.43,197.36v-28.28c0-9.76,7.91-17.67,17.67-17.67h16c9.76,0,17.67,7.91,17.67,17.67v28.28h-51.34Z"/>
    <circle class="cls-1" cx="158.11" cy="126.86" r="21.21"/>
    <path class="cls-1" d="M20.82,197.36v-28.28c0-9.76,7.91-17.67,17.67-17.67h16c9.76,0,17.67,7.91,17.67,17.67v28.28H20.82Z"/>
    <circle class="cls-1" cx="46.49" cy="126.86" r="21.21"/>
  </g>
</svg>