<?xml version="1.0" encoding="UTF-8"?>
<svg id="Layer_1" data-name="Layer 1" xmlns="http://www.w3.org/2000/svg" viewBox="0 0 400 289.81">
  <defs>
    <style>
      .cls-1 {
        fill: #1e1b1f;
      }

      .cls-2 {
        fill: #015983;
      }

      .cls-3 {
        fill: #d75018;
      }

      .cls-4 {
        fill: #fefefe;
      }

      .cls-5 {
        fill: #070707;
      }

      .cls-6 {
        fill: #fdfdfd;
      }
    </style>
  </defs>
  <g>
    <path class="cls-2" d="M98.93,9.26c1.72.39,2.98,1.25,3.68,2.89.14.33.55,1.57.55,1.85v43.57l-9-19.84c.27-3.85-.45-8.43-.03-12.19.11-.94,1.58-2.91,1.15-3.63-.1-.17-.53-.34-.74-.32-3.61.26-7.65-.32-11.2,0-1.97.18.27,2.86.41,3.94.45,3.71-.32,8.38-.03,12.2l-10.61,23.53c-1.75,3.4.37,8.53,4.53,8.53h25.53c-1.1,6.69-7.63,11.11-14.11,11.53-9.87.64-20.88-5.13-27.64-11.99s-13.81-19.84-8.26-29.39c.38-.65,2.25-3.15,2.89-3.27.26-.05.58.02.85,0l-1.49,1.99c-5.75,9.84.96,21.81,8.05,28.96.25.24.51.06.59-.23.08-.32-1-1.17-1.27-1.48-5.59-6.45-10.91-18.65-4.85-26.32,4.32-5.47,12.31-5.56,18.5-3.83v-9.59l-3.66-1.21c-.5,1.08-.45,2.28-.57,3.44-.02.17.06.19-.15.15s-.73-.16-.9-.24c-.36-.16-1.37-1.93-1.71-2.4-.54-.75-1.13-1.46-1.69-2.19l-4-.51c.14.73.14,1.45.26,2.19.06.37.55,1.98.53,2.08-.07.29-1.1.23-1.33.03-1.27-1.56-2.74-2.93-4.26-4.25-1.23-.06-2.54.23-3.76.4-.19.27,1.76,4.23,2.16,4.75.06.21-.03.13-.13.18-.14.07-.83.31-.93.29-.15-.03-2.03-1.58-2.39-1.83-.63-.45-2.6-1.89-3.17-2.09-.36-.12-2.78,1.28-3.31,1.49,0,.49,2.5,3.63,2.98,4.22.36.45,1.16.83.33,1.37-.22.15-.42.24-.68.13-.95-.55-1.93-1.08-2.93-1.54-.55-.25-2.91-1.36-3.31-1.39-.17-.01-.29.04-.4.17-.26.44-2.09,2.12-2.15,2.42s1.4,1.65,1.69,1.93c.92.85,1.95,1.65,2.92,2.45.13.11.7.44.72.48.14.24-.26,1.03-.52,1.11-.21.06-3.55-.94-4.14-1.07-1.06-.24-2.13-.41-3.2-.63-.1,1.1-1.05,2.6-1.14,3.61-.06.7,1.17,1.33,1.72,1.69,1.63,1.05,3.44,1.84,5.13,2.77,0,.22.06,1.24-.19,1.3-2.46-.13-4.9-.16-7.35.11l.28,4.8c.23.38,5.02,1.95,5.8,2.2.51.16,1.71.35,2.06.54.2.11.58,1.48.32,1.66-.11.08-1.22.23-1.51.31-1.74.47-3.47,1.07-5.07,1.91l2.02,5.3c.19.26,1.58.36,1.99.41,2.03.23,4.1.28,6.15.36.35.28,1.11,1.35.76,1.75-.21.24-1.32.85-1.7,1.15-.55.43-3.15,2.66-3.28,3.13-.02.08-.04.15.01.22l3.68,5.03c2.6-.08,5.11-.91,7.57-1.66.27.29,1.33,1.23,1.24,1.58-.99,1.67-2.56,4.1-2.91,6.02-.03.16-.11.3,0,.46l5.05,4.2c1.54-.72,2.98-1.68,4.32-2.72.28-.22,1.16-1.13,1.32-1.2.38-.17,1.55.7,1.81,1.06l-.49,4.26-.34.11H28.86c-2.92-.23-4.4-1.67-5.08-4.46,0-22.8,0-45.61,0-68.41.3-2.33,2.27-4.06,4.57-4.34h70.58Z"/>
    <path class="cls-5" d="M244.54,126.66c-1.85-.42-2.84-1.57-2.27-3.53l1.59-.13c-.76,1.95,1.01,2.9,2.72,2.32,1.45-.49,1.61-2.82-.03-3-1.31-.15-4.14.44-3.82-1.76.12-.84.86-.93,1.36-1.43-2.52-.93-2.25-4.9.23-5.77,1.86-.65,2.85.56,4.25.26.22-.05.51-.33.69-.3.07.01.85.9.87.96.06.17-.54.46-.65.49-.36.08-.8,0-1.18.02.9,1.64.31,3.78-1.49,4.51-.76.31-1.74.16-2.29.68-1.41,1.33,1.89.92,2.46.98,1.19.12,2.18.9,2.33,2.12.22,1.82-.77,3.15-2.5,3.59h-2.28ZM246.56,117.94c.69-.69.69-3.3-.71-3.49-1.76-.24-2.1,1.5-1.71,2.85.3,1.04,1.69,1.37,2.42.64Z"/>
    <path class="cls-5" d="M374.4,100.17l-1.94-.06-3.66-5.31v5.37h-1.6v-12.62s-.23-1.31-.23-1.31l1.6-.34c.47,2.85.12,5.8.23,8.68l2.97-4.23h1.83l-2.96,4.28,3.76,5.31v.23Z"/>
    <path class="cls-4" d="M28.35,9.26c-2.29.28-4.27,2.01-4.57,4.34v-4.34h4.57Z"/>
    <path class="cls-2" d="M279.03,69.79l3.36-43.86h8.58s6.07,26.82,6.07,26.82c.58,2.57.76,5.24,1.35,7.79l1.12-6.76,6.36-27.96h8.57l3.31,43.97h-6.28l-2-36.66-1.37,6.97-7.21,29.7h-5.53s-8.11-36.21-8.11-36.21l-2.06,36.2h-6.17Z"/>
    <path class="cls-2" d="M125.08,69.79V25.82c9.02.16,19.5-1.64,24.57,7.69,3.1,5.69,3.24,15.4,2.1,21.66-1.43,7.79-5.62,14.12-14.16,14.62h-12.51ZM131.36,64.42h5.77c1.96,0,4.45-1.54,5.59-3.09,3.84-5.26,3.79-19.79.77-25.42-1.17-2.18-3.99-4.61-6.59-4.61h-5.54v33.12Z"/>
    <polygon class="cls-2" points="223.53 25.82 223.53 43.75 237.12 43.75 237.12 25.82 243.29 25.82 243.29 69.79 237.12 69.79 237.12 49.23 223.53 49.23 223.53 69.79 217.36 69.79 217.36 25.82 223.53 25.82"/>
    <path class="cls-2" d="M322.09,69.79l12.39-43.86,7.76-.12,12.18,43.98h-6.85l-3.08-12.06-12.73-.06-3.27,12.11h-6.4ZM333.17,52.31h9.94l-4.97-20.67-4.97,20.67Z"/>
    <path class="cls-2" d="M179.9,25.82l-.97,5.48h-14.22v12.91h12.11v5.31s-.16.17-.17.17h-11.93v14.5h15.65v5.6h-21.93V25.82h21.47Z"/>
    <path class="cls-2" d="M272.75,25.82l-.97,5.48h-14.22v12.91h12.11v5.31s-.16.17-.17.17h-11.93v14.5h15.65v5.6h-21.93V25.82h21.47Z"/>
    <path class="cls-2" d="M207.75,33.22c-.13.07-.31.02-.44-.04-.33-.16-1.05-.85-1.5-1.13-6.52-4.07-11.8.25-13.64,6.67s-2.03,17.43,2.51,22.96c3.72,4.53,9.26,4.36,13.69.92.41.49,2.88,4.05,2.8,4.37-.2.76-4.07,2.37-4.92,2.62-11.05,3.26-19.37-3.35-21.39-14.08-1.63-8.67-.38-20.5,6.57-26.67,4.61-4.09,11.38-4.78,16.79-1.83.4.22,2.53,1.58,2.49,1.92l-2.97,4.28Z"/>
    <path class="cls-5" d="M161.8,109.76c2.79.33,4.28,3.51,2.17,5.6l-1.09.68c3.4.35,3.36,5.92.34,6.8-.42.12-1.37.29-1.77.29h-3.71v-13.36c1.28.11,2.8-.15,4.05,0ZM159.23,115.36h2.68s.67-.35.73-.41c.89-.76.73-2.93-.37-3.5-.1-.05-.88-.32-.94-.32h-2.11v4.23ZM161.68,116.84c-.76-.09-1.68.07-2.46,0v4.8h2.91c.44,0,1.08-.62,1.26-1.02.73-1.59.19-3.54-1.72-3.77Z"/>
    <path class="cls-5" d="M202.86,91.71c-.14-.13-1.08.44-.8-1.09.09-.5.71-.2.8-.28.08-.08-.03-1.81.03-2.2.34-2.18,2.69-2.64,4.43-1.68-.06.17-.42,1.1-.47,1.13-.15.11-1.37-.69-1.99,0-.05.05-.29.59-.29.63v2.11h3.2c.02-.39-.06-2.33.12-2.5.06-.06,1.37-.21,1.59-.24-.13.9-.13,1.82-.11,2.74h1.94c.08.22-.24,1.37-.4,1.37h-1.66v6.34c0,.24.23.88.48,1,.72.33,1.59-.49,1.58.72,0,.73-1.68.69-2.21.6s-1.34-.74-1.34-1.29v-7.37c-.19-.03-1.1.04-1.14,0-.05-.05.08-.57-.06-.57-.1.09-.21.57-.34.57h-1.66v8.28c0,.29-1.43.13-1.71.17v-8.45Z"/>
    <path class="cls-5" d="M269.1,100.17h-1.49c-.09-3.23.22-6.5-.22-9.7.37.05,1.17-.41,1.47-.22.11.07.17.86.3,1.01,1.16-1.31,3.51-1.76,4.34.11,1.17-1.35,3.69-1.97,4.57,0,.05.11.29.81.29.86v7.94h-1.6v-7.82c0-.09-.34-.59-.48-.66-.47-.22-1.17-.07-1.61.16-.14.08-.99.77-.99.84v7.48c-.34-.07-1.47.17-1.58-.19v-7.52c-.13-1.17-1.23-.96-2.02-.52-.14.08-.97.69-.97.75v7.48Z"/>
    <path class="cls-5" d="M133.53,99.19c-2.93,2.1-6.8,1.29-7.96-2.32s-.33-10.69,4.82-10.3c.68.05,2.83.75,3.02,1.45.04.14-.53.9-.58.93-.28.16-1.18-.63-1.63-.78-4.56-1.55-4.88,5.87-3.8,8.6.81,2.05,2.7,2.62,4.66,1.68v-4h-2.28l-.23-1.37h4v6.11Z"/>
    <path class="cls-5" d="M151.12,123.12h-1.6s-.12-.8-.12-.91c-.99,1.19-2.71,1.4-3.99.51-2.97-2.06-1.93-11.23,3.08-9.25l.79.63v-5.25c.39.18,1.51.05,1.6.51.18,4.01-.25,8.24,0,12.23.03.5.19,1.04.23,1.54ZM146.98,114.58c-1.59.33-1.57,3.82-1.45,5.05.24,2.46,2.33,3.1,3.74,1.12l.02-5.23c-.39-.87-1.43-1.13-2.31-.95Z"/>
    <path class="cls-5" d="M186.41,91.37c1.13-1.22,3.88-1.75,4.7.04.06.13.32.87.32.94v7.82h-1.6v-7.48c0-.16-.35-.64-.51-.74-.6-.38-1.49-.11-2.04.25-.13.09-.88.78-.88.84v7.14h-1.6l-.11-14.05c.35.14,1.2-.27,1.42-.21.14.03.29.83.29.96v4.51Z"/>
    <path class="cls-5" d="M345.5,91.37c.98-1.09,3.54-1.61,4.5-.34.17.22.52,1.18.52,1.42v7.71h-1.6v-7.48c0-.17-.35-.63-.51-.74-.62-.42-1.46-.13-2.04.25-.13.08-.88.78-.88.84v7.14h-1.49c-.11-4.58.25-9.2-.23-13.76.03-.37,1.17-.47,1.42-.39.15.05.3.81.3.96v4.4Z"/>
    <path class="cls-5" d="M251.28,100.17h-1.49s-.18-13.94-.18-13.94c.11-.15,1.48-.29,1.55-.22l.12,5.37c1.16-1.17,3.93-1.73,4.77.09.04.1.26.73.26.77v7.94c-.34-.07-1.47.17-1.58-.19v-7.18c-.28-1.54-1.89-1.16-2.81-.39-.14.12-.63.61-.63.74v7.02Z"/>
    <path class="cls-5" d="M302.45,100.17h-1.49s-.18-13.94-.18-13.94c.11-.15,1.48-.29,1.55-.22l.11,5.37c1.22-1.24,4.09-1.75,4.82.26.04.11.2.66.2.71v7.82c-.34-.07-1.47.17-1.58-.19-.17-2.26.18-4.73-.01-6.96-.13-1.59-1.53-1.55-2.62-.79-.11.08-.81.74-.81.79v7.14Z"/>
    <path class="cls-5" d="M281.83,109.76l3.08,11.54,3.03-11.54h1.6l-3.94,13.37c-.35-.07-1.42.13-1.61-.12l-3.82-13.25h1.66Z"/>
    <path class="cls-5" d="M203.54,123.12h-1.49s0-12.4,0-12.4l-.23-1.53c.52-.12,1.05-.28,1.6-.23l.12,5.37c1.16-1.16,3.96-1.69,4.77.09.04.1.26.73.26.77v7.94h-1.48v-6.91c0-.15-.23-1.01-.34-1.15-.83-1.01-3.2.37-3.2,1.03v7.02Z"/>
    <path class="cls-5" d="M223.04,113.1c6.4-.93,5.75,12.07-.43,10.08-3.58-1.16-3.4-9.52.43-10.08ZM223.38,114.35c-1.14.18-1.5,1.45-1.57,2.42-.1,1.28-.2,4.52,1.23,5.06,1.77.67,2.54-.8,2.66-2.31.13-1.63.24-5.58-2.32-5.17Z"/>
    <path class="cls-5" d="M199.75,100.37c-.48.28-1.2-.78-1.41-1.12-2.4,2.6-6.09.44-4.83-3,.69-1.89,3-2.24,4.77-2.14.4-3.27-1.91-3.16-3.94-1.61-.4-.58-1.11-.92-.32-1.45,1.42-.97,4.31-1.57,5.39.17.85,1.37.09,5.5.37,7.28.07.45.57.68.57.92,0,.06-.55.92-.59.95ZM198.17,95.25c-1.92-.18-3.57.58-3.17,2.77.25,1.38,1.88,1.35,2.71.48.07-.08.46-.64.46-.68v-2.57Z"/>
    <path class="cls-5" d="M174.5,113.1c5.62-.95,5.77,8.85,1.97,10.08-5.89,1.9-6.39-9.33-1.97-10.08ZM174.84,114.35c-1.65.34-1.66,3.16-1.57,4.48.1,1.52.46,3.45,2.45,3.13,1.84-.29,1.66-4.17,1.42-5.52-.21-1.23-.84-2.4-2.3-2.1Z"/>
    <path class="cls-5" d="M236.29,113.1c5.63-.95,5.79,8.88,1.97,10.08-5.93,1.87-6.3-9.35-1.97-10.08ZM236.63,114.35c-1.84.37-1.66,3.98-1.44,5.38s.72,2.49,2.32,2.23c1.7-.27,1.64-3.33,1.55-4.62-.1-1.41-.54-3.38-2.43-3Z"/>
    <path class="cls-5" d="M274.81,118.55h-5.14c-.37,2.13.98,4.13,3.28,3.22.29-.11.94-.71,1.16-.58.04.02.47.78.46.83-.05.29-1.03.84-1.33.96-7.12,2.85-7.16-11.91-.72-9.73,1.26.42,2.29,2.13,2.29,3.42v1.88ZM273.09,117.3c.06-1.24-.01-2.97-1.66-2.98s-1.69,1.75-1.88,2.98h3.54Z"/>
    <path class="cls-5" d="M334.65,95.6h-5.14c-.36,2.12.98,4.13,3.28,3.22.4-.16.89-.78,1.23-.48.86.76-.12,1.34-.86,1.65-6.64,2.79-7.46-10.26-1.65-9.88,1.7.11,3.14,1.81,3.14,3.49v2ZM333.05,94.34c-.2-1.21,0-2.9-1.65-2.97s-1.91,1.63-1.89,2.97h3.54Z"/>
    <path class="cls-5" d="M265.56,95.6h-5.25c-.03,1.7.47,3.61,2.56,3.41.55-.05,1.84-.86,2-.77.04.02.45.71.46.75.07.44-1.45,1.11-1.84,1.21-5.71,1.52-6.33-8.14-2.72-9.8,2.43-1.11,4.8.94,4.8,3.43v1.77ZM263.84,94.34c.04-1.27,0-2.94-1.65-2.98s-1.77,1.73-1.89,2.98h3.54Z"/>
    <path class="cls-5" d="M193.03,118.55h-5.25c.14.62.04,1.28.22,1.89.41,1.4,1.87,1.84,3.17,1.33.29-.11.94-.71,1.16-.58.04.02.47.78.46.83-.05.29-1.03.84-1.33.96-6.75,2.7-7.32-10.68-1.35-9.9,1.61.21,2.92,2.02,2.92,3.59v1.88ZM191.32,117.3c.05-1.27,0-2.94-1.65-2.98s-1.76,1.75-1.89,2.98h3.54Z"/>
    <path class="cls-5" d="M142.67,95.6h-5.14c-.28,2.18.98,4.15,3.35,3.18.45-.19.68-.51,1.1-.67-.02.34.61.84.44,1.12-.07.12-1.18.76-1.39.84-6.54,2.33-7.15-10.12-1.62-9.96,1.66.05,3.25,1.6,3.25,3.26v2.23ZM141.07,94.34c-.01-1.47-.26-3.34-2.2-2.94-1.09.22-1.4,2.01-1.34,2.94h3.54Z"/>
    <path class="cls-5" d="M316.72,95.6h-5.25c-.13,2.1.87,4.11,3.28,3.22.31-.11,1.05-.71,1.28-.58.03.02.33.58.34.64.13.6-1.22,1.18-1.72,1.32-6.05,1.65-6.44-9.35-1.95-10.06,2.31-.37,4.03,1.58,4.03,3.8v1.66ZM315.01,94.34c.01-.91.03-2.44-.98-2.84-1.94-.77-2.57,1.34-2.56,2.84h3.54Z"/>
    <path class="cls-5" d="M159.12,95.6h-5.14c-.33,2.14,1.04,4.19,3.36,3.19.22-.09,1-.74,1.1-.67.3.84.8.87-.12,1.53-1.18.86-3.11.96-4.33.11-2.89-2.02-2.56-9.78,1.88-9.65,1.63.05,3.25,1.63,3.25,3.26v2.23ZM157.52,94.34c-.08-1.27-.09-3.02-1.77-2.98-1.59.04-1.78,1.71-1.77,2.98h3.54Z"/>
    <path class="cls-5" d="M135.02,123.12c-.1-3.23.23-6.5-.22-9.7l1.47-.35.29,1.26c1.15-1.35,3.39-1.85,4.49-.15.07.1.36.73.36.78v8.17h-1.6v-7.82s-.22-.43-.26-.48c-.74-.81-2.93.41-2.93.82v7.48h-1.6Z"/>
    <path class="cls-5" d="M217.93,123.12h-1.6v-7.59c0-.1-.29-.65-.4-.75-.75-.69-2.21.13-2.78.76l-.07,7.47c-.16.23-1.22.05-1.55.11-.06-3.23.18-6.49-.22-9.7,1.15-.25,1.57-.65,1.76.79,1.14-1.11,3.24-1.7,4.34-.23.16.22.51.97.51,1.2v7.94Z"/>
    <path class="cls-5" d="M262.36,118.55h-5.14c-.37,2.13.98,4.13,3.28,3.22.38-.15.92-.79,1.23-.48.03.03.38.61.38.65.05.33-1.15,1-1.47,1.12-6.99,2.49-6.92-11.96-.57-9.82,1.22.41,2.29,2.04,2.29,3.31v2ZM257.28,117.41c.43.13,2.66,0,3.31,0,.38,0-.01-2.01-.19-2.33-.42-.75-1.45-1.04-2.2-.63-.53.3-.83,1.11-.95,1.67-.05.26-.25,1.2.03,1.28Z"/>
    <path class="cls-5" d="M247.73,87.62c.1.14-.64,1.08-.75,1.12-.29.1-.78-.39-1.15-.53-4.29-1.71-4.92,6.07-3.71,8.62.79,1.66,2.15,2.5,3.99,1.9.23-.08.93-.49.98-.48.13.02.76.96.75,1.06-1.88,1.58-5.17,1.26-6.66-.74-3.38-4.5-.37-15.4,6.55-10.94Z"/>
    <path class="cls-5" d="M127.14,113.19v7.71c0,.15.26.72.4.86,1.04,1.01,2.92-.16,3.04-1.42.2-2.16-.16-4.65-.01-6.84.05-.21,1.24-.25,1.49-.3v7.48c0,.08.15.82.19.95.22.74.74.86-.3,1.57-.75.51-.96-.55-1.21-1.09-.83,1.51-3.72,1.82-4.68.34-.09-.15-.41-.96-.41-1.08v-8.05l1.48-.11Z"/>
    <path class="cls-5" d="M223.19,90.23v7.94c0,.12.42.7.58.79,1.16.7,2.74-.5,2.85-1.7.2-2.14-.17-4.56.01-6.73.09-.29,1.13-.19,1.47-.3v7.94c0,.35.59,1.22.58,1.36,0,.07-.95.75-1.09.87-.31,0-.84-.92-.74-1.26-.9,1.27-3.36,1.85-4.5.67-.14-.15-.64-1.04-.64-1.19v-8.28l1.48-.11Z"/>
    <path class="cls-5" d="M359.78,100.17h-1.48v-7.48c0-.5-.56-1.16-1.09-1.19-.44-.03-2.22.84-2.22,1.19v7.48h-1.49c-.13-3.23.32-6.54-.34-9.71l1.59-.22c.1.27.08.58.13.84.02.1-.04.26.17.17.18-.08.62-.54.91-.69.98-.51,2.27-.63,3.15.17.17.16.68.96.68,1.15v8.28Z"/>
    <path class="cls-5" d="M327.8,86.69c-.03.25.12,1.6-.17,1.6h-3.03v11.88h-1.6v-11.88h-3.08c.03-.25-.12-1.6.17-1.6h7.71Z"/>
    <path class="cls-5" d="M290.44,91.93c-.24.17-2.27-1.45-3.3-.05-1.48,2,1.86,2.5,2.89,3.16,2.4,1.53,1.29,5.07-1.47,5.35-.79.08-2.94-.27-3.48-.85-.31-.34.18-1.02.41-1.31,1.13.69,3.37,1.65,4.07-.03.83-2-1.67-2.14-2.84-2.8-3.22-1.82-1.12-6.25,2.91-5.19,1.31.35,1.48.54.81,1.74Z"/>
    <path class="cls-5" d="M150.08,90.7c.14.2-.44.96-.46,1.24-.21.15-1.77-1.06-2.89-.43-.65.36-.83,1.23-.56,1.9.47,1.16,3.48.98,4.19,3,.65,1.83-.6,3.76-2.52,3.98-.83.1-3-.22-3.59-.84-.33-.35.34-.91.35-1.31,1.13.63,3.45,1.67,4.17,0,.86-1.99-1.74-2.2-2.88-2.83-2.69-1.5-1.55-5.23,1.39-5.39.97-.05,1.92.31,2.79.69Z"/>
    <path class="cls-5" d="M175.43,90.7c.13.2-.34,1.19-.51,1.23-.11.03-1.46-.72-2.19-.61-1.62.25-1.75,2.13-.25,2.84,1.32.63,3.24.83,3.43,2.74.38,3.82-3.88,4.24-6.39,2.57l.63-1.25c1.02.71,3.38,1.59,4.02.03,1.14-2.8-3.93-1.96-4.3-4.66s1.91-4.06,4.4-3.38c.16.04,1.13.43,1.17.49Z"/>
    <path class="cls-5" d="M218.5,90.46h2.17c-.01.13-.17,1.14-.23,1.14h-1.94v8.57h-1.6v-8.57c-.16-.03-.76.04-.8,0-.04-.04-.04-1.1,0-1.14s.64.03.8,0c-.26-1.68-.06-4.12,2.03-4.42.45-.07,2.01.03,2.26.42.12.19-.27,1.01-.4,1.1-.24.15-1.35-.82-2,.17-.07.1-.29.66-.29.74v2Z"/>
    <path class="cls-5" d="M181.16,114.67s-.98.05-1.03,0-.05-1.32,0-1.37.98.05,1.03,0c.09-.09-.03-2.27.23-2.46.09-.07,1.43-.34,1.49-.28l-.11,2.74h2.06l-.34,1.37h-1.71v6.68c0,.82,1.24.88,1.83.63.24.87.47,1.09-.54,1.34-.82.21-2.16.06-2.59-.78-.06-.11-.3-.78-.3-.85v-7.02Z"/>
    <path class="cls-5" d="M341.83,98.24c.61.82.89.96-.13,1.61-.77.48-1.75.53-2.64.42-4.27-.52-3.8-11.53,1.81-10.03.32.08,1.34.57,1.3.94,0,.11-.55.85-.63.87-.34.1-1.32-1.14-2.55-.27-1.34.94-1.26,4.77-.67,6.13.43.97,1.19,1.34,2.24,1.03.4-.12,1.01-.85,1.26-.71Z"/>
    <path class="cls-5" d="M180.33,90.15c.74-.1,1.7.05,2.3.49.33.24.55.39.33.77-.71,1.28-.96.15-1.98.07-.92-.07-1.46.5-1.79,1.3-.49,1.2-.52,3.79-.04,4.99.46,1.13,1.4,1.61,2.56,1.07.24-.11.72-.63.85-.61.17.03.84.72.7,1.02-.45,1-2.59,1.16-3.52,1-3.53-.59-3.7-9.5.57-10.11Z"/>
    <path class="cls-5" d="M298.22,92.17c-.31-.05-.49-.33-.83-.48-3.12-1.37-3.2,4.42-2.42,6.19.47,1.07,1.56,1.52,2.61.9.4-.23.5-.81,1-.39.85.71.3,1.21-.47,1.6-.7.36-1.94.4-2.71.21-3.68-.89-3.47-10.63,1.62-10.07.43.05,1.65.53,1.85.9.15.27-.64.8-.64,1.14Z"/>
    <path class="cls-5" d="M197.8,113.1c.79-.11,1.89.1,2.48.66.27.25.36.25.16.61-.71,1.27-.93.2-1.88.09-1.41-.17-2,1.16-2.2,2.34-.29,1.68-.27,5.44,2.22,5.18.62-.06,1.38-.81,1.47-.79.17.03.84.72.7,1.02-.45,1-2.59,1.16-3.52,1-3.56-.6-3.69-9.5.57-10.11Z"/>
    <path class="cls-5" d="M167.1,86.02c.07.05.23,1.1.25,1.3.24,3.51-.35,7.53,0,10.97.11,1.09.57.58.79.75.04.03.19.9.25,1.06-1.46.48-2.5.16-2.64-1.47-.3-3.53.22-7.5,0-11.09-.02-.43-.16-.88-.23-1.31l1.59-.22Z"/>
    <path class="cls-5" d="M231.07,108.96c.47,4.17.12,8.42.23,12.62.1.53.58.31.7.47.07.1.26.98.21,1.06-1.27.33-2.37.21-2.51-1.3-.29-3.32.16-7.12,0-10.52-.03-.65-.2-1.39-.24-2.04l1.6-.29Z"/>
    <path class="cls-5" d="M162.66,86c.03.58.2,1.2.23,1.77.2,3.36-.38,7.39,0,10.63.1.84.55.49.75.74.1.12.25.94.1,1.04-.19.14-1.09.14-1.35.09-.7-.11-1.04-.89-1.1-1.53-.31-3.53.24-7.51,0-11.09-.03-.48-.19-.95-.23-1.42l1.6-.23Z"/>
    <path class="cls-5" d="M230.95,100.17c-.1-3.21.24-6.46-.24-9.63l1.49-.41.35,1.25c.48-1.08,1.62-1.4,2.74-1.25.08.07-.46,1.59-.57,1.66-.18.12-.67.02-.95.08-.46.09-1.22.83-1.22,1.29v7.02h-1.6Z"/>
    <path class="cls-5" d="M362.75,100.17v-9.82c.3.07,1.71-.38,1.71-.06v9.71c0,.29-1.43.13-1.71.17Z"/>
    <polygon class="cls-5" points="253.11 113.19 253.11 123.12 251.39 123.12 251.39 113.3 253.11 113.19"/>
    <path class="cls-5" d="M169.51,113.19v9.76c0,.29-1.43.13-1.71.17v-9.82l1.71-.11Z"/>
    <polygon class="cls-5" points="282.8 90.23 282.8 100.17 281.2 100.17 281.2 90.34 282.8 90.23"/>
    <path class="cls-5" d="M288.55,121.11c1.22-1.28,3.18.66,1.85,1.9-1.25,1.17-2.9-.8-1.85-1.9Z"/>
    <path class="cls-5" d="M277.52,120.75c1.88-.42,2.2,2.28.63,2.58-1.73.33-2.05-2.26-.63-2.58Z"/>
    <path class="cls-5" d="M251.94,109.33c1.37-.27,2.1,1.58.82,2.31-1.64.93-2.64-1.95-.82-2.31Z"/>
    <path class="cls-5" d="M363.29,86.37c1.6-.31,2.03,2.03.63,2.35-1.95.45-2.11-2.06-.63-2.35Z"/>
    <path class="cls-5" d="M281.75,86.37c1.55-.23,1.91,2.06.63,2.35-2.02.46-2.12-2.13-.63-2.35Z"/>
    <path class="cls-5" d="M169.47,109.68c1.05,1.07-.59,2.79-1.73,1.79-1.24-1.08.53-3.01,1.73-1.79Z"/>
    <path class="cls-5" d="M223.03,86.95c1.54-.08,1.37,2.49-.19,2.08-1.21-.31-.88-2.03.19-2.08Z"/>
    <path class="cls-5" d="M226.57,86.95c1.54-.08,1.37,2.49-.19,2.08-1.21-.31-.88-2.03.19-2.08Z"/>
  </g>
  <g>
    <path class="cls-3" d="M367.54,144.01c6.69,1.32,11.21,6.1,12.46,12.76v3.56c-2.58,12.81-18.6,17.28-26.66,6.33-5.25-7.12-2.34-17.38,5.39-21.22l4.36-1.43h4.45ZM363.91,147.65c-13.11,1.59-11.42,22.55,2.29,21.57,13.58-.96,12.27-23.34-2.29-21.57Z"/>
    <path class="cls-1" d="M305.51,284.09c-2.91-1.02-4.66-2.2-4.16-5.64.6.11,3.73-.14,3.86,0,.26.27-.78,2.01,1.46,2.54,1.75.42,4.93.07,4.48-2.39-.11-.61-.54-.85-1.11-.98-2.56-.55-9.15.9-7.74-3.72.28-.91,1.67-.84,2.02-1.69-3.74-1.1-3.45-6.08-.4-7.97,4.23-2.62,8.02,1.35,11.82-1.54,2.13,2.54,1.42,3.73-1.92,3.57,1.57,2.91-.07,6.02-3.25,6.69-1.4.3-3.54-.3-3.88,1.61h4.3c.1,0,1.62.44,1.84.53,2.96,1.27,3.37,5.54.83,7.48l-3.41,1.48h-4.75ZM306.91,266.35c-1.44.34-1.81,2.16-1.07,3.32s3.92,1.17,4.36-.33c.73-2.5-1.01-3.53-3.29-2.99Z"/>
    <path class="cls-1" d="M202.23,284.09c-2.91-1.02-4.66-2.2-4.16-5.64.6.11,3.73-.14,3.86,0,.26.27-.78,2.01,1.46,2.54,1.75.42,4.93.07,4.48-2.39-.11-.61-.54-.85-1.11-.98-2.56-.55-9.16.9-7.74-3.72.28-.91,1.67-.84,2.02-1.69-3.74-1.1-3.45-6.08-.4-7.97,4.23-2.62,8.02,1.35,11.82-1.54,2.13,2.54,1.42,3.73-1.92,3.57,1.57,2.91-.07,6.02-3.25,6.69-1.4.3-3.54-.3-3.88,1.61h4.3c.1,0,1.62.44,1.84.53,2.96,1.27,3.37,5.54.83,7.48l-3.41,1.48h-4.75ZM203.62,266.35c-1.44.34-1.81,2.16-1.07,3.32s3.92,1.17,4.36-.33c.73-2.5-1.01-3.53-3.29-2.99Z"/>
    <polygon class="cls-1" points="20 223.25 34.54 223.25 33.95 226.51 29.2 226.51 29.2 243.43 25.05 243.43 25.05 226.51 20 226.51 20 223.25"/>
    <path class="cls-3" d="M309.37,156.47l8.61,34.43,9.54-34.39h13.88s4.78,53.97,4.78,53.97h-10.68l-2.52-36.51-10.42,36.53c-1.41-.25-8.95.39-9.47-.31l-9.64-35.92-2.38,36.21h-10.98l5.05-54.01h14.25Z"/>
    <path class="cls-3" d="M20.3,210.49v-54.01c6,.25,12.27-.34,18.25,0,17.03.97,22.5,15.19,21.53,30.43-.68,10.71-7.89,23.58-20.05,23.58h-19.74ZM31.57,201.58h6.97c6.01,0,8.67-7.38,9.05-12.32.53-6.87.6-24.18-9.64-24.18h-6.38v36.5Z"/>
    <path class="cls-3" d="M267.67,156.47c.95.11,2.95.76,3.91,1.13,13.44,5.22,12.03,27.61-2.57,29.88,2.03,1.61,3.44,3.98,4.87,6.11,3.1,4.62,6.7,10.43,9.31,15.32.27.5.69.98.66,1.57h-12.61c-3.39-4.79-5.79-10.22-8.81-15.23-1.74-2.88-3.45-6.65-7.06-7.33v22.56h-10.68v-54.01h23ZM255.8,165.08c-.1.15-.45.36-.45.45v13.95s.41.45.45.45h5.05c.81,0,3.21-.42,4.07-.68,5.8-1.74,5.96-11.48.17-13.36-.96-.31-3.9-.8-4.84-.8h-4.45Z"/>
    <polygon class="cls-3" points="163.35 156.47 163.35 177.25 178.78 177.25 178.78 156.47 190.06 156.47 190.06 210.49 178.78 210.49 178.78 186.45 163.35 186.45 163.35 210.49 152.37 210.49 152.37 156.47 163.35 156.47"/>
    <polygon class="cls-3" points="101.02 156.47 99.84 165.38 81.14 165.38 81.14 177.54 96.57 177.54 96.57 186.45 81.43 186.45 81.43 200.99 101.91 200.99 101.91 210.49 70.16 210.49 70.16 156.47 101.02 156.47"/>
    <polygon class="cls-3" points="233.69 156.47 232.5 165.38 213.8 165.38 213.8 177.54 229.23 177.54 229.23 186.45 214.1 186.45 214.1 200.99 234.58 200.99 234.58 210.49 202.82 210.49 202.82 156.47 233.69 156.47"/>
    <path class="cls-3" d="M145.54,156.47c-.71,2.48-.72,6.41-1.55,8.69-.06.17-.25.51-.38.51h-12.61v44.81h-11.28v-44.81h-13.36v-9.2h39.18Z"/>
    <path class="cls-1" d="M228.64,243.43v-20.18h7.86c5.47,0,7.36,7.37,6.97,11.72-.29,3.21-2.97,8.46-6.67,8.46h-8.16ZM232.79,240.17c4.79.63,6.1-1.7,6.25-6.07s-.86-8.65-6.25-7.58v13.65Z"/>
    <path class="cls-1" d="M97.16,243.43h-3.86v-11.43c0-1.16-3.86.1-3.86.89v10.54h-3.86v-11.43c0-1.05-3.56-.14-3.56.59v10.83h-3.86s-.26-14.21-.26-14.21c.09-.13,2.87-.93,3.05-.88.43.11.61,1.09.91,1.12.87.08,2.35-2.3,5.41-.63.53.29,1.28,1.3,1.68,1.23.18-.03,1.71-1.4,2.56-1.62,1.3-.33,3.59-.21,4.62.74.28.26,1.03,1.69,1.03,1.94v12.32Z"/>
    <path class="cls-1" d="M116.46,229.93c-.01-.18-.46-.63-.3-1.04,1.52.06,3.81-1.69,3.86.59,12.12-6.65,12.64,18.39.29,13.65v5.49c-1.01.7-2.6.9-3.86,1.04-.27-6.49.37-13.28,0-19.74ZM121.71,231.62c-.65.15-1.26.59-1.39,1.28-.16.84-.16,5.68,0,6.52.28,1.46,2.51,1.55,3.54.88,1.34-.87,1.35-4.44,1.2-5.91-.22-2.17-.96-3.3-3.35-2.76Z"/>
    <path class="cls-1" d="M68.08,271.03v7.42h-3.86v-20.18h7.57c.1,0,1.7.37,1.94.44,5.16,1.65,5.65,9.15.86,11.55-.29.15-2.04.77-2.2.77h-4.3ZM68.08,261.53v6.23c2.84.06,5.37.57,5.37-3.12s-2.55-3.19-5.37-3.12Z"/>
    <path class="cls-1" d="M40.77,222.06v7.72c2.01-2.32,8.31-1.88,8.31,1.63v12.02h-3.86v-10.83c0-2.19-4.45-.34-4.45.59v10.24h-3.86v-19.44c0-.16-.47-.65-.3-1.04l4.16-.89Z"/>
    <path class="cls-1" d="M136.04,222.06v7.72c2.01-2.32,8.31-1.88,8.31,1.63v12.02h-3.86v-10.83c0-2.19-4.45-.34-4.45.59v10.24h-3.86v-19.44c0-.16-.47-.65-.3-1.04l4.16-.89Z"/>
    <polygon class="cls-1" points="179.67 258.27 179.37 261.53 172.25 261.53 172.25 266.28 178.19 266.28 178.19 269.55 172.55 269.55 172.55 274.89 179.97 274.89 179.97 278.45 168.39 278.45 168.39 258.27 179.67 258.27"/>
    <path class="cls-1" d="M150.25,228.33c.48.31,2.75,9.6,3.01,10.94.45-.05.46-.44.57-.76.47-1.28,2.59-9.61,3.02-9.89.16-.1,2.95-.11,3.38-.04s.47-.18.44.45c-1.21,3.78-2.46,7.58-3.86,11.28-.98,2.58-2.03,6.86-4.36,8.4s-3.78,1.78-4.54-1.27c1.61-.86,3.34-1.51,4.03-3.4.37-1.01-.23-.4-.76-.77-.63-.45-4.34-12.9-4.76-14.69.83.33,3.35-.57,3.82-.26Z"/>
    <path class="cls-1" d="M204.01,234.23c.78-5.56-5.27-1.08-5.77-1.19-.33-.08-1.85-2.7-1.65-2.96,2.54-1.01,4.66-2.16,7.54-1.76,5.76.8,3.14,7.12,3.75,11.08.28,1.78,2.16,1.93-.01,3.88-1.56,1.41-2.27-.99-2.83-1-.13,0-.98.79-1.37.96-2.57,1.09-6.74.44-7.32-2.71-.96-5.22,3.29-6.6,7.65-6.31ZM204.01,236.9c-3.74-1.18-5.37,4.13-1.64,3.88,2.42-.17,1.49-2.11,1.64-3.88Z"/>
    <path class="cls-1" d="M253.57,234.23c.78-5.56-5.27-1.08-5.77-1.19-.33-.08-1.85-2.7-1.65-2.96,2.54-1.01,4.66-2.16,7.54-1.76,5.76.8,3.14,7.12,3.75,11.08.28,1.78,2.16,1.93-.01,3.88-1.56,1.41-2.27-.99-2.83-1-.13,0-.98.79-1.37.96-2.57,1.09-6.74.44-7.32-2.71-.96-5.22,3.29-6.6,7.65-6.31ZM253.57,236.9c-3.74-1.18-5.37,4.13-1.64,3.88,2.42-.17,1.49-2.11,1.64-3.88Z"/>
    <path class="cls-1" d="M278.2,234.23c.78-5.56-5.27-1.08-5.77-1.19-.33-.08-1.85-2.7-1.65-2.96,2.54-1.01,4.66-2.16,7.54-1.76,5.76.8,3.14,7.12,3.75,11.08.28,1.78,2.16,1.93-.01,3.88-1.56,1.41-2.27-.99-2.83-1-.13,0-.98.79-1.37.96-2.57,1.09-6.74.44-7.32-2.71-.96-5.22,3.29-6.6,7.65-6.31ZM278.2,236.9c-3.74-1.18-5.37,4.13-1.64,3.88,2.42-.17,1.49-2.11,1.64-3.88Z"/>
    <path class="cls-1" d="M105.1,228.36c10.13-1.72,10.74,14.12,2.82,15.28-10.19,1.49-10.4-13.99-2.82-15.28ZM104.96,240.38c1.6,1.59,3.54.23,3.94-1.68.48-2.31.6-9.11-3.43-7.28-1.93.87-1.79,7.69-.51,8.96Z"/>
    <path class="cls-1" d="M94.71,263.39c10.13-1.72,10.74,14.12,2.82,15.28-10.19,1.49-10.4-13.99-2.82-15.28ZM94.58,275.4c1.6,1.59,3.54.23,3.94-1.68.48-2.31.6-9.11-3.43-7.28-1.93.87-1.79,7.69-.51,8.96Z"/>
    <path class="cls-1" d="M35.06,263.39c10.13-1.72,10.74,14.12,2.82,15.28-10.19,1.49-10.4-13.99-2.82-15.28ZM34.92,275.4c1.6,1.59,3.54.23,3.94-1.68.48-2.31.6-9.11-3.43-7.28-1.93.87-1.79,7.69-.51,8.96Z"/>
    <path class="cls-1" d="M130.4,272.22h-8.61c-.12,2.86,1.48,3.96,4.23,3.49,2.39-.41,2.5-2.7,4.08,1.25-6.91,4.23-13.32.77-12.46-7.56.49-4.72,4.89-7.61,9.31-5.46,3.17,1.55,3.3,5.16,3.45,8.27ZM126.25,269.55c.61-4.83-4.8-4.53-4.45,0h4.45Z"/>
    <path class="cls-1" d="M265.74,272.22h-8.61c-.12,2.86,1.48,3.96,4.23,3.49,2.39-.41,2.5-2.7,4.08,1.25-6.91,4.23-13.32.77-12.46-7.56.49-4.72,4.89-7.61,9.31-5.46,3.17,1.55,3.3,5.16,3.45,8.27ZM261.58,269.55c.61-4.83-4.8-4.53-4.45,0h4.45Z"/>
    <path class="cls-1" d="M65.11,237.2h-8.61c-.12,2.86,1.48,3.96,4.23,3.49,2.39-.41,2.5-2.7,4.08,1.25-6.91,4.23-13.32.77-12.46-7.56.49-4.72,4.89-7.61,9.31-5.46,3.17,1.55,3.3,5.16,3.45,8.27ZM60.96,234.53c.61-4.83-4.8-4.53-4.45,0h4.45Z"/>
    <path class="cls-1" d="M250.9,272.22h-8.61c-.12,2.86,1.48,3.96,4.23,3.49,2.39-.41,2.5-2.7,4.08,1.25-6.91,4.23-13.32.77-12.46-7.56.49-4.72,4.89-7.61,9.31-5.46,3.17,1.55,3.3,5.16,3.45,8.27ZM246.74,269.55c.61-4.83-4.8-4.53-4.45,0h4.45Z"/>
    <path class="cls-1" d="M298.38,278.45h-3.86v-11.13c0-1.59-3.86-.07-3.86.59v10.54h-3.86s-.16-14.26-.16-14.26c.18-.27,2.65-.95,2.95-.86.59.18.44,1.61,1.19,1.44,1.68-2.35,7.6-1.56,7.6,1.36v12.32Z"/>
    <path class="cls-1" d="M234.87,278.45h-3.86v-11.13c0-1.59-3.86-.07-3.86.59v10.54h-3.86s-.16-14.26-.16-14.26c.18-.27,2.65-.95,2.95-.86.59.18.44,1.61,1.19,1.44,1.68-2.35,7.6-1.56,7.6,1.36v12.32Z"/>
    <path class="cls-1" d="M195.1,278.45h-3.86v-11.13c0-1.59-3.86-.07-3.86.59v10.54h-3.86s-.16-14.26-.16-14.26c.18-.27,2.65-.95,2.95-.86.59.18.44,1.61,1.19,1.44,1.68-2.35,7.6-1.56,7.6,1.36v12.32Z"/>
    <path class="cls-1" d="M161.29,242.22c1.03-4.15,1.17-2.64,3.77-1.84,1.6.49,4.95.78,4.17-1.79-.54-1.78-6.55-.62-7.3-4.28-1.1-5.37,3.92-6.95,8.25-5.88,1.12.28,2.85.58,2.44,1.85-.96,2.96-1.47,1.37-3.26,1.05-1.38-.25-4.51-.08-3.07,1.88,1.31,1.78,7.38.23,7.16,5.62-.23,5.79-8.39,5.75-12.17,3.38Z"/>
    <path class="cls-1" d="M131.91,277.24c1.03-4.15,1.17-2.64,3.77-1.84,1.6.49,4.95.78,4.17-1.79-.54-1.78-6.55-.62-7.3-4.28-1.1-5.37,3.92-6.95,8.25-5.88,1.12.28,2.85.58,2.44,1.85-.96,2.96-1.47,1.37-3.26,1.05-1.38-.25-4.51-.08-3.07,1.88,1.31,1.78,7.38.23,7.16,5.62-.23,5.79-8.39,5.75-12.17,3.38Z"/>
    <path class="cls-1" d="M145.56,277.24c1.03-4.15,1.17-2.64,3.77-1.84,1.6.49,4.95.78,4.17-1.79-.54-1.78-6.55-.62-7.3-4.28-1.1-5.37,3.92-6.95,8.25-5.88,1.12.28,2.85.58,2.44,1.85-.96,2.96-1.47,1.37-3.26,1.05-1.38-.25-4.51-.08-3.07,1.88,1.31,1.78,7.38.23,7.16,5.62-.23,5.79-8.39,5.75-12.17,3.38Z"/>
    <path class="cls-1" d="M21.78,266.28c-.1-.09-1.08.1-1.19,0-.1-.09-.1-2.58,0-2.67.11-.1,1.08.11,1.19,0,.23-.22-.78-4.22,1.67-5.89,1.85-1.26,4.83-1.06,6.64.12-.94,3.42-1.58,1.58-3.28,2.03s-1.12,2.42-1.18,3.74h3.56c.16.16-.53,2.54-.63,2.63-.24.22-2.93-.11-2.93.04v12.17h-3.86c-.34-1.54.45-11.75,0-12.17Z"/>
    <path class="cls-1" d="M261.29,231.26c-.11-.1-1.38.11-1.49,0-.1-.09-.1-2.58,0-2.67.11-.11,1.37.11,1.49,0,.18-.17-.27-2.59.14-3.27.36-.6,3.06-.95,3.86-1.19l-.15,4.46,3.27.15c-.11.39-.53,2.4-.63,2.49-.22.2-2.64-.1-2.64.03v8.76c0,1.44,3.09.9,3.25,1.05.07.07.37,1.97.3,2.05-.23.31-3.1.66-3.7.61-1.31-.11-3.71-1.39-3.71-2.82,0-1.29.35-9.31,0-9.65Z"/>
    <path class="cls-1" d="M114.33,267.12c-.94.55-3.59-2.59-4.84.95-.61,1.72-.85,6.38.92,7.38,2.49,1.42,3.93-2.71,5.49.76.45,1-.56,1.45-1.44,1.86-4.12,1.93-8.93-.2-9.54-4.84-.69-5.27,1.44-10.58,7.54-9.92.66.07,2.9.74,3.09,1.38.13.43-1.01,2.3-1.21,2.42Z"/>
    <path class="cls-1" d="M192.97,232.1c-.94.55-3.59-2.59-4.84.95-.61,1.72-.85,6.38.92,7.38,2.49,1.42,3.93-2.71,5.49.76.45,1-.56,1.45-1.44,1.86-4.12,1.93-8.93-.2-9.54-4.84-.69-5.27,1.44-10.58,7.54-9.92.66.07,2.9.74,3.09,1.38.13.43-1.01,2.3-1.21,2.42Z"/>
    <path class="cls-1" d="M215.88,222.06v17.66c0,1.49,1.61,1.25,1.75,1.37.09.08.4,2.24.32,2.33-2.58.71-5.26.35-5.8-2.64l-.15-17.95,3.88-.77Z"/>
    <path class="cls-1" d="M84.11,278.45h-3.86s-.26-14.06-.26-14.06c1.48-.84,3.77-1.94,3.82.7.19.15,2.19-2.42,4.26-1.74.99.33-.04,3.16-.39,3.38-.47.31-3.58.05-3.58,1.47v10.24Z"/>
    <path class="cls-1" d="M49.98,278.45h-3.86s-.26-14.06-.26-14.06c1.48-.84,3.77-1.94,3.82.7.19.15,2.19-2.42,4.26-1.74.99.33-.04,3.16-.39,3.38-.47.31-3.58.05-3.58,1.47v10.24Z"/>
    <path class="cls-1" d="M272.56,278.45h-3.86s-.26-14.06-.26-14.06c1.48-.84,3.77-1.94,3.82.7.19.15,2.19-2.42,4.26-1.74.99.33-.04,3.16-.39,3.38-.47.31-3.58.05-3.58,1.47v10.24Z"/>
    <path class="cls-1" d="M71.94,243.43h-3.86s-.26-14.06-.26-14.06c1.48-.84,3.77-1.94,3.82.7.19.15,2.19-2.42,4.26-1.74.99.33-.04,3.16-.39,3.38-.47.31-3.58.05-3.58,1.47v10.24Z"/>
    <polygon class="cls-1" points="219.14 263.31 219.14 278.45 215.28 278.45 215.28 263.91 219.14 263.31"/>
    <polygon class="cls-1" points="282.65 263.31 282.65 278.45 278.8 278.45 278.8 263.91 282.65 263.31"/>
    <polygon class="cls-1" points="180.26 228.29 180.26 243.43 176.41 243.43 176.41 228.89 180.26 228.29"/>
    <path class="cls-1" d="M280.2,257.14c3.6-.79,4.35,5,.24,4.71-2.74-.2-2.75-4.16-.24-4.71Z"/>
    <path class="cls-1" d="M216.69,257.14c3.6-.79,4.35,5,.24,4.71-2.74-.2-2.75-4.16-.24-4.71Z"/>
    <path class="cls-1" d="M177.81,222.12c3.6-.79,4.35,5,.24,4.71-2.74-.2-2.75-4.16-.24-4.71Z"/>
    <path class="cls-6" d="M246.74,269.55h-4.45c-.35-4.53,5.06-4.83,4.45,0Z"/>
    <path class="cls-3" d="M367.09,150.54c3.7.62,5.08,6.02,1.92,8.15-.54.37-1.34.26-1.47.75,1.87,1.19,3.16,3.91,4.15,5.94h-4.75l-2.97-5.34v5.34h-4.15v-14.84c2.21.26,5.17-.35,7.27,0ZM363.97,156.47c3.55.67,3.57-3.34,0-2.67v2.67Z"/>
  </g>
</svg>