<?xml version="1.0" encoding="UTF-8"?>
<svg id="Layer_1" data-name="Layer 1" xmlns="http://www.w3.org/2000/svg" viewBox="0 0 200 200">
  <defs>
    <style>
      .cls-1 {
        fill: #9a5873;
      }

      .cls-2 {
        letter-spacing: -.02em;
      }

      .cls-3 {
        fill: #71a6d8;
      }

      .cls-4 {
        fill: #f1995e;
      }

      .cls-5 {
        fill: #bf6260;
      }

      .cls-6 {
        fill: #8e84be;
      }

      .cls-7 {
        fill: #011e41;
      }

      .cls-8 {
        font-family: Bahnschrift, Bahnschrift;
        font-size: 8.41px;
        font-variation-settings: 'wght' 400, 'wdth' 100;
      }

      .cls-9 {
        fill: #f6f06a;
      }

      .cls-10 {
        fill: #0d787c;
      }

      .cls-11 {
        fill: #2d9b68;
      }
    </style>
  </defs>
  <path class="cls-1" d="M138.69,20.24l-11.91,6.23s-10.15-3.65-24.62-3.84c-15.02-.19-30.29,5.12-30.29,5.12l6-12.55-12.47-6.31s13.98-6.38,36.21-6.39c18.38,0,31.01,5.03,31.01,5.03l6.07,12.71Z"/>
  <path class="cls-5" d="M184.17,70.73l-12.83-4.01s-4.6-9.76-14.7-20.12c-10.48-10.76-25.04-17.8-25.04-17.8l13.11-4.63-4.35-13.28s14.4,5.38,30.12,21.09c13,13,18.37,25.49,18.37,25.49l-4.69,13.28Z"/>
  <path class="cls-4" d="M180.85,138.57l-6.23-11.91s3.65-10.15,3.84-24.62-5.12-30.29-5.12-30.29l12.55,6,6.31-12.47s6.38,13.98,6.39,36.21c0,18.38-5.03,31.01-5.03,31.01l-12.71,6.07Z"/>
  <path class="cls-9" d="M130.18,184.21l4.01-12.83s9.76-4.6,20.12-14.7c10.76-10.48,17.8-25.04,17.8-25.04l4.63,13.11,13.28-4.35s-5.38,14.4-21.09,30.12c-13,13-25.49,18.37-25.49,18.37l-13.28-4.69Z"/>
  <path class="cls-11" d="M62.26,180.76l11.91-6.23s10.15,3.65,24.62,3.84c15.02.19,30.29-5.12,30.29-5.12l-6,12.55,12.47,6.31s-13.98,6.38-36.21,6.39c-18.38,0-31.01-5.03-31.01-5.03l-6.07-12.71Z"/>
  <path class="cls-10" d="M16.76,130.27l12.83,4.01s4.6,9.76,14.7,20.12c10.48,10.76,25.04,17.8,25.04,17.8l-13.11,4.63,4.35,13.28s-14.4-5.38-30.12-21.09c-13-13-18.37-25.49-18.37-25.49l4.69-13.28Z"/>
  <path class="cls-3" d="M20.15,62.4l6.23,11.91s-3.65,10.15-3.84,24.62c-.19,15.02,5.12,30.29,5.12,30.29l-12.55-6-6.31,12.47s-6.38-13.98-6.39-36.21c0-18.38,5.03-31.01,5.03-31.01l12.71-6.07Z"/>
  <path class="cls-6" d="M70.7,16.87l-4.01,12.83s-9.76,4.6-20.12,14.7c-10.76,10.48-17.8,25.04-17.8,25.04l-4.63-13.11-13.28,4.35s5.38-14.4,21.09-30.12c13-13,25.49-18.37,25.49-18.37l13.28,4.69Z"/>
  <g>
    <g>
      <path class="cls-7" d="M96.75,53.11v57.84h57.84v-57.84h-57.84ZM151.88,108.24h-52.42v-52.42h52.42v52.42Z"/>
      <circle class="cls-7" cx="76.37" cy="66.05" r="8.68"/>
      <path class="cls-7" d="M118.18,78.25h-36.24v-2.53h-10.72v2.53h-7.47s0,0,0,0l-16.65,26.08c-1.32,2.1-.68,4.88,1.41,6.22,2.09,1.34,4.89.75,6.25-1.33l9-14.09v21.62h0v40.46h10.49v-33.95h4.26v33.95h10.49v-40.46h.06v-29.42h29.13c2.5,0,4.52-2.05,4.52-4.54s-2.02-4.54-4.52-4.54Z"/>
    </g>
    <text class="cls-8" transform="translate(107.76 65.79)"><tspan x="0" y="0">0101011010</tspan></text>
    <text class="cls-8" transform="translate(108 73.66)"><tspan x="0" y="0">110101</tspan><tspan class="cls-2" x="20.48" y="0">0</tspan><tspan x="24.96" y="0">010</tspan></text>
    <path class="cls-7" d="M146.78,96.83c-2.56-6.51-4.69-7.1-4.76-10.63-.07-3.96,2.65-6.01,1.44-7.75-.81-1.16-2.75-.98-6.46-.97-4.15.01-6.65-.11-7.44,1.25-1.06,1.82,2.22,3.67,2.26,7.49.03,3.5-2.54,4.21-5.29,10.58-1.58,3.65-2.67,6.18-1.57,7.87.98,1.49,2.96,1.24,11.51,1.17,8.72-.07,10.77.17,11.75-1.38.96-1.52.15-3.58-1.44-7.63ZM133.63,90.44c.11,0,.2.09.2.2s-.09.2-.2.2-.2-.09-.2-.2.09-.2.2-.2ZM133.15,88.72c.07,0,.13.06.13.13s-.06.13-.13.13-.13-.06-.13-.13.06-.13.13-.13ZM133.16,92.46c.15,0,.27.12.27.27s-.12.27-.27.27-.27-.12-.27-.27.12-.27.27-.27ZM131.67,94.78c.22,0,.41.18.41.41s-.18.41-.41.41-.41-.18-.41-.41.18-.41.41-.41ZM147.73,104.02c-.94,1.45-2.9,1.23-11.26,1.29-8.19.06-10.09.3-11.03-1.1-1.05-1.58-.08-3.98,1.5-7.37l19.41.02c1.52,3.79,2.3,5.72,1.38,7.15Z"/>
  </g>
</svg>