<svg xmlns="http://www.w3.org/2000/svg" xmlns:xlink="http://www.w3.org/1999/xlink" width="500" zoomAndPan="magnify" viewBox="0 0 375 374.999991" height="500" preserveAspectRatio="xMidYMid meet" version="1.0"><defs><g/><clipPath id="be1665e83a"><path d="M 0 124.34375 L 375 124.34375 L 375 250.65625 L 0 250.65625 Z M 0 124.34375 " clip-rule="nonzero"/></clipPath><clipPath id="7d76f9323b"><path d="M 9 124.34375 L 366 124.34375 C 368.386719 124.34375 370.675781 125.292969 372.363281 126.980469 C 374.050781 128.667969 375 130.957031 375 133.34375 L 375 241.65625 C 375 244.042969 374.050781 246.332031 372.363281 248.019531 C 370.675781 249.707031 368.386719 250.65625 366 250.65625 L 9 250.65625 C 6.613281 250.65625 4.324219 249.707031 2.636719 248.019531 C 0.949219 246.332031 0 244.042969 0 241.65625 L 0 133.34375 C 0 130.957031 0.949219 128.667969 2.636719 126.980469 C 4.324219 125.292969 6.613281 124.34375 9 124.34375 Z M 9 124.34375 " clip-rule="nonzero"/></clipPath><clipPath id="76c5bfe57b"><path d="M 0 0.34375 L 375 0.34375 L 375 126.65625 L 0 126.65625 Z M 0 0.34375 " clip-rule="nonzero"/></clipPath><clipPath id="5a8b581da8"><path d="M 9 0.34375 L 366 0.34375 C 368.386719 0.34375 370.675781 1.292969 372.363281 2.980469 C 374.050781 4.667969 375 6.957031 375 9.34375 L 375 117.65625 C 375 120.042969 374.050781 122.332031 372.363281 124.019531 C 370.675781 125.707031 368.386719 126.65625 366 126.65625 L 9 126.65625 C 6.613281 126.65625 4.324219 125.707031 2.636719 124.019531 C 0.949219 122.332031 0 120.042969 0 117.65625 L 0 9.34375 C 0 6.957031 0.949219 4.667969 2.636719 2.980469 C 4.324219 1.292969 6.613281 0.34375 9 0.34375 Z M 9 0.34375 " clip-rule="nonzero"/></clipPath><clipPath id="6fb1969170"><rect x="0" width="375" y="0" height="127"/></clipPath><clipPath id="63152e43fc"><path d="M 23.246094 213.882812 L 59.976562 213.882812 L 59.976562 250.140625 L 23.246094 250.140625 Z M 23.246094 213.882812 " clip-rule="nonzero"/></clipPath><clipPath id="21e07b27a9"><path d="M 38.519531 248.242188 L 23.847656 219.878906 C 23.1875 218.605469 23.242188 217.078125 23.984375 215.855469 C 24.730469 214.628906 26.0625 213.882812 27.496094 213.882812 L 55.746094 213.882812 C 57.179688 213.882812 58.511719 214.628906 59.257812 215.855469 C 60.003906 217.078125 60.054688 218.605469 59.394531 219.878906 L 44.722656 248.242188 C 44.125 249.402344 42.925781 250.132812 41.621094 250.132812 C 40.316406 250.132812 39.121094 249.402344 38.519531 248.242188 Z M 38.519531 248.242188 " clip-rule="nonzero"/></clipPath><clipPath id="81ca4980a2"><path d="M 0.246094 0.882812 L 36.976562 0.882812 L 36.976562 37.140625 L 0.246094 37.140625 Z M 0.246094 0.882812 " clip-rule="nonzero"/></clipPath><clipPath id="b568c52014"><path d="M 15.519531 35.242188 L 0.847656 6.878906 C 0.1875 5.605469 0.242188 4.078125 0.984375 2.855469 C 1.730469 1.628906 3.0625 0.882812 4.496094 0.882812 L 32.746094 0.882812 C 34.179688 0.882812 35.511719 1.628906 36.257812 2.855469 C 37.003906 4.078125 37.054688 5.605469 36.394531 6.878906 L 21.722656 35.242188 C 21.125 36.402344 19.925781 37.132812 18.621094 37.132812 C 17.316406 37.132812 16.121094 36.402344 15.519531 35.242188 Z M 15.519531 35.242188 " clip-rule="nonzero"/></clipPath><clipPath id="ddf49ae1f0"><rect x="0" width="37" y="0" height="38"/></clipPath><clipPath id="43852cb1d7"><path d="M 12.570312 156.960938 L 70.578125 156.960938 L 70.578125 208.667969 L 12.570312 208.667969 Z M 12.570312 156.960938 " clip-rule="nonzero"/></clipPath><clipPath id="415224965b"><path d="M 38.273438 206.714844 L 13.1875 162.820312 C 12.496094 161.609375 12.5 160.117188 13.203125 158.910156 C 13.902344 157.703125 15.191406 156.960938 16.589844 156.960938 L 66.652344 156.960938 C 68.046875 156.960938 69.339844 157.703125 70.039062 158.910156 C 70.742188 160.117188 70.746094 161.609375 70.054688 162.820312 L 44.96875 206.714844 C 44.28125 207.917969 43.003906 208.660156 41.621094 208.660156 C 40.238281 208.660156 38.957031 207.917969 38.273438 206.714844 Z M 38.273438 206.714844 " clip-rule="nonzero"/></clipPath><clipPath id="8ebd56d270"><path d="M 0.570312 0.960938 L 58.578125 0.960938 L 58.578125 52.667969 L 0.570312 52.667969 Z M 0.570312 0.960938 " clip-rule="nonzero"/></clipPath><clipPath id="06003b1cf1"><path d="M 26.273438 50.714844 L 1.1875 6.820312 C 0.496094 5.609375 0.5 4.117188 1.203125 2.910156 C 1.902344 1.703125 3.191406 0.960938 4.589844 0.960938 L 54.652344 0.960938 C 56.046875 0.960938 57.339844 1.703125 58.039062 2.910156 C 58.742188 4.117188 58.746094 5.609375 58.054688 6.820312 L 32.96875 50.714844 C 32.28125 51.917969 31.003906 52.660156 29.621094 52.660156 C 28.238281 52.660156 26.957031 51.917969 26.273438 50.714844 Z M 26.273438 50.714844 " clip-rule="nonzero"/></clipPath><clipPath id="5c09c7c68c"><rect x="0" width="59" y="0" height="53"/></clipPath><clipPath id="4e0c84e69d"><path d="M 0 207.824219 L 375 207.824219 L 375 218.460938 L 0 218.460938 Z M 0 207.824219 " clip-rule="nonzero"/></clipPath><clipPath id="81218331a7"><path d="M 0 0.824219 L 375 0.824219 L 375 11.460938 L 0 11.460938 Z M 0 0.824219 " clip-rule="nonzero"/></clipPath><clipPath id="951fb20e54"><rect x="0" width="375" y="0" height="12"/></clipPath><clipPath id="3163b2efa1"><rect x="0" width="261" y="0" height="91"/></clipPath></defs><g clip-path="url(#be1665e83a)"><g clip-path="url(#7d76f9323b)"><g transform="matrix(1, 0, 0, 1, 0, 124)"><g clip-path="url(#6fb1969170)"><g clip-path="url(#76c5bfe57b)"><g clip-path="url(#5a8b581da8)"><path fill="#002169" d="M 0 0.34375 L 374.992188 0.34375 L 374.992188 126.65625 L 0 126.65625 Z M 0 0.34375 " fill-opacity="1" fill-rule="nonzero"/></g></g></g></g></g></g><g clip-path="url(#63152e43fc)"><g clip-path="url(#21e07b27a9)"><g transform="matrix(1, 0, 0, 1, 23, 213)"><g clip-path="url(#ddf49ae1f0)"><g clip-path="url(#81ca4980a2)"><g clip-path="url(#b568c52014)"><path fill="#936fff" d="M 39.496094 41.238281 L -2.277344 41.238281 L -2.277344 0.882812 L 39.496094 0.882812 Z M 39.496094 41.238281 " fill-opacity="1" fill-rule="nonzero"/></g></g></g></g></g></g><g clip-path="url(#43852cb1d7)"><g clip-path="url(#415224965b)"><g transform="matrix(1, 0, 0, 1, 12, 156)"><g clip-path="url(#5c09c7c68c)"><g clip-path="url(#8ebd56d270)"><g clip-path="url(#06003b1cf1)"><path fill="#936fff" d="M 61.402344 56.578125 L -2.253906 56.578125 L -2.253906 0.960938 L 61.402344 0.960938 Z M 61.402344 56.578125 " fill-opacity="1" fill-rule="nonzero"/></g></g></g></g></g></g><g clip-path="url(#4e0c84e69d)"><g transform="matrix(1, 0, 0, 1, 0, 207)"><g clip-path="url(#951fb20e54)"><g clip-path="url(#81218331a7)"><path fill="#936fff" d="M 0 0.824219 L 375.011719 0.824219 L 375.011719 11.460938 L 0 11.460938 Z M 0 0.824219 " fill-opacity="1" fill-rule="nonzero"/></g></g></g></g><g transform="matrix(1, 0, 0, 1, 86, 139)"><g clip-path="url(#3163b2efa1)"><g fill="#ffffff" fill-opacity="1"><g transform="translate(1.89577, 68.552723)"><g><path d="M 50.769531 0 L 31.804688 -49.222656 L 18.671875 -49.222656 L -0.367188 0 L 11.144531 0 L 14.242188 -8.488281 L 36.234375 -8.488281 L 39.332031 0 Z M 33.355469 -17.5625 L 17.046875 -17.5625 L 25.238281 -40.144531 Z M 33.355469 -17.5625 "/></g></g></g><g fill="#ffffff" fill-opacity="1"><g transform="translate(52.365139, 68.552723)"><g><path d="M 15.347656 0 L 15.347656 -20.515625 L 39.183594 -20.515625 L 39.183594 -29.519531 L 15.347656 -29.519531 L 15.347656 -40.21875 L 39.703125 -40.21875 L 39.703125 -49.222656 L 4.871094 -49.222656 L 4.871094 0 Z M 15.347656 0 "/></g></g></g><g fill="#ffffff" fill-opacity="1"><g transform="translate(94.496741, 68.552723)"><g><path d="M 58.222656 0 L 58.222656 -49.222656 L 43.464844 -49.222656 L 31.511719 -18.523438 L 19.554688 -49.222656 L 4.871094 -49.222656 L 4.871094 0 L 15.347656 0 L 15.347656 -35.421875 L 29.222656 0 L 33.796875 0 L 47.671875 -35.421875 L 47.671875 0 Z M 58.222656 0 "/></g></g></g><g fill="#ffffff" fill-opacity="1"><g transform="translate(157.583466, 68.552723)"><g><path d="M 24.277344 0 C 39.703125 0 50.402344 -9.742188 50.402344 -24.574219 C 50.402344 -39.40625 39.703125 -49.222656 24.277344 -49.222656 L 4.871094 -49.222656 L 4.871094 0 Z M 15.347656 -39.996094 L 24.277344 -39.996094 C 34.386719 -39.996094 39.703125 -33.28125 39.703125 -24.574219 C 39.703125 -16.234375 34.019531 -9.222656 24.277344 -9.222656 L 15.347656 -9.222656 Z M 15.347656 -39.996094 "/></g></g></g><g fill="#ffffff" fill-opacity="1"><g transform="translate(210.561547, 68.552723)"><g><path d="M 31.585938 0 C 40.957031 0 45.898438 -5.902344 45.898438 -13.28125 C 45.898438 -19.480469 41.695312 -24.574219 36.453125 -25.386719 C 41.105469 -26.34375 44.941406 -30.476562 44.941406 -36.675781 C 44.941406 -43.242188 40.144531 -49.222656 30.773438 -49.222656 L 4.871094 -49.222656 L 4.871094 0 Z M 15.347656 -40.292969 L 28.484375 -40.292969 C 32.027344 -40.292969 34.242188 -37.929688 34.242188 -34.90625 C 34.242188 -31.730469 32.027344 -29.445312 28.484375 -29.445312 L 15.347656 -29.445312 Z M 15.347656 -20.515625 L 28.855469 -20.515625 C 32.984375 -20.515625 35.199219 -17.859375 35.199219 -14.757812 C 35.199219 -11.214844 32.839844 -8.929688 28.855469 -8.929688 L 15.347656 -8.929688 Z M 15.347656 -20.515625 "/></g></g></g></g></g></svg>