<svg xmlns="http://www.w3.org/2000/svg" xmlns:xlink="http://www.w3.org/1999/xlink" width="500" zoomAndPan="magnify" viewBox="0 0 375 374.999991" height="500" preserveAspectRatio="xMidYMid meet" version="1.0"><defs><g/><clipPath id="5a1253a5fd"><path d="M 10.023438 145.296875 L 151.484375 145.296875 L 151.484375 270.417969 L 10.023438 270.417969 Z M 10.023438 145.296875 " clip-rule="nonzero"/></clipPath><clipPath id="0a2678e91d"><path d="M 85.480469 148.144531 L 150.515625 261.953125 C 151.515625 263.703125 151.507812 265.855469 150.496094 267.597656 C 149.484375 269.34375 147.621094 270.417969 145.601562 270.417969 L 15.6875 270.417969 C 13.671875 270.417969 11.804688 269.34375 10.792969 267.597656 C 9.78125 265.855469 9.773438 263.703125 10.773438 261.953125 L 75.808594 148.144531 C 76.800781 146.410156 78.644531 145.339844 80.644531 145.339844 C 82.644531 145.339844 84.492188 146.410156 85.480469 148.144531 Z M 85.480469 148.144531 " clip-rule="nonzero"/></clipPath><clipPath id="79faaaf487"><path d="M 0.0234375 0.320312 L 141.484375 0.320312 L 141.484375 125.417969 L 0.0234375 125.417969 Z M 0.0234375 0.320312 " clip-rule="nonzero"/></clipPath><clipPath id="149852ae68"><path d="M 75.480469 3.144531 L 140.515625 116.953125 C 141.515625 118.703125 141.507812 120.855469 140.496094 122.597656 C 139.484375 124.34375 137.621094 125.417969 135.601562 125.417969 L 5.6875 125.417969 C 3.671875 125.417969 1.804688 124.34375 0.792969 122.597656 C -0.21875 120.855469 -0.226562 118.703125 0.773438 116.953125 L 65.808594 3.144531 C 66.800781 1.410156 68.644531 0.339844 70.644531 0.339844 C 72.644531 0.339844 74.492188 1.410156 75.480469 3.144531 Z M 75.480469 3.144531 " clip-rule="nonzero"/></clipPath><clipPath id="a08636bd50"><rect x="0" width="142" y="0" height="126"/></clipPath><clipPath id="591e4a1fbd"><path d="M 76.863281 108.210938 L 262.914062 108.210938 L 262.914062 272.410156 L 76.863281 272.410156 Z M 76.863281 108.210938 " clip-rule="nonzero"/></clipPath><clipPath id="d4490523c6"><path d="M 174.582031 111.378906 L 261.765625 263.945312 C 262.765625 265.695312 262.757812 267.847656 261.746094 269.589844 C 260.734375 271.335938 258.867188 272.410156 256.851562 272.410156 L 82.640625 272.410156 C 80.625 272.410156 78.757812 271.335938 77.746094 269.589844 C 76.734375 267.847656 76.726562 265.695312 77.726562 263.945312 L 164.910156 111.378906 C 165.902344 109.644531 167.746094 108.570312 169.746094 108.570312 C 171.746094 108.570312 173.589844 109.644531 174.582031 111.378906 Z M 174.582031 111.378906 " clip-rule="nonzero"/></clipPath><clipPath id="0a35589e16"><path d="M 0.863281 0.359375 L 186.878906 0.359375 L 186.878906 164.410156 L 0.863281 164.410156 Z M 0.863281 0.359375 " clip-rule="nonzero"/></clipPath><clipPath id="5603d22a8d"><path d="M 98.582031 3.378906 L 185.765625 155.945312 C 186.765625 157.695312 186.757812 159.847656 185.746094 161.589844 C 184.734375 163.335938 182.867188 164.410156 180.851562 164.410156 L 6.640625 164.410156 C 4.625 164.410156 2.757812 163.335938 1.746094 161.589844 C 0.734375 159.847656 0.726562 157.695312 1.726562 155.945312 L 88.910156 3.378906 C 89.902344 1.644531 91.746094 0.570312 93.746094 0.570312 C 95.746094 0.570312 97.589844 1.644531 98.582031 3.378906 Z M 98.582031 3.378906 " clip-rule="nonzero"/></clipPath><clipPath id="8f232298e3"><rect x="0" width="187" y="0" height="165"/></clipPath><clipPath id="3cef6b39e1"><path d="M 0.558594 261 L 353.601562 261 L 353.601562 357 L 0.558594 357 Z M 0.558594 261 " clip-rule="nonzero"/></clipPath><clipPath id="41b4896723"><rect x="0" width="354" y="0" height="96"/></clipPath><clipPath id="2045f966fb"><path d="M 84.617188 106.21875 L 270.667969 106.21875 L 270.667969 270.417969 L 84.617188 270.417969 Z M 84.617188 106.21875 " clip-rule="nonzero"/></clipPath><clipPath id="aa51985406"><path d="M 182.335938 109.386719 L 269.519531 261.953125 C 270.519531 263.703125 270.511719 265.855469 269.5 267.597656 C 268.488281 269.34375 266.621094 270.417969 264.605469 270.417969 L 90.394531 270.417969 C 88.378906 270.417969 86.511719 269.34375 85.5 267.597656 C 84.488281 265.855469 84.480469 263.703125 85.480469 261.953125 L 172.664062 109.386719 C 173.65625 107.652344 175.5 106.578125 177.5 106.578125 C 179.5 106.578125 181.34375 107.652344 182.335938 109.386719 Z M 182.335938 109.386719 " clip-rule="nonzero"/></clipPath><clipPath id="b7d980ba3a"><path d="M 0.617188 0.441406 L 186.558594 0.441406 L 186.558594 164.417969 L 0.617188 164.417969 Z M 0.617188 0.441406 " clip-rule="nonzero"/></clipPath><clipPath id="849f4852d9"><path d="M 98.335938 3.386719 L 185.519531 155.953125 C 186.519531 157.703125 186.511719 159.855469 185.5 161.597656 C 184.488281 163.34375 182.621094 164.417969 180.605469 164.417969 L 6.394531 164.417969 C 4.378906 164.417969 2.511719 163.34375 1.5 161.597656 C 0.488281 159.855469 0.480469 157.703125 1.480469 155.953125 L 88.664062 3.386719 C 89.65625 1.652344 91.5 0.578125 93.5 0.578125 C 95.5 0.578125 97.34375 1.652344 98.335938 3.386719 Z M 98.335938 3.386719 " clip-rule="nonzero"/></clipPath><clipPath id="fa472bc892"><rect x="0" width="187" y="0" height="165"/></clipPath><clipPath id="a7b880016f"><path d="M 188.460938 147.289062 L 329.921875 147.289062 L 329.921875 272.410156 L 188.460938 272.410156 Z M 188.460938 147.289062 " clip-rule="nonzero"/></clipPath><clipPath id="fc281aa2fc"><path d="M 263.917969 150.136719 L 328.949219 263.945312 C 329.953125 265.695312 329.945312 267.847656 328.933594 269.589844 C 327.917969 271.335938 326.054688 272.410156 324.039062 272.410156 L 194.125 272.410156 C 192.105469 272.410156 190.242188 271.335938 189.230469 269.589844 C 188.21875 267.847656 188.210938 265.695312 189.210938 263.945312 L 254.242188 150.136719 C 255.234375 148.402344 257.082031 147.332031 259.082031 147.332031 C 261.082031 147.332031 262.925781 148.402344 263.917969 150.136719 Z M 263.917969 150.136719 " clip-rule="nonzero"/></clipPath><clipPath id="2afc32c397"><path d="M 0.460938 0.289062 L 141.921875 0.289062 L 141.921875 125.410156 L 0.460938 125.410156 Z M 0.460938 0.289062 " clip-rule="nonzero"/></clipPath><clipPath id="ac348bfd6e"><path d="M 75.917969 3.136719 L 140.949219 116.945312 C 141.953125 118.695312 141.945312 120.847656 140.933594 122.589844 C 139.917969 124.335938 138.054688 125.410156 136.039062 125.410156 L 6.125 125.410156 C 4.105469 125.410156 2.242188 124.335938 1.230469 122.589844 C 0.21875 120.847656 0.210938 118.695312 1.210938 116.945312 L 66.242188 3.136719 C 67.234375 1.402344 69.082031 0.332031 71.082031 0.332031 C 73.082031 0.332031 74.925781 1.402344 75.917969 3.136719 Z M 75.917969 3.136719 " clip-rule="nonzero"/></clipPath><clipPath id="c7b5362634"><rect x="0" width="142" y="0" height="126"/></clipPath><clipPath id="80dbf1b1bd"><path d="M 195.980469 145.296875 L 337.441406 145.296875 L 337.441406 270.417969 L 195.980469 270.417969 Z M 195.980469 145.296875 " clip-rule="nonzero"/></clipPath><clipPath id="3e1d0c98bb"><path d="M 271.4375 148.144531 L 336.472656 261.953125 C 337.472656 263.703125 337.464844 265.855469 336.453125 267.597656 C 335.441406 269.34375 333.574219 270.417969 331.558594 270.417969 L 201.644531 270.417969 C 199.628906 270.417969 197.761719 269.34375 196.75 267.597656 C 195.738281 265.855469 195.730469 263.703125 196.730469 261.953125 L 261.765625 148.144531 C 262.757812 146.410156 264.601562 145.339844 266.601562 145.339844 C 268.601562 145.339844 270.445312 146.410156 271.4375 148.144531 Z M 271.4375 148.144531 " clip-rule="nonzero"/></clipPath><clipPath id="242c026324"><path d="M 0.980469 0.320312 L 142.441406 0.320312 L 142.441406 125.417969 L 0.980469 125.417969 Z M 0.980469 0.320312 " clip-rule="nonzero"/></clipPath><clipPath id="6f3e29f983"><path d="M 76.4375 3.144531 L 141.472656 116.953125 C 142.472656 118.703125 142.464844 120.855469 141.453125 122.597656 C 140.441406 124.34375 138.574219 125.417969 136.558594 125.417969 L 6.644531 125.417969 C 4.628906 125.417969 2.761719 124.34375 1.75 122.597656 C 0.738281 120.855469 0.730469 118.703125 1.730469 116.953125 L 66.765625 3.144531 C 67.757812 1.410156 69.601562 0.339844 71.601562 0.339844 C 73.601562 0.339844 75.445312 1.410156 76.4375 3.144531 Z M 76.4375 3.144531 " clip-rule="nonzero"/></clipPath><clipPath id="abca6d1d69"><rect x="0" width="143" y="0" height="126"/></clipPath><clipPath id="5ce15ee33e"><path d="M 225 0.601562 L 235 0.601562 L 235 98 L 225 98 Z M 225 0.601562 " clip-rule="nonzero"/></clipPath><clipPath id="d4feee1bfc"><path d="M 125 0.601562 L 280 0.601562 L 280 145 L 125 145 Z M 125 0.601562 " clip-rule="nonzero"/></clipPath><clipPath id="4316ee44bd"><path d="M 197 118.199219 L 269.410156 118.199219 L 269.410156 182.230469 L 197 182.230469 Z M 197 118.199219 " clip-rule="nonzero"/></clipPath><clipPath id="9cdb8cd712"><path d="M 230.261719 180.445312 L 197.667969 123.410156 C 197.054688 122.332031 197.058594 121.007812 197.679688 119.933594 C 198.304688 118.863281 199.449219 118.199219 200.691406 118.199219 L 265.78125 118.199219 C 267.023438 118.199219 268.171875 118.863281 268.792969 119.933594 C 269.417969 121.007812 269.421875 122.332031 268.804688 123.410156 L 236.214844 180.445312 C 235.601562 181.511719 234.46875 182.171875 233.238281 182.171875 C 232.007812 182.171875 230.871094 181.511719 230.261719 180.445312 Z M 230.261719 180.445312 " clip-rule="nonzero"/></clipPath><clipPath id="f78d013917"><path d="M 0 0.199219 L 72.410156 0.199219 L 72.410156 64.230469 L 0 64.230469 Z M 0 0.199219 " clip-rule="nonzero"/></clipPath><clipPath id="d50828bdd2"><path d="M 33.261719 62.445312 L 0.667969 5.410156 C 0.0546875 4.332031 0.0585938 3.007812 0.679688 1.933594 C 1.304688 0.863281 2.449219 0.199219 3.691406 0.199219 L 68.78125 0.199219 C 70.023438 0.199219 71.171875 0.863281 71.792969 1.933594 C 72.417969 3.007812 72.421875 4.332031 71.804688 5.410156 L 39.214844 62.445312 C 38.601562 63.511719 37.46875 64.171875 36.238281 64.171875 C 35.007812 64.171875 33.871094 63.511719 33.261719 62.445312 Z M 33.261719 62.445312 " clip-rule="nonzero"/></clipPath><clipPath id="d825aea974"><rect x="0" width="73" y="0" height="65"/></clipPath><clipPath id="c7a5cc3765"><path d="M 196 44 L 341 44 L 341 152 L 196 152 Z M 196 44 " clip-rule="nonzero"/></clipPath><clipPath id="3c1dce5583"><path d="M 194.695312 120.335938 L 322.011719 42.039062 L 342.589844 75.5 L 215.273438 153.800781 Z M 194.695312 120.335938 " clip-rule="nonzero"/></clipPath><clipPath id="c4d1f2b2ff"><path d="M 199.804688 117.195312 L 316.855469 45.207031 C 319.679688 43.472656 323.375 44.355469 325.109375 47.175781 L 339.402344 70.417969 C 341.140625 73.242188 340.257812 76.9375 337.433594 78.671875 L 220.382812 150.65625 C 217.5625 152.394531 213.867188 151.511719 212.128906 148.6875 L 197.835938 125.449219 C 196.101562 122.625 196.980469 118.929688 199.804688 117.195312 Z M 199.804688 117.195312 " clip-rule="nonzero"/></clipPath><clipPath id="d82187b731"><path d="M 0 0 L 145 0 L 145 108 L 0 108 Z M 0 0 " clip-rule="nonzero"/></clipPath><clipPath id="baa6894296"><path d="M -1.304688 76.335938 L 126.011719 -1.960938 L 146.589844 31.5 L 19.273438 109.800781 Z M -1.304688 76.335938 " clip-rule="nonzero"/></clipPath><clipPath id="d6202c580b"><path d="M 3.804688 73.195312 L 120.855469 1.207031 C 123.679688 -0.527344 127.375 0.355469 129.109375 3.175781 L 143.402344 26.417969 C 145.140625 29.242188 144.257812 32.9375 141.433594 34.671875 L 24.382812 106.65625 C 21.5625 108.394531 17.867188 107.511719 16.128906 104.6875 L 1.835938 81.449219 C 0.101562 78.625 0.980469 74.929688 3.804688 73.195312 Z M 3.804688 73.195312 " clip-rule="nonzero"/></clipPath><clipPath id="a6dabb7ded"><rect x="0" width="145" y="0" height="108"/></clipPath><clipPath id="7e81fc4994"><path d="M 240 107 L 274 107 L 274 154 L 240 154 Z M 240 107 " clip-rule="nonzero"/></clipPath><clipPath id="be6040d614"><path d="M 238.105469 148.820312 L 264.070312 104.808594 L 276.03125 111.867188 L 250.0625 155.878906 Z M 238.105469 148.820312 " clip-rule="nonzero"/></clipPath><clipPath id="ddbc8f5709"><path d="M 241.152344 143.65625 L 261.003906 110.011719 C 262.6875 107.15625 266.363281 106.210938 269.21875 107.894531 L 270.84375 108.851562 C 273.699219 110.535156 274.648438 114.214844 272.964844 117.070312 L 253.113281 150.710938 C 251.429688 153.566406 247.75 154.515625 244.898438 152.832031 L 243.269531 151.871094 C 240.417969 150.1875 239.46875 146.507812 241.152344 143.65625 Z M 241.152344 143.65625 " clip-rule="nonzero"/></clipPath><clipPath id="2432125f14"><path d="M 0 0 L 34 0 L 34 47 L 0 47 Z M 0 0 " clip-rule="nonzero"/></clipPath><clipPath id="c41404c675"><path d="M -1.894531 41.820312 L 24.070312 -2.191406 L 36.03125 4.867188 L 10.0625 48.878906 Z M -1.894531 41.820312 " clip-rule="nonzero"/></clipPath><clipPath id="a6e4284280"><path d="M 1.152344 36.65625 L 21.003906 3.011719 C 22.6875 0.15625 26.363281 -0.789062 29.21875 0.894531 L 30.84375 1.851562 C 33.699219 3.535156 34.648438 7.214844 32.964844 10.070312 L 13.113281 43.710938 C 11.429688 46.566406 7.75 47.515625 4.898438 45.832031 L 3.269531 44.871094 C 0.417969 43.1875 -0.53125 39.507812 1.152344 36.65625 Z M 1.152344 36.65625 " clip-rule="nonzero"/></clipPath><clipPath id="d5f9d517d4"><rect x="0" width="34" y="0" height="47"/></clipPath><clipPath id="3da36f0689"><rect x="0" width="354" y="0" height="357"/></clipPath></defs><g transform="matrix(1, 0, 0, 1, 10, 9)"><g clip-path="url(#3da36f0689)"><g clip-path="url(#5a1253a5fd)"><g clip-path="url(#0a2678e91d)"><g transform="matrix(1, 0, 0, 1, 10, 145)"><g clip-path="url(#a08636bd50)"><g clip-path="url(#79faaaf487)"><g clip-path="url(#149852ae68)"><path fill="#002169" d="M -4.0625 -5.320312 L 145.570312 -5.320312 L 145.570312 125.417969 L -4.0625 125.417969 Z M -4.0625 -5.320312 " fill-opacity="1" fill-rule="nonzero"/></g></g></g></g></g></g><g clip-path="url(#591e4a1fbd)"><g clip-path="url(#d4490523c6)"><g transform="matrix(1, 0, 0, 1, 76, 108)"><g clip-path="url(#8f232298e3)"><g clip-path="url(#0a35589e16)"><g clip-path="url(#5603d22a8d)"><path fill="#ffffff" d="M -3.109375 -5.085938 L 190.886719 -5.085938 L 190.886719 164.410156 L -3.109375 164.410156 Z M -3.109375 -5.085938 " fill-opacity="1" fill-rule="nonzero"/></g></g></g></g></g></g><g clip-path="url(#3cef6b39e1)"><g transform="matrix(1, 0, 0, 1, 0, 261)"><g clip-path="url(#41b4896723)"><g fill="#002169" fill-opacity="1"><g transform="translate(1.56415, 72.467174)"><g><path d="M 28.375 0 L 28.375 -42.363281 L 43.539062 -42.363281 L 43.539062 -52.136719 L 1.953125 -52.136719 L 1.953125 -42.363281 L 17.195312 -42.363281 L 17.195312 0 Z M 28.375 0 "/></g></g></g><g fill="#002169" fill-opacity="1"><g transform="translate(39.390059, 72.467174)"><g><path d="M 22.433594 0.9375 C 34.9375 0.9375 42.441406 -8.128906 42.441406 -18.914062 C 42.441406 -29.625 34.9375 -38.691406 22.433594 -38.691406 C 10.003906 -38.691406 2.5 -29.625 2.5 -18.914062 C 2.5 -8.128906 10.003906 0.9375 22.433594 0.9375 Z M 22.433594 -7.894531 C 16.257812 -7.894531 12.820312 -12.976562 12.820312 -18.914062 C 12.820312 -24.777344 16.257812 -29.859375 22.433594 -29.859375 C 28.609375 -29.859375 32.125 -24.777344 32.125 -18.914062 C 32.125 -12.976562 28.609375 -7.894531 22.433594 -7.894531 Z M 22.433594 -7.894531 "/></g></g></g><g fill="#002169" fill-opacity="1"><g transform="translate(84.250822, 72.467174)"><g><path d="M 14.851562 -4.847656 C 17.898438 -0.9375 22.042969 0.9375 26.496094 0.9375 C 36.191406 0.9375 43.226562 -6.332031 43.226562 -18.914062 C 43.226562 -31.5 36.191406 -38.691406 26.496094 -38.691406 C 21.886719 -38.691406 17.742188 -36.660156 14.851562 -32.984375 L 14.851562 -37.753906 L 4.925781 -37.753906 L 4.925781 14.382812 L 14.851562 14.382812 Z M 32.90625 -18.914062 C 32.90625 -12.351562 29.078125 -7.894531 23.371094 -7.894531 C 20.167969 -7.894531 16.492188 -9.847656 14.851562 -12.195312 L 14.851562 -25.558594 C 16.492188 -27.984375 20.167969 -29.859375 23.371094 -29.859375 C 29.078125 -29.859375 32.90625 -25.402344 32.90625 -18.914062 Z M 32.90625 -18.914062 "/></g></g></g><g fill="#002169" fill-opacity="1"><g transform="translate(129.971278, 72.467174)"><g><path d="M 22.433594 0.9375 C 34.9375 0.9375 42.441406 -8.128906 42.441406 -18.914062 C 42.441406 -29.625 34.9375 -38.691406 22.433594 -38.691406 C 10.003906 -38.691406 2.5 -29.625 2.5 -18.914062 C 2.5 -8.128906 10.003906 0.9375 22.433594 0.9375 Z M 22.433594 -7.894531 C 16.257812 -7.894531 12.820312 -12.976562 12.820312 -18.914062 C 12.820312 -24.777344 16.257812 -29.859375 22.433594 -29.859375 C 28.609375 -29.859375 32.125 -24.777344 32.125 -18.914062 C 32.125 -12.976562 28.609375 -7.894531 22.433594 -7.894531 Z M 22.433594 -7.894531 "/></g></g></g><g fill="#002169" fill-opacity="1"><g transform="translate(174.832041, 72.467174)"><g><path d="M 1.5625 -7.347656 C 6.488281 -2.421875 13.679688 0.9375 23.683594 0.9375 C 37.753906 0.9375 44.554688 -6.253906 44.554688 -15.789062 C 44.554688 -27.359375 33.609375 -29.9375 25.011719 -31.890625 C 18.992188 -33.296875 14.617188 -34.390625 14.617188 -37.910156 C 14.617188 -41.035156 17.273438 -43.226562 22.277344 -43.226562 C 27.359375 -43.226562 32.984375 -41.425781 37.207031 -37.519531 L 43.382812 -45.648438 C 38.222656 -50.414062 31.34375 -52.917969 23.058594 -52.917969 C 10.785156 -52.917969 3.28125 -45.882812 3.28125 -37.207031 C 3.28125 -25.558594 14.226562 -23.214844 22.746094 -21.261719 C 28.765625 -19.855469 33.296875 -18.523438 33.296875 -14.617188 C 33.296875 -11.644531 30.328125 -8.753906 24.230469 -8.753906 C 17.039062 -8.753906 11.332031 -11.960938 7.660156 -15.789062 Z M 1.5625 -7.347656 "/></g></g></g><g fill="#002169" fill-opacity="1"><g transform="translate(220.865025, 72.467174)"><g><path d="M 17.585938 0.9375 C 21.730469 0.9375 24.386719 -0.15625 25.871094 -1.484375 L 23.761719 -8.988281 C 23.214844 -8.441406 21.808594 -7.894531 20.324219 -7.894531 C 18.132812 -7.894531 16.882812 -9.691406 16.882812 -12.039062 L 16.882812 -29.078125 L 24.542969 -29.078125 L 24.542969 -37.753906 L 16.882812 -37.753906 L 16.882812 -48.070312 L 6.878906 -48.070312 L 6.878906 -37.753906 L 0.625 -37.753906 L 0.625 -29.078125 L 6.878906 -29.078125 L 6.878906 -9.378906 C 6.878906 -2.65625 10.628906 0.9375 17.585938 0.9375 Z M 17.585938 0.9375 "/></g></g></g><g fill="#002169" fill-opacity="1"><g transform="translate(247.2813, 72.467174)"><g><path d="M 37.519531 0 L 37.519531 -24.386719 C 37.519531 -35.253906 29.625 -38.691406 21.027344 -38.691406 C 15.085938 -38.691406 9.144531 -36.816406 4.535156 -32.75 L 8.285156 -26.105469 C 11.488281 -29.078125 15.242188 -30.5625 19.304688 -30.5625 C 24.308594 -30.5625 27.59375 -28.0625 27.59375 -24.230469 L 27.59375 -18.992188 C 25.089844 -22.042969 20.636719 -23.605469 15.632812 -23.605469 C 9.613281 -23.605469 2.5 -20.402344 2.5 -11.566406 C 2.5 -3.125 9.613281 0.9375 15.632812 0.9375 C 20.558594 0.9375 25.011719 -0.859375 27.59375 -3.910156 L 27.59375 0 Z M 27.59375 -9.066406 C 25.949219 -6.878906 22.824219 -5.785156 19.621094 -5.785156 C 15.710938 -5.785156 12.507812 -7.816406 12.507812 -11.332031 C 12.507812 -14.929688 15.710938 -17.039062 19.621094 -17.039062 C 22.824219 -17.039062 25.949219 -15.945312 27.59375 -13.757812 Z M 27.59375 -9.066406 "/></g></g></g><g fill="#002169" fill-opacity="1"><g transform="translate(289.719268, 72.467174)"><g><path d="M 17.585938 0.9375 C 21.730469 0.9375 24.386719 -0.15625 25.871094 -1.484375 L 23.761719 -8.988281 C 23.214844 -8.441406 21.808594 -7.894531 20.324219 -7.894531 C 18.132812 -7.894531 16.882812 -9.691406 16.882812 -12.039062 L 16.882812 -29.078125 L 24.542969 -29.078125 L 24.542969 -37.753906 L 16.882812 -37.753906 L 16.882812 -48.070312 L 6.878906 -48.070312 L 6.878906 -37.753906 L 0.625 -37.753906 L 0.625 -29.078125 L 6.878906 -29.078125 L 6.878906 -9.378906 C 6.878906 -2.65625 10.628906 0.9375 17.585938 0.9375 Z M 17.585938 0.9375 "/></g></g></g><g fill="#002169" fill-opacity="1"><g transform="translate(316.135543, 72.467174)"><g><path d="M 1.640625 -4.925781 C 5.628906 -1.25 11.960938 0.9375 18.523438 0.9375 C 29 0.9375 34.859375 -4.222656 34.859375 -11.175781 C 34.859375 -20.558594 26.183594 -22.277344 19.699219 -23.527344 C 15.476562 -24.386719 12.507812 -25.246094 12.507812 -27.59375 C 12.507812 -29.78125 14.851562 -31.109375 18.445312 -31.109375 C 23.058594 -31.109375 27.359375 -29.15625 29.625 -26.730469 L 33.53125 -33.53125 C 29.859375 -36.503906 24.777344 -38.691406 18.367188 -38.691406 C 8.441406 -38.691406 2.890625 -33.140625 2.890625 -26.808594 C 2.890625 -17.820312 11.253906 -16.257812 17.742188 -15.007812 C 22.042969 -14.148438 25.324219 -13.210938 25.324219 -10.550781 C 25.324219 -8.207031 23.292969 -6.722656 18.992188 -6.722656 C 14.304688 -6.722656 8.675781 -9.300781 5.941406 -11.882812 Z M 1.640625 -4.925781 "/></g></g></g></g></g></g><g clip-path="url(#2045f966fb)"><g clip-path="url(#aa51985406)"><g transform="matrix(1, 0, 0, 1, 84, 106)"><g clip-path="url(#fa472bc892)"><g clip-path="url(#b7d980ba3a)"><g clip-path="url(#849f4852d9)"><path fill="#003c6c" d="M -3.355469 -5.078125 L 190.640625 -5.078125 L 190.640625 164.417969 L -3.355469 164.417969 Z M -3.355469 -5.078125 " fill-opacity="1" fill-rule="nonzero"/></g></g></g></g></g></g><g clip-path="url(#a7b880016f)"><g clip-path="url(#fc281aa2fc)"><g transform="matrix(1, 0, 0, 1, 188, 147)"><g clip-path="url(#c7b5362634)"><g clip-path="url(#2afc32c397)"><g clip-path="url(#ac348bfd6e)"><path fill="#ffffff" d="M -3.625 -5.328125 L 146.007812 -5.328125 L 146.007812 125.410156 L -3.625 125.410156 Z M -3.625 -5.328125 " fill-opacity="1" fill-rule="nonzero"/></g></g></g></g></g></g><g clip-path="url(#80dbf1b1bd)"><g clip-path="url(#3e1d0c98bb)"><g transform="matrix(1, 0, 0, 1, 195, 145)"><g clip-path="url(#abca6d1d69)"><g clip-path="url(#242c026324)"><g clip-path="url(#6f3e29f983)"><path fill="#936fff" d="M -3.105469 -5.320312 L 146.527344 -5.320312 L 146.527344 125.417969 L -3.105469 125.417969 Z M -3.105469 -5.320312 " fill-opacity="1" fill-rule="nonzero"/></g></g></g></g></g></g><g clip-path="url(#5ce15ee33e)"><path stroke-linecap="round" transform="matrix(0, 0.996098, -0.996098, 0, 234.097566, 0.756685)" fill="none" stroke-linejoin="miter" d="M 4.499153 4.501852 L 92.875274 4.501852 " stroke="#002169" stroke-width="9" stroke-opacity="1" stroke-miterlimit="4"/></g><g clip-path="url(#d4feee1bfc)"><path stroke-linecap="round" transform="matrix(0.529959, 0.843418, -0.843418, 0.529959, 177.336077, 3.445944)" fill="none" stroke-linejoin="miter" d="M 4.499175 4.49916 L 104.486794 4.500399 " stroke="#002169" stroke-width="9" stroke-opacity="1" stroke-miterlimit="4"/></g><g clip-path="url(#4316ee44bd)"><g clip-path="url(#9cdb8cd712)"><g transform="matrix(1, 0, 0, 1, 197, 118)"><g clip-path="url(#d825aea974)"><g clip-path="url(#f78d013917)"><g clip-path="url(#d50828bdd2)"><path fill="#002169" d="M 74.78125 67.65625 L -2.421875 67.65625 L -2.421875 0.199219 L 74.78125 0.199219 Z M 74.78125 67.65625 " fill-opacity="1" fill-rule="nonzero"/></g></g></g></g></g></g><g clip-path="url(#c7a5cc3765)"><g clip-path="url(#3c1dce5583)"><g clip-path="url(#c4d1f2b2ff)"><g transform="matrix(1, 0, 0, 1, 196, 44)"><g clip-path="url(#a6dabb7ded)"><g clip-path="url(#d82187b731)"><g clip-path="url(#baa6894296)"><g clip-path="url(#d6202c580b)"><path fill="#002169" d="M -1.304688 76.335938 L 126.011719 -1.960938 L 146.589844 31.5 L 19.273438 109.800781 Z M -1.304688 76.335938 " fill-opacity="1" fill-rule="nonzero"/></g></g></g></g></g></g></g></g><g clip-path="url(#7e81fc4994)"><g clip-path="url(#be6040d614)"><g clip-path="url(#ddbc8f5709)"><g transform="matrix(1, 0, 0, 1, 240, 107)"><g clip-path="url(#d5f9d517d4)"><g clip-path="url(#2432125f14)"><g clip-path="url(#c41404c675)"><g clip-path="url(#a6e4284280)"><path fill="#002169" d="M -1.894531 41.820312 L 24.042969 -2.144531 L 36.003906 4.914062 L 10.0625 48.878906 Z M -1.894531 41.820312 " fill-opacity="1" fill-rule="nonzero"/></g></g></g></g></g></g></g></g></g></g></svg>